<svg width="1200" height="160" xmlns="http://www.w3.org/2000/svg"><g fill="none" fill-rule="evenodd"><path d="M221.257 104.643c-11.722.164-60.087-2.569-85.791-2.287-10.97.12-46.537-3.546-45.441 22.707.83 19.921 20.776 21.966 30.05 21.711 13.079-.36 70.163 3.494 90.125 2.106 14.04-.975 45.674 3.948 42.917-27.054-1.66-18.67-22.251-17.318-31.86-17.183z" fill="#FFDA2E"/><path d="M754.087 147.305C735.012 151.726 673 155.047 673 121.391c0-13.292 36.964-14.679 49.733-17.276 21.624-4.397 33.793-10.514 48.444-27.098 9.153-10.36 16.672-27.635 35.311-23.346 13.986 3.219 20.932 18.34 17.75 31.525-3.57 14.788-19.414 50.35-70.151 62.11z" fill="#9CE0FF"/><path d="M424.79 68.072c16.18 7.125 55.35 17.32 58.81 1.711 2.454-11.074-8.864-16.286-16.965-19.132-6.022-2.117-18.605-9.149-25.094-21.448-10.663-20.213-30.448-21.022-39.075-14.467-16.018 12.17-10.988 38.67 22.323 53.336zm656.449-10.446c-8.248-6.43-22.274-3.273-27.36 5.29-5.71 9.611-1.257 22.842 7.635 29.096 8.796 6.186 23.447 5.633 28.132-5.28 3.885-9.048 1.16-24.67-8.407-29.106" fill="#B4E4AB"/></g></svg>