<svg width="275" height="74" xmlns="http://www.w3.org/2000/svg" style="background:#fff"><path d="M5.374 69.705s-.948-17.777.174-30.408C6.669 26.666 6.775 7.043 5.763 5m47.323 64.705s.948-17.777-.174-30.408C51.791 26.666 51.685 7.043 52.697 5M21.863 69.71s-1.296-13.082-.174-22.891c1.121-9.81-1.227-24.281-.215-25.819m62.389 48.71s-1.296-13.082-.174-22.891c1.121-9.81-1.227-24.281-.215-25.819M68.863 69.71s-1.296-13.082-.174-22.891c.567-4.964.246-11.121-.078-16.192M36.863 69.71s-1.296-16.037-.174-28.06c1.121-12.025-1.227-29.765-.215-31.65m61.9 59.705s-.948-17.777.174-30.408C99.669 26.666 99.775 7.043 98.763 5m47.323 64.705s.948-17.777-.174-30.408c-1.121-12.631-1.227-32.254-.215-34.297m-30.834 64.71s-1.296-13.082-.174-22.891c1.121-9.81-1.227-24.281-.215-25.819m63.389 48.71s-1.296-13.082-.174-22.891c1.121-9.81-1.227-24.281-.215-25.819m-15.611 48.71s-1.296-13.082-.174-22.891c.567-4.964.246-11.121-.078-16.192M130.863 69.71s-1.296-16.037-.174-28.06c1.121-12.025-1.227-29.765-.215-31.65m61.9 59.705s-.948-17.777.174-30.408c1.121-12.631 1.227-32.254.215-34.297m47.323 64.705s.948-17.777-.174-30.408c-1.121-12.631-1.227-32.254-.215-34.297m-30.834 64.71s-1.296-13.082-.174-22.891c1.121-9.81-1.227-24.281-.215-25.819m62.389 48.71s-1.296-13.082-.174-22.891c1.121-9.81-1.227-24.281-.215-25.819m-14.611 48.71s-1.296-13.082-.174-22.891c.567-4.964.246-11.121-.078-16.192M223.863 69.71s-1.296-16.037-.174-28.06c1.121-12.025-1.227-29.765-.215-31.65" stroke="#ECEEF0" stroke-width="6" fill="none" stroke-linecap="round" stroke-linejoin="round"/></svg>