<svg height="360" width="500" xmlns="http://www.w3.org/2000/svg"><linearGradient id="a" x1="96.644%" x2="0%" y1="0%" y2="0%"><stop offset="0" stop-color="#fff"/><stop offset="1" stop-color="#c3cfd3"/></linearGradient><linearGradient id="b" x1="50%" x2="50%" y1="0%" y2="100%"><stop offset="0" stop-color="#fff" stop-opacity="0"/><stop offset="1" stop-color="#fff"/></linearGradient><g fill="none" fill-rule="evenodd"><path d="M2.31 1.086c.33-.03 1.365.075 1.935.27 1.215.405 2.58.705 2.82 2.43.21 1.5-.45 2.235-.9 2.64-.18.165-.735.39-.75.645-.03.315.42.885.6 1.2.51.885.75 1.41 1.29 2.295.225.375.585.855.51 1.29-.105.555-1.005.795-1.53.525-.315-.15-.525-.69-.69-.975-.405-.75-.645-1.425-1.125-2.22-.255-.285-.345-.735-.69-.93-.33-.09-.915.195-1.05.45-.24.765-.09 2.445-.465 3.165-.165.315-.825.705-1.35.375-.54-.33-.225-1.305-.165-1.965.09-.945.18-2.07.21-3.15.015-1.095.06-2.085.09-2.985.03-.84-.075-1.965.165-2.475.18-.405.69-.555 1.095-.585zm1.77 4.83c.345-.225 1.14-.555 1.26-1.065.09-.45-.015-1.065-.465-1.455-.39-.33-1.665-.465-2.055-.345-.3.885-.165 2.625-.105 3.54.48.015.945-.375 1.365-.675zm6.585 3.735c.12.495.51.63 1.17.765 1.005.21 1.425-.6 1.995-.255.33.345.255.81 0 1.02-.765.555-2.235.75-3 .345-1.215-.495-1.605-.93-2.01-2.16-.285-1.29-.12-2.235.36-2.895.36-.675 1.035-1.26 1.635-1.44 1.47-.51 2.7-.075 3.345 1.44.105.18.315.78.315 1.05.03.405-.255.915-.66 1.05-.675.24-1.02.45-1.71.645-.465.135-1.08.315-1.44.435zm0-2.835c-.39.315-.45 1.11-.33 1.38.27.045 1.185-.255 1.71-.36.345-.075.78-.33.855-.585-.39-1.14-1.29-1.2-2.235-.435zm6.435 4.86c-.12.405-.105.96-.165 1.485-.075.765-.465 1.5-1.305 1.275-.54-.15-.345-.93-.33-1.575.03-1.125.075-2.01.12-3.06.09-1.305.285-2.97.555-4.245.27-.6 1.185-.72 1.8-.75 1.5.075 2.58.21 3.57 1.275.63.765.84 2.16.24 3.195-.36.645-1.215 1.44-2.01 1.83-.765.525-1.545.39-2.475.57zm2.985-3.015c.645-1.47-.6-2.475-2.01-2.355-.69.045-.63.18-.75.87-.165.99-.345 2.235-.285 3.03 1.26.045 2.595-.525 3.045-1.545zm5.19-3.99c2.175-.39 3.6.96 3.66 2.88.165 1.185-.525 2.34-1.515 3.06-.57.375-1.26.63-2.175.525-.765-.075-1.635-.555-2.07-1.005-.795-1.095-.63-2.82.03-3.795.345-.54.42-.705.99-1.155.36-.27.6-.435 1.08-.51zM24.27 8.556c.12.735.825 1.335 1.815 1.08.465-.135 1.11-.705 1.245-1.38.27-1.26-.63-2.385-1.68-2.19-.81.15-1.53 1.545-1.38 2.49zm8.115-3.885c.075-.015.855.03 1.155.15.6.24 1.185.615 1.245 1.14.045.39-.285.69-.435.78-.3.24-.99-.285-1.29-.42-.825-.225-1.305-.09-1.335.39-.03.42.75.81.885.915.615.48 1.56 1.11 1.53 2.22-.03.825-.51 1.455-1.095 1.845-.42.285-1.245.405-1.785.285-1.275-.285-1.485-.48-1.35-1.245.03-.135.21-.3.36-.36.81-.345 1.395.825 2.295-.405.09-.645-.93-1.17-1.35-1.47-.51-.375-1.14-.87-1.185-1.5-.03-.39.045-1.05.255-1.32.54-.66 1.29-.915 2.1-1.005zm4.725-1.77c.525-.105.945.165.96.705.015.915-1.59 1.17-1.68.27-.045-.45.315-.885.72-.975zm-.135 2.55c.21-.03.72.135.795.525.045.195-.09.57-.18.96-.165.855-.315 1.71-.36 2.67-.03.54.015 1.38-.135 1.695-.21.42-1.14.72-1.5.345-.255-.255-.12-.855-.045-1.44.12-1.035.255-2.115.375-3.105.105-.765.33-1.59 1.05-1.65zm5.46-.615c.36.345 2.13-.33 2.28.375.09.405-.09.84-.405 1.005-.465.24-1.695.135-1.965.375-.285.24-.39 1.935-.435 2.295-.03.3-.18 1.455-.225 1.755-.105.51-.195 2.175-.945 2.28-.33.045-.81-.09-.915-.3-.09-.24.24-1.53.27-1.77.045-.27.225-1.41.24-1.68.09-.57.105-1.26.165-2.13-.33-.39-1.38.075-1.815-.135-.315-.165-.42-.63-.345-.885.045-.285.3-.585.6-.705.315-.075 1.35-.06 1.59-.225.255-.18.33-1.08.39-1.425.135-.87.015-1.86 1.2-1.92.75-.045.66.345.525.87-.105.795-.375 1.2-.21 2.22zm5.46-.165c2.175-.39 3.6.96 3.66 2.88.165 1.185-.525 2.34-1.515 3.06-.57.375-1.26.63-2.175.525-.765-.075-1.635-.555-2.07-1.005-.795-1.095-.63-2.82.03-3.795.345-.54.42-.705.99-1.155.36-.27.6-.435 1.08-.51zM46.89 8.556c.12.735.825 1.335 1.815 1.08.465-.135 1.11-.705 1.245-1.38.27-1.26-.63-2.385-1.68-2.19-.81.15-1.53 1.545-1.38 2.49zm7.41-3.87c.165.51.075.945.045 1.44.375.12.885-.36 1.26-.51.405-.15 1.02-.39 1.56-.315.315.03.675.225.735.51.09.6-.465.945-.765 1.02-.315.075-.96.24-1.215.33-.615.18-1.635.87-1.635 1.125-.045.705-.03 2.4-.21 3.03-.15.51-.435.54-1.005.51-.225-.015-.54-.195-.615-.375-.06-.18 0-.525.045-.84.105-1.23.15-3.255.285-4.47.135-1.11.105-1.65.915-1.68a.77.77 0 01.6.225zm7.515 4.995c.285-.48 1.02-3.855 1.575-4.515.24-.3.885-.51 1.17.15.3.645-1.14 5.01-2.25 7.005-.42.72-.615 1.395-1.14 1.995-.195.225-1.14 1.56-2.04.9-.795-.57.405-1.29.66-1.59.48-.54.9-1.365 1.065-2.085.045-.465-.42-.87-.63-1.32-.45-.975-.945-1.575-1.305-2.64-.18-.48-.51-1.095-.435-1.635.09-.69.705-1.155 1.32-.825.24.135.33.615.45 1.065.36 1.11.885 2.61 1.56 3.495z" fill="#b6c5c8" fill-rule="nonzero"/><path d="M2 35.771l385-.167M2 75.771l325-.141M2 115.771l355-.154M2 155.771l305-.132M2 195.771l245-.106M2 235.771l225-.098" stroke="url(#a)" stroke-linecap="round" stroke-width="1.75"/><path d="M-.396 27h500v333h-500z" fill="url(#b)"/></g></svg>