<svg height="64" width="96" xmlns="http://www.w3.org/2000/svg"><g fill="none" fill-rule="evenodd"><path d="M4.855 1.856l8.537.49a2.7 2.7 0 00.155.005h10.489l.085-.001 7.58-.24h.016l16.091-.417a2.7 2.7 0 01.138 0l26.138.656a2.7 2.7 0 00.155 0l17.413-.564a2.7 2.7 0 012.786 2.787l-.227 6.908a2.7 2.7 0 01-.005.104l-.717 10.02a2.7 2.7 0 01-2.693 2.507H4.7a2.7 2.7 0 01-2.7-2.7V4.55a2.7 2.7 0 012.855-2.695z" fill="#3344a5"/><path d="M11.277 15.447l.013.013c.648.027 1.175-.027 1.728-.08.378-.041 1.296-.311 1.66-.19.23.068.46.5.298.986-.216.675-1 .688-1.715.702-.823 0-1.633.054-2.416.108-.986.08-1.026-.27-1.053-1.242-.014-.46.054-1.31.094-1.85.04-.864.122-2.106.216-3.537.014-.729.014-1.525.31-1.85.338-.377 1.27-.431 2.147-.431 1.067.013 2.025.04 2.106.58.027.486-.027.824-.553.85-.149.014-.338.014-.567.014-.635.014-1.472.027-1.755.216-.162.108-.19.351-.216.662-.04.337-.23 1.282.04 1.552.108.095.23.122.392.122.391 0 .931-.203 1.323-.203.256 0 .472.122.553.405.095.54-.23.81-.567.918-.148.027-.364.054-.594.081-.459.054-1.053.108-1.31.297-.161.176-.175.527-.175.905 0 .283 0 .607.027.837 0 .054.014.094.014.135zm8.6 2.592c-.311-.149-.284-.689-.46-.972-.742-.162-1.458-.122-2.106-.46-.594-.323-1.31-.985-1.498-1.66-.19-.702-.04-1.485.216-1.957.31-.608.742-1.107 1.363-1.458.689-.365 1.445-.473 2.309-.473.567-.432.256-2.349.567-3.037.094-.176.54-.257.756-.19.688.109.391 1.594.31 2.377-.08 1.04-.202 2.214-.27 3.2-.04 1.363.054 2.861-.094 3.914-.081.567-.46.85-1.094.716zm-.244-3.875c.04-.432.081-1.188-.013-1.471-.203-.257-.527-.095-1.148-.04-.999.094-1.66 1.417-1.012 2.28.391.514 1.377.96 2.011.81.135-.296.122-1.16.162-1.579zm3.915-5.103c.473-.094.85.149.864.635.014.823-1.43 1.053-1.512.243-.04-.405.284-.797.648-.878zm-.121 2.295c.189-.027.648.122.715.473.04.175-.08.513-.162.864-.148.77-.283 1.539-.324 2.403-.027.486.014 1.242-.121 1.525-.19.378-1.026.648-1.35.31-.23-.229-.108-.769-.04-1.295.107-.932.229-1.904.337-2.795.094-.688.297-1.43.945-1.485zm4.914-.553c.324.31 1.917-.297 2.052.337.08.365-.081.756-.365.905-.418.216-1.525.121-1.768.337-.257.216-.351 1.742-.392 2.066-.027.27-.162 1.31-.202 1.58-.095.458-.176 1.957-.85 2.051-.298.04-.73-.08-.824-.27-.081-.216.216-1.377.243-1.593.04-.243.202-1.269.216-1.512.08-.513.094-1.134.148-1.917-.297-.35-1.242.068-1.633-.121-.284-.149-.378-.567-.31-.797.04-.256.27-.526.54-.634.283-.068 1.214-.054 1.43-.203.23-.162.297-.972.351-1.282.122-.783.014-1.674 1.08-1.728.675-.04.594.31.473.783-.095.715-.338 1.08-.19 1.998zm8.18 4.698c.743-.203 1.135-2.16 1.567-2.484.27-.135.62-.23.864.067.405.513.648 2.43.999 2.484.31.04 1.147-1.228 1.363-2.092.203-.797.27-2.012.473-2.457.23-.338.972-.5 1.282 0 .108 2.268-.972 4.698-2.227 5.562-.554.364-1.27.634-1.755.216-.23-.19-.662-1.256-.77-1.296-.08-.04-.661.945-.945 1.16-.54.392-1.539.527-1.957-.148-.31-.472-.419-1.39-.54-2.12-.068-.485-.297-2.659.067-3.104.27-.338.986-.284 1.188.04.176.284.014 1.674.04 2.16.055.689.122 1.715.352 2.012zm9.626-4.847c1.958-.35 3.24.864 3.294 2.592.149 1.067-.472 2.106-1.363 2.754a2.821 2.821 0 01-1.958.473c-.688-.068-1.471-.5-1.863-.905-.715-.985-.567-2.538.027-3.415.31-.486.378-.635.891-1.04.324-.243.54-.391.972-.459zm-.904 3.497c.108.661.742 1.201 1.633.972.419-.122 1-.635 1.12-1.242.244-1.134-.566-2.147-1.511-1.971-.73.135-1.377 1.39-1.242 2.24zm6.669-3.483c.148.459.067.85.04 1.296.338.108.797-.324 1.134-.46.365-.134.918-.35 1.404-.283.284.027.608.203.662.46.08.54-.419.85-.689.917-.283.068-.864.216-1.093.297-.554.162-1.472.783-1.472 1.013-.04.634-.027 2.16-.189 2.727-.135.459-.391.486-.904.459-.203-.014-.486-.176-.554-.338-.054-.162 0-.472.04-.756.095-1.107.136-2.93.257-4.023.122-.999.095-1.485.824-1.512a.693.693 0 01.54.203zm5.805-3.632c.027 1.283-.23 2.849-.338 4.212-.027.338-.054.932-.027 1.242.23-.094.608-.337.783-.445.203-.135.662-.446.85-.58.365-.27.69-.716 1.23-.217.54.486-.392 1.107-.878 1.472-.27.189-.73.432-.77.715-.04.257.203.378.378.594.419.473.783.85 1.229 1.296.23.216.526.432.567.81.04.486-.257.945-.905.783-.459-.189-1.255-1.228-1.755-1.674-.04-.04-.634-.715-.85-.823 0 .27-.014 1.39-.108 1.795-.054.284-.23.432-.54.513-.945.203-.837-.715-.797-1.66.095-2.12.257-4.563.5-6.696.094-.824.162-1.31.756-1.485.27-.081.54 0 .675.148zm6.129 7.169c-.176.364.054 1.998-.162 2.673-.19.54-1.175.5-1.296.054-.19-.73.054-2.093-.135-2.876-.662-.162-.621.108-1.094-.364-.189-.203-.135-.392-.094-.54.054-.324.445-.527.796-.54.378-.014.23.067.378-.135.122-.162.04-.743.081-1.026.108-1.04.216-1.769.58-2.62.406-.958.905-1.66 1.864-1.862.931-.203 1.539.297 1.903 1.012.27.527.324 1.12.216 1.377-.108.392-.567.5-.877.405-.257-.013-.378-.418-.5-.688s-.216-.77-.594-.77c-.634 0-.837 1.256-.972 1.917-.08.405-.243 2.052-.027 2.403.432.176.662-.054 1.337.149.607.202.513 1.147.027 1.242-.513.094-1.026-.027-1.431.189zm5.373-6.818c.945-.283.594 1.134.526 1.93-.148 2.066-.364 3.808-.54 5.792-.04.392-.175 1.458-.283 1.742-.162.432-.743.823-1.134.58-.46-.256-.04-2.011.027-2.66.189-1.66.35-2.861.486-4.481.094-1.12 0-2.62.918-2.903zm3.55 3.267c1.958-.35 3.24.864 3.294 2.592.149 1.067-.472 2.106-1.363 2.754a2.821 2.821 0 01-1.958.473c-.688-.068-1.471-.5-1.863-.905-.715-.985-.567-2.538.027-3.415.31-.486.378-.635.891-1.04.324-.243.54-.391.972-.459zm-.904 3.497c.108.661.742 1.201 1.633.972.419-.122 1-.635 1.12-1.242.244-1.134-.566-2.147-1.511-1.971-.73.135-1.377 1.39-1.242 2.24zm6.763 1.35c.743-.203 1.134-2.16 1.566-2.484.27-.135.621-.23.864.067.405.513.648 2.43 1 2.484.31.04 1.147-1.228 1.363-2.092.202-.797.27-2.012.472-2.457.23-.338.972-.5 1.283 0 .108 2.268-.972 4.698-2.228 5.562-.553.364-1.269.634-1.755.216-.23-.19-.661-1.256-.77-1.296-.08-.04-.66.945-.944 1.16-.54.392-1.54.527-1.958-.148-.31-.472-.418-1.39-.54-2.12-.067-.485-.297-2.659.068-3.104.27-.338.985-.284 1.188.04.175.284.013 1.674.04 2.16.054.689.122 1.715.351 2.012z" fill="#fff" fill-rule="nonzero"/><g stroke="#131315" stroke-linecap="round" stroke-width="2"><path d="M52.106 34.947c7.497 17.034 20.72 24.778 39.67 23.234"/><path d="M89.103 53.329l3.708 5.307-4.52 3.564" stroke-linejoin="round"/></g></g></svg>