<svg height="125" width="290" xmlns="http://www.w3.org/2000/svg"><g fill="none" fill-rule="evenodd"><path d="M8.172 6.874l9.486.545a3 3 0 00.172.005h11.654a3 3 0 00.094-.001l8.424-.266a3 3 0 01.017 0l17.88-.464a3 3 0 01.152 0l29.042.73a3 3 0 00.172-.001l19.349-.627a3 3 0 013.095 3.097l-.252 7.675a3.002 3.002 0 01-.006.116l-.797 11.133a3 3 0 01-2.992 2.786H8a3 3 0 01-3-3V9.869a3 3 0 013.172-2.995z" fill="#3344a5"/><path d="M66.103 82.152l2.433.279a3 3 0 00.341.02h4.55a3 3 0 00.188-.007l3.353-.21a3 3 0 01.033-.002l7.17-.37a3 3 0 01.305 0l11.606.58a3 3 0 00.343-.003l5.829-.376a3 3 0 013.192 3.043l-.093 5.65v.002l-.374 21.592a2.039 2.039 0 01-2.038 2.004H66.5a3 3 0 01-3-3V84.473a2.337 2.337 0 012.603-2.321zm48.822-.106l1.226.166a3 3 0 00.402.027h2.324a3 3 0 00.221-.008l1.767-.13a3 3 0 01.04-.004l3.819-.233a3 3 0 01.359 0l6.151.363a3 3 0 00.405-.003l2.33-.178a2.32 2.32 0 012.495 2.346l-.044 3.214v.002l-.208 14.148a1.114 1.114 0 01-1.114 1.098h-19.59a2.008 2.008 0 01-2.008-2.008V83.292a1.257 1.257 0 011.425-1.246z" stroke="#131315" stroke-width="2"/><path d="M145.925 89l1.272.132a3 3 0 00.308.015h2.398a3 3 0 00.17-.004l1.797-.102.03-.001 3.866-.18a3 3 0 01.274 0l6.242.28a3 3 0 00.309-.002l2.72-.158a2.03 2.03 0 012.149 2.065l-.04 2.19v.003l-.203 10.518a1.119 1.119 0 01-1.119 1.098H146.19a1.689 1.689 0 01-1.689-1.689V90.286A1.293 1.293 0 01145.925 89z" stroke="#131315" stroke-dasharray="5 5" stroke-linecap="round" stroke-width="2"/><path d="M187.172 41.682l9.486.546a3 3 0 00.172.005h11.654a3 3 0 00.094-.002l8.424-.265h.017l17.88-.464a3 3 0 01.152 0l29.042.729a3 3 0 00.172 0l19.349-.627a3 3 0 013.095 3.097l-.252 7.675a3.002 3.002 0 01-.006.115l-.797 11.133a3 3 0 01-2.992 2.786H187a3 3 0 01-3-3V44.677a3 3 0 013.172-2.995z" fill="#3344a5"/><path d="M15.307 21.975l.015.015c.72.03 1.306-.03 1.92-.09.42-.045 1.44-.345 1.845-.21.255.075.51.555.33 1.095-.24.75-1.11.765-1.905.78-.915 0-1.815.06-2.685.12-1.095.09-1.14-.3-1.17-1.38-.015-.51.06-1.455.105-2.055.045-.96.135-2.34.24-3.93.015-.81.015-1.695.345-2.055.375-.42 1.41-.48 2.385-.48 1.185.015 2.25.045 2.34.645.03.54-.03.915-.615.945-.165.015-.375.015-.63.015-.705.015-1.635.03-1.95.24-.18.12-.21.39-.24.735-.045.375-.255 1.425.045 1.725.12.105.255.135.435.135.435 0 1.035-.225 1.47-.225.285 0 .525.135.615.45.105.6-.255.9-.63 1.02-.165.03-.405.06-.66.09-.51.06-1.17.12-1.455.33-.18.195-.195.585-.195 1.005 0 .315 0 .675.03.93 0 .06.015.105.015.15zm9.555 2.88c-.345-.165-.315-.765-.51-1.08-.825-.18-1.62-.135-2.34-.51-.66-.36-1.455-1.095-1.665-1.845-.21-.78-.045-1.65.24-2.175.345-.675.825-1.23 1.515-1.62.765-.405 1.605-.525 2.565-.525.63-.48.285-2.61.63-3.375.105-.195.6-.285.84-.21.765.12.435 1.77.345 2.64-.09 1.155-.225 2.46-.3 3.555-.045 1.515.06 3.18-.105 4.35-.09.63-.51.945-1.215.795zm-.27-4.305c.045-.48.09-1.32-.015-1.635-.225-.285-.585-.105-1.275-.045-1.11.105-1.845 1.575-1.125 2.535.435.57 1.53 1.065 2.235.9.15-.33.135-1.29.18-1.755zm4.35-5.67c.525-.105.945.165.96.705.015.915-1.59 1.17-1.68.27-.045-.45.315-.885.72-.975zm-.135 2.55c.21-.03.72.135.795.525.045.195-.09.57-.18.96-.165.855-.315 1.71-.36 2.67-.03.54.015 1.38-.135 1.695-.21.42-1.14.72-1.5.345-.255-.255-.12-.855-.045-1.44.12-1.035.255-2.115.375-3.105.105-.765.33-1.59 1.05-1.65zm5.46-.615c.36.345 2.13-.33 2.28.375.09.405-.09.84-.405 1.005-.465.24-1.695.135-1.965.375-.285.24-.39 1.935-.435 2.295-.03.3-.18 1.455-.225 1.755-.105.51-.195 2.175-.945 2.28-.33.045-.81-.09-.915-.3-.09-.24.24-1.53.27-1.77.045-.27.225-1.41.24-1.68.09-.57.105-1.26.165-2.13-.33-.39-1.38.075-1.815-.135-.315-.165-.42-.63-.345-.885.045-.285.3-.585.6-.705.315-.075 1.35-.06 1.59-.225.255-.18.33-1.08.39-1.425.135-.87.015-1.86 1.2-1.92.75-.045.66.345.525.87-.105.795-.375 1.2-.21 2.22zm9.09 5.22c.825-.225 1.26-2.4 1.74-2.76.3-.15.69-.255.96.075.45.57.72 2.7 1.11 2.76.345.045 1.275-1.365 1.515-2.325.225-.885.3-2.235.525-2.73.255-.375 1.08-.555 1.425 0 .12 2.52-1.08 5.22-2.475 6.18-.615.405-1.41.705-1.95.24-.255-.21-.735-1.395-.855-1.44-.09-.045-.735 1.05-1.05 1.29-.6.435-1.71.585-2.175-.165-.345-.525-.465-1.545-.6-2.355-.075-.54-.33-2.955.075-3.45.3-.375 1.095-.315 1.32.045.195.315.015 1.86.045 2.4.06.765.135 1.905.39 2.235zm10.695-5.385c2.175-.39 3.6.96 3.66 2.88.165 1.185-.525 2.34-1.515 3.06-.57.375-1.26.63-2.175.525-.765-.075-1.635-.555-2.07-1.005-.795-1.095-.63-2.82.03-3.795.345-.54.42-.705.99-1.155.36-.27.6-.435 1.08-.51zm-1.005 3.885c.12.735.825 1.335 1.815 1.08.465-.135 1.11-.705 1.245-1.38.27-1.26-.63-2.385-1.68-2.19-.81.15-1.53 1.545-1.38 2.49zm7.41-3.87c.165.51.075.945.045 1.44.375.12.885-.36 1.26-.51.405-.15 1.02-.39 1.56-.315.315.03.675.225.735.51.09.6-.465.945-.765 1.02-.315.075-.96.24-1.215.33-.615.18-1.635.87-1.635 1.125-.045.705-.03 2.4-.21 3.03-.15.51-.435.54-1.005.51-.225-.015-.54-.195-.615-.375-.06-.18 0-.525.045-.84.105-1.23.15-3.255.285-4.47.135-1.11.105-1.65.915-1.68a.77.77 0 01.6.225zm6.45-4.035c.03 1.425-.255 3.165-.375 4.68-.03.375-.06 1.035-.03 1.38.255-.105.675-.375.87-.495a51.6 51.6 0 00.945-.645c.405-.3.765-.795 1.365-.24.6.54-.435 1.23-.975 1.635-.3.21-.81.48-.855.795-.045.285.225.42.42.66.465.525.87.945 1.365 1.44.255.24.585.48.63.9.045.54-.285 1.05-1.005.87-.51-.21-1.395-1.365-1.95-1.86-.045-.045-.705-.795-.945-.915 0 .3-.015 1.545-.12 1.995-.06.315-.255.48-.6.57-1.05.225-.93-.795-.885-1.845.105-2.355.285-5.07.555-7.44.105-.915.18-1.455.84-1.65.3-.09.6 0 .75.165zm6.81 7.965c-.195.405.06 2.22-.18 2.97-.21.6-1.305.555-1.44.06-.21-.81.06-2.325-.15-3.195-.735-.18-.69.12-1.215-.405-.21-.225-.15-.435-.105-.6.06-.36.495-.585.885-.6.42-.015.255.075.42-.15.135-.18.045-.825.09-1.14.12-1.155.24-1.965.645-2.91.45-1.065 1.005-1.845 2.07-2.07 1.035-.225 1.71.33 2.115 1.125.3.585.36 1.245.24 1.53-.12.435-.63.555-.975.45-.285-.015-.42-.465-.555-.765s-.24-.855-.66-.855c-.705 0-.93 1.395-1.08 2.13-.09.45-.27 2.28-.03 2.67.48.195.735-.06 1.485.165.675.225.57 1.275.03 1.38-.57.105-1.14-.03-1.59.21zm5.97-7.575c1.05-.315.66 1.26.585 2.145-.165 2.295-.405 4.23-.6 6.435-.045.435-.195 1.62-.315 1.935-.18.48-.825.915-1.26.645-.51-.285-.045-2.235.03-2.955.21-1.845.39-3.18.54-4.98.105-1.245 0-2.91 1.02-3.225zm3.945 3.63c2.175-.39 3.6.96 3.66 2.88.165 1.185-.525 2.34-1.515 3.06-.57.375-1.26.63-2.175.525-.765-.075-1.635-.555-2.07-1.005-.795-1.095-.63-2.82.03-3.795.345-.54.42-.705.99-1.155.36-.27.6-.435 1.08-.51zm-1.005 3.885c.12.735.825 1.335 1.815 1.08.465-.135 1.11-.705 1.245-1.38.27-1.26-.63-2.385-1.68-2.19-.81.15-1.53 1.545-1.38 2.49zm7.515 1.5c.825-.225 1.26-2.4 1.74-2.76.3-.15.69-.255.96.075.45.57.72 2.7 1.11 2.76.345.045 1.275-1.365 1.515-2.325.225-.885.3-2.235.525-2.73.255-.375 1.08-.555 1.425 0 .12 2.52-1.08 5.22-2.475 6.18-.615.405-1.41.705-1.95.24-.255-.21-.735-1.395-.855-1.44-.09-.045-.735 1.05-1.05 1.29-.6.435-1.71.585-2.175-.165-.345-.525-.465-1.545-.6-2.355-.075-.54-.33-2.955.075-3.45.3-.375 1.095-.315 1.32.045.195.315.015 1.86.045 2.4.06.765.135 1.905.39 2.235zm105.373 25.839c.33-.03 1.365.075 1.935.27 1.215.405 2.58.705 2.82 2.43.21 1.5-.45 2.235-.9 2.64-.18.165-.735.39-.75.645-.03.315.42.885.6 1.2.51.885.75 1.41 1.29 2.295.225.375.585.855.51 1.29-.105.555-1.005.795-1.53.525-.315-.15-.525-.69-.69-.975-.405-.75-.645-1.425-1.125-2.22-.255-.285-.345-.735-.69-.93-.33-.09-.915.195-1.05.45-.24.765-.09 2.445-.465 3.165-.165.315-.825.705-1.35.375-.54-.33-.225-1.305-.165-1.965.09-.945.18-2.07.21-3.15.015-1.095.06-2.085.09-2.985.03-.84-.075-1.965.165-2.475.18-.405.69-.555 1.095-.585zm1.77 4.83c.345-.225 1.14-.555 1.26-1.065.09-.45-.015-1.065-.465-1.455-.39-.33-1.665-.465-2.055-.345-.3.885-.165 2.625-.105 3.54.48.015.945-.375 1.365-.675zm6.09-.495c.405.255.285.84.225 1.305-.12 1.185-.645 3.705 1.095 3.315.6-.09 1.005-1.47 1.08-2.295.06-.66-.045-1.875.075-2.37.12-.45.855-.6 1.125-.435.435.255.465 1.515.45 2.235a7.596 7.596 0 01-.285 1.89c-.48 1.695-1.335 2.76-3.54 2.4-.81-.195-1.545-.735-1.68-1.845-.06-.51-.045-1.545-.03-1.995.06-1.155.18-2.265 1.485-2.205zm6.855 2.205c.27-.255.465-.435.63-.69a5.69 5.69 0 011.26-1.365c.39-.285.975-.69 1.56-.3.18.105.42.66.465 1.14.09 1.035-.285 2.745-.3 3.84 0 .27.06.63 0 .795-.195.51-1.215.75-1.56.21-.045-.735.03-1.53.135-2.265.09-.72.165-1.14.075-1.815-.465.06-.765.63-1.065 1.05-.75.99-.645.975-1.095 1.725-.255.45-.75 1.755-1.155 1.83-1.08.225-.9-.75-.795-1.695.105-1.05.255-1.965.3-3.03.03-.855-.015-1.92.675-2.055 1.2-.225.675 1.65.87 2.625zm11.085 2.43c.825-.225 1.26-2.4 1.74-2.76.3-.15.69-.255.96.075.45.57.72 2.7 1.11 2.76.345.045 1.275-1.365 1.515-2.325.225-.885.3-2.235.525-2.73.255-.375 1.08-.555 1.425 0 .12 2.52-1.08 5.22-2.475 6.18-.615.405-1.41.705-1.95.24-.255-.21-.735-1.395-.855-1.44-.09-.045-.735 1.05-1.05 1.29-.6.435-1.71.585-2.175-.165-.345-.525-.465-1.545-.6-2.355-.075-.54-.33-2.955.075-3.45.3-.375 1.095-.315 1.32.045.195.315.015 1.86.045 2.4.06.765.135 1.905.39 2.235zm10.695-5.385c2.175-.39 3.6.96 3.66 2.88.165 1.185-.525 2.34-1.515 3.06-.57.375-1.26.63-2.175.525-.765-.075-1.635-.555-2.07-1.005-.795-1.095-.63-2.82.03-3.795.345-.54.42-.705.99-1.155.36-.27.6-.435 1.08-.51zm-1.005 3.885c.12.735.825 1.335 1.815 1.08.465-.135 1.11-.705 1.245-1.38.27-1.26-.63-2.385-1.68-2.19-.81.15-1.53 1.545-1.38 2.49zm7.41-3.87c.165.51.075.945.045 1.44.375.12.885-.36 1.26-.51.405-.15 1.02-.39 1.56-.315.315.03.675.225.735.51.09.6-.465.945-.765 1.02-.315.075-.96.24-1.215.33-.615.18-1.635.87-1.635 1.125-.045.705-.03 2.4-.21 3.03-.15.51-.435.54-1.005.51-.225-.015-.54-.195-.615-.375-.06-.18 0-.525.045-.84.105-1.23.15-3.255.285-4.47.135-1.11.105-1.65.915-1.68a.77.77 0 01.6.225zm6.45-4.035c.03 1.425-.255 3.165-.375 4.68-.03.375-.06 1.035-.03 1.38.255-.105.675-.375.87-.495a51.6 51.6 0 00.945-.645c.405-.3.765-.795 1.365-.24.6.54-.435 1.23-.975 1.635-.3.21-.81.48-.855.795-.045.285.225.42.42.66.465.525.87.945 1.365 1.44.255.24.585.48.63.9.045.54-.285 1.05-1.005.87-.51-.21-1.395-1.365-1.95-1.86-.045-.045-.705-.795-.945-.915 0 .3-.015 1.545-.12 1.995-.06.315-.255.48-.6.57-1.05.225-.93-.795-.885-1.845.105-2.355.285-5.07.555-7.44.105-.915.18-1.455.84-1.65.3-.09.6 0 .75.165zm6.81 7.965c-.195.405.06 2.22-.18 2.97-.21.6-1.305.555-1.44.06-.21-.81.06-2.325-.15-3.195-.735-.18-.69.12-1.215-.405-.21-.225-.15-.435-.105-.6.06-.36.495-.585.885-.6.42-.015.255.075.42-.15.135-.18.045-.825.09-1.14.12-1.155.24-1.965.645-2.91.45-1.065 1.005-1.845 2.07-2.07 1.035-.225 1.71.33 2.115 1.125.3.585.36 1.245.24 1.53-.12.435-.63.555-.975.45-.285-.015-.42-.465-.555-.765-.135-.3-.24-.855-.66-.855-.705 0-.93 1.395-1.08 2.13-.09.45-.27 2.28-.03 2.67.48.195.735-.06 1.485.165.675.225.57 1.275.03 1.38-.57.105-1.14-.03-1.59.21zm5.97-7.575c1.05-.315.66 1.26.585 2.145-.165 2.295-.405 4.23-.6 6.435-.045.435-.195 1.62-.315 1.935-.18.48-.825.915-1.26.645-.51-.285-.045-2.235.03-2.955.21-1.845.39-3.18.54-4.98.105-1.245 0-2.91 1.02-3.225zm3.945 3.63c2.175-.39 3.6.96 3.66 2.88.165 1.185-.525 2.34-1.515 3.06-.57.375-1.26.63-2.175.525-.765-.075-1.635-.555-2.07-1.005-.795-1.095-.63-2.82.03-3.795.345-.54.42-.705.99-1.155.36-.27.6-.435 1.08-.51zm-1.005 3.885c.12.735.825 1.335 1.815 1.08.465-.135 1.11-.705 1.245-1.38.27-1.26-.63-2.385-1.68-2.19-.81.15-1.53 1.545-1.38 2.49zm7.515 1.5c.825-.225 1.26-2.4 1.74-2.76.3-.15.69-.255.96.075.45.57.72 2.7 1.11 2.76.345.045 1.275-1.365 1.515-2.325.225-.885.3-2.235.525-2.73.255-.375 1.08-.555 1.425 0 .12 2.52-1.08 5.22-2.475 6.18-.615.405-1.41.705-1.95.24-.255-.21-.735-1.395-.855-1.44-.09-.045-.735 1.05-1.05 1.29-.6.435-1.71.585-2.175-.165-.345-.525-.465-1.545-.6-2.355-.075-.54-.33-2.955.075-3.45.3-.375 1.095-.315 1.32.045.195.315.015 1.86.045 2.4.06.765.135 1.905.39 2.235z" fill="#fff" fill-rule="nonzero"/><g stroke="#131315" stroke-width="2"><path d="M20.67 46.5C21.889 65.07 31.665 76.87 50 81.9m131 10.454c14.494-1.89 24.335-7.174 29.525-15.853m2.337-41.911c-15.483-16.393-45.716-22.395-90.699-18.005M69 88h12m38 0h12m19 7h12m-93-2h12m38 0h12m19 7h12m-93-2h12m38 0h12M87 88h12m7 0h7m24 5h7m-57 0h12m-12 5h12m-30 5h12m-12 5h12" stroke-linecap="round"/><path d="M49.148 76.427l1.67 6.256-5.467 1.802m159.497-6.902l5.677-1.082.726 5.417m-84.753-61.865l-5.03-3.602 5.03-3.949" stroke-linecap="round" stroke-linejoin="round"/><path d="M131.23 110.136l-.938-11.09a1 1 0 011.688-.806l7.675 7.362a1.363 1.363 0 01-.293 2.18l-.7.381a1 1 0 00-.368 1.412l2.142 3.397a1 1 0 01-.36 1.407l-1.482.824a1 1 0 01-1.358-.383l-2.155-3.831a1 1 0 00-1.38-.371l-.718.424a1.165 1.165 0 01-1.754-.906z" fill="#fff"/></g></g></svg>