<svg height="32" width="32" xmlns="http://www.w3.org/2000/svg" xmlns:xlink="http://www.w3.org/1999/xlink"><defs><filter id="a" height="250%" width="150%" x="-25%" y="-75%"><feOffset in="SourceAlpha" result="shadowOffsetOuter1"/><feGaussianBlur in="shadowOffsetOuter1" result="shadowBlurOuter1" stdDeviation=".5"/><feColorMatrix in="shadowBlurOuter1" values="0 0 0 0 0 0 0 0 0 0 0 0 0 0 0 0 0 0 0.6 0"/></filter><rect id="b" height="2" rx="1" width="6" x="21" y="23"/></defs><g fill="none" fill-rule="evenodd"><path d="M6.41 0h19.18c2.23 0 3.037.232 3.852.668a4.543 4.543 0 011.89 1.89c.436.815.668 1.623.668 3.852v19.18c0 2.23-.232 3.037-.668 3.852a4.543 4.543 0 01-1.89 1.89c-.815.436-1.623.668-3.852.668H6.41c-2.23 0-3.037-.232-3.852-.668a4.543 4.543 0 01-1.89-1.89C.232 28.627 0 27.82 0 25.59V6.41c0-2.23.232-3.037.668-3.852a4.543 4.543 0 011.89-1.89C3.373.232 4.18 0 6.41 0z" fill="#fff"/><g fill-rule="nonzero"><path d="M12.594 23.962c-1.8 0-3.6-.697-4.97-2.091L3.2 17.382l2.646-2.69 4.423 4.488a3.252 3.252 0 004.638 0l3.503-3.562a1.284 1.284 0 011.832 0l1.735 1.764-4.413 4.5a6.936 6.936 0 01-4.97 2.08z" fill="#f16332"/><path d="M26.08 17.339l-4.425-4.5a3.233 3.233 0 00-4.637 0l-3.503 3.563a1.284 1.284 0 01-1.832 0l-1.735-1.765 4.424-4.499a6.95 6.95 0 019.94 0l4.424 4.5z" fill="#00a569"/></g><path d="M20.41 14H30v9.59c0 2.23-.232 3.037-.668 3.852a4.543 4.543 0 01-1.89 1.89c-.815.436-1.623.668-3.852.668H14v-9.59c0-2.23.232-3.037.668-3.852a4.543 4.543 0 011.89-1.89c.815-.436 1.623-.668 3.852-.668z" fill="#fff"/><path d="M22.41 16h3.18c2.23 0 3.037.232 3.852.668a4.543 4.543 0 011.89 1.89c.436.815.668 1.623.668 3.852v3.18c0 2.23-.232 3.037-.668 3.852a4.543 4.543 0 01-1.89 1.89c-.815.436-1.623.668-3.852.668h-3.18c-2.23 0-3.037-.232-3.852-.668a4.543 4.543 0 01-1.89-1.89C16.232 28.627 16 27.82 16 25.59v-3.18c0-2.23.232-3.037.668-3.852a4.543 4.543 0 011.89-1.89c.815-.436 1.623-.668 3.852-.668z" fill="#667979"/><use fill="#000" filter="url(#a)" xlink:href="#b"/><use fill="#fff" xlink:href="#b"/></g></svg>