<svg height="32" width="32" xmlns="http://www.w3.org/2000/svg"><path d="M25.59 0c2.23 0 3.037.232 3.852.668a4.543 4.543 0 011.89 1.89c.436.815.668 1.623.668 3.852v19.18c0 2.23-.232 3.037-.668 3.852a4.543 4.543 0 01-1.89 1.89c-.815.436-1.623.668-3.852.668H6.41c-2.23 0-3.037-.232-3.852-.668a4.543 4.543 0 01-1.89-1.89C.232 28.627 0 27.82 0 25.59V6.41c0-2.23.232-3.037.668-3.852a4.543 4.543 0 011.89-1.89C3.373.232 4.18 0 6.41 0zM5.846 14.692L3.2 17.382l4.424 4.489a6.947 6.947 0 004.97 2.091 6.93 6.93 0 004.737-1.855l.233-.226 4.413-4.499-1.735-1.764a1.284 1.284 0 00-1.727-.096l-.105.096-3.503 3.562a3.252 3.252 0 01-4.493.139l-.145-.14zm18.466-4.554a6.95 6.95 0 00-9.94 0l-4.424 4.5 1.735 1.764a1.284 1.284 0 001.832 0l3.503-3.562a3.233 3.233 0 014.637 0l4.424 4.499 2.657-2.702z" fill-rule="evenodd"/></svg>