<svg height="64" width="64" xmlns="http://www.w3.org/2000/svg"><g fill="none"><path d="M18.098 28.735c0 .784.085 1.42.233 1.886.17.466.382.975.678 1.526.106.17.149.339.149.487 0 .212-.128.424-.403.636l-1.335.89c-.19.127-.382.19-.551.19-.212 0-.424-.105-.636-.296a6.556 6.556 0 01-.763-.996c-.212-.36-.424-.763-.657-1.25-1.653 1.95-3.73 2.924-6.23 2.924-1.78 0-3.2-.509-4.239-1.526-1.038-1.017-1.568-2.373-1.568-4.069 0-1.801.636-3.263 1.929-4.365 1.292-1.102 3.009-1.653 5.192-1.653.72 0 1.462.063 2.246.17.784.105 1.59.275 2.437.465v-1.547c0-1.61-.339-2.733-.996-3.39-.678-.657-1.822-.975-3.454-.975-.742 0-1.505.085-2.289.275-.784.191-1.547.424-2.289.72a6.08 6.08 0 01-.741.276 1.3 1.3 0 01-.34.064c-.296 0-.445-.212-.445-.657v-1.038c0-.34.043-.594.149-.742.106-.148.297-.297.593-.445.742-.382 1.632-.7 2.67-.954 1.039-.275 2.14-.402 3.306-.402 2.522 0 4.366.572 5.553 1.716 1.165 1.145 1.759 2.882 1.759 5.213v6.867zm-8.604 3.22c.7 0 1.42-.126 2.183-.38.763-.255 1.44-.721 2.013-1.357.34-.403.593-.848.72-1.356a7.608 7.608 0 00.213-1.844v-.89c-.615-.148-1.272-.276-1.95-.36s-1.335-.127-1.992-.127c-1.42 0-2.458.275-3.158.847-.7.572-1.038 1.378-1.038 2.437 0 .996.254 1.738.784 2.247.508.53 1.25.784 2.225.784zm17.017 2.29c-.381 0-.636-.064-.805-.212-.17-.128-.318-.424-.445-.827l-4.98-16.381c-.127-.424-.19-.7-.19-.848 0-.34.169-.53.508-.53h2.076c.403 0 .679.064.827.212.17.127.297.424.424.827l3.56 14.029 3.306-14.03c.106-.423.233-.699.403-.826s.466-.212.847-.212h1.696c.402 0 .678.064.847.212.17.127.318.424.403.827l3.348 14.198 3.667-14.198c.127-.424.275-.7.423-.827.17-.127.446-.212.827-.212h1.97c.34 0 .53.17.53.53 0 .106-.02.212-.042.34s-.063.296-.148.529l-5.107 16.381c-.128.424-.276.7-.445.827-.17.127-.445.212-.806.212h-1.822c-.403 0-.678-.064-.848-.212-.17-.149-.318-.424-.403-.848l-3.284-13.669-3.264 13.648c-.106.424-.233.7-.403.848s-.466.212-.847.212zm27.232.572c-1.102 0-2.204-.127-3.264-.382-1.06-.254-1.886-.53-2.437-.847-.339-.191-.572-.403-.657-.594s-.127-.402-.127-.593V31.32c0-.445.17-.657.488-.657a1.2 1.2 0 01.381.064c.127.042.318.127.53.212.72.317 1.505.572 2.331.741.848.17 1.674.255 2.522.255 1.335 0 2.373-.234 3.094-.7.72-.466 1.102-1.144 1.102-2.013 0-.593-.19-1.08-.572-1.483-.382-.403-1.102-.763-2.14-1.102l-3.073-.954c-1.547-.487-2.692-1.208-3.391-2.162-.7-.932-1.06-1.97-1.06-3.072 0-.89.19-1.675.572-2.353a5.449 5.449 0 011.526-1.738c.636-.487 1.357-.847 2.204-1.102.848-.254 1.738-.36 2.67-.36.467 0 .954.021 1.42.085.488.064.933.148 1.378.233.424.106.826.212 1.208.34.381.126.678.253.89.38.296.17.508.34.636.53.127.17.19.403.19.7v.996c0 .445-.17.678-.487.678-.17 0-.445-.085-.805-.254-1.208-.551-2.565-.827-4.07-.827-1.207 0-2.16.19-2.818.593-.657.403-.996 1.018-.996 1.887 0 .593.212 1.102.636 1.504.424.403 1.208.806 2.331 1.166l3.01.953c1.525.488 2.627 1.166 3.284 2.035.657.869.975 1.865.975 2.967 0 .911-.19 1.738-.551 2.458a5.7 5.7 0 01-1.547 1.865c-.657.53-1.441.911-2.352 1.187-.954.296-1.95.445-3.031.445z" fill="#252f3e"/><path d="M57.748 45.116C50.776 50.266 40.646 53 31.936 53 19.73 53 8.731 48.486.424 40.984c-.657-.594-.064-1.4.72-.933 8.986 5.213 20.07 8.371 31.534 8.371 7.735 0 16.233-1.61 24.053-4.917 1.166-.53 2.162.763 1.017 1.611zm2.904-3.306c-.89-1.144-5.892-.55-8.16-.275-.677.084-.783-.509-.169-.954 3.984-2.797 10.533-1.992 11.296-1.06.762.954-.212 7.502-3.942 10.639-.572.487-1.123.233-.87-.403.849-2.098 2.735-6.824 1.845-7.947z" fill="#f90"/></g></svg>