<svg width="32" height="32" xmlns="http://www.w3.org/2000/svg"><path d="M27.403 8.268c.255-.06.572.07.704.295 0 0 .537.876.857 1.574.316.696.624 1.673.624 1.673a.683.683 0 01-.24.724l-1.735 1.239a.865.865 0 00-.326.742s.095.661.11 1.23c.014.558-.047 1.204-.047 1.204a.867.867 0 00.366.724l1.797 1.146c.222.14.347.456.278.708 0 0-.256.995-.538 1.709-.28.713-.77 1.611-.77 1.611a.678.678 0 01-.686.332l-2.094-.388a.882.882 0 00-.764.283s-.438.563-.866.993a13.32 13.32 0 01-1.15.987.874.874 0 00-.293.758l.352 2.101a.678.678 0 01-.342.68s-.91.475-1.63.745c-.717.268-1.713.506-1.713.506a.678.678 0 01-.704-.289L17.48 27.74a.875.875 0 00-.72-.377s-.571.046-1.093.028c-.537-.017-1.136-.105-1.136-.105a.87.87 0 00-.745.326l-1.24 1.735a.682.682 0 01-.724.24s-.978-.308-1.676-.627c-.7-.32-1.574-.855-1.574-.855a.687.687 0 01-.293-.704l.442-1.842c.094-.382.392-.918.668-1.195l4.587-4.601a4.263 4.263 0 005.793-5.793l4.595-4.594a2.958 2.958 0 011.195-.667l1.845-.438v-.002zM4.666 23.787a.683.683 0 01-.704-.295s-.537-.876-.854-1.574c-.317-.696-.624-1.673-.624-1.673a.678.678 0 01.237-.724l1.735-1.239a.869.869 0 00.328-.742s-.096-.661-.11-1.23c-.014-.558.047-1.204.047-1.204a.868.868 0 00-.366-.724l-1.8-1.143a.684.684 0 01-.276-.712s.256-.993.537-1.707c.282-.713.771-1.613.771-1.613a.681.681 0 01.686-.329l2.096.388a.878.878 0 00.763-.282s.438-.562.867-.993a13.32 13.32 0 011.149-.985.88.88 0 00.292-.76l-.352-2.1a.679.679 0 01.345-.68s.908-.475 1.627-.745c.718-.27 1.712-.51 1.712-.51a.685.685 0 01.706.29l1.114 1.817a.87.87 0 00.72.376s.571-.045 1.093-.028c.537.019 1.136.106 1.136.106a.872.872 0 00.745-.326l1.239-1.735a.68.68 0 01.724-.238s.978.307 1.677.627c.699.316 1.571.853 1.571.853a.68.68 0 01.295.702l-.442 1.842c-.093.382-.391.917-.668 1.194l-4.588 4.602a4.263 4.263 0 00-5.792 5.793l-4.595 4.596c-.28.277-.813.577-1.195.666l-1.847.438.001.001z" fill="#C1BAA9"/></svg>