<svg height="24" width="24" xmlns="http://www.w3.org/2000/svg"><path d="M12 0c6.627 0 12 5.373 12 12s-5.373 12-12 12S0 18.627 0 12 5.373 0 12 0zm-1.915 17.688L7.718 21.04c1.298.615 2.75.96 4.282.96 1.51 0 2.941-.334 4.224-.933l-2.37-3.359A5.995 5.995 0 0112 18a6 6 0 01-1.915-.312zm6.762-2.15c-.371.507-.82.954-1.33 1.324l2.306 3.269a10.057 10.057 0 002.295-2.29zm-9.72-.037l-3.27 2.305c.628.88 1.395 1.652 2.269 2.288l2.307-3.269a6.008 6.008 0 01-1.306-1.324zM21.06 7.76l-3.358 2.366a6.017 6.017 0 01-.002 3.753l3.357 2.364A9.962 9.962 0 0022 12a9.962 9.962 0 00-.94-4.238zM2 12a9.96 9.96 0 00.924 4.204l3.362-2.368A5.996 5.996 0 016 12c0-.638.1-1.252.284-1.829L2.92 7.801A9.963 9.963 0 002 12zm10-4a4 4 0 100 8 4 4 0 000-8zM3.853 6.2l3.27 2.304A6.035 6.035 0 018.43 7.178L6.122 3.909a10.088 10.088 0 00-2.27 2.29zm13.974-2.328L15.52 7.141c.51.37.96.818 1.33 1.327l3.271-2.304a10.057 10.057 0 00-2.294-2.292zM12 2a9.961 9.961 0 00-4.286.962l2.366 3.352A5.993 5.993 0 0112 6a6.01 6.01 0 011.859.293l2.37-3.358A9.962 9.962 0 0012 2z"/></svg>