<svg width="16" height="16" fill="none" xmlns="http://www.w3.org/2000/svg"><mask id="a" maskUnits="userSpaceOnUse" x="-.393" y="1.5" width="17" height="13" fill="#000"><path fill="#fff" d="M-.393 1.5h17v13h-17z"/><path fill-rule="evenodd" clip-rule="evenodd" d="M1.607 8C2.163 5.44 4.814 3.5 8 3.5s5.837 1.94 6.393 4.5c-.556 2.56-3.207 4.5-6.393 4.5S2.163 10.56 1.607 8z"/></mask><path d="M1.607 8L.24 7.703.175 8l.064.297L1.607 8zm12.786 0l1.368.297.064-.297-.064-.297L14.393 8zm-11.418.297C3.362 6.515 5.325 4.9 8 4.9V2.1C4.303 2.1.964 4.364.239 7.703l2.736.594zM8 4.9c2.676 0 4.638 1.615 5.025 3.397l2.736-.594C15.036 4.364 11.697 2.1 8 2.1v2.8zm5.025 2.803C12.638 9.485 10.675 11.1 8 11.1v2.8c3.697 0 7.036-2.264 7.761-5.603l-2.736-.594zM8 11.1c-2.676 0-4.638-1.615-5.025-3.397L.24 8.297C.964 11.636 4.303 13.9 8 13.9v-2.8z" fill="#697678" mask="url(#a)"/><circle cx="8" cy="8" r="2" stroke="#697678" stroke-width="1.4"/></svg>