<svg height="12" width="12" xmlns="http://www.w3.org/2000/svg"><path d="M6.626 0c.275 0 .542.228.591.491l.257 1.373c.506.18.968.45 1.369.79l1.32-.463a.625.625 0 01.72.267l.626 1.084a.632.632 0 01-.13.758l-1.06.91a4.416 4.416 0 010 1.58l1.06.91c.21.18.268.52.13.758l-.626 1.084a.632.632 0 01-.72.267l-1.32-.464c-.4.34-.863.611-1.369.791l-.257 1.373a.639.639 0 01-.5.483L6.626 12H5.374a.63.63 0 01-.566-.403l-.025-.088-.257-1.373a4.385 4.385 0 01-1.37-.791l-1.318.464a.639.639 0 01-.669-.192l-.052-.075L.49 8.458a.63.63 0 01.058-.683L.621 7.7l1.06-.91a4.416 4.416 0 010-1.58L.621 4.3a.639.639 0 01-.169-.675l.039-.083.626-1.084a.63.63 0 01.632-.29l.089.023 1.319.464c.4-.34.863-.611 1.369-.791L4.783.49A.625.625 0 015.374 0zM6 4.051A1.949 1.949 0 106 7.95a1.949 1.949 0 000-3.9z" fill="#292e33" fill-rule="evenodd"/></svg>