<svg height="64" width="64" xmlns="http://www.w3.org/2000/svg"><path d="M0 37.758h2.51V31.23c0-1.288.846-2.223 2.056-2.223 1.169 0 1.894.734 1.894 1.921v6.831H8.9v-6.59c0-1.277.826-2.162 2.035-2.162 1.23 0 1.915.744 1.915 2.052v6.7h2.51v-7.313c0-2.133-1.381-3.552-3.488-3.552-1.542 0-2.811.825-3.326 2.143h-.06c-.393-1.368-1.472-2.143-2.983-2.143-1.451 0-2.58.815-3.044 2.053h-.05v-1.851H0zm20.853-1.72c-1.089 0-1.814-.553-1.814-1.428 0-.846.695-1.389 1.904-1.47l2.47-.15v.815c0 1.287-1.14 2.233-2.56 2.233zm-.756 1.891c1.37 0 2.711-.714 3.326-1.87h.05v1.7h2.42v-7.345c0-2.142-1.724-3.54-4.375-3.54-2.721 0-4.424 1.428-4.535 3.42h2.328c.161-.886.917-1.46 2.106-1.46 1.24 0 1.996.645 1.996 1.761v.765l-2.822.16c-2.6.162-4.062 1.299-4.062 3.19 0 1.922 1.502 3.22 3.568 3.22zm16.811-7.032c-.171-2.243-1.915-4.024-4.737-4.024-3.104 0-5.12 2.143-5.12 5.553 0 3.461 2.016 5.543 5.14 5.543 2.681 0 4.526-1.57 4.727-3.953H34.55c-.232 1.207-1.058 1.931-2.328 1.931-1.593 0-2.62-1.288-2.62-3.521 0-2.193 1.017-3.521 2.6-3.521 1.34 0 2.136.855 2.338 1.992h2.368zM44.66 23c-4.243 0-6.904 2.887-6.904 7.505S40.415 38 44.66 38c4.233 0 6.894-2.877 6.894-7.495S48.893 23 44.659 23zm0 2.213c2.59 0 4.243 2.053 4.243 5.292 0 3.23-1.653 5.282-4.243 5.282-2.6 0-4.243-2.053-4.243-5.282 0-3.24 1.643-5.292 4.243-5.292zm7.952 8.461C52.722 36.35 54.92 38 58.265 38 61.783 38 64 36.27 64 33.513c0-2.163-1.25-3.38-4.203-4.054l-1.673-.382c-1.784-.423-2.52-.986-2.52-1.952 0-1.207 1.11-2.012 2.752-2.012 1.663 0 2.802.815 2.923 2.173h2.48C63.697 24.73 61.58 23 58.375 23c-3.164 0-5.412 1.74-5.412 4.316 0 2.072 1.27 3.36 3.95 3.974l1.885.442c1.835.433 2.58 1.037 2.58 2.083 0 1.207-1.22 2.072-2.973 2.072-1.773 0-3.114-.875-3.275-2.213h-2.52z"/></svg>