<svg height="64" width="64" xmlns="http://www.w3.org/2000/svg"><path d="M59.196 27.124c-1.277-.887-4.205-1.22-6.494-.776-.266-2.216-1.49-4.155-3.62-5.873l-1.224-.886-.852 1.274c-1.064 1.662-1.597 3.99-1.437 6.205.053.776.32 2.161 1.118 3.38-.745.443-2.29.997-4.312.997H3.888l-.106.443c-.373 2.216-.373 9.142 3.992 14.46 3.3 4.045 8.198 6.095 14.64 6.095 13.946 0 24.273-6.704 29.117-18.837 1.916.055 6.015 0 8.091-4.155.054-.111.16-.333.533-1.164l.213-.443zM34.656 11.5h-5.855v5.54h5.855zm0 6.648h-5.855v5.54h5.855zm-6.92 0h-5.855v5.54h5.855zm-6.92 0h-5.855v5.54h5.855zm-6.92 6.649H8.04v5.54h5.856zm6.92 0h-5.855v5.54h5.855zm6.92 0h-5.855v5.54h5.855zm6.92 0h-5.855v5.54h5.855zm6.92 0h-5.855v5.54h5.856z" fill="#2396ed"/></svg>