<svg height="64" width="64" xmlns="http://www.w3.org/2000/svg"><g fill="none" fill-rule="evenodd"><path d="M32 6c14.36 0 26 11.64 26 26S46.36 58 32 58 6 46.36 6 32 17.64 6 32 6z" stroke="#203236" stroke-linecap="round" stroke-linejoin="round" stroke-width="2"/><path d="M38.866 44.694s-2.527 2.45-7.05 2.054c-4.521-.395-6.584-3.247-6.584-3.247M32.95 33l1.028 4.366c.228.969-.386 1.754-1.387 1.754h-1.8" stroke="#203236" stroke-linecap="round" stroke-width="2"/><circle cx="22.935" cy="29.347" fill="#203236" r="1.713"/><circle cx="41.335" cy="29.347" fill="#203236" r="1.713"/><g stroke="#203236" stroke-width="2"><path d="M41.335 7.358a35.618 35.618 0 01-30.84 20.145l-3.725.131"/><path d="M35.28 6a28.854 28.854 0 01-25.058 16.545l-2.452.09"/><path d="M28.796 6a18.907 18.907 0 01-15.91 10.851l-2.2.142m40.217-2.676l-.005.001a13.43 13.43 0 01-12.032-2.57m15.084 6.613l-.636.191a18.33 18.33 0 01-17.094-3.548m19.393 7.63a21.054 21.054 0 01-18.76-2.05l-3.68-2.378"/></g></g></svg>