<svg width="16" height="16" fill="none" xmlns="http://www.w3.org/2000/svg"><path fill-rule="evenodd" clip-rule="evenodd" d="M1 4.5A3.5 3.5 0 014.5 1h7A3.5 3.5 0 0115 4.5v7a3.5 3.5 0 01-3.5 3.5h-7A3.5 3.5 0 011 11.5v-7zm3.5-2.1a2.1 2.1 0 00-2.1 2.1v7a2.1 2.1 0 002.1 2.1h7a2.1 2.1 0 002.1-2.1v-7a2.1 2.1 0 00-2.1-2.1h-7zm0 9.1a.7.7 0 01.7-.7h5.6a.7.7 0 110 1.4H5.2a.7.7 0 01-.7-.7zm1.195-6.795a.7.7 0 10-.99.99L6.31 7.3 4.705 8.905a.7.7 0 10.99.99l2.1-2.1a.7.7 0 000-.99l-2.1-2.1z" fill="#697678"/></svg>