<svg height="16" width="48" xmlns="http://www.w3.org/2000/svg"><g fill="none" fill-rule="evenodd"><path d="M3.167 13.242h9.674a1.081 1.081 0 00.866-1.728 7.55 7.55 0 01-1.477-3.88l-.036-.422A4.287 4.287 0 0010 3.826a4.128 4.128 0 00-4 0 4.258 4.258 0 00-2.181 3.387l-.033.411a7.426 7.426 0 01-1.479 3.89 1.078 1.078 0 00.86 1.728zm3.22.5a1.625 1.625 0 003.25 0" stroke="#97a4a4" stroke-width="1.5"/><circle cx="8" cy="2.246" fill="#97a4a4" r="1.5"/><path d="M19.167 13.242h9.674a1.081 1.081 0 00.866-1.728 7.55 7.55 0 01-1.477-3.88l-.036-.422A4.287 4.287 0 0026 3.826a4.128 4.128 0 00-4 0 4.258 4.258 0 00-2.181 3.387l-.033.411a7.426 7.426 0 01-1.479 3.89 1.078 1.078 0 00.86 1.728zm3.22.5a1.625 1.625 0 103.25 0" stroke="#273132" stroke-width="1.5"/><circle cx="24" cy="2.246" fill="#273132" r="1.5"/><path d="M35.167 13.242h9.674a1.081 1.081 0 00.866-1.728 7.55 7.55 0 01-1.477-3.88l-.036-.422A4.287 4.287 0 0042 3.826a4.128 4.128 0 00-4 0 4.258 4.258 0 00-2.181 3.387l-.033.411a7.426 7.426 0 01-1.479 3.89 1.078 1.078 0 00.86 1.728zm3.22.5a1.625 1.625 0 103.25 0" stroke="#3f51b5" stroke-width="1.5"/><circle cx="40" cy="2.246" fill="#3f51b5" r="1.5"/></g></svg>