<svg width="16" height="16" fill="none" xmlns="http://www.w3.org/2000/svg"><path fill-rule="evenodd" clip-rule="evenodd" d="M1 3.302a2.29 2.29 0 014.472-.7H14.3a.7.7 0 110 1.4H5.472A2.292 2.292 0 011 3.302zm2.29-.991a.99.99 0 100 1.981.99.99 0 000-1.981zm7.238 6.691H1.7a.7.7 0 110-1.4h8.828a2.292 2.292 0 110 1.4zm1.19-.7a.99.99 0 111.982 0 .99.99 0 01-1.981 0zM3.29 11.01a2.29 2.29 0 102.182 2.992H14.3a.7.7 0 100-1.4H5.472a2.292 2.292 0 00-2.181-1.591zm-.99 2.292a.99.99 0 111.981 0 .99.99 0 01-1.981 0z" fill="#697678"/></svg>