<svg height="16" width="16" xmlns="http://www.w3.org/2000/svg"><path d="M12.757 1.036a.664.664 0 01.595.357l.042.098 1.687 5.191.85 2.617a.953.953 0 01-.252.99l-.095.078-7.362 5.348-.003.002h-.001a.448.448 0 01-.038.024l-.003.002-.002.001-.002.001-.004.002h-.002l-.004.003-.018.007-.01.005-.01.004h-.002l-.002.001-.004.002h-.004l-.004.001-.027.007-.006.002h-.005l-.005.002h-.003l-.005.001h-.003l-.027.004h-.054l-.026-.003h-.003l-.006-.001-.004-.001h-.002l-.012-.004-.028-.006-.004-.001-.006-.002-.004-.002h-.002l-.01-.004-.028-.012-.004-.002h-.002l-.001-.001-.003-.002-.004-.002a.436.436 0 01-.038-.023l-.002-.002-.002-.001-.003-.002-7.36-5.348a.953.953 0 01-.377-.949l.03-.119.853-2.616v-.001l1.681-5.187a.67.67 0 01.53-.45l.105-.009c.259.002.48.14.592.36l.04.099 1.604 4.928h5.05l1.6-4.928a.656.656 0 01.63-.459zm-2.473 6.138H5.722l1.072 3.3L8 14.194zm4.3.413L9.94 13.54l5.203-3.78a.203.203 0 00.083-.177l-.01-.05zm-9.652-.413h-2.88l4.932 6.323zm9.021 0h-2.879L9.02 13.496l4.345-5.567zm-1.19-5.196l-1.445 4.445h2.888zm-9.522 0l-1.44 4.445h2.887zm2.822 11.56L1.422 7.587.788 9.532a.203.203 0 00.073.227z" fill="#677278"/></svg>