<svg width="16" height="16" fill="none" xmlns="http://www.w3.org/2000/svg"><path fill-rule="evenodd" clip-rule="evenodd" d="M2.4 4.7a1.3 1.3 0 011.3-1.3h3.182c.42 0 .804.238.992.614A2.509 2.509 0 0010.118 5.4H12.3a1.3 1.3 0 011.3 1.3v4.6a1.3 1.3 0 01-1.3 1.3H3.7a1.3 1.3 0 01-1.3-1.3V4.7zM3.7 2A2.7 2.7 0 001 4.7v6.6A2.7 2.7 0 003.7 14h8.6a2.7 2.7 0 002.7-2.7V6.7A2.7 2.7 0 0012.3 4h-2.182c-.42 0-.804-.237-.992-.613a2.509 2.509 0 00-2.244-1.386H3.7zm1 7.599a.7.7 0 100 1.4h6.6a.7.7 0 100-1.4H4.7z" fill="#202B30"/></svg>