<svg height="16" width="48" xmlns="http://www.w3.org/2000/svg"><g fill="none" fill-rule="evenodd" stroke-width="1.5"><path d="M4.543 4.049a5.244 5.244 0 011.764-1.02l.288-1.537A.628.628 0 017.194 1h1.612c.28 0 .547.217.599.492l.288 1.537a5.244 5.244 0 011.764 1.02l1.477-.52a.628.628 0 01.725.273l.806 1.396a.627.627 0 01-.127.765L13.151 6.98a5.276 5.276 0 010 2.038l1.187 1.018c.21.18.269.52.127.765l-.806 1.396a.627.627 0 01-.725.272l-1.477-.519a5.244 5.244 0 01-1.764 1.02l-.288 1.537a.627.627 0 01-.599.492H7.194a.628.628 0 01-.599-.492l-.288-1.537a5.244 5.244 0 01-1.764-1.02l-1.477.52a.627.627 0 01-.725-.273l-.806-1.396a.628.628 0 01.127-.765L2.849 9.02a5.276 5.276 0 010-2.038L1.662 5.963a.627.627 0 01-.127-.765l.806-1.396a.628.628 0 01.725-.272zM8 10.002a2.002 2.002 0 100-4.004 2.002 2.002 0 000 4.004z" stroke="#97a4a4"/><path d="M20.543 4.049a5.244 5.244 0 011.764-1.02l.288-1.537A.628.628 0 0123.194 1h1.612c.28 0 .547.217.599.492l.288 1.537a5.244 5.244 0 011.764 1.02l1.477-.52a.628.628 0 01.725.273l.806 1.396a.627.627 0 01-.127.765L29.151 6.98a5.276 5.276 0 010 2.038l1.187 1.018c.21.18.269.52.127.765l-.806 1.396a.627.627 0 01-.725.272l-1.477-.519a5.244 5.244 0 01-1.764 1.02l-.288 1.537a.627.627 0 01-.599.492h-1.612a.628.628 0 01-.599-.492l-.288-1.537a5.244 5.244 0 01-1.764-1.02l-1.477.52a.627.627 0 01-.725-.273l-.806-1.396a.628.628 0 01.127-.765l1.187-1.018a5.276 5.276 0 010-2.038l-1.187-1.018a.627.627 0 01-.127-.765l.806-1.396a.628.628 0 01.725-.272zM24 10.002a2.002 2.002 0 100-4.004 2.002 2.002 0 000 4.004z" stroke="#273132"/><path d="M36.543 4.049a5.244 5.244 0 011.764-1.02l.288-1.537A.628.628 0 0139.194 1h1.612c.28 0 .547.217.599.492l.288 1.537a5.244 5.244 0 011.764 1.02l1.477-.52a.628.628 0 01.725.273l.806 1.396a.627.627 0 01-.127.765L45.151 6.98a5.276 5.276 0 010 2.038l1.187 1.018c.21.18.269.52.127.765l-.806 1.396a.627.627 0 01-.725.272l-1.477-.519a5.244 5.244 0 01-1.764 1.02l-.288 1.537a.627.627 0 01-.599.492h-1.612a.628.628 0 01-.599-.492l-.288-1.537a5.244 5.244 0 01-1.764-1.02l-1.477.52a.627.627 0 01-.725-.273l-.806-1.396a.628.628 0 01.127-.765l1.187-1.018a5.276 5.276 0 010-2.038l-1.187-1.018a.627.627 0 01-.127-.765l.806-1.396a.628.628 0 01.725-.272zM40 10.002a2.002 2.002 0 100-4.004 2.002 2.002 0 000 4.004z" stroke="#3f51b5"/></g></svg>