<svg height="16" width="48" xmlns="http://www.w3.org/2000/svg"><g fill="none" fill-rule="evenodd" stroke-width="1.5"><rect height="6" rx="3" stroke="#97a4a4" width="6" x="5" y="1.997"/><path d="M6.485 10.499h3.03c1.487 0 2.874.752 3.685 2a1.294 1.294 0 01-1.085 2h-8.23a1.294 1.294 0 01-1.085-2c.81-1.248 2.198-2 3.685-2z" stroke="#97a4a4"/><rect height="6" rx="3" stroke="#273132" width="6" x="21" y="1.997"/><path d="M22.485 10.499h3.03c1.487 0 2.874.752 3.685 2a1.294 1.294 0 01-1.085 2h-8.23a1.294 1.294 0 01-1.085-2c.81-1.248 2.198-2 3.685-2z" stroke="#273132"/><g stroke="#3f51b5"><rect height="6" rx="3" width="6" x="37" y="1.997"/><path d="M38.485 10.499h3.03c1.487 0 2.874.752 3.685 2a1.294 1.294 0 01-1.085 2h-8.23a1.294 1.294 0 01-1.085-2c.81-1.248 2.198-2 3.685-2z"/></g></g></svg>