<svg height="64" width="64" xmlns="http://www.w3.org/2000/svg"><g fill="#b5010f"><path d="M54.272 11.412c2.412 2.411-4.275 13.01-5.405 14.14-1.13 1.129-4.002.09-6.413-2.321-2.412-2.411-3.451-5.283-2.32-6.413C41.263 15.687 51.86 9 54.271 11.412m-33.824 2.551c-3.682-2.09-8.922-4.413-10.589-2.746-1.689 1.688.72 7.046 2.832 10.735a22.645 22.645 0 017.757-7.989"/><path d="M50.593 24.72c.34 1.15.279 2.1-.271 2.65-1.285 1.285-4.755-.083-7.883-3.06a15.961 15.961 0 01-.647-.612c-1.131-1.132-2.011-2.336-2.574-3.445-1.096-1.965-1.37-3.701-.542-4.53.452-.45 1.174-.573 2.054-.414a42.491 42.491 0 011.996-1.183A21.789 21.789 0 0032.62 11.66c-12.093 0-21.896 9.802-21.896 21.895 0 12.092 9.803 21.895 21.896 21.895s21.896-9.803 21.896-21.895A21.79 21.79 0 0051.7 22.813a42.282 42.282 0 01-1.107 1.909"/></g></svg>