<svg width="26" height="26" xmlns="http://www.w3.org/2000/svg"><g transform="rotate(15 4.904 28.192)" stroke="#292E33" stroke-width="2" fill="none" fill-rule="evenodd"><path d="M2.062 20h12.163a2 2 0 001.898-2.632l-.439-1.315a24 24 0 01-.99-4.195L14.5 10.5a7.908 7.908 0 00-3.442-5.461L11 5a5.408 5.408 0 00-6 0l-.058.039A7.908 7.908 0 001.5 10.5l-.325 2.274A24 24 0 01.7 15.201l-.58 2.314A2 2 0 002.061 20zM5 20.5a3 3 0 006 0"/><circle cx="8" cy="2" r="2"/><path d="M18.658 10.298c0 2.163.558 3.964 1.676 5.403" stroke-linecap="round"/></g></svg>