<svg width="15" height="15" xmlns="http://www.w3.org/2000/svg"><g fill="none" fill-rule="evenodd"><rect stroke="#677278" x=".5" y=".5" width="14" height="14" rx="7"/><path fill="#677278" d="M7 3h1v2H7zm0 7h1v2H7z"/><path d="M5.177 6.264c0-1.335 1.119-1.898 2.35-1.898 1.341 0 2.25.68 2.25 1.77h-1.08c-.04-.41-.422-.844-1.207-.844-.691 0-1.178.322-1.178.861 0 .697.862.785 1.553.908 1.149.2 2.074.563 2.074 1.735 0 1.248-.99 1.968-2.513 1.968-1.424 0-2.367-.662-2.367-1.763h1.154c.076.504.445.826 1.271.826.92 0 1.301-.393 1.301-.885 0-.65-.697-.756-1.547-.92-1.136-.228-2.062-.539-2.062-1.758z" fill="#677278" fill-rule="nonzero"/></g></svg>