<svg height="64" width="64" xmlns="http://www.w3.org/2000/svg"><g fill="none" fill-rule="evenodd"><path d="M19 9h28c5.523 0 10 4.477 10 10v24c0 5.523-4.477 10-10 10H19c-5.523 0-10-4.477-10-10V19c0-5.523 4.477-10 10-10z" stroke="#203236" stroke-linecap="round" stroke-linejoin="round" stroke-width="2"/><path d="M23 25h34v17H23a4 4 0 01-4-4v-9a4 4 0 014-4z" stroke="#203236" stroke-linecap="round" stroke-linejoin="round" stroke-width="2"/><path d="M26.077 28.368h2.212L31.873 38h-1.988l-.742-2.156h-3.99L24.397 38h-1.904zm1.064 1.778l-1.47 4.186h2.954l-1.428-4.186zm5.824-2.394h1.806v2.1c0 .233-.002.562-.007.987s-.03.861-.077 1.309h.056a1.91 1.91 0 01.868-.861c.383-.191.84-.287 1.372-.287.43 0 .83.077 1.204.231s.7.378.98.672.5.663.658 1.106c.159.443.238.95.238 1.519 0 .579-.084 1.092-.252 1.54a3.43 3.43 0 01-.686 1.141c-.29.313-.628.55-1.015.714a3.16 3.16 0 01-1.24.245c-1.016 0-1.726-.383-2.127-1.148h-.056V38h-1.722zm1.806 6.832c0 .69.16 1.232.483 1.624s.74.588 1.253.588c.504 0 .915-.205 1.232-.616.317-.41.476-.961.476-1.652s-.159-1.223-.476-1.596a1.542 1.542 0 00-1.232-.56c-.504 0-.915.187-1.232.56-.317.373-.485.891-.504 1.554zm6.328 0c0-.56.086-1.062.259-1.505.173-.443.415-.819.728-1.127a3.148 3.148 0 011.127-.707c.439-.163.92-.245 1.442-.245.513 0 .966.065 1.358.196.392.13.723.315.994.553.27.238.48.52.63.847.15.327.243.686.28 1.078h-1.75c-.056-.373-.203-.684-.441-.931s-.595-.371-1.071-.371a1.5 1.5 0 00-.693.161c-.21.107-.387.259-.532.455s-.26.43-.343.7c-.084.27-.126.57-.126.896s.042.625.126.896c.084.27.198.504.343.7s.322.348.532.455a1.5 1.5 0 00.693.161c.476 0 .833-.124 1.07-.371s.386-.558.442-.931h1.75c-.037.392-.13.751-.28 1.078a2.5 2.5 0 01-.63.847c-.27.238-.602.422-.994.553-.392.13-.845.196-1.358.196-.55 0-1.045-.08-1.484-.238a3.004 3.004 0 01-1.12-.7 3.069 3.069 0 01-.707-1.127c-.163-.443-.245-.95-.245-1.519z" fill="#203236" fill-rule="nonzero"/></g></svg>