<svg height="52" width="48" xmlns="http://www.w3.org/2000/svg"><path d="M6 0a4 4 0 014 4v2h1a1 1 0 011 1v8a1 1 0 01-1 1H1a1 1 0 01-1-1V7a1 1 0 011-1h1V4a4 4 0 014-4zm0 9a1 1 0 00-.993.883L5 10v2a1 1 0 001.993.117L7 12v-2a1 1 0 00-1-1zm0-7a2 2 0 00-2 2v2h4V4a2 2 0 00-2-2zm24 24a4 4 0 014 4v2h1a1 1 0 011 1v8a1 1 0 01-1 1H25a1 1 0 01-1-1v-8a1 1 0 011-1h1v-2a4 4 0 014-4zm0 9a1 1 0 00-.993.883L29 36v2a1 1 0 001.993.117L31 38v-2a1 1 0 00-1-1zm0-7a2 2 0 00-2 2v2h4v-2a2 2 0 00-2-2z" fill-opacity=".05"/></svg>