<svg width="16" height="16" fill="none" xmlns="http://www.w3.org/2000/svg"><path d="M5.7 7.61a.7.7 0 100 1.4h4.6a.7.7 0 100-1.4H5.7zM5 5.32a.7.7 0 01.7-.7h1.6a.7.7 0 110 1.4H5.7a.7.7 0 01-.7-.7zm.7 5.279a.7.7 0 100 1.4h4.6a.7.7 0 100-1.4H5.7z" fill="#202B30"/><path fill-rule="evenodd" clip-rule="evenodd" d="M2 4.7A3.7 3.7 0 015.7 1h4.6A3.7 3.7 0 0114 4.7v6.6a3.7 3.7 0 01-3.7 3.7H5.7A3.7 3.7 0 012 11.3V4.7zm3.7-2.3a2.3 2.3 0 00-2.3 2.3v6.6a2.3 2.3 0 002.3 2.3h4.6a2.3 2.3 0 002.3-2.3V6h-.9A2.7 2.7 0 019 3.3v-.9H5.7zm4.7.003A2.3 2.3 0 0112.598 4.6H11.7a1.3 1.3 0 01-1.3-1.3v-.898z" fill="#202B30"/></svg>