<svg width="16" height="16" fill="none" xmlns="http://www.w3.org/2000/svg"><path fill-rule="evenodd" clip-rule="evenodd" d="M1 4.5A3.5 3.5 0 014.5 1h7A3.5 3.5 0 0115 4.5v7a3.5 3.5 0 01-3.5 3.5h-7A3.5 3.5 0 011 11.5v-7zm3.5-2.1a2.1 2.1 0 00-2.1 2.1v7a2.1 2.1 0 002.1 2.1h7a2.1 2.1 0 002.1-2.1v-7a2.1 2.1 0 00-2.1-2.1h-7z" fill="#697678"/><rect x="4" y="4" width="4.594" height="1.4" rx=".7" fill="#697678"/><rect x="4" y="7.3" width="6.375" height="1.4" rx=".7" fill="#697678"/><rect x="8.031" y="10.594" width="4.188" height="1.4" rx=".7" fill="#697678"/><rect x="4" y="10.594" width="3.188" height="1.4" rx=".7" fill="#697678"/><rect x="9.813" y="4" width="2.406" height="1.4" rx=".7" fill="#697678"/></svg>