<svg width="16" height="16" fill="none" xmlns="http://www.w3.org/2000/svg"><path fill-rule="evenodd" clip-rule="evenodd" d="M8 .675c-.952 0-1.87.31-2.552 1.006-.638.653-1 1.58-1.044 2.723-1.144.043-2.07.406-2.723 1.044C.985 6.13.675 7.048.675 8s.31 1.87 1.006 2.552c.653.638 1.58 1 2.723 1.044.043 1.144.406 2.07 1.044 2.723.681.696 1.6 1.006 2.552 1.006s1.87-.31 2.552-1.006c.638-.654 1-1.58 1.044-2.723 1.144-.043 2.07-.406 2.723-1.044.696-.681 1.006-1.6 1.006-2.552s-.31-1.87-1.006-2.552c-.654-.638-1.58-1-2.723-1.044-.043-1.144-.406-2.07-1.044-2.723C9.87.985 8.952.675 8 .675zM5.8 4.638c0-.978.282-1.602.65-1.978.369-.378.9-.585 1.55-.585s1.181.207 1.55.585c.368.376.65 1 .65 1.978 0 .14-.005.282-.017.425l-.04.518A3.22 3.22 0 008 4.769a3.22 3.22 0 00-2.142.812l-.041-.518a5.377 5.377 0 01-.017-.425zm-.22 1.22l-.517-.041a5.377 5.377 0 00-.425-.018c-.978 0-1.602.283-1.978.65-.378.37-.585.9-.585 1.551 0 .65.207 1.181.585 1.55.376.368 1 .65 1.978.65.14 0 .282-.005.425-.017l.518-.04A3.22 3.22 0 014.769 8c0-.822.307-1.572.812-2.142zm.278 4.561l-.041.518a5.379 5.379 0 00-.017.425c0 .978.282 1.602.65 1.978.369.378.9.585 1.55.585s1.181-.207 1.55-.585c.368-.376.65-1 .65-1.978 0-.14-.005-.282-.017-.425l-.04-.518A3.224 3.224 0 018 11.231a3.219 3.219 0 01-2.142-.812zm4.561-.277l.518.041c.143.012.285.018.425.018.978 0 1.602-.283 1.978-.65.378-.37.585-.9.585-1.551 0-.65-.207-1.181-.585-1.55-.376-.368-1-.65-1.978-.65-.14 0-.282.005-.425.017l-.518.04c.505.571.812 1.321.812 2.143 0 .822-.306 1.572-.812 2.142zM6.17 8a1.831 1.831 0 113.66 0 1.831 1.831 0 01-3.66 0z" fill="#697678"/></svg>