<svg width="16" height="16" fill="none" xmlns="http://www.w3.org/2000/svg"><path fill-rule="evenodd" clip-rule="evenodd" d="M4.322 2.408A2.1 2.1 0 002.4 4.5v7a2.1 2.1 0 002.1 2.1h7a2.1 2.1 0 002.1-2.1v-7a2.1 2.1 0 00-1.922-2.092A2.099 2.099 0 019.602 4.2H6.398a2.099 2.099 0 01-2.076-1.792zM11.388 1h.112A3.5 3.5 0 0115 4.5v7a3.5 3.5 0 01-3.5 3.5h-7A3.5 3.5 0 011 11.5v-7A3.5 3.5 0 014.5 1h.112A2.097 2.097 0 016.398.003h3.204c.755 0 1.416.399 1.786.997zM5.7 2.102c0-.386.313-.699.698-.699h3.204a.698.698 0 010 1.397H6.398a.698.698 0 01-.698-.698zM4.7 6.8a.7.7 0 100 1.4h6.6a.7.7 0 100-1.4H4.7zm0 3.016a.7.7 0 100 1.4h6.6a.7.7 0 100-1.4H4.7z" fill="#697678"/></svg>