<svg height="64" width="64" xmlns="http://www.w3.org/2000/svg"><g fill="none" fill-rule="evenodd"><path d="M32 6c14.36 0 26 11.64 26 26S46.36 58 32 58 6 46.36 6 32 17.64 6 32 6z" stroke="#203236" stroke-linecap="round" stroke-linejoin="round" stroke-width="2"/><path d="M28.448 35.6c.064 1.008.424 1.788 1.08 2.34s1.48.828 2.472.828c1.056 0 1.896-.264 2.52-.792s.936-1.256.936-2.184c0-.8-.264-1.392-.792-1.776s-1.256-.72-2.184-1.008l-2.112-.672c-.416-.128-.836-.304-1.26-.528s-.816-.512-1.176-.864-.652-.776-.876-1.272-.336-1.08-.336-1.752c0-.592.104-1.14.312-1.644s.5-.944.876-1.32.82-.688 1.332-.936 1.08-.42 1.704-.516v-2.592h2.112v2.592c.576.096 1.112.26 1.608.492s.928.532 1.296.9.668.8.9 1.296.372 1.04.42 1.632h-2.112c-.128-.928-.484-1.608-1.068-2.04s-1.284-.648-2.1-.648c-.416 0-.808.052-1.176.156s-.692.264-.972.48-.504.488-.672.816-.252.708-.252 1.14c0 .4.06.744.18 1.032s.296.536.528.744.52.392.864.552.748.312 1.212.456l2.112.672c1.296.416 2.26.984 2.892 1.704s.948 1.656.948 2.808c0 .672-.112 1.28-.336 1.824s-.54 1.016-.948 1.416-.896.728-1.464.984-1.188.424-1.86.504v2.664h-2.112v-2.664c-1.36-.176-2.456-.684-3.288-1.524s-1.272-1.94-1.32-3.3z" fill="#203236" fill-rule="nonzero"/><path d="M18 10h28m-31 5h34M15 49h34m-31 5h28M10 18v28m5-32v36m34-36v36m5-32v28" stroke="#203236" stroke-width="2"/></g></svg>