<svg height="64" width="64" xmlns="http://www.w3.org/2000/svg"><g fill="none"><path d="M55.932 31.94c0 13.222-10.718 23.94-23.94 23.94-13.223 0-23.941-10.718-23.941-23.94C8.05 18.719 18.769 8 31.99 8c13.223 0 23.941 10.718 23.941 23.94z" fill="#dd4814"/><path d="M15.713 28.744a3.196 3.196 0 10-.002 6.393 3.196 3.196 0 00.002-6.393zM38.534 43.27a3.194 3.194 0 00-1.17 4.365 3.194 3.194 0 004.365 1.17 3.194 3.194 0 10-3.195-5.535zM22.655 31.94a9.324 9.324 0 013.97-7.64l-2.337-3.913a13.915 13.915 0 00-5.742 8.07 4.483 4.483 0 011.655 3.482 4.483 4.483 0 01-1.655 3.481 13.905 13.905 0 005.742 8.073l2.337-3.915a9.32 9.32 0 01-3.97-7.638zm9.336-9.337c4.878 0 8.88 3.74 9.3 8.508l4.554-.067a13.843 13.843 0 00-4.126-9.006 4.482 4.482 0 01-3.832-.31 4.475 4.475 0 01-2.186-3.17 13.924 13.924 0 00-3.71-.504c-2.21 0-4.298.52-6.153 1.437l2.22 3.98a9.3 9.3 0 013.933-.868zm0 18.673a9.3 9.3 0 01-3.932-.869l-2.221 3.98a13.883 13.883 0 009.863.933 4.478 4.478 0 012.186-3.17 4.479 4.479 0 013.833-.31 13.843 13.843 0 004.125-9.006l-4.556-.067c-.419 4.77-4.42 8.509-9.298 8.509zm6.542-20.669a3.195 3.195 0 103.197-5.535 3.195 3.195 0 00-3.197 5.535z" fill="#fff"/></g></svg>