<svg height="64" width="64" xmlns="http://www.w3.org/2000/svg"><g fill="none"><path d="M42.69 35.653c4.206 0 10.291-.868 10.291-5.87a4.707 4.707 0 00-.104-1.15l-2.505-10.88c-.578-2.394-1.086-3.48-5.289-5.582-3.26-1.667-10.365-4.421-12.467-4.421-1.956 0-2.525 2.522-4.858 2.522-2.246 0-3.913-1.883-6.015-1.883-2.017 0-3.332 1.375-4.347 4.203 0 0-2.828 7.975-3.19 9.131a2.162 2.162 0 00-.075.652c0 3.1 12.205 13.264 28.559 13.264m10.937-3.826c.581 2.754.581 3.043.581 3.406 0 4.707-5.292 7.32-12.248 7.32-15.722.01-29.493-9.203-29.493-15.292a6.198 6.198 0 01.508-2.464C7.319 25.065 0 26.073 0 32.536c0 10.584 25.078 23.63 44.935 23.63C60.16 56.165 64 49.28 64 43.842c0-4.277-3.698-9.132-10.366-12.03" fill="#e00"/><path d="M53.627 31.813c.581 2.754.581 3.043.581 3.406 0 4.707-5.292 7.32-12.248 7.32-15.722.01-29.493-9.203-29.493-15.292a6.198 6.198 0 01.508-2.464l1.23-3.046a2.162 2.162 0 00-.074.638c0 3.1 12.205 13.264 28.559 13.264 4.206 0 10.291-.867 10.291-5.87a4.707 4.707 0 00-.104-1.15z" fill="#000"/></g></svg>