<svg height="16" width="48" xmlns="http://www.w3.org/2000/svg"><g fill="none" fill-rule="evenodd"><circle cx="8" cy="8" r="6" stroke="#97a4a4" stroke-width="1.5"/><g fill="#97a4a4"><path d="M5.703 6.982c0-1.294 1.095-1.804 2.33-1.804 1.295 0 2.214.596 2.214 1.697H8.915c-.038-.317-.328-.65-.908-.65-.537 0-.865.258-.865.634 0 .558.876.634 1.488.736 1.053.177 1.794.59 1.794 1.622 0 1.17-.919 1.885-2.481 1.885-1.488 0-2.353-.687-2.353-1.708h1.466c.049.381.355.65.956.65.666 0 .946-.29.946-.645 0-.52-.677-.58-1.413-.72-1.015-.198-1.842-.58-1.842-1.697z" fill-rule="nonzero"/><path d="M7.248 4.003h1.504v1.5H7.248zm0 6.493h1.504v1.5H7.248z"/></g><circle cx="24" cy="8" r="6" stroke="#273132" stroke-width="1.5"/><path d="M21.703 6.982c0-1.294 1.095-1.804 2.33-1.804 1.295 0 2.214.596 2.214 1.697h-1.332c-.038-.317-.328-.65-.908-.65-.537 0-.865.258-.865.634 0 .558.876.634 1.488.736 1.053.177 1.794.59 1.794 1.622 0 1.17-.919 1.885-2.481 1.885-1.488 0-2.353-.687-2.353-1.708h1.466c.049.381.355.65.956.65.666 0 .946-.29.946-.645 0-.52-.677-.58-1.413-.72-1.015-.198-1.842-.58-1.842-1.697z" fill="#273132" fill-rule="nonzero"/><path d="M23.248 4.003h1.504v1.5h-1.504zm0 6.493h1.504v1.5h-1.504z" fill="#273132"/><circle cx="40" cy="8" r="6" stroke="#3f51b5" stroke-width="1.5"/><path d="M37.703 6.982c0-1.294 1.095-1.804 2.33-1.804 1.295 0 2.214.596 2.214 1.697h-1.332c-.038-.317-.328-.65-.908-.65-.537 0-.865.258-.865.634 0 .558.876.634 1.488.736 1.053.177 1.794.59 1.794 1.622 0 1.17-.919 1.885-2.481 1.885-1.488 0-2.353-.687-2.353-1.708h1.466c.049.381.355.65.956.65.666 0 .946-.29.946-.645 0-.52-.677-.58-1.413-.72-1.015-.198-1.842-.58-1.842-1.697z" fill="#3f51b5" fill-rule="nonzero"/><path d="M39.248 4.003h1.504v1.5h-1.504zm0 6.493h1.504v1.5h-1.504z" fill="#3f51b5"/></g></svg>