<svg height="64" width="64" xmlns="http://www.w3.org/2000/svg"><g fill="#a80030"><path d="M36.849 33.802c-1.06.015.2.546 1.584.76.382-.3.73-.601 1.038-.895-.861.211-1.739.216-2.622.135m5.69-1.418c.63-.872 1.09-1.826 1.253-2.812-.141.703-.523 1.31-.882 1.951-1.982 1.248-.187-.741-.002-1.497-2.13 2.682-.292 1.609-.37 2.358m2.101-5.465c.128-1.91-.376-1.306-.545-.577.197.102.354 1.345.545.577M32.829.825c.565.102 1.222.18 1.13.315.619-.136.76-.261-1.13-.315m1.13.315l-.4.082.372-.033z"/><path d="M51.6 27.642c.064 1.715-.5 2.547-1.01 4.02l-.916.457c-.75 1.456.072.924-.464 2.082-1.17 1.041-3.552 3.257-4.315 3.46-.556-.013.377-.657.5-.91-1.567 1.076-1.258 1.615-3.654 2.269l-.07-.156c-5.91 2.78-14.12-2.73-14.012-10.248-.063.478-.18.358-.31.551-.305-3.868 1.786-7.753 5.313-9.34 3.45-1.707 7.495-1.007 9.966 1.297-1.357-1.779-4.06-3.663-7.261-3.487-3.137.05-6.072 2.043-7.05 4.207-1.608 1.012-1.794 3.9-2.495 4.429-.942 6.924 1.773 9.915 6.364 13.434.723.488.204.561.302.932-1.526-.714-2.923-1.792-4.072-3.113.61.892 1.268 1.76 2.118 2.44-1.439-.486-3.36-3.485-3.921-3.607 2.48 4.44 10.06 7.786 14.029 6.126-1.837.068-4.17.038-6.233-.725-.867-.446-2.046-1.37-1.835-1.543 5.417 2.024 11.012 1.533 15.7-2.225 1.192-.928 2.494-2.508 2.87-2.53-.566.853.097.41-.338 1.163 1.188-1.916-.516-.78 1.228-3.31l.644.888c-.239-1.59 1.976-3.522 1.75-6.037.509-.77.568.827.029 2.597.748-1.963.197-2.279.389-3.899.208.545.48 1.123.62 1.698-.487-1.897.5-3.195.744-4.298-.24-.106-.752.84-.869-1.402.018-.973.271-.51.37-.75-.192-.11-.693-.856-.998-2.287.22-.336.59.872.892.922-.194-1.138-.527-2.006-.54-2.88-.88-1.836-.312.245-1.025-.788-.936-2.919.776-.677.892-2.004 1.418 2.055 2.227 5.24 2.598 6.559-.283-1.608-.74-3.166-1.3-4.674.431.181-.693-3.309.56-.997-1.339-4.928-5.73-9.531-9.771-11.692.494.453 1.118 1.02.894 1.11-2.01-1.197-1.656-1.29-1.944-1.795-1.637-.666-1.744.053-2.829 0-3.085-1.636-3.68-1.462-6.52-2.487l.13.604c-2.044-.681-2.382.258-4.59.002-.135-.105.707-.38 1.4-.48-1.976.26-1.884-.39-3.817.071.476-.334.98-.556 1.489-.84-1.612.098-3.848.938-3.158.174-2.628 1.173-7.297 2.82-9.917 5.276l-.083-.55c-1.2 1.44-5.235 4.304-5.556 6.17l-.321.075c-.625 1.058-1.03 2.257-1.525 3.345-.817 1.392-1.197.536-1.081.754-1.607 3.258-2.405 5.996-3.095 8.242.491.734.012 4.421.198 7.372-.807 14.574 10.228 28.725 22.29 31.992 1.769.632 4.398.608 6.634.673-2.638-.755-2.98-.4-5.55-1.296-1.854-.873-2.26-1.87-3.574-3.01l.52.918c-2.576-.911-1.498-1.128-3.593-1.791l.555-.725c-.835-.064-2.211-1.407-2.588-2.151l-.913.036c-1.097-1.354-1.682-2.33-1.64-3.086l-.294.526c-.335-.574-4.037-5.078-2.116-4.03-.357-.326-.832-.53-1.346-1.465l.391-.447c-.924-1.19-1.701-2.714-1.642-3.222.493.666.835.79 1.174.905-2.335-5.792-2.466-.32-4.234-5.896l.374-.03c-.286-.432-.46-.901-.691-1.361l.163-1.623c-1.681-1.943-.47-8.262-.228-11.728.168-1.41 1.403-2.91 2.342-5.263l-.572-.098c1.094-1.908 6.245-7.662 8.63-7.366 1.156-1.452-.229-.005-.455-.371 2.539-2.627 3.337-1.856 5.05-2.329 1.848-1.096-1.586.428-.71-.418 3.194-.816 2.264-1.855 6.43-2.269.44.25-1.02.386-1.385.711 2.66-1.302 8.421-1.006 12.162.723 4.342 2.028 9.22 8.026 9.412 13.669l.219.059c-.111 2.243.343 4.837-.444 7.22z"/><path d="M25.277 35.257l-.148.744c.696.946 1.25 1.971 2.139 2.711-.64-1.25-1.116-1.766-1.99-3.455m1.647-.065c-.37-.407-.587-.898-.832-1.387.234.86.712 1.598 1.158 2.35zm29.145-6.334l-.156.39a18.854 18.854 0 01-1.847 5.896 18.525 18.525 0 002.003-6.286M33.038.317C33.755.054 34.8.173 35.561 0c-.991.083-1.978.133-2.952.258zM7.874 13.698c.165 1.529-1.15 2.123.291 1.114.773-1.74-.302-.48-.29-1.114M6.18 20.775c.332-1.02.392-1.632.519-2.222-.918 1.174-.423 1.424-.52 2.222"/></g></svg>