<svg height="64" width="64" xmlns="http://www.w3.org/2000/svg"><g fill="none" fill-rule="evenodd" stroke="#203236" stroke-width="2"><path d="M18 9h28c5.523 0 10 4.477 10 10v24c0 5.523-4.477 10-10 10H18c-5.523 0-10-4.477-10-10V19c0-5.523 4.477-10 10-10z" stroke-linecap="round" stroke-linejoin="round"/><path d="M7.794 35.203h1.304a4.164 4.164 0 004.164-4.12l.006-.518a3.64 3.64 0 017.278 0l.013 1.202a3.64 3.64 0 007.278 0l.013-1.202a3.64 3.64 0 017.278 0l.012 1.202a3.64 3.64 0 007.279 0l.012-1.161a3.68 3.68 0 013.68-3.642 3.641 3.641 0 013.64 3.642v.542a4.184 4.184 0 004.185 4.184H56M7 43h50M7 19h50"/></g></svg>