<svg width="17" height="17" fill="none" xmlns="http://www.w3.org/2000/svg"><g clip-path="url(#clip0)"><path fill-rule="evenodd" clip-rule="evenodd" d="M8.501.204a7.987 7.987 0 00-2.527 15.562c.4.075.57-.17.57-.382v-1.358c-2.219.48-2.686-1.072-2.686-1.072a2.117 2.117 0 00-.925-1.17c-.724-.49.057-.485.057-.485a1.679 1.679 0 011.221.828 1.712 1.712 0 002.328.662c.032-.405.21-.784.502-1.067-1.769-.206-3.634-.89-3.634-3.948a3.08 3.08 0 01.821-2.145 2.852 2.852 0 01.08-2.11s.668-.218 2.197.815a7.587 7.587 0 013.993 0c1.523-1.033 2.19-.816 2.19-.816a2.85 2.85 0 01.08 2.111c.54.582.835 1.35.822 2.145 0 3.07-1.865 3.742-3.645 3.942a1.899 1.899 0 01.542 1.478v2.19c0 .263.142.462.57.382A7.987 7.987 0 008.501.204z" fill="#697678"/></g><defs><clipPath id="clip0"><path fill="#fff" transform="translate(.516 .204)" d="M0 0h16v16H0z"/></clipPath></defs></svg>