<svg width="16" height="16" fill="none" xmlns="http://www.w3.org/2000/svg"><path fill-rule="evenodd" clip-rule="evenodd" d="M7.511 1.946a.15.15 0 00-.148.13l-.245 1.752-.39.124a4.243 4.243 0 00-1.572.91l-.305.279-1.65-.677a.15.15 0 00-.186.063l-.502.87a.15.15 0 00.038.193l1.406 1.097-.087.4a4.267 4.267 0 00-.005 1.808l.086.4-1.413 1.092a.15.15 0 00-.038.194l.502.869a.15.15 0 00.186.064l1.65-.668.303.28c.45.414.99.733 1.587.923l.39.124.245 1.751a.15.15 0 00.148.13h1.004a.15.15 0 00.148-.13l.236-1.746.394-.124a4.243 4.243 0 001.594-.92l.303-.277 1.622.657a.15.15 0 00.186-.064l.502-.869a.15.15 0 00-.038-.194L12.08 9.32l.088-.403a4.265 4.265 0 00-.004-1.852l-.09-.402 1.375-1.073a.15.15 0 00.038-.194l-.502-.869a.15.15 0 00-.187-.063l-1.622.665-.303-.276a4.242 4.242 0 00-1.58-.906L8.9 3.823l-.236-1.747a.15.15 0 00-.148-.13H7.51zm-1.436-.05A1.45 1.45 0 017.511.645h1.004c.726 0 1.34.537 1.437 1.256l.127.946c.487.195.94.456 1.347.774l.879-.361a1.45 1.45 0 011.806.616l.502.87a1.45 1.45 0 01-.364 1.867l-.74.578a5.587 5.587 0 01.003 1.592l.745.575a1.45 1.45 0 01.369 1.872l-.502.869a1.45 1.45 0 01-1.8.62l-.878-.356a5.544 5.544 0 01-1.367.79l-.127.944a1.45 1.45 0 01-1.437 1.256H7.51a1.45 1.45 0 01-1.436-1.25l-.134-.958a5.541 5.541 0 01-1.362-.793l-.904.366a1.45 1.45 0 01-1.8-.62l-.5-.868a1.45 1.45 0 01.368-1.872l.78-.602a5.592 5.592 0 01.003-1.538l-.775-.605a1.45 1.45 0 01-.364-1.868l.502-.869a1.45 1.45 0 011.806-.616l.904.37c.406-.317.857-.58 1.342-.776l.134-.96zM8 6.65a1.35 1.35 0 100 2.7 1.35 1.35 0 000-2.7zM5.35 8a2.65 2.65 0 115.3 0 2.65 2.65 0 01-5.3 0z" fill="#697678"/></svg>