<svg width="16" height="16" fill="none" xmlns="http://www.w3.org/2000/svg"><path fill-rule="evenodd" clip-rule="evenodd" d="M4.7 2.4a2.3 2.3 0 00-2.3 2.3v6.6a2.3 2.3 0 002.3 2.3h6.6a2.3 2.3 0 002.3-2.3V4.7a2.3 2.3 0 00-2.3-2.3H4.7zM1 4.7A3.7 3.7 0 014.7 1h6.6A3.7 3.7 0 0115 4.7v6.6a3.7 3.7 0 01-3.7 3.7H4.7A3.7 3.7 0 011 11.3V4.7zm4.7.7a.3.3 0 00-.3.3v4.6a.3.3 0 00.3.3h4.6a.3.3 0 00.3-.3V5.7a.3.3 0 00-.3-.3H5.7zM4 5.7A1.7 1.7 0 015.7 4h4.6A1.7 1.7 0 0112 5.7v4.6a1.7 1.7 0 01-1.7 1.7H5.7A1.7 1.7 0 014 10.3V5.7zm2.797 3.197v-1.8a.3.3 0 01.3-.3h1.8a.3.3 0 01.3.3v1.8a.3.3 0 01-.3.3h-1.8a.3.3 0 01-.3-.3z" fill="#202B30"/></svg>