<svg height="156" width="124" xmlns="http://www.w3.org/2000/svg"><g fill="none" fill-rule="evenodd"><path d="M22.478 83.796c.868 3.306 2.056 5.643 3.562 7.01m.701 7.664l-3.995-1.787a10.01 10.01 0 01-4.498-3.988l-1.902-3.171-1.772-6.01a.896.896 0 00-1.493-.38l-.094.095a2.73 2.73 0 00-.768 2.334l.533 3.554a1.82 1.82 0 01-2.326 2.012L6.38 89.906a3.807 3.807 0 00-2.493.1 1.176 1.176 0 00-.608 1.649l.156.29a1.503 1.503 0 01-.746 2.095l-.212.089a1.186 1.186 0 00-.332 1.98l.87.775a1.458 1.458 0 01-.187 2.316 1.122 1.122 0 00.079 1.936l.862.457a1.156 1.156 0 01.296 1.819l-.162.17a1.351 1.351 0 00.004 1.866l.445.464c.29.303.674.496 1.09.547l4.471.557c1.742.217 3.504.22 5.247.008a13.7 13.7 0 015.178.364l2.02.539" stroke="#222" stroke-linecap="round" stroke-width="2.45"/><g transform="rotate(-8 102.492 -51.574)"><g stroke-width="2.45" stroke-linecap="round"><path d="M57.073 147.284l-4.538-22.234a62.303 62.303 0 01-.13-.653L47.56 99.293l-9.295 8.515a16.8 16.8 0 01-20.753 1.533L.088 97.569l6.508-11.102 13.016 6.06a9.8 9.8 0 0011.406-2.312l10.46-11.57a25.252 25.252 0 015.115-4.331l9.677-6.197a3.03 3.03 0 012.013.339l5.748 3.219a11.641 11.641 0 0011.74-.213l4.917-2.993a3.03 3.03 0 011.928-.421l1.665.163a20.202 20.202 0 0117.376 14.287l.63 2.095" stroke="#222" stroke-linejoin="round"/><path d="M76.883 50.002s-3.19 3.093-8.9 2.594c-5.71-.5-8.314-4.1-8.314-4.1" stroke="#131315"/><path d="M67.917 4.945c14.177-.495 20.714 11.392 22.852 23.312a4.32 4.32 0 01.817 8.278C91.818 54.158 77.675 63.47 69.96 63.47c-7.818 0-22.782-5.944-23.485-26.076l-.002-.078a4.322 4.322 0 01.35-8.45C48.27 16.923 54.029 5.43 67.918 4.945z" stroke="#222"/><path d="M69.415 37.762l1.297 5.513c.288 1.223-.487 2.214-1.751 2.214h-2.273" stroke="#222"/><ellipse cx="60.116" cy="34.17" rx="6.51" ry="6.165" stroke="#222"/><ellipse cx="78.298" cy="34.17" rx="6.51" ry="6.165" stroke="#222"/></g><circle cx="60.058" cy="34.887" fill="#222" r="1.531"/><circle cx="78.24" cy="34.887" fill="#222" r="1.531"/><path d="M72.945 0c1.577 0 2.854.499 3.83 1.497a4.04 4.04 0 002.265 1.167l1.038.162a5.2 5.2 0 013.79 2.7l.25.471a5.05 5.05 0 003.968 2.66c2.697.265 4.18 1.605 4.446 4.021.08.72-.058 1.58-.412 2.581a2.336 2.336 0 00.535 2.412l.304.31c.484.493.682 1.2.525 1.873l-.144.618a6.06 6.06 0 00.104 3.139c.195.641.292 1.23.292 1.765a3.864 3.864 0 01-3.863 3.864 5.815 5.815 0 01-5.789-5.256l-.331-3.427a3.324 3.324 0 00-4.287-2.857l-6.524 2.008c-2.306.71-4.764.77-7.103.175l-7.503-1.91a2.944 2.944 0 00-3.67 2.852V23a7.035 7.035 0 01-7.036 7.035 5.422 5.422 0 01-5.422-5.422c0-.72.251-1.465.755-2.236a8.08 8.08 0 001.014-6.593 4.855 4.855 0 01-.196-1.302 7.03 7.03 0 016.957-7.03 6.06 6.06 0 004.804-2.547C57.525 2.117 59.577.723 61.698.723c.543 0 1.167.108 1.872.324a9.09 9.09 0 006.1-.275C70.93.257 72.022 0 72.945 0z" fill="#222"/><path d="M84.87 33.671h3.182l2.272-5.454m-36.818 5.909H49.87l-3.182-5.91m20 5.91a4.26 4.26 0 015.455 0M61.378 61.36l-1.01 8.081M77.54 60.35l2.02 9.091" stroke="#222" stroke-width="2.45"/></g><g stroke="#222" stroke-linecap="round" stroke-width="2.45"><path d="M7.619 106.706l.994-.08a2.209 2.209 0 001.853-1.331l.084-.195a1.87 1.87 0 00-.259-1.905 2.331 2.331 0 00-1.82-.875H4.69m2.848 0l1.334-.183a2.115 2.115 0 001.635-1.212l.016-.037a1.817 1.817 0 00-.232-1.893 2.454 2.454 0 00-1.82-.92l-4.801-.189m3.66.132l1.299-.04a1.74 1.74 0 001.522-1.004l.03-.065a1.884 1.884 0 00-.092-1.764 2.062 2.062 0 00-1.505-.985l-4.914-.632"/><path d="M8.731 90.617l.763.345a1.86 1.86 0 011.006 1.136c.157.5.071 1.044-.233 1.47l-.005.008c-.301.423-.808.65-1.324.594l-2.172-.237"/></g></g></svg>