<svg height="72" width="72" xmlns="http://www.w3.org/2000/svg"><g fill="none" fill-rule="evenodd" stroke="#131315" stroke-width="2"><circle cx="36.271" cy="36.271" r="32"/><path d="M51.59 8.582l-3.21 8.273a3 3 0 01-2.797 1.915h-8.218a5.46 5.46 0 00-5.46 5.404l-.03 2.928a4 4 0 002.179 3.604l4.05 2.07a4 4 0 012.179 3.56v5.742a4 4 0 004 4h7.624a4 4 0 012.828 1.171l7.429 7.429M5.504 31.63h6.576a3 3 0 012.844 2.045l1.715 5.112a3 3 0 002.844 2.046h6.492a3 3 0 013 3v7.642a3 3 0 00.508 1.67l1.912 2.852a3 3 0 01-.936 4.236l-7.77 4.715"/></g></svg>