<svg height="256" width="292" xmlns="http://www.w3.org/2000/svg"><g fill="none" fill-rule="evenodd"><path d="M261.282 145.02L263 162.5l-4.942 1.624A81.798 81.798 0 01202.5 162.5l.535-8.108a93 93 0 00-.037-12.782l-.498-6.932L184 126.5m-.054-13.282l10.59-27.075a25 25 0 0115.87-14.77l7.037-2.184a3 3 0 011.994.335l5.69 3.187a11.525 11.525 0 0011.623-.211l4.868-2.963a3 3 0 011.908-.417l1.942.19a20 20 0 0117.08 13.752l5.993 18.536" stroke="#222" stroke-linecap="round" stroke-linejoin="round" stroke-width="2.5"/><path d="M205.5 251l-1-86.5m55.25 0V251m-33.506 0l4.723-62.155a2 2 0 013.99.006L239.5 251m-1.65-199.745s-3.157 3.062-8.81 2.568-8.231-4.06-8.231-4.06" stroke="#222" stroke-linecap="round" stroke-width="2.5"/><path d="M228.974 6.648c14.035-.49 20.507 11.279 22.623 23.08a4.276 4.276 0 01.808 8.195c.23 17.446-13.77 26.664-21.408 26.664-7.74 0-22.553-5.884-23.25-25.815l-.002-.077a4.279 4.279 0 01.348-8.366c1.43-11.823 7.13-23.2 20.88-23.68z" stroke="#222" stroke-linecap="round" stroke-width="2.5"/><path d="M230.457 39.138l1.284 5.457c.285 1.211-.483 2.193-1.734 2.193h-2.25" stroke="#222" stroke-linecap="round" stroke-width="2.5"/><ellipse cx="221.251" cy="35.581" rx="6.445" ry="6.103" stroke="#222" stroke-linecap="round" stroke-width="2.5"/><ellipse cx="239.251" cy="35.581" rx="6.445" ry="6.103" stroke="#222" stroke-linecap="round" stroke-width="2.5"/><circle cx="221.251" cy="36.787" fill="#222" r="1.516"/><circle cx="239.251" cy="36.787" fill="#222" r="1.516"/><path d="M233.952 1.753c1.561 0 2.825.494 3.791 1.482a4 4 0 002.243 1.155l1.027.16a5.147 5.147 0 013.753 2.674l.247.466a5 5 0 003.928 2.634c2.67.262 4.138 1.589 4.402 3.98.078.712-.058 1.564-.408 2.556a2.31 2.31 0 00.53 2.387l.3.307a2 2 0 01.52 1.854l-.142.613a6 6 0 00.102 3.107c.193.634.29 1.217.29 1.747a3.825 3.825 0 01-3.825 3.825 5.757 5.757 0 01-5.73-5.203l-.329-3.392a3.291 3.291 0 00-4.244-2.829l-6.458 1.988a13 13 0 01-7.032.173l-7.429-1.891a2.915 2.915 0 00-3.634 2.824v2.153a6.965 6.965 0 01-6.964 6.965 5.368 5.368 0 01-5.368-5.368c0-.713.249-1.45.747-2.214a8 8 0 001.004-6.527 4.806 4.806 0 01-.194-1.29 6.96 6.96 0 016.888-6.959 6 6 0 004.756-2.521c1.963-2.76 3.994-4.14 6.094-4.14.538 0 1.156.106 1.853.32a9 9 0 006.04-.272c1.247-.51 2.328-.764 3.242-.764z" fill="#222"/><path d="M245.757 35.088h3.15l2.25-5.4m-36.45 5.85h-3.6l-3.15-5.85m19.8 5.85a4.218 4.218 0 015.4 0" stroke="#222" stroke-width="2.5"/><path d="M161.757 57.684s-2.838 2.863-6.962 1.573c-2.159-.675-3.759-1.9-4.793-2.914" stroke="#222" stroke-linecap="round" stroke-width="2.5"/><path d="M158 20.5c8.803.965 12.502 5.541 13.32 16.244a3.243 3.243 0 011.18 2.506 3.24 3.24 0 01-1.001 2.346l.001.404c0 5.305-1.074 26.425-19.9 26.425-13.309 0-16.6-21.846-16.6-27.925 0-14.5 12.873-21.11 23-20z" stroke="#222" stroke-linecap="round" stroke-width="2.5"/><path d="M159.5 47l.362 3.258c.076.686-.297 1.59-.836 2.021L157.5 53.5M282 100.496v29.612a7 7 0 01-3.955 6.303l-36.24 17.509a3 3 0 01-4.305-2.701V119.17a7 7 0 014.313-6.464l36.035-14.981a3 3 0 014.152 2.77zM239.5 154l-8.132-3.279m-16.168-6.52l-2.341-.943a2 2 0 01-.07-3.68l2.485-1.115" stroke="#222" stroke-linecap="round" stroke-width="2.5"/><path d="M222.5 62.5l-1 8m17-9l2 9" stroke="#222" stroke-width="2.5"/><ellipse cx="153.425" cy="42.017" fill="#222" rx="1.544" ry="1.685" transform="rotate(34 153.425 42.017)"/><ellipse cx="164.14" cy="42.388" fill="#222" rx="1.544" ry="1.685" transform="rotate(34 164.14 42.388)"/><path d="M218.448 147.411l.62-2.895A1.993 1.993 0 01221.5 143a2.162 2.162 0 011.596 2.522l-.677 3.383A1.816 1.816 0 01220 150.25a2.477 2.477 0 01-1.552-2.839zm-3.592-2.477l.375-.907a2.278 2.278 0 012.427-1.383 1.624 1.624 0 011.353 1.972l-.509 2.205A1.76 1.76 0 01216 148a2.4 2.4 0 01-1.144-3.066zm7.563 4.471l1.186-5.929A2.168 2.168 0 01226 141.75a1.907 1.907 0 011.64 2.233l-1.258 6.915A1.784 1.784 0 01224 152.25a2.512 2.512 0 01-1.581-2.845z" stroke="#222" stroke-linecap="round" stroke-width="2.5"/><path d="M226.758 149.76l.479-2.994a1.797 1.797 0 012.029-1.495 1.838 1.838 0 011.568 2.008l-.334 3.221 3.5 1.5-3.419 1.068a2.974 2.974 0 01-3.823-3.308z" stroke="#222" stroke-linecap="round" stroke-linejoin="round" stroke-width="2.5"/><path d="M147.185 67.583l-.87 4.348a3 3 0 01-1.793 2.182l-9.509 3.942A13.905 13.905 0 00126.5 92.25a37.19 37.19 0 007.13 18.526L137.5 116a30.016 30.016 0 0026.736 12.036l22.351-1.956a1 1 0 00.913-.996v-10.518a1 1 0 00-1.063-.998l-14.687.932a23.813 23.813 0 01-22.808-13.116L146.5 96.5m41 27l4-1h7.646a3 3 0 002.683-1.658l2.35-4.702a1 1 0 011.03-.543l8.805 1.2a1.31 1.31 0 001.486-1.297c0-.887-.59-1.665-1.444-1.904l-9.45-2.646a6 6 0 00-3.214-.007L188.5 114.5M148 40c1.667-2 3.667-3 6-3m8.527.357c2.014-.229 3.828.2 5.44 1.286" stroke="#222" stroke-linecap="round" stroke-width="2.5"/><path d="M148.008 32.632c8.995-1.003 13.492-3.38 13.492-7.132 5.167 0 7.99 3.551 8.472 10.654l3.004.846c.016-6-.31-10.333-.976-13-1.533-6.131-7.5-11.5-15-11.5-10 0-15.5 1.5-19 6.5-10 12.5-4 23-18 34.5-1.5 9.5 8 25.5 21.5 9.5-2.299-7.183-2.12-15.605.535-25.266a7 7 0 015.973-5.102z" fill="#222"/><g stroke="#222" stroke-width="2.5" stroke-linecap="round"><path d="M129 103l2.68 23.36a93 93 0 01-1.934 32.197L127 170.06l13.829 2.683a65 65 0 0033.897-2.474l10.823-3.796-3.15-18.499a56 56 0 01-.62-4.98l-1.279-16.143" stroke-linejoin="round"/><path d="M207.5 135.5l6.127.943c.166.025 1.415.345 3.748.96l4.102 1.902m9.891-3.343l4.448.642c1.123.486 1.684-.01 1.684-1.488 0-1.889-1.208-2.519-3-3.116l-1.947-.65a3 3 0 01-1.624-1.302l-.179-.298a2.238 2.238 0 00-2.196-1.07l-5.68.71a8 8 0 01-1.75.026l-9.624-.916M232 131l5.5-2.5"/><path d="M202.5 134.678l3.579 1.662a1 1 0 001.421-.907v-1.683a5.557 5.557 0 012.833-4.843l3.315-1.865a1 1 0 00-.132-1.805L202.5 121M161 67l1.566 3.37a3 3 0 001.35 1.403l8.154 4.19a16.702 16.702 0 019.07 14.855v10.78"/><path d="M176.912 93.948a18.233 18.233 0 014.282 16.041l-.694 3.229m22-2.718v-8.38l-3.583 8.38" stroke-linejoin="round"/><path d="M229.002 139.463l8.498 1.534m-108.81 29.691a78.641 78.641 0 00-1.554 38.69L133 237.08V252m50.698-84.695l1.07 13.617a131.37 131.37 0 01-1.268 31.19l-2.468 15.319-.063.398L177.216 252"/><path d="M159.474 199.115L158 230.488 156.75 252" stroke-linejoin="round"/><path d="M126 209.836H3.541m201.459 0h-20.459m105.459 0h-29.459m-228.933-43h18v43h-18zm28 30h39v13h-39zm0-5.5h44v5.5h-44z"/><path d="M49.608 160.836h10v49h-10zM240.5 98.25l1.603.107a44.107 44.107 0 0013.492-1.18M72 182h16l-2 9.336H74z"/><path d="M73.632 182a31.216 31.216 0 01-4.087-23.09l.407-1.907a30.2 30.2 0 017.885 22.363l-.17 2.634zm1.06-18.676v-.074a36.9 36.9 0 013.916-16.543l.587 1.117a41.748 41.748 0 014.291 13.012" stroke-linejoin="round"/><path d="M86.029 182a38.38 38.38 0 003.731-26.378l-.358-1.649a38.471 38.471 0 00-11.045 22.51l-.69 5.517" stroke-linejoin="round"/><path d="M81.842 182c2.175-7.116 3.87-13.061 5.084-17.835"/></g></g></svg>