<svg height="44" width="44" xmlns="http://www.w3.org/2000/svg"><g fill="none" fill-rule="evenodd" stroke="#131315" stroke-linecap="round" stroke-width="2"><path d="M42.743 31.281l-3.75-4.375c-1.795-2.095-3.446-6.024-3.687-8.774l.013.146c-.06-.675-.358-1.655-.897-2.942A18 18 0 0133.217 11l-.935-6.369c-1-1.5-3-.5-3.282 2.869-.03 4.834-.361 6.884-.997 6.15L18.077 2.187a1.502 1.502 0 00-1.944-.248l-.224.154a1.431 1.431 0 00-.407 1.882l4.46 7.505c.746 1.256.52 1.422-.5.377l-9.321-9.559c-.513-.526-1.43-.622-2.03-.224l-.054.035a1.194 1.194 0 00-.281 1.77l8.45 10.731c.9 1.145.691 1.346-.462.453l-8.355-6.46a1.311 1.311 0 00-1.844.245l.054-.071c-.444.58-.397 1.48.098 2.005l7.647 8.1c1.004 1.064.747 1.402-.558.763l-6.1-2.988c-.654-.32-1.302-.004-1.449.722l.083-.41c-.146.72.23 1.637.834 2.044l14.34 9.682a34.532 34.532 0 012.113 1.572L34.893 40.31"/><path d="M38.42 3.902c-.257 4.464.275 7.851 1.596 10.162" fill="#fff"/></g></svg>