<svg height="155" width="405" xmlns="http://www.w3.org/2000/svg"><g fill="none" fill-rule="evenodd"><path d="M35 94.975l5.76-12.304a17 17 0 0110.571-9.094l10.613-3.141a3 3 0 011.993.336l5.69 3.186a11.525 11.525 0 0011.623-.21l4.868-2.964a3 3 0 011.908-.417l4.285.37a20 20 0 0117.07 13.081l5.62 15.43" stroke="#222" stroke-linecap="round" stroke-linejoin="round" stroke-width="2.5"/><path d="M82.351 52.502s-3.158 3.063-8.81 2.568-8.232-4.06-8.232-4.06" stroke="#222" stroke-linecap="round" stroke-width="2.5"/><path d="M73.474 7.895c14.035-.49 20.508 11.28 22.623 23.08a4.276 4.276 0 01.809 8.195c.23 17.446-13.771 26.664-21.408 26.664-7.74 0-22.554-5.884-23.25-25.815l-.003-.077a4.279 4.279 0 01.348-8.366c1.431-11.823 7.131-23.2 20.881-23.68z" stroke="#222" stroke-linecap="round" stroke-width="2.5"/><path d="M74.958 40.385l1.284 5.457c.285 1.211-.483 2.193-1.734 2.193h-2.25" stroke="#222" stroke-linecap="round" stroke-width="2.5"/><ellipse cx="65.751" cy="36.828" rx="6.445" ry="6.103" stroke="#222" stroke-linecap="round" stroke-width="2.5"/><ellipse cx="83.751" cy="36.828" rx="6.445" ry="6.103" stroke="#222" stroke-linecap="round" stroke-width="2.5"/><circle cx="66.751" cy="38.034" fill="#222" r="1.516"/><circle cx="84.751" cy="38.034" fill="#222" r="1.516"/><g stroke="#222" stroke-width="2.5"><path d="M90.258 36.335h3.15l2.25-5.4m-36.45 5.85h-3.6l-3.15-5.85m19.8 5.85a4.218 4.218 0 015.4 0M67 63.747l-1 8m17-9l2 9"/><path d="M340 73l4.5 2.5m17 0l5-3.5m-26 16.5l5-3.5m7.5-21v8.5" stroke-linecap="round"/></g><path d="M55.293 121.808c1.04.34 3.68-.54 4.56.14.38.52.1 1.84-.6 2.06-1.34.2-3.8.16-5.48.12-.76-.02-1.38-.3-1.42-.74-.08-1 .88-2.1 1.24-2.7.92-1.52 1.54-2.2 2.28-3.76.34-.7 1.08-1.6.68-2.52-.44-1-1.6.18-2.14.64-.62.52-1.18 1.54-1.94 1.58-.66.04-.98-.46-.96-1.04.04-.9 1.94-2.54 2.74-2.98.92-.8 3.78-.98 4.32.64.36 2.06-.6 3.86-1.52 5.42-.52.96-1.36 1.92-1.76 3.14zm99.907-51.2c1.32-.16 3.56.64 3.7 2.04.38 1.24-1.66 3.06-2.14 3.22 0 0 1.7.68 2.02 1.8.54 1.84-.48 3.4-1.28 4.2-.64.64-1.88 1.38-3.14 1.56-1.04.18-3.1.4-3.24-.8-.06-.56.28-1.06.78-1.24 1.32 0 2.58.12 3.8-.86.54-.46 1.24-1.14 1.08-2.1-.32-1.8-3.8-.54-3.88-2.04-.06-1.1.52-1.18 1.46-1.64.4-.2 2.32-1.1 2.2-1.8-.14-.7-1.74-.5-2.2-.32-.72.22-1.76 1-2.4 1.26-.74.14-1.36-.18-1.46-.58-.22-.98.66-1.3 1.24-1.68 1.06-.58 1.94-.84 3.46-1.02zm90.5 54.552c-.4-1.32.34-2.66.22-3.98-.48-.22-1.32-.24-2.02-.18-1.34.1-2.64-.12-2.96-1.06-.24-.7.2-2.14.4-2.9.28-1.06.5-1.88.68-2.62.24-.98.18-2.08 1.3-2.16.58-.02 1.12.22 1.2.76.12.82-.32 2.16-.6 3.08-.26.9-.68 2.36-.58 2.56.2.2 2.4.14 3.14.08.24-.62.62-2.04.82-3.14.28-1.56.3-3.38 1.6-3.42.8-.04 1.28.04 1.14 1.12-.22 1.56-1.06 5.3-1.14 5.68-.4 1.72-.82 5.36-1.04 5.88-.34.64-1.52.84-2.16.3z" fill="#222" fill-rule="nonzero"/><path d="M7.012 44.21l-.473 2.098c-6.804 30.183 10.072 60.678 39.26 70.942m21.397 4.679c28.814 6.676 58.768-5.042 75.403-29.498l3.866-5.684m21.57-6.735l2.73-.557c26.869-5.475 53.928 8.48 65.046 33.545m18.023 14.746c27.278 22.906 67.59 20.963 92.538-4.46l4.128-4.207" stroke="#222" stroke-dasharray="6 6" stroke-linecap="round" stroke-width="2.5"/><path d="M354 83h39v34.035h-39z" stroke="#222" stroke-linecap="round" stroke-linejoin="round" stroke-width="2.5"/><path d="M354.5 91.5h38" stroke="#222" stroke-linecap="round" stroke-width="2.5"/><path d="M367 104.908l2.574 2.573a2 2 0 003.157-.434l5.125-9.118" stroke="#222" stroke-linecap="round" stroke-linejoin="round" stroke-width="2.5"/><path d="M78.452 3c1.562 0 2.825.494 3.792 1.482a4 4 0 002.242 1.155l1.027.16a5.147 5.147 0 013.753 2.675l.247.465a5 5 0 003.929 2.634c2.67.262 4.137 1.589 4.4 3.98.08.712-.056 1.564-.406 2.556a2.31 2.31 0 00.529 2.387l.301.307a2 2 0 01.52 1.854l-.143.613a6 6 0 00.103 3.107c.193.635.29 1.217.29 1.747a3.825 3.825 0 01-3.826 3.825 5.757 5.757 0 01-5.73-5.203l-.328-3.392a3.291 3.291 0 00-4.244-2.829l-6.459 1.988a13 13 0 01-7.031.173l-7.43-1.891a2.915 2.915 0 00-3.633 2.824v2.153a6.965 6.965 0 01-6.965 6.965 5.368 5.368 0 01-5.368-5.368c0-.713.25-1.45.747-2.214a8 8 0 001.005-6.527 4.806 4.806 0 01-.195-1.29 6.96 6.96 0 016.889-6.959 6 6 0 004.755-2.521c1.963-2.76 3.994-4.14 6.094-4.14.538 0 1.156.106 1.853.32a9 9 0 006.04-.272C76.458 3.254 77.538 3 78.452 3z" fill="#222"/><path d="M9 9.5l13.5 7-13.5 6z" stroke="#222" stroke-linecap="round" stroke-linejoin="round" stroke-width="2.5"/><path d="M9 22.5v8m-4 0h8" stroke="#222" stroke-linecap="round" stroke-width="2.5"/></g></svg>