<svg height="130" width="180" xmlns="http://www.w3.org/2000/svg"><linearGradient id="a" x1="50%" x2="50%" y1="0%" y2="100%"><stop offset="0" stop-color="#ebeef2"/><stop offset="1" stop-color="#d2d9e0"/></linearGradient><linearGradient id="b" x1="56.738%" x2="23.612%" y1="32.619%" y2="92.087%"><stop offset="0" stop-color="#8b939b"/><stop offset="1" stop-color="#b7c0c9"/></linearGradient><g fill="none" fill-rule="evenodd"><path d="M42 92h24v30H42z" fill="#d2d9e0"/><path d="M42 92h6v12h-6z" fill="#b7c0c9"/><path d="M60 98h6v12h-6z" fill="#7d8995"/><g fill="#b7c0c9"><path d="M48 116h12v6H48zm18-24h17v30H66zm-48 12h24v18H18z"/><path d="M48 74.005h24v18H48z"/></g><path d="M18 116h6v6h-6zm18-12h6v12h-6z" fill="#7d8995"/><path d="M119 104h42v18h-42z" fill="#d2d9e0"/><path d="M119 110h6v6h-6zm24 6h6v6h-6z" fill="#7d8995"/><path d="M131 110h6v12h-6zm18-6h6v6h-6z" fill="#b7c0c9"/><path d="M77 105h6v6h-6zM48 86h6v6h-6z" fill="#56616b"/><path d="M66 92h6v6h-6z" fill="#7d8995"/><path d="M60 80h12v6H60zm53.5 33.813v4.104a7 7 0 00.35 2.183l.303.924a1 1 0 01-.95 1.312h-8.585a.438.438 0 01-.403-.613l.083-.19a1 1 0 01.622-.559l1.386-.43a15 15 0 002.385-.97l.43-.22a2.704 2.704 0 001.468-2.579l-.135-2.122zm-11.047.001l-3.597 3.971a3.766 3.766 0 00-.974 2.528v.048a1 1 0 01-1.327.945l-1.992-.69a42.14 42.14 0 00-1.04-.343l-4.574-1.44a.432.432 0 01-.266-.585.68.68 0 01.674-.405l1.321.1c1.192.091 2.391-.02 3.546-.328l.656-.176a4 4 0 002.244-1.569l3.263-4.657z" fill="#d2d9e0"/><path d="M123 104l-8.343.445a7 7 0 00-4.68 2.145l-9.771 10.189-2.622-1.755 9.629-13.792a5 5 0 012.552-1.892l15.184-4.944z" fill="#313a41"/><path d="M135.879 78.109l1.163-6.599-1.996-5.211-3.438-2.55-.753 2.509-1.167 1.394a.3.3 0 00-.005.378l.39.497a.3.3 0 01.063.215l-.25 2.599a1 1 0 00.821 1.08l.244.044a1.398 1.398 0 011.155 1.376l.003 3.603z" fill="#d2d9e0"/><path d="M152.514 103.574a.895.895 0 00-.662-.503l-1.636-.274a3.72 3.72 0 01-2.86-2.34l-.229-.599h-2.295l.307 1.36a1.338 1.338 0 01-.931 1.579l-.8.233a.567.567 0 00-.408.544c0 .235.19.426.426.426h8.818a.299.299 0 00.27-.426z" fill="url(#a)"/><path d="M128.879 104h-10.936a2 2 0 00-1.964 1.62l-2.376 12.31-3.23-.573-.032-17.607a3 3 0 012.37-2.938l8.738-1.879a7 7 0 004.065-2.56l.866-1.12 7.09 1.838.395 6.042a4.324 4.324 0 01-1.39 3.467c-.981.9-2.265 1.4-3.596 1.4z" fill="#313a41"/><path d="M122.756 95.545l-1.592 2.172a.3.3 0 01-.242.123h-.166a.3.3 0 01-.3-.3v-.543a.1.1 0 00-.18-.059l-.687.934a1.768 1.768 0 01-1.425.721.895.895 0 01-.895-.894v-.056c0-.612.227-1.202.637-1.656l.837-.927a2 2 0 01.754-.522l2.305-.903 1.247-.544.657 1.62z" fill="#d2d9e0"/><path d="M127.203 86.34l-.072.184a16 16 0 01-3.59 5.468l-1.495 1.49 1.396 1.637 6.325-5.486z" fill="url(#b)"/><path d="M125.387 93.579l.554.514A10.03 10.03 0 00134 96.702l.358-1.677a17.717 17.717 0 012.165-5.47l.605-1a1 1 0 011.75.07l5.9 11.8 2.35-.567-7.38-21.856L137 75.798V74.06l-4.934.402c0 .855-.336 1.676-.937 2.285l-2.728 2.765a4 4 0 00-1.138 3.16l.048.543c.139 1.58 0 3.17-.41 4.702z" fill="#b7c0c9"/><path d="M135.695 62.742c.806 0 1.581.306 2.17.857l.376.352a4.08 4.08 0 011.291 2.978v2.667c0 1.916.64 3.777 1.818 5.289l.143.184a3.257 3.257 0 01-.143 4.176 3.786 3.786 0 01-4.318.95l-.374-.162a4.424 4.424 0 01-2.663-4.36l.205-3.021a8.71 8.71 0 00-2.096-6.279l-.4-.463a3 3 0 01.286-4.208l1.25-1.104a.723.723 0 011.201.542v.348c0 .693.561 1.254 1.254 1.254z" fill="#313a41"/><path d="M104.62 122.336h9.173a.5.5 0 00.488-.61l-.43-1.904c-1.389 0-2.763-.282-4.039-.83l-.09-.038-2.276 1.132a8.88 8.88 0 01-2.06.726l-.488.107a1 1 0 00-.75.707l-.018.065a.508.508 0 00.49.645zm-15.67-3.312l8.325 2.555a.5.5 0 00.646-.447l.115-1.867a6.05 6.05 0 01-3.232-1.881l-.014-.016-2.462.39a8.543 8.543 0 01-2.182.064l-.497-.05a1 1 0 00-.931.442l-.038.057a.5.5 0 00.27.753z" fill="#7d8995"/></g></svg>