<svg height="56" width="56" xmlns="http://www.w3.org/2000/svg"><g fill="none" fill-rule="evenodd" stroke="#131315" stroke-linecap="round" stroke-width="2"><path d="M37.941 26.663l-6.497-3.698a14.3 14.3 0 01-5.191-5.072l-3.104-5.173-2.531-8.586a1.28 1.28 0 00-2.133-.542l-.134.135a3.9 3.9 0 00-1.097 3.334l.762 5.077a2.6 2.6 0 01-3.323 2.875l-5.78-1.747a5.438 5.438 0 00-3.562.144 1.565 1.565 0 00-.753 2.288l.255.407a2.017 2.017 0 01-.921 2.93l-.447.189a1.807 1.807 0 00-.499 3.013l1.118.998a2.082 2.082 0 01-.265 3.308 1.602 1.602 0 00.112 2.766l1.232.653a1.652 1.652 0 01.422 2.598l-.23.242a1.93 1.93 0 00.004 2.666l.636.664a2.6 2.6 0 001.557.782l6.308.785c2.524.314 5.085.1 7.522-.626a12.832 12.832 0 017.386.016l5.298 1.604"/><path d="M30.549 5.118c.523 4.44 1.635 7.684 3.337 9.73" fill="#fff"/><path d="M53.988 29.387l-15.112-4.799-5.756 17.533 21.104 8.258" stroke-linejoin="round"/><path d="M46.477 27.17l-5.408 17.601"/></g></svg>