<svg height="108" width="74" xmlns="http://www.w3.org/2000/svg"><g fill="none" fill-rule="evenodd"><path d="M26.9 61.012c-7.95-8.145-7.525-26.06-7.525-31.887 0-18.125 11.091-25.138 23.75-23.75C55.784 6.763 60 14.125 60 32.25c0 5.625.833 25.477-13.28 31.37" stroke="#222" stroke-linecap="round" stroke-width="2.5"/><path d="M42.5 37.25l.453 4.073c.095.857-.372 1.987-1.045 2.526L40 45.375" stroke="#222" stroke-linecap="round" stroke-width="2.5"/><ellipse cx="34.907" cy="34.784" fill="#222" rx="1.93" ry="2.119"/><ellipse cx="49.55" cy="35.248" fill="#222" rx="1.93" ry="2.119"/><path d="M25.625 71l-13.28 6.46A17.5 17.5 0 002.5 93.198v.303m27.71-65.147c2.813-1.636 5.59-1.956 8.33-.958m8.936.66c2.475-.547 4.785-.251 6.931.888" stroke="#222" stroke-linecap="round" stroke-width="2.5"/><path d="M33.465 23.814c9.357-1.947 14.035-5.177 14.035-9.689 6.458 0 9.988 4.439 10.59 13.317-.51 16.23-2.477 27.316-5.901 33.258-.302.524-4.245 3.54-4.57 4.05 0 7.291 14.256 1.285 18.572-6.875-3.159-3.875-4.316-12.5-4.316-18.125s1.25-19.375 0-24.375C59.959 7.711 51.25 1 41.875 1c-12.5 0-18.125 5.625-22.5 11.875-8.75 15.625 4.375 31.25-7.5 45 2.188 7.406 8.404 10.927 15.396 10.927-.3-.752.65-6.087 0-6.36-2.495-1.048-2.738-11.367-.728-30.955a8.75 8.75 0 016.922-7.673z" fill="#222"/><g stroke="#222" stroke-linecap="round" stroke-width="2.5"><path d="M46.725 51.036s-5.555 3.545-12.501.152M46.875 63.5l1.958 4.212a3.75 3.75 0 001.687 1.754l10.192 5.237a20.564 20.564 0 0111.166 18.569l-.003.228"/><path d="M33.75 78.75l2.678-3.57a8.75 8.75 0 012.619-2.325l5.895-3.41a3.75 3.75 0 001.659-4.493l-1.916-5.43a1.25 1.25 0 01.425-1.412l8.305-6.285a1.977 1.977 0 00.377-2.778 2.216 2.216 0 00-2.908-.549l-12.03 7.291a7.087 7.087 0 01-7.604-.164l-1.77-1.18a4.393 4.393 0 00-4.168-.383 1.944 1.944 0 00-.831 2.894l2.803 4.046a3.75 3.75 0 01.526 3.157l-2.185 7.716"/><path d="M6.25 102.5l16.599-29.19a2.5 2.5 0 013.834-.634l7.57 6.73a2.5 2.5 0 01.618 2.894l-10.496 23.325"/></g></g></svg>