<svg height="108" width="125" xmlns="http://www.w3.org/2000/svg"><g fill="none" fill-rule="evenodd"><path d="M77.45 64.5c-14.178 0-19.075-26.777-19.075-34.375 0-18.125 11.091-25.138 23.75-23.75s16.337 8.165 16.337 26.29c0 6.63-2.192 31.835-21.011 31.835z" stroke="#222" stroke-linecap="round" stroke-width="2.5"/><path d="M81.5 38.25l.453 4.073c.095.857-.372 1.987-1.045 2.526L79 46.375" stroke="#222" stroke-linecap="round" stroke-width="2.5"/><ellipse cx="72.907" cy="34.784" fill="#222" rx="1.93" ry="2.119"/><ellipse cx="87.55" cy="35.248" fill="#222" rx="1.93" ry="2.119"/><path d="M69 62.5l-.719 2.744a9 9 0 01-4.925 5.887l-11.708 5.42A17.5 17.5 0 0041.5 92.433v.068m26.8-62.643c2.592-1.967 5.309-2.622 8.15-1.966m9.142.568c2.532-.109 4.756.584 6.672 2.079" stroke="#222" stroke-linecap="round" stroke-width="2.5"/><path d="M72.965 23.353c8.317-.676 12.475-3.161 12.475-7.457 6.333.32 9.5 4.511 9.5 12.576 1.428 15.764-1.593 27.106-9.065 34.028-.01 1.08 1.584 4.216 2.122 4.758 4.181 4.208 18.73-.773 17.253-9.633-3.125-3.125-4.375-11.25-4.375-16.875s.518-18.042-.732-23.042C98.227 10.044 90.25 2 80.875 2c-12.5 0-16.714 5.548-21.089 11.798-8.75 15.625 4.375 34.202-8.911 45.077C49 70.75 65.875 73.155 69 66.281c.432-2.375 1.13-5.299 0-6.647-3.58-4.266-4.933-13.629-4.06-28.087a8.75 8.75 0 018.025-8.194z" fill="#222"/><g stroke="#222" stroke-linecap="round" stroke-width="2.5"><path d="M85.725 52.036s-5.555 3.545-12.501.152M85.875 63.5l1.958 4.212a3.75 3.75 0 001.687 1.754l10.192 5.237a20.564 20.564 0 0111.166 18.569l-.003.228M21.569 73.229l-3.83-7.274a8.75 8.75 0 00-.554-.91l-4.197-6.05a3.75 3.75 0 01.536-4.892l4.906-4.532a1.25 1.25 0 00.303-1.404l-4.064-9.63a1.977 1.977 0 011.063-2.594 2.226 2.226 0 012.8.975l5.91 10.64a7.5 7.5 0 003.728 3.304l.253.103a3.898 3.898 0 012.408 3.998l-.409 4.088c-.03.298-.024.599.018.896l1.177 8.366"/><path d="M43.55 99L33.544 70.3a2.5 2.5 0 00-3.5-1.402l-7.828 4.005a2.5 2.5 0 00-1.275 2.88L29.12 106"/><path d="M16.287 21.396v7.616m5.282 3.793l6.07-3.793M6.58 42.548l4.06-2.536m.49-6.797l-3.79-2.69" fill="#fff"/><path d="M25.265 66.82l-1.066-1.298a6 6 0 01-.567-6.796l.96-1.67L20.92 54.7a2 2 0 01-.882-2.072l.055-.276a1.702 1.702 0 011.942-1.35l7.696 1.25" stroke-linejoin="round"/></g></g></svg>