<svg height="148" width="142" xmlns="http://www.w3.org/2000/svg"><g fill="none" fill-rule="evenodd"><path d="M29.089 102.58s3.121 3.15 7.658 1.73c2.375-.742 4.135-2.09 5.273-3.205" stroke="#222" stroke-linecap="round" stroke-width="2.5"/><path d="M33.222 61.678c-9.683 1.062-13.753 6.095-14.652 17.869a3.565 3.565 0 00-1.298 2.756 3.56 3.56 0 001.101 2.58l-.001.445c0 5.835 1.18 29.067 21.89 29.067 14.64 0 18.26-24.03 18.26-30.717 0-15.95-14.16-23.222-25.3-22z" stroke="#222" stroke-linecap="round" stroke-width="2.5"/><path d="M31.572 90.828l-.399 3.584c-.083.754.328 1.749.92 2.223l1.679 1.343" stroke="#222" stroke-linecap="round" stroke-width="2.5"/><ellipse cx="38.254" cy="85.346" fill="#222" rx="1.699" ry="1.853" transform="scale(-1 1) rotate(34 0 -39.776)"/><ellipse cx="26.467" cy="85.754" fill="#222" rx="1.699" ry="1.853" transform="scale(-1 1) rotate(34 0 -.817)"/><g stroke="#222"><path d="M45.118 113.47l.958 4.782a3.3 3.3 0 001.972 2.4l11.779 4.884a14.822 14.822 0 019.145 13.692m-24.75-56.1c-1.834-2.2-4.034-3.3-6.6-3.3m-9.38.392c-2.216-.25-4.21.22-5.984 1.415" stroke-linecap="round" stroke-width="2.5"/><path d="M44.213 75.023c-9.894-1.103-14.841-3.718-14.841-7.845-5.684 0-8.79 3.906-9.32 11.719l-3.304.93c-.018-6.6.34-11.366 1.074-14.3 1.686-6.744 8.25-12.65 16.5-12.65 11 0 17.05 1.65 20.9 7.15 11 13.75 4.4 25.3 19.8 37.95 1.65 10.45-8.8 28.05-23.65 10.45 2.528-7.901 2.332-17.165-.588-27.792h0a7.7 7.7 0 00-6.571-5.612z" fill="#222" stroke-width=".99"/><path d="M29.922 112.828l-1.723 3.706a3.3 3.3 0 01-1.485 1.544l-8.97 4.608a18.097 18.097 0 00-9.825 16.34l.003.202" stroke-linecap="round" stroke-width="2.5"/><path d="M30.75 130.75l2.678-3.57a8.75 8.75 0 012.619-2.325l5.895-3.41a3.75 3.75 0 001.659-4.493l-1.916-5.43a1.25 1.25 0 01.425-1.412l8.305-6.285a1.977 1.977 0 00.377-2.778 2.216 2.216 0 00-2.908-.549l-12.03 7.291a7.087 7.087 0 01-7.604-.164l-1.77-1.18a4.393 4.393 0 00-4.168-.382 1.944 1.944 0 00-.831 2.893l2.803 4.046a3.75 3.75 0 01.526 3.157l-2.185 7.716" fill="#fff" stroke-linecap="round" stroke-width="2.5"/><path d="M6.25 142.5l13.491-17.728a2.5 2.5 0 013.65-.355l7.645 6.795a2.5 2.5 0 01.45 3.208l-7.111 11.205" stroke-linecap="round" stroke-width="2.5"/><ellipse cx="110.056" cy="27.871" rx="26.75" ry="22" stroke-linecap="round" stroke-width="2.5"/><ellipse cx="82.609" cy="55.813" rx="5.5" ry="5" stroke-linecap="round" stroke-width="2.5"/><ellipse cx="68.28" cy="65.832" rx="3.025" ry="2.779" stroke-linecap="round" stroke-width="2.5"/></g><circle cx="103.5" cy="28.5" fill="#222" r="1.5"/><circle cx="109.714" cy="28.5" fill="#222" r="1.5"/><circle cx="115.714" cy="28.5" fill="#222" r="1.5"/></g></svg>