<svg height="220" width="480" xmlns="http://www.w3.org/2000/svg"><g fill="none" fill-rule="evenodd"><path d="M-5-33h830v273H-5z" fill="#fff"/><path d="M426.822 127.597c-22.936.176-138.011-1.113-188.307-.81-21.466.128-100.842-3.804-98.698 24.354 1.625 21.366 40.653 20.833 58.8 20.56 25.59-.387 132.298 5.132 171.358 3.643 27.473-1.045 108.937 4.234 103.544-29.016-3.248-20.026-27.895-18.875-46.697-18.73z" fill="#b6c1ff"/><g stroke="#131315" stroke-width="2.5"><path d="M149.72 21.81c-14.735.515-23.076 11.516-25.168 28.802l-.113.93-.924.153a4.151 4.151 0 00-.336 8.118l.915.231.028.944.002.09c.381 10.908 4.824 19.19 12.075 24.88 5.35 4.2 12.125 6.644 15.988 6.51 3.46-.121 10.048-3.46 15.2-8.32 6.744-6.36 10.713-14.556 10.623-24.086l-.008-.863.803-.313a4.152 4.152 0 00-.782-7.953l-.859-.151-.154-.86c-3.154-17.588-12.375-28.632-27.29-28.111z"/><path d="M167.405 58.935a4.2 4.2 0 00-8.272-1.459m-15.728 1.459a4.2 4.2 0 00-8.272-1.459" stroke-linecap="round"/><circle cx="163.634" cy="58.237" r="9" stroke-linecap="round" transform="scale(-1 1) rotate(-40 0 507.818)"/><circle cx="139.634" cy="58.237" r="9" stroke-linecap="round" transform="scale(-1 1) rotate(-40 0 441.878)"/><path d="M154.634 55.864s-3.899-1.544-6.218.215m-17.642 1.471h-2.525l-3.306-10.504"/><path d="M36.942 201.047l-1.2-32.09-11.38-21.517a20 20 0 01-3.326-17.063l2.86-32.89a17.595 17.595 0 0111.213-12.136l3.473-1.213c3.545-1.239 13.834-3.11 16.71-5.525l2.841-2.386 2.079 1.45a24.096 24.096 0 0029.606-1.585l3.173 2.74c2.632 2.272 9.627 4.086 12.861 5.364l2.92 1.155a16.264 16.264 0 019.813 11.237" stroke-linecap="round"/><path d="M172.818 57.688l3.148-.12 2.668-8.33"/><path d="M152.204 63.143v7.703c0 1.162-.913 1.844-2.03 1.525l-2.179-.62" stroke-linecap="round" stroke-linejoin="round"/></g><path d="M179.761 51.411s-9.963-1.208-12.924-14.417c-3.203 18.024-37.053 16.346-43.279 11.317 1.83-18.805 11.833-30.274 28.686-30.274 31.961-1.192 27.517 33.374 27.517 33.374z" fill="#131315"/><path d="M160.884 77.883s-3.988 3.867-11.125 3.242C142.62 80.501 139.366 76 139.366 76M83.884 60.883s-3.988 3.867-11.125 3.242C65.62 63.501 62.366 59 62.366 59m56.576 158.047l-1-38.447-14.58-18.16a20 20 0 01-3.326-17.063l7.86-29.89a17.595 17.595 0 0111.213-12.136l3.473-1.213a31 31 0 009.71-5.525l2.841-2.386 2.079 1.45a24.096 24.096 0 0029.606-1.585l3.173 2.74a31 31 0 008.861 5.364l2.92 1.155a16.264 16.264 0 019.813 11.237l7.675 31.176a20 20 0 01-3.166 16.435L181.9 178.6l-1 25.448m-62.917-24.091L117.5 136.5m-81.517 32.457L35.5 122.5m146.4 56.1l.786-42.1" stroke="#131315" stroke-linecap="round" stroke-width="2.5"/><path d="M126.954 98.465l7.048 9.143a7 7 0 0011.152-.084l5.8-7.763 3.963 7.343a6 6 0 009.892.987l8.01-9.626" stroke="#131315" stroke-linecap="round" stroke-width="2.5"/><path d="M127.859 76l2.915 21.227 6.439-2.526L139 88.26l-5.57-4.85zm44.959 22.465L174.46 76l-12.182 12.26 2.885 6.441 1.75-1.592z" fill="#131315"/><path d="M72.72 5.81c-14.735.515-23.076 11.516-25.168 28.802l-.113.93-.924.153a4.151 4.151 0 00-.336 8.118l.915.231.028.944.002.09c.381 10.908 4.824 19.19 12.075 24.88 5.35 4.2 12.125 6.644 15.988 6.51 3.46-.121 10.048-3.46 15.2-8.32 6.744-6.36 10.713-14.556 10.623-24.086l-.008-.863.803-.313a4.152 4.152 0 00-.782-7.953l-.859-.151-.154-.86C96.856 16.335 87.635 5.29 72.72 5.812z" stroke="#131315" stroke-width="2.5"/><path d="M61 41.96a2.96 2.96 0 015.92 0m14.08 0a2.96 2.96 0 015.92 0" stroke="#131315" stroke-linecap="round" stroke-width="2.5"/><path d="M74.204 44.143l.836 10.707c.09 1.16-.749 1.84-1.866 1.521l-2.179-.62" stroke="#131315" stroke-linecap="round" stroke-linejoin="round" stroke-width="2.5"/><path d="M102.34 36.054S89.396 37.606 88.884 22.88c-5.994 4.21-24.924 5.04-26.87-5.002-1.51 4.23-6.128 20.233-15.893 18.716 1.83-18.805 8.858-34.557 29.123-34.557 28.93 0 27.096 34.017 27.096 34.017z" fill="#131315"/><path d="M52.784 80.501l5.427 3.3a30 30 0 0031.402-.138l5.097-3.162m-36.755 2.277l3.7-4.077m.979 6.791l3.022-4.791m2.489 6.238l1.51-4.238m16.979-4l4.5 4.077m-6.751-9.67l3.55 3.62m-5.8 4.012l4.5 4.08m-8.116-2.119l1.452 4.238" stroke="#131315" stroke-linecap="round" stroke-width="2.5"/><path d="M407.168 11.846c-8.247-6.43-22.273-3.274-27.36 5.29-5.71 9.61-1.257 22.841 7.636 29.095 8.796 6.186 23.447 5.634 28.131-5.279 3.886-9.048 1.16-24.671-8.407-29.106" fill="#b4e4ab"/><path d="M74.525 82.701l-.572 5.352M57.06 35.411c2.773-1.971 6.076-2.733 9.91-2.284m24 2.284c-2.773-1.971-6.077-2.733-9.91-2.284m1.83 86.45l2.338.479a38 38 0 0014.858.08l.297-.058M59.805 77.117l2.829-4.728" stroke="#131315" stroke-linecap="round" stroke-width="2.5"/><rect height="60" rx="8" stroke="#131315" stroke-linecap="round" stroke-width="2.5" width="92" x="303" y="33.002"/><path d="M315.62 45.63v3.384h1.472c1.18 0 1.883-.637 1.883-1.706 0-1.048-.689-1.678-1.86-1.678zm1.509 4.98h-1.509v3.89h-2.073V43.931h3.838c2.3 0 3.706 1.275 3.706 3.37 0 1.369-.725 2.512-1.875 2.966l2.117 4.233h-2.344zm9.375-2.804c-1.04 0-1.663.695-1.663 1.853h3.274c0-1.158-.6-1.853-1.611-1.853zm1.655 4.423h1.89c-.169 1.429-1.597 2.447-3.472 2.447-2.35 0-3.699-1.319-3.699-3.611v-1.296c0-2.117 1.465-3.516 3.663-3.516 2.138 0 3.508 1.406 3.508 3.574v1.113h-5.208v.44c0 1.055.681 1.743 1.729 1.743.805 0 1.443-.366 1.59-.894zm6.43 2.403c-1.523 0-2.548-.982-2.548-2.44s1.062-2.314 3.054-2.453l1.89-.117v-.644c0-.704-.484-1.114-1.311-1.114-.696 0-1.216.308-1.384.813h-1.949c.147-1.465 1.472-2.41 3.391-2.41 2.073 0 3.238.99 3.238 2.754V54.5h-1.905v-1.077h-.175c-.396.762-1.245 1.209-2.3 1.209zm.69-1.604c.995 0 1.706-.63 1.706-1.53v-.587l-1.553.095c-.937.059-1.413.418-1.413 1.04 0 .601.483.982 1.26.982zm7.88-3.267v1.333c0 1.114.637 1.795 1.677 1.795 1.033 0 1.663-.681 1.663-1.795v-1.333c0-1.113-.63-1.787-1.663-1.787-1.04 0-1.677.674-1.677 1.787zm3.318 3.347h-.154c-.278.982-1.076 1.517-2.263 1.517-1.846 0-2.944-1.275-2.944-3.472V49.76c0-2.197 1.098-3.471 2.944-3.471 1.165 0 1.97.542 2.241 1.508h.147v-4.453h2.094V54.5h-2.065zm5.361 4.307c-.344 0-.71-.007-.769-.015v-1.64c.052.014.337.022.447.022.813 0 1.26-.279 1.45-.916l.08-.307-2.84-8.138h2.211l1.787 6.233h.125l1.787-6.233h2.124l-2.783 8.182c-.696 2.08-1.641 2.812-3.619 2.812zm11.66-2.776c-.886 0-1.61-.747-1.61-1.648 0-.908.724-1.655 1.61-1.655.887 0 1.612.747 1.612 1.655 0 .901-.725 1.648-1.611 1.648zm-45.102 13.086l-4.666-2.161v-2.285l6.827 3.633v1.772l-6.827 3.626v-2.278l4.666-2.16zm11.814 7.368h-7.603v-1.787h7.603z" fill="#131315" fill-rule="nonzero"/></g></svg>