<svg width="300" height="120" xmlns="http://www.w3.org/2000/svg"><defs><linearGradient x1="21.494%" y1="38.664%" x2="87.931%" y2="42.151%" id="a"><stop stop-color="#FFF" offset="0%"/><stop stop-color="#FFF" stop-opacity="0" offset="100%"/></linearGradient><linearGradient x1="74.64%" y1="43.125%" x2="21.494%" y2="38.664%" id="b"><stop stop-color="#FFF" offset="0%"/><stop stop-color="#FFF" stop-opacity="0" offset="100%"/></linearGradient></defs><g fill="none" fill-rule="evenodd"><path fill="#313A41" d="M64 18h8v58h-8z"/><path fill="#7D8995" d="M66 18h1v58h-1zm3 0h1v58h-1z"/><path d="M75 12h225v71H75a3 3 0 01-3-3V15a3 3 0 013-3zM0 12h61a3 3 0 013 3v65a3 3 0 01-3 3H0V12z" fill="#D2D9E0"/><path d="M80 25h22a2 2 0 012 2v56H78V27a2 2 0 012-2z" fill="#B7C0C9"/><rect fill="#B7C0C9" x="169" y="25" width="52" height="32" rx="2"/><rect fill="#B7C0C9" x="111" y="25" width="52" height="32" rx="2"/><rect fill="#B7C0C9" x="-26" y="25" width="52" height="32" rx="2"/><rect fill="#B7C0C9" x="227" y="25" width="52" height="32" rx="2"/><rect fill="#B7C0C9" x="285" y="27" width="52" height="32" rx="2"/><path d="M34 25h22a2 2 0 012 2v56H32V27a2 2 0 012-2z" fill="#B7C0C9"/><path fill="url(#a)" d="M0 111V-1h78v112z"/><path fill="url(#b)" d="M186 111V-1h114v112z"/><path d="M126.665 105.828v1.897c0 .36.16.7.438.928l2.301 1.89a1.2 1.2 0 001.174.2l.424-.155a.75.75 0 00.39-1.086l-.36-.612a2.4 2.4 0 00-.22-.312l-.91-1.1a2.4 2.4 0 01-.543-1.354l-.076-1.034-2.618.738zm5.619-1.423v1.772a1.2 1.2 0 00.954 1.175l2.47.518a2.4 2.4 0 00.493.051h1.001a.626.626 0 00.578-.867 1.918 1.918 0 00-1.268-1.113l-.344-.093a1.708 1.708 0 01-1.26-1.636l-.005-.546-2.619.739z" fill="#313A41"/><path fill="#606E7A" d="M125.8 107.05l2.396-25.291 10.07-4.259-3.065 26.85-3.168 1.197-.432-10.001-1.983 10.001z"/><path d="M129.972 55.459s.066-1.422-.112-2.129c-.177-.707-.738-1.747-.738-1.747-.296-.593-.434-1.598-.306-2.256l.32-1.649c.126-.653.745-1.332 1.39-1.518l2.685-.777a1.172 1.172 0 011.473.832l.433 1.625.832 2.088a.516.516 0 01-.275.664l.461-.195c-.562.238-.859.949-.667 1.572l.317 1.033a1.24 1.24 0 01-.782 1.525l-1.4.473-3.63.459z" fill="#97A1A8"/><path d="M127.53 82.546s3.112-.024 5.9-1.98c2.786-1.957 5.014-.647 5.014-.647l.542-11.372-.99-4.787c-.269-1.303-1.076-3.259-1.802-4.367l-.803-1.226c-.363-.555-.69-1.542-.73-2.21l-.083-1.386-4.767.832-.411 2.266-1.35 2.55c-.618 1.167-1.087 3.186-1.048 4.511l.528 17.816z" fill="#AEB6BD"/><path d="M129.866 55.612s1.156-1.43 1.367-2.445c.211-1.016.409-2.554.409-2.554.091-.66.55-1.573 1.021-2.031l1.76-1.713.229-.828c.175-.635-.21-1.1-.875-1.035l-2.067.2c-.659.063-1.612.45-2.136.87l-.045.037c-.521.417-1.043 1.285-1.165 1.928l-.101.538c-.123.647-.06 1.692.134 2.316l1.469 4.717z" fill="#313A41"/><path d="M129.982 57.872c-.56-.851-2.08-1.685-3.401-1.863l-2.05-.277a2.313 2.313 0 00-2.635 2.072l-.819 7.938c-.136 1.322-.083 3.459.119 4.775l.582 3.787c.202 1.315 1.435 2.381 2.757 2.381h1.357a2.395 2.395 0 002.391-2.398v-6.992c0-1.989.451-5.146 1.008-7.055l.691-2.368z" fill="#606E7A"/><path d="M127.385 68.849l7.659-3.678-.624-2.944c-.137-.644-.704-1.447-1.273-1.796l-2.37-1.454c-.567-.347-1.37-.225-1.801.281l-.776.91v-3.016l.936-.16c.654-.11 1.62.112 2.162.5l1.797 1.284c1.076.77 2.16 2.45 2.423 3.753l.126.626c.261 1.303-.428 2.954-1.53 3.68l-6.729 4.433v-2.42z" fill="#606E7A"/><path fill="#AEB6BD" d="M146.762 102.751l-.562 7.06 1.66.162 1.326-7.544z"/><path fill="#97A1A8" d="M139 78.528l.47 2.806 1.124.482.99 2.209.962-1.35-.705-1.399.705-2.112-1.446-1.313-.784-.547z"/><path fill="#AEB6BD" d="M151 102.751l1.457 7.19h1.518l-.55-7.512zm-18.13-42.197l2.112 4.992c.258.61.73 1.575 1.054 2.155l5.535 9.914-1.909 1.517-6.838-8.063a9.085 9.085 0 01-1.23-2.02l-.994-2.4 2.27-6.095z"/><path fill="#313A41" d="M146.362 96.11l-2.06 7.429 10.816-.44-1.83-7.314z"/><path fill="#97A1A8" d="M158.756 85.583l1.806-1.205.992-.645v.645l-.549.624v1.054l-1.768.487zm-6.506-3.493l.424 2.038-.424.259v1.42l-1.073.444-.277.986-2.077.231-.223-4.145z"/><path d="M141.4 83.952l1.91 3.205.063.099 1.92 2.891a3.6 3.6 0 01.595 1.796l.296 5.436c1.433.344 2.68.208 3.74-.41 1.06-.616 2.317-.48 3.771.41l-.347-6.355a1.2 1.2 0 01.799-1.197l2.107-.743a3.6 3.6 0 001.108-.63l2.15-1.794-.613-1.333-2.268 1.236a3.6 3.6 0 01-2.107.418l-2.99-.321h-3.97l-2.48-1.603a2.4 2.4 0 01-.638-.604l-1.72-2.364-1.326 1.863z" fill="#606E7A"/><path d="M149.912 80.676l1.538.202a1.09 1.09 0 01.918 1.331l-.225.952a1.2 1.2 0 01-.182.409l-.93 1.336a1.2 1.2 0 01-.145.172l-1.46 1.432a1.2 1.2 0 00-.328 1.13l.604 2.576a.862.862 0 01-1.136 1.006l-.398-.146a1.2 1.2 0 01-.722-1.516l.82-2.392a1.2 1.2 0 00.035-.657l-.805-3.52a1.2 1.2 0 01.428-1.212l1.09-.857a1.2 1.2 0 01.898-.246zm-3.656 28.711l-.328 1.22a.48.48 0 00.396.6l1.691.242c.09.013.18 0 .263-.036l1.264-.561a.24.24 0 00.012-.433l-1.601-.824-1.697-.208zm6.101.239v1.263c0 .2.161.36.36.36h1.434a.36.36 0 00.115-.018l1.644-.555a.24.24 0 00-.006-.457l-1.938-.593h-1.609z" fill="#313A41"/></g></svg>