<svg height="92" width="150" xmlns="http://www.w3.org/2000/svg"><g fill="none" fill-rule="evenodd"><path d="M78 90l.562-2.305a25 25 0 0116.876-17.952l5.005-1.554a3 3 0 011.994.335l5.69 3.187a11.525 11.525 0 0011.623-.211l4.868-2.963a3 3 0 011.908-.417l1.648.162a20 20 0 0117.202 14.144L146 84.5" stroke="#222" stroke-linecap="round" stroke-linejoin="round" stroke-width="2.5"/><path d="M120.85 50.255s-3.157 3.062-8.81 2.568-8.231-4.06-8.231-4.06" stroke="#222" stroke-linecap="round" stroke-width="2.5"/><path d="M111.974 5.648c14.035-.49 20.507 11.279 22.623 23.08a4.276 4.276 0 01.808 8.195c.23 17.446-13.77 26.664-21.408 26.664-7.74 0-22.553-5.884-23.25-25.815l-.002-.077a4.279 4.279 0 01.348-8.366c1.43-11.823 7.13-23.2 20.88-23.68z" stroke="#222" stroke-linecap="round" stroke-width="2.5"/><path d="M113.457 38.138l1.284 5.457c.285 1.211-.483 2.193-1.734 2.193h-2.25" stroke="#222" stroke-linecap="round" stroke-width="2.5"/><ellipse cx="104.251" cy="34.581" rx="6.445" ry="6.103" stroke="#222" stroke-linecap="round" stroke-width="2.5"/><ellipse cx="122.251" cy="34.581" rx="6.445" ry="6.103" stroke="#222" stroke-linecap="round" stroke-width="2.5"/><circle cx="105.251" cy="35.787" fill="#222" r="1.516"/><circle cx="123.251" cy="35.787" fill="#222" r="1.516"/><g stroke="#222"><path d="M116.952.753c1.561 0 2.825.494 3.791 1.482a4 4 0 002.243 1.155l1.027.16a5.147 5.147 0 013.753 2.674l.247.466a5 5 0 003.928 2.634c2.67.262 4.138 1.589 4.402 3.98.078.712-.058 1.564-.408 2.556a2.31 2.31 0 00.53 2.387l.3.307a2 2 0 01.52 1.854l-.142.613a6 6 0 00.102 3.107c.193.634.29 1.217.29 1.747a3.825 3.825 0 01-3.825 3.825 5.757 5.757 0 01-5.73-5.203l-.329-3.392a3.291 3.291 0 00-4.244-2.829l-6.458 1.988a13 13 0 01-7.032.173l-7.429-1.891a2.915 2.915 0 00-3.634 2.824v2.153a6.965 6.965 0 01-6.964 6.965 5.368 5.368 0 01-5.368-5.368c0-.713.249-1.45.747-2.214h0a8 8 0 001.004-6.527 4.806 4.806 0 01-.194-1.29 6.96 6.96 0 016.888-6.959h0a6 6 0 004.756-2.521c1.963-2.76 3.994-4.14 6.094-4.14.538 0 1.156.106 1.853.32h0a9 9 0 006.04-.272c1.247-.51 2.328-.764 3.242-.764z" fill="#222" stroke-width=".9"/><path d="M128.757 34.088h3.15l2.25-5.4m-36.45 5.85h-3.6l-3.15-5.85m19.8 5.85a4.218 4.218 0 015.4 0" stroke-width="2.5"/><path d="M44.757 56.684s-2.838 2.863-6.962 1.573c-2.159-.675-3.759-1.9-4.793-2.914" stroke-linecap="round" stroke-width="2.5"/><path d="M41 19.5c8.803.965 12.502 5.541 13.32 16.244a3.243 3.243 0 011.18 2.506 3.24 3.24 0 01-1.001 2.346L54.5 41c0 5.305-1.074 26.425-19.9 26.425C21.292 67.425 18 45.579 18 39.5c0-14.5 12.873-21.11 23-20z" stroke-linecap="round" stroke-width="2.5"/><path d="M42.5 46l.362 3.258c.076.686-.297 1.59-.836 2.021L40.5 52.5" stroke-linecap="round" stroke-width="2.5"/><path d="M105.5 61.5l-1 8m17-9l2 9" stroke-width="2.5"/></g><ellipse cx="36.425" cy="41.017" fill="#222" rx="1.544" ry="1.685" transform="rotate(34 36.425 41.017)"/><ellipse cx="47.14" cy="41.388" fill="#222" rx="1.544" ry="1.685" transform="rotate(34 47.14 41.388)"/><path d="M30.185 66.583l-.87 4.348a3 3 0 01-1.793 2.182l-10.708 4.44A13.475 13.475 0 008.5 90M31 39c1.667-2 3.667-3 6-3m8.527.357c2.014-.229 3.828.2 5.44 1.286" stroke="#222" stroke-linecap="round" stroke-width="2.5"/><path d="M31.008 31.632C40.003 30.63 44.5 28.252 44.5 24.5c5.167 0 7.99 3.551 8.472 10.654l3.004.846c.016-6-.31-10.333-.976-13-1.533-6.131-7.5-11.5-15-11.5-10 0-15.5 1.5-19 6.5-10 12.5-4 23-18 34.5C1.5 62 11 78 24.5 62c-2.299-7.183-2.12-15.605.535-25.266h0a7 7 0 015.973-5.102z" fill="#222" stroke="#222" stroke-width=".9"/><path d="M44 66l1.566 3.37a3 3 0 001.35 1.403l8.154 4.19a16.452 16.452 0 018.932 14.854L64 90" stroke="#222" stroke-linecap="round" stroke-width="2.5"/></g></svg>