<svg height="190" width="580" xmlns="http://www.w3.org/2000/svg"><g fill="none" fill-rule="evenodd"><path d="M96.476 180.489l5.904-12.615a17 17 0 0110.024-8.922l9.016-3.003a3 3 0 011.993.336l5.69 3.186a11.525 11.525 0 0011.623-.21l4.868-2.963a3 3 0 011.908-.417l2.457.24a20 20 0 0116.842 13.06l5.675 15.58" stroke="#222" stroke-linecap="round" stroke-linejoin="round" stroke-width="2.5"/><path d="M141.827 138.015s-3.158 3.063-8.811 2.568-8.231-4.059-8.231-4.059" stroke="#222" stroke-linecap="round" stroke-width="2.5"/><path d="M132.95 93.409c14.035-.49 20.507 11.278 22.623 23.08a4.276 4.276 0 01.808 8.194c.231 17.447-13.77 26.665-21.408 26.665-7.74 0-22.553-5.884-23.25-25.816l-.002-.077a4.279 4.279 0 01.348-8.365c1.43-11.824 7.13-23.201 20.881-23.681z" stroke="#222" stroke-linecap="round" stroke-width="2.5"/><path d="M134.433 125.898l1.285 5.458c.284 1.21-.483 2.192-1.735 2.192h-2.25" stroke="#222" stroke-linecap="round" stroke-width="2.5"/><ellipse cx="125.227" cy="122.341" rx="6.445" ry="6.103" stroke="#222" stroke-linecap="round" stroke-width="2.5"/><ellipse cx="143.227" cy="122.341" rx="6.445" ry="6.103" stroke="#222" stroke-linecap="round" stroke-width="2.5"/><circle cx="125.227" cy="120.547" fill="#222" r="1.516"/><circle cx="143.227" cy="120.547" fill="#222" r="1.516"/><path d="M137.928 88.513c1.561 0 2.825.494 3.792 1.482a4 4 0 002.242 1.155l1.027.161a5.147 5.147 0 013.753 2.674l.247.466a5 5 0 003.929 2.633c2.67.262 4.137 1.59 4.4 3.98.08.713-.056 1.564-.407 2.556a2.31 2.31 0 00.53 2.387l.3.307a2 2 0 01.52 1.855l-.142.612a6 6 0 00.103 3.107c.193.635.289 1.217.289 1.748a3.825 3.825 0 01-3.825 3.825 5.757 5.757 0 01-5.73-5.203l-.329-3.393a3.291 3.291 0 00-4.244-2.828l-6.458 1.987a13 13 0 01-7.032.173l-7.428-1.891a2.915 2.915 0 00-3.634 2.825v2.152a6.965 6.965 0 01-6.965 6.965 5.368 5.368 0 01-5.368-5.368c0-.712.25-1.45.747-2.213a8 8 0 001.005-6.528 4.806 4.806 0 01-.195-1.289 6.96 6.96 0 016.888-6.96 6 6 0 004.756-2.52c1.963-2.761 3.994-4.141 6.094-4.141.538 0 1.156.107 1.853.32a9 9 0 006.04-.272c1.247-.509 2.328-.764 3.242-.764z" fill="#222"/><path d="M149.733 121.848h3.15l2.25-5.4m-36.45 5.85h-3.6l-3.15-5.85m19.8 5.85a4.218 4.218 0 015.4 0m-10.657 26.962l-1 8m17-9l2 9" stroke="#222" stroke-width="2.5"/><path d="M8.31 83.033c.48-.2 1.4-.2 1.68.5.24.52-.22 1.68-.32 2.48-.22 1.74-.34 4.1-.54 5.74-.12.84.06 2.16-.26 2.82-.22.44-.98.98-1.52.9-1.04-.16-.7-1.86-.54-2.76.42-2.3.44-4.6.7-6.76.12-1.04-.02-2.58.8-2.92zM51.92 24.98c1.04.34 3.68-.54 4.56.14.38.52.1 1.84-.6 2.06-1.34.2-3.8.16-5.48.12-.76-.02-1.38-.3-1.42-.74-.08-1 .88-2.1 1.24-2.7.92-1.52 1.54-2.2 2.28-3.76.34-.7 1.08-1.6.68-2.52-.44-1-1.6.18-2.14.64-.62.52-1.18 1.54-1.94 1.58-.66.04-.98-.46-.96-1.04.04-.9 1.94-2.54 2.74-2.98.92-.8 3.78-.98 4.32.64.36 2.06-.6 3.86-1.52 5.42-.52.96-1.36 1.92-1.76 3.14zm78.906 15.8c1.32-.16 3.56.64 3.7 2.04.38 1.24-1.66 3.06-2.14 3.22 0 0 1.7.68 2.02 1.8.54 1.84-.48 3.4-1.28 4.2-.64.64-1.88 1.38-3.14 1.56-1.04.18-3.1.4-3.24-.8-.06-.56.28-1.06.78-1.24 1.32 0 2.58.12 3.8-.86.54-.46 1.24-1.14 1.08-2.1-.32-1.8-3.8-.54-3.88-2.04-.06-1.1.52-1.18 1.46-1.64.4-.2 2.32-1.1 2.2-1.8-.14-.7-1.74-.5-2.2-.32-.72.22-1.76 1-2.4 1.26-.74.14-1.36-.18-1.46-.58-.22-.98.66-1.3 1.24-1.68 1.06-.58 1.94-.84 3.46-1.02zM185.7 15.16c-.4-1.32.34-2.66.22-3.98-.48-.22-1.32-.24-2.02-.18-1.34.1-2.64-.12-2.96-1.06-.24-.7.2-2.14.4-2.9.28-1.06.5-1.88.68-2.62.24-.98.18-2.08 1.3-2.16.58-.02 1.12.22 1.2.76.12.82-.32 2.16-.6 3.08-.26.9-.68 2.36-.58 2.56.2.2 2.4.14 3.14.08.24-.62.62-2.04.82-3.14.28-1.56.3-3.38 1.6-3.42.8-.04 1.28.04 1.14 1.12-.22 1.56-1.06 5.3-1.14 5.68-.4 1.72-.82 5.36-1.04 5.88-.34.64-1.52.84-2.16.3zm67.78 76.28c.64.06 1.62.02 2.42.24 1.6.3 3.4 1.34 3.12 3.32-.48 2.28-2.46 4.1-4.7 4.42-1.56.2-3.34-.12-3.52-1.04-.08-.48.1-1.4.74-1.54.76-.16 1.48.44 2.2.46 1.36-.08 2.56-.78 2.84-2.06-.08-1.52-1.9-1.6-3.28-1.42-1.08.18-1.82.38-2.08-.84-.02-1.78.38-3.7.52-5.62.04-.72.7-1.2 1.38-1.22 1.26-.08 1.66-.18 3.5 0 1.04.1 2.48-.08 2.64.86.14.84-.3 1.5-.94 1.54-.82.08-3.42-.2-4.04.06-.66.26-.72 2.18-.8 2.84zM328.73 85c.86-.08 1.98-.36 2.68-.22 1.82.34 3.4 1.42 3.2 3.68-.24 2.42-3.54 4.4-6.1 4.14-2.22-.24-3.22-1.68-3.02-4.56.16-2.38 1.5-5.78 2.8-7.22.34-.4 1.7-1.86 2.28-1.92.5-.08 1.52.32 1.58.86.06.74-1.28 1.66-1.66 2.08-.74.78-1.48 2.06-1.76 3.16zm-.68 2.98c-.46 1.26-.04 2.4.98 2.46 1.58.08 3.3-.96 3.22-2.68-.42-1.58-3.76-.9-4.2.22zm15.87-80.06c1.22-.06 3.72 0 5.42-.02.66.02 1.5.38 1.56.98.08.78-.66 1.52-.96 2.04-.82 1.4-1.54 2.82-2.14 4.46-.68 1.56-1.22 3.84-1.36 5.48-.06.6-1.36 1-2 .7-.88-.38-.42-1.8-.22-2.62.38-1.58.64-2.9 1.22-4.32.6-1.56 1.22-2.9 1.88-4.32-.8-.2-3.56.3-4.9-.24-.34-.34-.36-1.16-.12-1.62.28-.48 1.04-.48 1.62-.52zm57.98 95.248c.42.52 1.48 1.32 1.52 3.18.04 2.04-1.02 3.22-2.82 3.78-1.58.5-3.32.44-4.58-.36-.7-.42-1.62-1.46-1.7-2.28-.1-1.06.26-2.02.66-2.54.28-.36.8-1 1-1.26-.2-.24-.66-1.2-.76-1.7-.36-1.86-.44-2.94.46-4.08.76-.98 3.08-1.68 4.68-1.36 2.72.16 3.68 3.12 2.58 5.24-.28.54-.62 1-1.04 1.38zm-.8 3.32c.02-.58-.84-1.5-1.72-1.6-1.3-.14-2.78.5-2.78 1.82 0 .76.76 1.52 1.7 1.54 1.26.02 2.74-.14 2.8-1.76zm-2.28-4.26c1.16.02 2.06-.62 2.2-1.42.38-2.12-1.46-2.6-2.86-1.98-1.42.62-.84 3.38.66 3.4zm92.98 30.412c.98-.1 2.7.16 3.54 1.06 1.32 1.3.78 4.8-.06 6.82-.96 2.3-2.1 4.16-4.2 5.6-.44.26-1.98.66-2.08-.58-.08-.88.8-1.32 1.4-1.8.48-.38 1.42-1.46 1.54-1.92-.3-.12-1.66-.4-2.22-.66-1.4-.68-2.46-1.62-2.24-3.86.24-2.42 2.32-4.44 4.32-4.66zm-1.96 5.68c.56 1.14 2.14 1.4 3.26 1.18.38-.58.84-1.4.84-2.36 0-1.54-.52-2.52-2.04-2.28-1.24.2-2.64 1.78-2.06 3.46z" fill="#222" fill-rule="nonzero"/><g stroke="#222" stroke-width="2.5" stroke-linecap="round"><path d="M19 85.5l1.311-.854a55 55 0 0024.215-36.899L45.5 42m25.017-14l2.34 2.73a50 50 0 0031.972 17.1l9.688 1.17M144 46.5l4.295-1.28a41 41 0 0026.49-24.388L175.5 19m27-9l13.411 7.11a68 68 0 0134.675 45.992L253 74.5" stroke-dasharray="6 6"/><path d="M543.5 24l13.5 7-13.5 6z" stroke-linejoin="round"/><path d="M543.5 37v8m-4 0h8"/><path d="M254 111.5l-2.03 12.586c-3.518 21.81 11.31 42.342 33.12 45.86a40 40 0 008.865.432l12.355-.772c22.048-1.378 38.805-20.37 37.427-42.418a40 40 0 00-3.44-13.907L335 101.5m-13-28l-1.97-5.744c-5.928-17.291.399-36.413 15.47-46.756m21.5-3c19.2-1.893 36.298 12.137 38.19 31.336.025.243.046.486.065.73L398 85.5m11 33a66.132 66.132 0 0061.067 28.76l7.933-.76m27.5-11.5a81.544 81.544 0 0038-68.944V59" stroke-dasharray="6 6"/><path d="M530.5 16.5L535 19m17 0l5-3.5M531 32l5-3.5m7.5-21V16"/></g></g></svg>