<svg height="64" width="64" xmlns="http://www.w3.org/2000/svg"><g fill="none" fill-rule="evenodd" stroke="#131315" stroke-linecap="round" stroke-width="2.5"><circle cx="28.237" cy="13.197" r="7.5"/><g stroke-linejoin="round"><path d="M43.684 26.336l4.148-1.31a5.899 5.899 0 002.375-9.816 7.702 7.702 0 011.364-12.02l1.959-1.213M15.237 60.351h4.898l3.015-9.654m-.375-32.461l12.962-4.654-12.962-5.248"/><path d="M33.237 19.296l10.026 2.842v20.03l-8.865 5.155-15.547 3.781-5.36 10.92L4 57.701l2.63-2.48h3.47L14.91 44.4l7.865-4.694-.209-3.003m-.445-6.4l-.367-5.273 2.587-4.334m11.396-.703V45.95"/><path d="M30.467 25.92l.363.472a2.954 2.954 0 01-.233 3.877l-4.095 4.159a7 7 0 01-4.988 2.089H15.12l-4.535 1.234A2 2 0 018.219 36.6l-.213-.502a1.957 1.957 0 011.334-2.662l1.88-.464v-2.88h2.064l1.837 1.605h4.208a5.16 5.16 0 004.766-3.183l.56-1.353a3.96 3.96 0 012.68-2.32 3.014 3.014 0 013.132 1.08zm-7.692 13.787l12.962 6.243"/></g></g></svg>