<svg height="105" width="74" xmlns="http://www.w3.org/2000/svg"><g fill="none" fill-rule="evenodd"><path d="M38.626 62.668C22 62.463 23.612 37.783 23.19 30.263c-.958-17.056 2.372-19.284 19.935-19.284s15.123 5.335 15.123 23.46c0 6.631-1.918 28.449-19.622 28.23z" stroke="#222" stroke-linecap="round" stroke-width="2.5"/><path d="M41.5 35.638l1.194 5.601c.238 1.118-.484 2.135-1.607 2.27L39 43.764" stroke="#222" stroke-linecap="round" stroke-width="2.5"/><ellipse cx="34.907" cy="35.171" fill="#222" rx="1.93" ry="2.119"/><ellipse cx="47.907" cy="35.171" fill="#222" rx="1.93" ry="2.119"/><g stroke="#222" stroke-linecap="round"><path d="M30.21 59.888l-3.517 5.752a7 7 0 01-2.91 2.644l-11.439 5.564A17.5 17.5 0 002.5 89.585v.303m48.701-59.043c-1.641-1-3.525-1.389-5.652-1.165m-9.505-.515c-1.92.088-3.7.82-5.338 2.195" stroke-width="2.5"/><path d="M47.478 77.184c.868 3.306 2.056 5.642 3.562 7.01m.701 7.663l-3.378-1.767a10.01 10.01 0 01-3.942-3.72l-2.075-3.459-1.772-6.01a.896.896 0 00-1.493-.38l-.094.095a2.73 2.73 0 00-.768 2.334l.533 3.554a1.82 1.82 0 01-2.326 2.013l-4.046-1.224a3.807 3.807 0 00-2.493.101 1.176 1.176 0 00-.608 1.648l.156.291a1.503 1.503 0 01-.746 2.094l-.212.09a1.186 1.186 0 00-.332 1.979l.87.776a1.458 1.458 0 01-.187 2.316 1.122 1.122 0 00.079 1.936l.862.457a1.156 1.156 0 01.296 1.818l-.162.17a1.351 1.351 0 00.004 1.866l.445.465c.29.302.674.495 1.09.547l4.471.556c1.742.217 3.504.22 5.247.009a13.7 13.7 0 015.178.363l2.02.54" stroke-width="2.45"/><path d="M47.875 60.888l1.01 2.948a3.75 3.75 0 001.834 2.12l13.959 7.171a13.575 13.575 0 017.372 12.076v2.126a5 5 0 01-6.03 4.893l-11.097-2.336a2 2 0 00-2.34 1.427l-3.324 12.075m-3.502-52.316s-2.838 2.863-6.962 1.573c-2.159-.675-3.759-1.9-4.793-2.914" stroke-width="2.5"/></g><path d="M32.331 19.168c9.442 1.055 14.713-.01 15.814-3.195 2.941.852 4.462 2.146 6.04 4.71.623 1.015 2.903-.582 3.441 1.563.416 1.66.416 5.968 0 12.925.39 10.618-2.77 19.594-9.481 26.927-.895 10.352 20.505 4.375 18.63-6.875-3.125-3.125-7.375-19.25-7.375-24.875 0-2.422-.008-6.327.342-8.798.462-3.267 1.803-4.993 1.091-7.84C58.917 6.046 51.775.598 42.4.598c-12.5 0-19.359 3.589-23.113 11.788-1.559 2.782.459 5.737 1.594 9.164.852 2.575.748 5.725.793 7.562.23 9.444-1.103 17.9-9.274 27.361-1.875 11.875 12.404 12.824 15.812 9.829 1.256-2.423 5.172-4.29 2.523-6.454-4.402-3.594-7.105-14.087-8.11-31.479a8.75 8.75 0 019.706-9.2z" fill="#222"/><path d="M22.232 22.246a51.012 51.012 0 0136.124-.04l.108.04-.177 6.142-2.206-.472a67.044 67.044 0 00-32.734 1.189z" stroke="#222" stroke-linecap="round" stroke-width="2.5"/></g></svg>