<svg width="155" height="160" xmlns="http://www.w3.org/2000/svg"><g fill="none" fill-rule="evenodd"><path fill="#AEB6BD" d="M107.232 140.201l-2.94 3.976-4.782-.52 2.667-6.247z"/><path d="M99.704 142.559l-1.972 4.718 1.022 1.014c.785.778 2.312 1.29 3.401 1.144l2.984-.399a12.448 12.448 0 011.99-.073l.831.048c1.104.064 2.504-.623 3.13-1.534l.16-.235c.467-.681.219-1.461-.57-1.749l-.13-.047a6.767 6.767 0 00-1.943-.342h-.099c-.555 0-1.42-.16-1.942-.36l-1.877-.72-4.985-1.465zM77.5 1L133 26.5v123L77.5 124z" fill="#606E7A"/><path fill="#D2D9E0" d="M142 62.5l8.878 4.08v16.022L142 78.428z"/><path fill="#D2D9E1" d="M77.5 1L16 17.5v123L77.5 124z"/><path d="M133 120.247l-6.112-10.678c-.825-1.44-1.97-1.356-2.559.195l-2.467 6.493c-1.47 3.872-4.494 9.82-6.762 13.298l-7.298 11.198-6.701-2.577 4.957-14.587c1.333-3.922 3.176-10.37 4.12-14.41l-.05.21a804.157 804.157 0 013.576-14.575l1.532-5.951L133 91.659v28.588z" fill="#313A41"/><path d="M107.992 88.696l-.664 1.876a19.686 19.686 0 01-1.247 2.71l-.342.594c-.413.715-1.384 1.513-2.16 1.78l-1.029.353c-.78.268-2.013.184-2.755-.19l-1.38-.693c-.74-.372-.805-1.063-.132-1.552l1.212-.88c.668-.485 1.405-1.525 1.643-2.31l.513-1.688h6.34z" fill="#848F97"/><path d="M133 104.743l-2.096-1.048c-1.482-.74-3.898-.784-5.417-.089l-3.089 1.414c-2.258 1.034-5.984 1.187-8.327.34l-3.351-1.21.592-5.734c.342-3.299 1.466-8.53 2.508-11.667l3.655-11.014c.522-1.57-.18-2.09-1.549-1.173l-1.462.98c-1.377.922-2.924 2.944-3.456 4.516l-3.102 9.165h-7.203l4.11-14.381c.455-1.597 1.762-3.847 2.921-5.03l7.022-7.161c1.157-1.18 3.375-2.574 4.927-3.103l4.126-1.407c1.563-.533 4.133-.657 5.75-.274l3.441.815v46.061z" fill="#AEB6BD"/><path d="M133 39.832l-1.736 1.455c-1.272 1.066-2.593 3.248-2.947 4.85l-3.466 15.708c-.496 2.248.046 5.68 1.213 7.67l.794 1.356c.42.715 1.388 1.537 2.16 1.834L133 74.237V39.832z" fill="#303941"/><path d="M144.054 67.264c-.306-.146-.554-.6-.554-1.014 0-.414.248-.632.554-.486.306.146.554.6.554 1.015 0 .414-.248.631-.554.485zm2.217 1.057c-.306-.146-.554-.6-.554-1.014 0-.414.248-.632.554-.486.306.146.554.6.554 1.015 0 .414-.248.631-.554.485zm2.217 1.058c-.306-.146-.554-.6-.554-1.015 0-.414.248-.631.554-.485.306.146.554.6.554 1.014 0 .414-.248.632-.554.486zm-4.434.885c-.306-.146-.554-.6-.554-1.014 0-.414.248-.632.554-.486.306.146.554.6.554 1.015 0 .414-.248.631-.554.485zm2.217 1.057c-.306-.146-.554-.6-.554-1.014 0-.414.248-.632.554-.486.306.146.554.6.554 1.015 0 .414-.248.631-.554.485zm2.217 1.058c-.306-.146-.554-.6-.554-1.015 0-.414.248-.631.554-.485.306.146.554.6.554 1.014 0 .414-.248.632-.554.486zm-4.434.885c-.306-.146-.554-.6-.554-1.014 0-.414.248-.632.554-.486.306.146.554.6.554 1.015 0 .414-.248.631-.554.485zm2.217 1.057c-.306-.146-.554-.6-.554-1.014 0-.414.248-.632.554-.486.306.146.554.6.554 1.015 0 .414-.248.631-.554.485zm2.217 1.058c-.306-.146-.554-.6-.554-1.015 0-.414.248-.631.554-.485.306.146.554.6.554 1.014 0 .414-.248.632-.554.486zm-4.434.885c-.306-.146-.554-.6-.554-1.014 0-.414.248-.632.554-.486.306.146.554.6.554 1.015 0 .414-.248.631-.554.485zm2.217 1.057c-.306-.146-.554-.6-.554-1.014 0-.414.248-.632.554-.486.306.146.554.6.554 1.015 0 .414-.248.631-.554.485zm2.217 1.058c-.306-.146-.554-.6-.554-1.015 0-.414.248-.631.554-.485.306.146.554.6.554 1.014 0 .414-.248.632-.554.486z" fill="#606E7A"/></g></svg>