<svg width="91" height="120" xmlns="http://www.w3.org/2000/svg"><g fill="none" fill-rule="evenodd"><path fill="#FFF" d="M0 0h91v120H0z"/><path fill="#D2D9E0" d="M1 27h89v5H1z"/><path fill="#B7C0C9" d="M8 7h5v20H8z"/><path fill="#D2D9E0" d="M15 7h5v20h-5z"/><path fill="#B7C0C9" d="M22 7h5v20h-5z"/><path fill="#D2D9E0" d="M29 7h5v20h-5z"/><path fill="#B7C0C9" d="M36 7h5v20h-5z"/><path fill="#D2D9E0" d="M43 7h5v20h-5zm7 0h5v20h-5z"/><path fill="#B7C0C9" d="M57 7h5v20h-5z"/><path fill="#D2D9E0" d="M64 7h5v20h-5z"/><path fill="#B7C0C9" d="M71 7h5v20h-5z"/><path fill="#D2D9E0" d="M78 7h5v20h-5z"/><path fill="#B7C0C9" d="M29 34h5v20h-5z"/><path fill="#D2D9E0" d="M36 34h5v20h-5zm7 0h5v20h-5z"/><path fill="#B7C0C9" d="M50 34h5v20h-5z"/><path fill="#D2D9E0" d="M57 34h5v20h-5z"/><path fill="#B7C0C9" d="M64 34h5v20h-5z"/><path fill="#D2D9E0" d="M71 34h5v20h-5zm7 0h5v20h-5zM8 61h5v20H8z"/><path fill="#B7C0C9" d="M15 61h5v20h-5z"/><path fill="#D2D9E0" d="M22 61h5v20h-5zm7 0h5v20h-5z"/><path fill="#B7C0C9" d="M36 61h5v20h-5z"/><path fill="#D2D9E0" d="M43 61h5v20h-5z"/><path fill="#B7C0C9" d="M50 61h5v20h-5z"/><path fill="#D2D9E0" d="M57 61h5v20h-5zm7 0h5v20h-5z"/><path fill="#B7C0C9" d="M71 61h5v20h-5zm7 0h5v20h-5zM8 88h5v20H8z"/><path fill="#D2D9E0" d="M15 88h5v20h-5zm7 0h5v20h-5z"/><path fill="#B7C0C9" d="M29 88h5v20h-5z"/><path fill="#D2D9E0" d="M36 88h5v20h-5z"/><path fill="#B7C0C9" d="M43 88h5v20h-5z"/><path fill="#D2D9E0" d="M50 88h5v20h-5zm7 0h5v20h-5z"/><path fill="#B7C0C9" d="M64 88h5v20h-5z"/><path fill="#D2D9E0" d="M71 88h5v20h-5zm7 0h5v20h-5zM1 0h89v5H1z"/><path fill="#D2D9E0" d="M1 0h5v120H1zm84 0h5v120h-5z"/><path fill="#D2D9E0" d="M1 54h89v5H1zm0 27h89v5H1zm0 27h89v5H1z"/><path d="M14 48a10 10 0 01-4-8 8.782 8.782 0 014.735 6.411L15 48h-1zm2.402 0l-.946-3.574a10 10 0 01-.063-4.868L16 37l.977 1.607A10 10 0 0118.43 43.8V48h-2.028z" fill="#313A41"/><path d="M18.94 49l1.356-1.837a10 10 0 001.716-8.107L22 39l-.003.002a10 10 0 00-4.056 8.042V49h1z" fill="#313A41"/><path d="M20 48l.8-.6A8 8 0 0024 41a7.53 7.53 0 00-4.764 5.703L19 48h1z" fill="#313A41"/><path d="M19 48l.946-2.838a10 10 0 000-6.324L19 36l-1.173 1.956a10 10 0 00-1.325 6.559L17 48h2z" fill="#313A41"/><path d="M15 48l-1.308-2.399a10 10 0 01-1.06-6.577L13 37l1.197 1.197A8.42 8.42 0 0116.5 42.5a9.6 9.6 0 01-.306 4.919L16 48h-1z" fill="#313A41"/><path fill="#B7C0C9" d="M12 47h10l-2 7h-6z"/></g></svg>