<svg width="240" height="160" xmlns="http://www.w3.org/2000/svg"><g fill="none" fill-rule="evenodd"><path fill="#D2D9E0" d="M75 93h36v45H75zm61-27h36v45h-36z"/><path fill="#B7C0C9" d="M75 93h9v18h-9zM24 33h9v18h-9zm78 69h9v18h-9zm90-92h9v18h-9zM84 129h18v9H84z"/><path fill="#7D8995" d="M111 93h25v45h-25z"/><path fill="#B7C0C9" d="M39 111h36v27H39zm97 0h36v27h-36zM84 66h36v27H84z"/><path fill="#7D8995" d="M172 102h27v36h-27z"/><path fill="#56616B" d="M127 111h9v9h-9z"/><path fill="#7D8995" d="M84 84h9v9h-9z"/><path fill="#D2D9E0" d="M75 16h9v9h-9z"/><path fill="#B7C0C9" d="M24 84h9v9h-9z"/><path fill="#D2D9E0" d="M0 102h9v9H0z"/><path fill="#7D8995" d="M39 129h9v9h-9z"/><path fill="#56616B" d="M111 93h9v9h-9z"/><path fill="#D2D9E0" d="M102 75h18v9h-18zm0-40h18v9h-18z"/><path fill="#7D8995" d="M66 111h9v18h-9zm-9-60h9v18h-9zm88 60h9v18h-9zm-9-36h9v18h-9z"/><path fill="#56616B" d="M163 129h9v9h-9zm10-90h9v9h-9zm-19 27h9v9h-9zm18 45h9v9h-9z"/><path fill="#B7C0C9" d="M190 111h9v18h-9zm-36-18h18v9h-18zm50-20h18v9h-18z"/><path fill="#D2D9E0" d="M231 111h9v9h-9z"/></g></svg>