<svg height="110" width="180" xmlns="http://www.w3.org/2000/svg"><g fill="none" fill-rule="evenodd"><path d="M106.907 36.663l.61-6.974-2.553-5.242-3.81-2.341-.555 2.68-1.093 1.566a.3.3 0 00.027.377l.463.494a.3.3 0 01.081.208l-.025 2.775a1 1 0 00.913 1.005l.3.026a1.46 1.46 0 011.327 1.327l.33 3.75z" fill="#d2d9e0"/><path d="M159 110l-13-69V20a9 9 0 10-18 0v16" stroke="#7d8995" stroke-width="2"/><path d="M106.38 56.67l2.731-12.055a14 14 0 00-.85-8.756l-1.1-2.489-4.593.886-3.079 7.313a11 11 0 00-.703 2.405L95 66z" fill="#7d8995"/><path d="M99.614 58.623L87 64.015a4 4 0 00-2.24 2.465L80.778 79 97 67.485z" fill="#313a41"/><path d="M88.226 47.83l-2.647-.3a5 5 0 00-2.484.351l-.697.29a.594.594 0 01-.761-.286.777.777 0 01.15-.894l1.493-1.482a1 1 0 01.927-.266l4.019.917zM23 95h21.725a35 35 0 0023.211-8.804l64.806-57.423A15 15 0 01142.689 25H154a6 6 0 016 6v14h-15.228a20 20 0 00-13.505 5.248l-55.235 50.567A35 35 0 0152.398 110H13v-5c0-5.523 4.477-10 10-10z" fill="#d2d9e0"/><path d="M103.337 37l-6.723 6.14a5 5 0 01-2.59 1.247l-5.809.92a1 1 0 00-.843.987v1.2a1 1 0 001.064.998l7.79-.498a6 6 0 003.934-1.82l6.331-6.557z" fill="#7d8995"/><path d="M172 110l-13-69V20a9 9 0 10-18 0v13" stroke="#7d8995" stroke-width="2"/><path d="M105.468 20.282a3.327 3.327 0 012.668.742l.689.58a3.282 3.282 0 003.89.251l.339-.217a2.808 2.808 0 013.318.206 4.411 4.411 0 011.584 3.386v1.448a4.95 4.95 0 01-2.199 4.116 8.715 8.715 0 01-4.844 1.47h-.72a4.753 4.753 0 01-4.415-2.99 19.216 19.216 0 00-3.298-5.43l-.929-1.077a3 3 0 01.286-4.209l1.086-.958a.818.818 0 011.35.727l-.096.686a1.125 1.125 0 001.29 1.269z" fill="#313a41"/><g stroke="#7d8995" stroke-width="2"><circle cx="141" cy="35" r="2"/><path d="M141 26h18m-11 25h11m-9 10h11m-9 10h11" stroke-linecap="square"/></g><path d="M94.244 25.728l-.028-.174a4.148 4.148 0 01.37-2.488l.419-.855a.466.466 0 00-.122-.565.399.399 0 00-.54.03l-.249.257a.427.427 0 01-.715-.174l-.33-1.091a1.362 1.362 0 00-.908-.909.917.917 0 00-1.06.419l-.115.198a2.49 2.49 0 00-.28 1.764l.095.444a7.213 7.213 0 001.087 2.547l.97 1.43z" fill="#d2d9e0"/><path d="M154 81h11m-9 10h11m-9 10h11" stroke="#7d8995" stroke-linecap="square" stroke-width="2"/><path d="M102.568 35.802l-3.193-2.621a12.195 12.195 0 01-3.673-5.126l-.803-2.132a1 1 0 00-1.275-.588l-.646.233a1 1 0 00-.612 1.25l1.45 4.447a13 13 0 002.217 4.1l5.347 6.669z" fill="#7d8995"/></g></svg>