<svg width="300" height="110" xmlns="http://www.w3.org/2000/svg"><defs><linearGradient x1="54.276%" y1="35.393%" x2="54.276%" y2="60.648%" id="a"><stop stop-color="#D2D9E0" offset="0%"/><stop stop-color="#C3CCD5" offset="100%"/></linearGradient></defs><g fill="none" fill-rule="evenodd"><path d="M211.956 78.348l1.479-15.389a1.393 1.393 0 00-1.142-1.491l-4.307-.717c-2.265-.378-5.567-1.83-7.38-3.249l-6.16-4.822c-.434-.34-.342-.537.207-.44l8.41 1.473c2.435.427 5.903 2.124 7.73 3.776l2.853 2.578.757-8.332a1.149 1.149 0 00-1.16-1.276h-.017c-3.178 0-8.121-1.015-11.046-2.27l-9.492-4.07c-.503-.216-.459-.392.094-.392h10.213c2.472 0 6.092 1.191 8.087 2.663l1.443 1.064c.57.42.912.206.761-.492l-1.379-6.374c-.15-.693-.779-1.535-1.398-1.877l-1.43-.791c-2.162-1.195-4.935-3.886-6.195-6.01l-6.113-10.307c-.282-.476-.15-.612.31-.293l7.72 5.348c2.182 1.513 4.939 4.638 6.168 7.004l1.36 2.617c.325.625.676.562.783-.135l1.532-9.959c.108-.7.298-1.84.423-2.535l-.228 1.269c.53-2.957 3.23-7.109 6.026-9.269l9.201-7.112c.436-.336.598-.21.358.294l-4.927 10.338c-1.293 2.713-4.742 5.37-7.683 5.93l.526-.1c-.695.132-1.4.794-1.577 1.487l-1.518 5.96c-.176.688.125.895.688.449l.143-.113c2.358-1.87 6.614-4.06 9.501-4.888l12.316-3.535c.535-.153.597-.017.147.297l-8.325 5.816c-3.622 2.53-10.12 4.885-14.533 5.262l1.013-.087c-.7.06-1.334.683-1.413 1.38l-.118 1.035c-.08.702-.028 1.83.119 2.526l1.073 5.09c.146.692.616.808 1.06.246l-.495.628c1.862-2.357 5.684-5.038 8.532-5.988l8.79-2.93c.528-.176.647.007.268.407l-6.443 6.807c-2.43 2.567-7.267 4.648-10.803 4.648h1.277c-.708 0-1.327.58-1.382 1.272l-.483 6.122 3.965-1.364c1.67-.575 4.46-1.042 6.224-1.042h10.224c.547 0 .575.161.067.358l-10.503 4.068c-1.65.638-4.39.853-6.111.48l-2.993-.647c-.69-.15-1.287.302-1.332 1.003l-1.2 18.6h-2.562z" fill="#D2D9E0"/><path fill="#D2D9E0" d="M200.484 68.855h28.828L225.195 87h-20.591z"/><rect fill="url(#a)" x="95" y="49" width="110" height="52" rx="3"/><rect fill="#D2D9E0" x="80" y="75" width="140" height="26" rx="3"/><path d="M67.968 99.055v1.324a2 2 0 01-1.335 1.886l-4.788 1.688a2.245 2.245 0 01-2.128-.349 1.005 1.005 0 01-.034-1.556l2.051-1.752a3 3 0 00.14-.127l2.172-2.105a2 2 0 00.06-.06l1.528-1.614 2.334 2.665zm15.121-1.175l.248 2.244a2 2 0 01-.968 1.94l-4.355 2.58a2 2 0 01-1.019.28h-1.137a.913.913 0 01-.765-1.413l.99-1.518a2 2 0 01.143-.195l1.516-1.806a4.485 4.485 0 001.05-2.884l4.297.771z" fill="#313A41"/><path d="M116.76 72.301l.94.744a3 3 0 001.597.635l2.365.209c.688.06 1.3.458 1.637 1.06h-7.221l-1.432-1.812 2.114-.836z" fill="#AAB4BE"/><path d="M101 47.825l-1.19-4.69.746-3.413-.414-2.198a4.352 4.352 0 00-1.814-2.783l-.32-.22a2.97 2.97 0 00-2.515-.401l-.587.172a4.4 4.4 0 00-1.403.701l-.191.143a1.693 1.693 0 00-.653 1.642L93 38.77l-.635 2.168a.477.477 0 00.57.599l.16-.039a.55.55 0 01.677.505l.084 1.54a1 1 0 001.179.93l.621-.115a.55.55 0 01.631.401l.978 3.705 3.734-.64z" fill="#C9CFD5"/><path d="M101.62 64.277l2.398 5.867a6.87 6.87 0 01-1.015 6.916l-1.05 1.3a5 5 0 01-3.89 1.858h-7.946a4 4 0 00-3.928 3.241l-2.85 14.757-4.886-.443-.704-12.536-9.29 13.825-3.712-2.824 7.998-18.844a7 7 0 013.35-3.544l9.333-4.6 1.387-4.973h14.805z" fill="#7D8995"/><path d="M87.799 68.356c2.031 1.087 4.509 1.36 7.433.818 2.97-.55 6.001.174 9.094 2.172l1.525-10.32a.5.5 0 01.983-.034l.148.673a15.849 15.849 0 002.772 6.073l4.987 6.691 2.8-2.436-4.436-7.57a22 22 0 01-2.306-5.571l-1.22-4.678a11.152 11.152 0 00-4.21-6.189l-2.424-1.771a2 2 0 00-1.718-.312l-1.611.45a4 4 0 01-2.538-.13l-.84-.33a2 2 0 00-1.304-.054l-2.956.884a9.683 9.683 0 00-5.55 4.325l-2.385 4.01a8 8 0 00-1.125 4.09v10.606l2.612-.2.598-1.684 1.465.404a1 1 0 01.206.083z" fill="#313A41"/><path fill="#C9CFD5" d="M79.006 60.313L80.344 60l3.72 2.744 5.741-.923.906.6v7.612h-5.853l-3.96-2.073z"/><path d="M84.154 69.645l1.766-.698a1.31 1.31 0 011.052.039l.14.067c.246.12.456.305.604.536a.377.377 0 01-.148.54l-.778.39a2 2 0 01-.71.204l-1.162.108a2 2 0 01-1.38-.386l-.33-.245a1 1 0 01-.397-.69l-.067-.584 1.41.72z" fill="#AAB4BE"/><path d="M93.423 36.955l.8-.166a1.784 1.784 0 012.134 1.55l.134 1.205.962-.132v-.402c0-.305.157-.59.415-.753l.143-.09a.5.5 0 01.54.002l.272.177a.773.773 0 01.292.946l-.155.373a1.516 1.516 0 00-.011 1.141l.218.552.016.042.442 1.156a.2.2 0 00.386-.055l.01-.12a8.35 8.35 0 01.394-1.957l.228-.69a4 4 0 00-.091-2.757l-.402-.992a3.517 3.517 0 00-2.865-2.173l-1.073-.121a3 3 0 00-1.874.405l-.489.292a2.767 2.767 0 00-1.263 1.692.714.714 0 00.837.875z" fill="#313A41"/></g></svg>