<svg width="300" height="160" xmlns="http://www.w3.org/2000/svg"><defs><radialGradient cx="50%" cy="12.001%" fx="50%" fy="12.001%" r="62.406%" gradientTransform="matrix(0 1 -.78167 0 .594 -.38)" id="a"><stop stop-color="#DCDFE5" offset="0%"/><stop stop-color="#FFF" offset="100%"/></radialGradient><linearGradient x1="54.276%" y1="35.393%" x2="54.276%" y2="60.648%" id="b"><stop stop-color="#D2D9E0" offset="0%"/><stop stop-color="#C3CCD5" offset="100%"/></linearGradient></defs><g fill="none" fill-rule="evenodd"><path fill="url(#a)" d="M0 160v-58h300v58z"/><g fill="#EEF0F4"><path d="M225.295 22.042l1.28-.067 3.875 73.948-1.28.067z"/><path d="M225.956 94.348l1.479-15.389c.068-.707-.374-.982-.973-.623l-6.553 3.935c-1.967 1.182-5.291 1.447-7.415.597l-2.49-.997c-1.804-.722-2.03-2.297-.513-3.512l3.36-2.69c1.93-1.545 5.425-2.253 7.8-1.581l6.995 1.98.757-8.333c.064-.705-.454-1.162-1.141-1.024l-9.113 1.824c-3.118.624-7.09-1.002-8.871-3.635l-.453-.67c-1.684-2.486-.716-5.21 2.16-6.082l1.078-.327c2.366-.717 5.938-.164 7.986 1.241l6.454 4.43c.582.4.917.172.745-.518l-2.583-10.34c-.172-.685-.829-1.465-1.488-1.75l-8.802-3.804c-2.272-.982-4.319-3.772-4.571-6.238l-.205-1.992c-.342-3.34 2.076-5.704 5.407-5.276l1.707.219c2.628.337 5.329 2.674 6.036 5.233l2.546 9.21c.188.682.43.664.539-.034l2.807-17.98c.11-.7.24-1.847.29-2.547l.414-5.808c.251-3.521 3.251-7.031 6.687-7.836l3.83-.897c2.757-.646 5.24 1.117 5.543 3.93l.146 1.351c.323 2.988-1.702 6.238-4.533 7.263l-8.73 3.16c-.667.241-1.315 1.009-1.445 1.695l-1.766 9.344c-.132.695.287 1.01.927.71l4.806-2.264c2.717-1.28 7.135-1.298 9.86-.045l1.384.636c3.053 1.404 3.602 4.468 1.236 6.836l.66-.66c-3.125 3.127-8.787 3.905-12.628 1.749l-5.043-2.831c-.619-.348-1.252-.078-1.42.623l-1.321 5.51c-.166.691-.162 1.809.008 2.487l2.266 9.07c.17.682.658.774 1.076.222l2.993-3.948c1.815-2.394 5.717-4.403 8.714-4.486l.978-.027c2.83-.079 4.643 2.088 4.046 4.853l-.13.605c-.748 3.457-4.21 6.32-7.751 6.393l-7.693.16c-.71.016-1.33.608-1.385 1.299l-.483 6.122 8.916-.487c1.767-.097 3.889 1.084 4.738 2.633l1.446 2.64c1.359 2.48.168 4.617-2.648 4.773l-3.226.18c-1.766.098-4.074-.964-5.145-2.357l-3.673-4.778c-.434-.564-.822-.449-.867.252l-1.2 18.6h-2.562z"/><path d="M212.484 94.101h28.828L237.195 105h-20.591z"/></g><rect fill="url(#b)" x="95" y="64" width="110" height="52" rx="3"/><rect fill="#D2D9E0" x="80" y="90" width="140" height="26" rx="3"/><path d="M67.968 114.055v1.324a2 2 0 01-1.335 1.886l-4.788 1.688a2.245 2.245 0 01-2.128-.349 1.005 1.005 0 01-.034-1.556l2.051-1.752a3 3 0 00.14-.127l2.172-2.105.06-.06 1.528-1.614 2.334 2.665zm15.121-1.175l.248 2.244a2 2 0 01-.968 1.94l-4.355 2.58a2 2 0 01-1.019.28h-1.137a.913.913 0 01-.765-1.413l.99-1.518a2 2 0 01.143-.195l1.516-1.806a4.485 4.485 0 001.05-2.884l4.297.771z" fill="#313A41"/><path d="M116.76 87.301l.94.744a3 3 0 001.597.635l2.365.209c.688.06 1.3.458 1.637 1.06h-7.221l-1.432-1.812 2.114-.836z" fill="#AAB4BE"/><path d="M101 62.825l-1.19-4.69.746-3.413-.414-2.198a4.352 4.352 0 00-1.814-2.783l-.32-.22a2.97 2.97 0 00-2.515-.401l-.587.172a4.4 4.4 0 00-1.403.701l-.191.143a1.693 1.693 0 00-.653 1.642L93 53.77l-.635 2.168a.477.477 0 00.57.599l.16-.039a.55.55 0 01.677.505l.084 1.54a1 1 0 001.179.93l.621-.115a.55.55 0 01.631.401l.978 3.705 3.734-.64z" fill="#C9CFD5"/><path d="M101.62 79.277l2.398 5.867a6.87 6.87 0 01-1.015 6.916l-1.05 1.3a5 5 0 01-3.89 1.858h-7.946a4 4 0 00-3.928 3.241l-2.85 14.757-4.886-.443-.704-12.536-9.29 13.825-3.712-2.824 7.998-18.844a7 7 0 013.35-3.544l9.333-4.6 1.387-4.973h14.805z" fill="#7D8995"/><path d="M87.799 83.356c2.031 1.087 4.509 1.36 7.433.818 2.97-.55 6.001.174 9.094 2.172l1.525-10.32a.5.5 0 01.983-.034l.148.673a15.849 15.849 0 002.772 6.073l4.987 6.691 2.8-2.436-4.436-7.57a22 22 0 01-2.306-5.571l-1.22-4.678a11.152 11.152 0 00-4.21-6.189l-2.424-1.771a2 2 0 00-1.718-.312l-1.611.45a4 4 0 01-2.538-.13l-.84-.33a2 2 0 00-1.304-.054l-2.956.884a9.683 9.683 0 00-5.55 4.325l-2.385 4.01a8 8 0 00-1.125 4.09v10.606l2.612-.2.598-1.684 1.465.404a1 1 0 01.206.083z" fill="#313A41"/><path fill="#C9CFD5" d="M79.006 75.313L80.344 75l3.72 2.744 5.741-.923.906.6v7.612h-5.853l-3.96-2.073z"/><path d="M84.154 84.645l1.766-.698a1.31 1.31 0 011.052.039l.14.067c.246.12.456.305.604.536a.377.377 0 01-.148.54l-.778.39a2 2 0 01-.71.204l-1.162.108a2 2 0 01-1.38-.386l-.33-.245a1 1 0 01-.397-.69l-.067-.584 1.41.72z" fill="#AAB4BE"/><path d="M93.423 51.955l.8-.166a1.784 1.784 0 012.134 1.55l.134 1.205.962-.132v-.402c0-.305.157-.59.415-.753l.143-.09a.5.5 0 01.54.002l.272.177a.773.773 0 01.292.946l-.155.373a1.516 1.516 0 00-.011 1.141l.218.552.016.042.442 1.156a.2.2 0 00.386-.055l.01-.12a8.35 8.35 0 01.394-1.957l.228-.69a4 4 0 00-.091-2.757l-.402-.992a3.517 3.517 0 00-2.865-2.173l-1.073-.121a3 3 0 00-1.874.405l-.489.292a2.767 2.767 0 00-1.263 1.692.714.714 0 00.837.875z" fill="#313A41"/></g></svg>