<svg height="105" width="120" xmlns="http://www.w3.org/2000/svg"><g fill="none" fill-rule="evenodd"><g stroke="#222" stroke-linecap="round" stroke-width="2.5"><path d="M53.21 63.5l-3.517 5.752a7 7 0 01-2.91 2.644l-11.439 5.565A17.5 17.5 0 0025.5 93.197v.303m45.375-29l1.01 2.949a3.75 3.75 0 001.834 2.12l9.993 5.134a20.564 20.564 0 0111.166 18.569l-.003.228M6.5 93.5h28.36m21.64 0h6.36m23.64 0h28.36"/><path d="M37.541 87.329l10.156-1.702a4 4 0 014.503 2.832l.013.043 5.536 4.998h-5.077l.482 3.383a1.787 1.787 0 01-1.392 2 1.817 1.817 0 01-2.119-1.24l-1.433-4.626 1.185 7.07a1.68 1.68 0 01-1.257 1.91 1.675 1.675 0 01-1.994-1.113l-2.272-7.051.518 6.25a1.58 1.58 0 01-1.324 1.69 1.585 1.585 0 01-1.791-1.187l-1.51-6.175v4.87c0 .831-.603 1.54-1.423 1.674a1.63 1.63 0 01-1.826-1.154l-2.155-7.41a4 4 0 013.18-5.062zm44.773 0l-10.156-1.702a4 4 0 00-4.504 2.832l-.012.043-5.536 4.998h5.077l-.482 3.383a1.787 1.787 0 001.392 2c.92.198 1.84-.34 2.119-1.24l1.433-4.626-1.185 7.07a1.68 1.68 0 001.257 1.91 1.675 1.675 0 001.994-1.113l2.272-7.051-.518 6.25a1.58 1.58 0 001.324 1.69 1.585 1.585 0 001.791-1.187l1.51-6.175v4.87c0 .831.603 1.54 1.423 1.674A1.63 1.63 0 0083.34 99.8l2.155-7.41a4 4 0 00-3.18-5.062z" stroke-linejoin="round"/><path d="M64.5 40.25l.453 4.073c.095.857-.372 1.987-1.045 2.526L62 48.375"/></g><ellipse cx="55.907" cy="36.784" fill="#222" rx="1.93" ry="2.119"/><ellipse cx="70.55" cy="37.248" fill="#222" rx="1.93" ry="2.119"/><path d="M51.3 30.858c2.592-1.967 5.309-2.622 8.15-1.966m9.142.568c2.532-.109 4.756.584 6.672 2.079m-6.539 22.497s-5.555 3.545-12.501.152" stroke="#222" stroke-linecap="round" stroke-width="2.5"/><path d="M55.965 25.353c8.317-.676 12.475-3.161 12.475-7.457 6.333.32 9.5 4.511 9.5 12.576 1.428 15.764-1.593 27.106-9.065 34.028-.01 1.08 1.584 4.216 2.122 4.758 4.181 4.208 18.73-.773 17.253-9.633-3.125-3.125-4.375-11.25-4.375-16.875s.518-18.042-.732-23.042C81.227 12.044 73.25 4 63.875 4c-12.5 0-16.714 5.548-21.089 11.798-8.75 15.625 4.375 34.202-8.911 45.077C32 72.75 48.875 75.155 52 68.281c.432-2.375 1.13-5.299 0-6.647-3.58-4.266-4.933-13.629-4.06-28.087a8.75 8.75 0 018.025-8.194z" fill="#222"/><path d="M61.45 66.5c-14.178 0-19.075-26.777-19.075-34.375 0-18.125 11.091-25.138 23.75-23.75s16.337 8.165 16.337 26.29c0 6.63-2.192 31.835-21.011 31.835z" stroke="#222" stroke-linecap="round" stroke-width="2.5"/></g></svg>