<svg height="92" width="46" xmlns="http://www.w3.org/2000/svg"><g fill="none" fill-rule="evenodd" stroke="#222" stroke-linecap="round" stroke-width="2.5"><path d="M10.633 83.266l-3-16.946h32l-3 16.946m-29 0h32l-2 7h-28zm3.265-16.946l-1.54-2.456a50.49 50.49 0 01-5.821-40.538A37.285 37.285 0 0119.606 56.44l-.638 9.88z"/><path d="M13.018 31.969l.159-2.634a51.307 51.307 0 018.673-25.6 53.944 53.944 0 019.62 23.383l.136.874M35.69 66.32a59.928 59.928 0 006.785-46.915l-.037-.138A50.697 50.697 0 0020.58 54.455L18.968 66.32"/><path d="M27.317 66.32l2.557-5.943a100 100 0 006.604-22.05l1.008-5.678M22.954 66.234l2.5-8.5m-3-41l-2 32m-13-12.5l.314 2.126a90 90 0 006.176 21.96l2.51 5.914"/></g></svg>