<svg height="108" width="110" xmlns="http://www.w3.org/2000/svg"><g fill="none" fill-rule="evenodd"><path d="M74.45 64.5c-14.178 0-19.075-26.777-19.075-34.375 0-18.125 11.091-25.138 23.75-23.75s16.337 8.165 16.337 26.29c0 6.63-2.192 31.835-21.011 31.835z" stroke="#222" stroke-linecap="round" stroke-width="2.5"/><path d="M78.5 38.25l.453 4.073c.095.857-.372 1.987-1.045 2.526L76 46.375" stroke="#222" stroke-linecap="round" stroke-width="2.5"/><ellipse cx="69.907" cy="34.784" fill="#222" rx="1.93" ry="2.119"/><ellipse cx="84.55" cy="35.248" fill="#222" rx="1.93" ry="2.119"/><path d="M66 62.5l-.719 2.744a9 9 0 01-4.925 5.887l-11.708 5.42A17.5 17.5 0 0038.5 92.433v.068m26.8-62.643c2.592-1.967 5.309-2.622 8.15-1.966m9.142.568c2.532-.109 4.756.584 6.672 2.079" stroke="#222" stroke-linecap="round" stroke-width="2.5"/><path d="M69.965 23.353c8.317-.676 12.475-3.161 12.475-7.457 6.333.32 9.5 4.511 9.5 12.576 1.428 15.764-1.593 27.106-9.065 34.028-.01 1.08 1.584 4.216 2.122 4.758 4.181 4.208 18.73-.773 17.253-9.633-3.125-3.125-4.375-11.25-4.375-16.875s.518-18.042-.732-23.042C95.227 10.044 87.25 2 77.875 2c-12.5 0-16.714 5.548-21.089 11.798-8.75 15.625 4.375 34.202-8.911 45.077C46 70.75 62.875 73.155 66 66.281c.432-2.375 1.13-5.299 0-6.647-3.58-4.266-4.933-13.629-4.06-28.087a8.75 8.75 0 018.025-8.194z" fill="#222"/><g stroke="#222" stroke-linecap="round" stroke-width="2.5"><path d="M82.725 52.036s-5.555 3.545-12.501.152M82.875 63.5l1.958 4.212a3.75 3.75 0 001.687 1.754l10.192 5.237a20.564 20.564 0 0111.166 18.569l-.003.228M18.569 73.229l-3.143-5.967a8.75 8.75 0 00-2.556-2.97l-4.22-3.107a3.75 3.75 0 01-.33-5.768l3.038-2.821a1 1 0 00.136-1.31L4.542 41.47A1.752 1.752 0 015 39l.005-.003a2 2 0 012.646.384l8.058 9.67a.25.25 0 00.431-.233l-2.68-8.805A1.623 1.623 0 0114.5 38a1.888 1.888 0 012.255.89l5.324 9.79a1 1 0 001.592.223l3.08-3.132a3 3 0 012.963-.781l.036.01a1.547 1.547 0 01.975 2.147l-2.661 5.655a6.25 6.25 0 00-.594 2.522l-.086 3.872a3.75 3.75 0 00.036.606l1.197 8.51"/><path d="M40.55 99L30.544 70.3a2.5 2.5 0 00-3.5-1.402l-7.828 4.005a2.5 2.5 0 00-1.275 2.88L26.12 106"/><path d="M14.287 21.396v7.616m5.282 3.793l6.07-3.793M9.13 33.215l-3.79-2.69" fill="#fff"/><path d="M9.5 56l5.435 3.106A1.931 1.931 0 0017.5 58.5a1.95 1.95 0 00-.418-2.614L11.5 51.5"/><path d="M10 62l2.444.61a2 2 0 002.273-1.045l.033-.065c.43-.86.162-1.907-.629-2.455L9 55.5"/></g></g></svg>