<svg height="100" width="76" xmlns="http://www.w3.org/2000/svg"><g fill="none" fill-rule="evenodd"><path d="M28.089 52.58s3.121 3.15 7.658 1.73c2.375-.742 4.135-2.09 5.273-3.205" stroke="#222" stroke-linecap="round" stroke-width="2.5"/><path d="M44.255 63.347c10.496-4.696 13.267-23.82 13.267-29.67 0-15.95-14.16-23.221-25.3-22-9.683 1.063-13.753 6.096-14.652 17.87a3.565 3.565 0 00-1.298 2.756 3.56 3.56 0 001.101 2.58l-.001.445c0 3.489.422 13.199 5.19 20.442" stroke="#222" stroke-linecap="round" stroke-width="2.5"/><path d="M30.572 40.828l-.399 3.584c-.083.754.328 1.749.92 2.223l1.679 1.343" stroke="#222" stroke-linecap="round" stroke-width="2.5"/><ellipse cx="37.254" cy="35.346" fill="#222" rx="1.699" ry="1.853" transform="scale(-1 1) rotate(34 0 -86.505)"/><ellipse cx="25.467" cy="35.754" fill="#222" rx="1.699" ry="1.853" transform="scale(-1 1) rotate(34 0 -47.546)"/><g stroke="#222"><path d="M47.118 63.47l.958 4.782a3.3 3.3 0 001.972 2.4l11.779 4.884a14.822 14.822 0 019.145 13.692m-27.75-56.1c-1.834-2.2-4.034-3.3-6.6-3.3m-9.38.392c-2.216-.25-4.21.22-5.984 1.415" stroke-linecap="round" stroke-width="2.5"/><path d="M43.213 25.023c-9.894-1.103-14.841-3.718-14.841-7.845-5.684 0-8.79 3.906-9.32 11.719l-3.304.93c-.018-6.6.34-11.366 1.074-14.3 1.686-6.744 8.25-12.65 16.5-12.65 11 0 17.05 1.65 20.9 7.15 11 13.75 4.4 25.3 19.8 37.95 1.65 10.45-8.8 28.05-23.65 10.45 2.528-7.901 2.332-17.165-.588-27.792h0a7.7 7.7 0 00-6.571-5.612z" fill="#222" stroke-width=".99"/><path d="M22.975 69.486l-6.602 3.391a24.525 24.525 0 00-12.451 15.35" stroke-linecap="round" stroke-width="2.5"/><path d="M29.941 78.728l2.364-3.153a8.75 8.75 0 012.619-2.324l5.047-2.92a3.75 3.75 0 001.66-4.493l-1.644-4.657a1.25 1.25 0 01.424-1.413l7.55-5.714a1.812 1.812 0 00.346-2.545 2.03 2.03 0 00-2.665-.503l-11.024 6.681a6.494 6.494 0 01-6.968-.15l-1.622-1.081a4.026 4.026 0 00-3.819-.351 1.781 1.781 0 00-.762 2.652l2.485 3.585a3.75 3.75 0 01.525 3.158l-1.961 6.928M8.397 94.603l10.657-20.986a2.5 2.5 0 013.89-.736l7.625 6.778a2.5 2.5 0 01.728 2.606l-4.775 15.463" stroke-linecap="round" stroke-width="2.5"/></g></g></svg>