<svg width="240" height="140" xmlns="http://www.w3.org/2000/svg"><g fill="none" fill-rule="evenodd"><path fill="#D2D9E0" d="M75 0h100v120H75z"/><path fill="#B7C0C9" d="M155 20h20v10h-20zm-30 40h20v10h-20zm30 30h20v10h-20zM75 20h20v10H75zm60 0h10v20h-10zm0 80h10v20h-10zm-20-20h10v20h-10zm50-30h10v20h-10zm-60-10h10v20h-10zm10-40h10v20h-10zM75 90h20v10H75z"/><ellipse fill="#313A41" cx="96.524" cy="48.07" rx="5.218" ry="5.184"/><ellipse fill="#606E7A" cx="96.524" cy="48.07" rx="2.81" ry="2.791"/><ellipse fill="#313A41" cx="96.524" cy="48.07" rx="2.007" ry="1.994"/><path d="M96.524 44.481a.4.4 0 01-.402-.399.4.4 0 01.402-.398.4.4 0 01.401.398.4.4 0 01-.401.399zm0 7.975a.4.4 0 01-.402-.399.4.4 0 01.402-.399.4.4 0 01.401.399.4.4 0 01-.401.399zm-4.014-3.988a.4.4 0 01-.401-.398.4.4 0 01.401-.4.4.4 0 01.402.4.4.4 0 01-.402.398zm8.027 0a.4.4 0 01-.4-.398.4.4 0 01.4-.4.4.4 0 01.402.4.4.4 0 01-.402.398zm-2.63-3.714a.4.4 0 01-.218-.522.4.4 0 01.523-.215.4.4 0 01.219.522.4.4 0 01-.524.215zm-3.072 7.368a.4.4 0 01-.218-.522.4.4 0 01.523-.215.4.4 0 01.219.522.4.4 0 01-.524.215zm-2.172-5.21a.4.4 0 01-.218-.522.4.4 0 01.523-.215.4.4 0 01.219.522.4.4 0 01-.524.215zm7.416 3.052a.4.4 0 01-.218-.522.4.4 0 01.523-.215.4.4 0 01.219.522.4.4 0 01-.524.215zm-1-4.432a.4.4 0 010-.566.4.4 0 01.565.002.4.4 0 01.002.566.4.4 0 01-.566-.002zm-5.675 5.639a.4.4 0 01-.002-.566.4.4 0 01.566.002.4.4 0 01.002.566.4.4 0 01-.566-.002zm0-5.639a.4.4 0 01-.002-.566.4.4 0 01.566.002.4.4 0 01.002.566.4.4 0 01-.566-.002zm5.676 5.639a.4.4 0 01-.002-.566.4.4 0 01.566.002.4.4 0 01.002.566.4.4 0 01-.566-.002zm.784-4.475a.4.4 0 01.214-.523.4.4 0 01.522.218.4.4 0 01-.215.524.4.4 0 01-.521-.219zm-7.417 3.052a.4.4 0 01.215-.523.4.4 0 01.522.218.4.4 0 01-.215.523.4.4 0 01-.522-.218zm2.172-5.21a.4.4 0 01.215-.523.4.4 0 01.522.218.4.4 0 01-.215.524.4.4 0 01-.522-.219zm3.072 7.368a.4.4 0 01.215-.523.4.4 0 01.522.218.4.4 0 01-.215.523.4.4 0 01-.522-.218z" fill="#D2D9E0"/><path fill="#313A41" d="M94.918 41.291h3.211l-1.605 1.595z"/><path fill="#C9CFD5" d="M66.02 125.218v4.15h3.15l1.05-4.15zm15.746 0l.525 4.15h3.15v-4.15zm9.972-71.073l1.092-2.158a2.86 2.86 0 00.22-1.992 3.14 3.14 0 01.164-2.02l.961-2.217a.396.396 0 01.581-.173c.242.16.376.44.346.728l-.12 1.19a.52.52 0 00.748.52l.827-.41a1.04 1.04 0 00.547-.677l.145-.573a.612.612 0 011.024-.285l.607.6c.135.134.23.301.277.485l.332 1.31a1.04 1.04 0 01-.18.883l-1.04 1.371a1.04 1.04 0 01-.606.387l-1.388.305a1.04 1.04 0 00-.774.722l-1.663 5.635-2.1-3.631z"/><path d="M65.496 85.31v40.427h5.183l4.414-25.83a.416.416 0 01.818-.014l5.318 25.844h5.145l-2-42.427-18.878 2z" fill="#313A41"/><path d="M94.914 54.335l-2.23 7.544a5.2 5.2 0 01-1.533 2.414l-2.2 1.954a9.87 9.87 0 00-3.316 7.373l-.005 8.074 4.008 29.876a35.16 35.16 0 00-13.12 2.668c-.711.293-1.423.496-2.133.671-3.21.792-7.04-.11-11.488-2.705l1.716-25.119a20.8 20.8 0 00-1.058-8.109l-1.91-5.621a7.28 7.28 0 01.098-4.954l3.672-9.557a5.2 5.2 0 013.447-3.14l1.31-.369 4.611-.709h3.74l3.27 2.106 2.676.355a5.2 5.2 0 011.569.468l1.29.62a1.04 1.04 0 001.274-.304l3.661-4.764 2.651 1.228z" fill="#7D8995"/><path fill="#C9CFD5" d="M79.835 43.194l1.154 4.747-.63 1.39v3.272l-1.802 1.61v2.054l-5.093.716V45.93z"/><path d="M74.144 41.431l-.76.27a4.616 4.616 0 00-3.004 3.552l-1.955 11.133a9.36 9.36 0 001.395 6.756l.45.684a3.366 3.366 0 005.393.314l2.583-3.083a5.2 5.2 0 001.098-4.435l-.935-4.335a9.36 9.36 0 01.625-5.838l.675-1.489a2.413 2.413 0 00-1.359-3.26l-.66-.244a5.2 5.2 0 00-3.546-.025z" fill="#313A41"/><path d="M66.02 129.369h3.15l.524 3.631H66.71a5.2 5.2 0 01-2.304-.538l-2.584-1.278.449-.777a2.08 2.08 0 011.8-1.038h1.95zm19.42 0h-3.15L81.767 133h2.984a5.2 5.2 0 002.304-.538l2.585-1.278-.75-1.296a1.04 1.04 0 00-.9-.52h-2.55z" fill="#606E7A"/></g></svg>