<svg height="64" width="64" xmlns="http://www.w3.org/2000/svg"><g fill="none" fill-rule="evenodd" stroke="#131315" stroke-linecap="round" stroke-width="2.5"><circle cx="24" cy="32" r="22"/><path d="M35.197 14.772l-1.961 5.054a1.833 1.833 0 01-1.709 1.17h-5.02a3.336 3.336 0 00-3.336 3.301l-.018 1.789a2.44 2.44 0 001.331 2.2l2.474 1.265a2.444 2.444 0 011.332 2.176v3.507a2.444 2.444 0 002.443 2.443h4.657c.648 0 1.27.258 1.728.716l4.538 4.538M2.08 28.939h4.258c.835 0 1.577.533 1.843 1.325l1.11 3.31a1.943 1.943 0 001.843 1.326h4.205c1.073 0 1.943.87 1.943 1.943v4.95c0 .386.114.762.329 1.082l1.238 1.847a1.943 1.943 0 01-.606 2.744l-5.033 3.053"/></g></svg>