<svg height="120" width="130" xmlns="http://www.w3.org/2000/svg"><g fill="none" fill-rule="evenodd"><g stroke="#222" stroke-linecap="round" stroke-width="2.5"><path d="M32.71 63.5l-3.421 5.596a7 7 0 01-3.215 2.783l-9.642 4.133A16.377 16.377 0 007.23 86.25l-.75 2.437a9 9 0 001.847 8.593l1.538 1.747a9 9 0 008.375 2.907l11.667-2.133a3 3 0 013.46 2.26l1.786 7.543a3 3 0 01-1.664 3.416l-5.364 2.472M50.375 64.5l1.002 2.924a3.75 3.75 0 001.874 2.14l6.061 3.022A19.13 19.13 0 0169 83.877a8.252 8.252 0 0010.2 5.398l11.218-3.321a2 2 0 012.534 1.548L94.8 97.32a2 2 0 01-.97 2.104l-6.053 3.478"/><path d="M95.063 98.221l5.47-.34.022-.002 7.522-.488a3.75 3.75 0 003.356-2.688l1.882-6.425a1.25 1.25 0 01.942-.872l8.433-1.776a2.04 2.04 0 001.585-2.365 2.205 2.205 0 00-2.341-1.799l-10.106.792a7.5 7.5 0 01-4.872-1.321l-.191-.134a3.898 3.898 0 00-4.665.158l-3.225 2.585a3.75 3.75 0 01-.716.452l-5.403 2.606"/><path d="M95.188 92.087l1.669.187a6 6 0 006.008-3.226l.879-1.714 3.974 1.797a2 2 0 002.218-.389l.202-.197c.658-.64.69-1.685.074-2.364l-5.24-5.773" stroke-linejoin="round"/><path d="M44 40.25l.453 4.073c.095.857-.372 1.987-1.045 2.526L41.5 48.375"/></g><ellipse cx="37.407" cy="36.784" fill="#222" rx="1.93" ry="2.119"/><ellipse cx="52.05" cy="38.248" fill="#222" rx="1.93" ry="2.119"/><path d="M30.8 31.858c2.592-1.967 5.309-2.622 8.15-1.966m9.239 1.28c2.532.112 4.687.996 6.465 2.652m-6.429 20.212s-5.555 3.545-12.501.152" stroke="#222" stroke-linecap="round" stroke-width="2.5"/><path d="M35.465 25.353c8.317-.676 12.475-3.161 12.475-7.457 6.333.32 9.5 4.511 9.5 12.576 1.428 15.764-1.593 27.106-9.065 34.028-.01 1.08 1.584 4.216 2.122 4.758 4.181 4.208 18.73-.773 17.253-9.633-3.125-3.125-4.375-11.25-4.375-16.875s.518-18.042-.732-23.042C60.727 12.044 52.75 4 43.375 4c-12.5 0-16.714 5.548-21.089 11.798-8.75 15.625 4.375 34.202-8.911 45.077-1.875 11.875 15 14.28 18.125 7.406.432-2.375 1.13-5.299 0-6.647-3.58-4.266-4.933-13.629-4.06-28.087a8.75 8.75 0 018.025-8.194z" fill="#222"/><path d="M40.95 66.5c-14.178 0-19.075-26.777-19.075-34.375 0-18.125 11.091-25.138 23.75-23.75s16.337 8.165 16.337 26.29c0 6.63-2.192 31.835-21.011 31.835zm-5.231 44.133l10.877-.116a3.75 3.75 0 003.679-3.266l.738-5.669a1.25 1.25 0 01.933-1.05l9.219-2.328a2.014 2.014 0 001.465-2.42 2.209 2.209 0 00-2.432-1.678l-11.054 1.433a7.5 7.5 0 01-4.922-1.066l-.204-.127a3.321 3.321 0 00-4.322.717L37.47 97.78a3.75 3.75 0 01-.987.849l-3.556 2.11" stroke="#222" stroke-linecap="round" stroke-width="2.5"/></g></svg>