<svg height="48" width="48" xmlns="http://www.w3.org/2000/svg"><g fill="none"><path d="M43.299 3.278a20.142 20.142 0 01-2.544 4.452c-9.1-9.442-24.12-9.687-33.514-.587-9.394 9.1-9.687 24.12-.587 33.514.293.342.636.636.978.93l.88.782c9.982 8.415 24.953 7.143 33.368-2.838a23.641 23.641 0 005.528-13.6c.685-5.92-1.125-13.553-4.11-22.653zM11.057 41.831c-.685.88-1.957.978-2.838.293-.88-.685-.978-1.957-.293-2.837.685-.88 1.957-.979 2.837-.294.832.685.979 1.957.294 2.838zm32.095-7.094c-5.822 7.779-18.347 5.137-26.322 5.528 0 0-1.419.098-2.837.294 0 0 .538-.245 1.223-.49 5.626-1.956 8.268-2.348 11.693-4.11 6.409-3.277 12.818-10.47 14.09-17.906-2.446 7.143-9.883 13.308-16.634 15.803-4.648 1.712-13.014 3.376-13.014 3.376l-.343-.196c-5.675-2.789-5.87-15.118 4.501-19.08 4.55-1.762 8.856-.783 13.797-1.958 5.235-1.223 11.302-5.137 13.748-10.274 2.74 8.269 6.067 21.087.098 29.013z" fill="#6db33f"/><path d="M43.152 34.737c-5.822 7.779-18.347 5.137-26.322 5.528 0 0-1.419.098-2.837.294 0 0 .538-.245 1.223-.49 5.626-1.956 8.268-2.348 11.693-4.11 6.409-3.277 12.818-10.47 14.09-17.906-2.446 7.143-9.883 13.308-16.634 15.803-4.648 1.712-13.014 3.376-13.014 3.376l-.343-.196c-5.675-2.789-5.87-15.118 4.501-19.08 4.55-1.762 8.856-.783 13.797-1.958 5.235-1.223 11.302-5.137 13.748-10.274 2.74 8.269 6.067 21.087.098 29.013zM11.057 41.83c-.685.882-1.957.98-2.838.294-.88-.685-.978-1.957-.293-2.837.685-.88 1.957-.979 2.837-.294.832.685.979 1.957.294 2.838z" fill="#fff"/></g></svg>