<svg height="48" width="48" xmlns="http://www.w3.org/2000/svg"><g fill="none"><path d="M.155.155h47.69v47.69H.155z" fill="#f0db4f"/><path d="M43.942 36.47c-.35-2.175-1.768-4.002-5.97-5.706-1.46-.671-3.088-1.151-3.573-2.258-.172-.644-.195-1.006-.086-1.396.313-1.265 1.823-1.659 3.02-1.296.77.258 1.5.852 1.94 1.8 2.057-1.333 2.053-1.324 3.49-2.24-.526-.816-.807-1.192-1.151-1.541-1.238-1.383-2.924-2.095-5.622-2.04l-1.404.181c-1.347.34-2.63 1.047-3.382 1.995-2.258 2.561-1.614 7.044 1.133 8.89 2.706 2.03 6.682 2.493 7.19 4.392.494 2.325-1.71 3.078-3.899 2.81-1.614-.335-2.511-1.155-3.481-2.647-1.786 1.034-1.786 1.034-3.622 2.09.435.952.893 1.383 1.622 2.208 3.455 3.504 12.1 3.331 13.65-1.972.063-.182.48-1.397.145-3.27zM26.08 22.075h-4.46l-.02 11.532c0 2.452.128 4.7-.271 5.39-.653 1.355-2.344 1.187-3.114.924-.785-.385-1.184-.933-1.646-1.708-.127-.223-.222-.395-.254-.408l-3.626 2.22c.603 1.238 1.491 2.313 2.629 3.01 1.7 1.02 3.984 1.334 6.374.785 1.555-.453 2.896-1.391 3.599-2.82 1.015-1.872.798-4.138.788-6.645.023-4.09 0-8.178 0-12.28z" fill="#323330"/></g></svg>