<svg height="48" width="48" xmlns="http://www.w3.org/2000/svg"><g fill="#61dafb" transform="translate(0 2.683)"><path d="M47.932 21.317c0-3.17-3.971-6.176-10.059-8.039 1.405-6.205.78-11.141-1.97-12.722-.635-.37-1.376-.546-2.186-.546v2.175c.449 0 .81.088 1.112.254 1.327.761 1.903 3.659 1.454 7.385a30.034 30.034 0 01-.498 2.869c-1.912-.469-4-.83-6.195-1.064a47.59 47.59 0 00-4.058-4.878c3.18-2.956 6.166-4.575 8.195-4.575V0c-2.683 0-6.195 1.912-9.747 5.23C20.43 1.931 16.917.038 14.234.038v2.176c2.02 0 5.015 1.61 8.195 4.546a46.08 46.08 0 00-4.029 4.868 45.559 45.559 0 00-6.205 1.073 29.433 29.433 0 01-.507-2.829c-.459-3.727.107-6.624 1.424-7.395.293-.176.673-.254 1.122-.254V.05c-.82 0-1.56.175-2.205.546-2.741 1.58-3.356 6.507-1.941 12.693C4.02 15.16.068 18.156.068 21.318c0 3.17 3.971 6.175 10.059 8.038-1.405 6.205-.78 11.142 1.97 12.722.635.37 1.376.546 2.196.546 2.683 0 6.195-1.912 9.746-5.229 3.551 3.298 7.063 5.19 9.746 5.19.82 0 1.561-.175 2.205-.546 2.742-1.58 3.356-6.507 1.942-12.693 6.048-1.863 10-4.868 10-8.029zM35.229 14.81a43.94 43.94 0 01-1.317 3.853c-.4-.78-.82-1.56-1.278-2.341a52.788 52.788 0 00-1.405-2.283c1.386.205 2.722.459 4 .77zM30.761 25.2a51.975 51.975 0 01-2.351 3.727 50.763 50.763 0 01-8.8.01 53.78 53.78 0 01-2.361-3.708 50.818 50.818 0 01-2.03-3.883 50.875 50.875 0 012.02-3.892 51.975 51.975 0 012.351-3.727 50.763 50.763 0 018.8-.01c.81 1.161 1.6 2.4 2.361 3.707a50.818 50.818 0 012.03 3.883 54.625 54.625 0 01-2.02 3.893zm3.151-1.268a41.81 41.81 0 011.347 3.883 43.786 43.786 0 01-4.02.78 54.18 54.18 0 001.405-2.312c.449-.78.868-1.57 1.268-2.351zm-9.892 10.41a40.221 40.221 0 01-2.713-3.122 60.45 60.45 0 002.683.068c.917 0 1.825-.02 2.712-.068a38.08 38.08 0 01-2.682 3.121zm-7.259-5.747a44.023 44.023 0 01-4-.77 43.94 43.94 0 011.317-3.854c.4.78.82 1.56 1.278 2.341.459.78.927 1.542 1.405 2.283zm7.21-20.302c.907.936 1.814 1.98 2.712 3.122A60.394 60.394 0 0024 11.346c-.917 0-1.824.02-2.712.069a38.08 38.08 0 012.683-3.122zm-7.22 5.746a53.897 53.897 0 00-2.673 4.654 41.81 41.81 0 01-1.346-3.883 47.38 47.38 0 014.02-.771zM7.922 26.254c-3.454-1.474-5.688-3.405-5.688-4.937s2.234-3.473 5.688-4.937a30.062 30.062 0 012.702-.985 46.857 46.857 0 002.196 5.942 46.196 46.196 0 00-2.166 5.912 29.637 29.637 0 01-2.732-.995zm5.249 13.941c-1.327-.76-1.903-3.658-1.454-7.385.107-.917.283-1.883.498-2.869 1.912.469 4 .83 6.195 1.064a47.59 47.59 0 004.058 4.878c-3.18 2.956-6.166 4.576-8.195 4.576-.439-.01-.81-.098-1.102-.264zm23.141-7.434c.459 3.727-.107 6.624-1.424 7.395-.293.176-.673.254-1.122.254-2.02 0-5.015-1.61-8.195-4.547a46.08 46.08 0 004.029-4.868 45.559 45.559 0 006.205-1.073c.224.985.4 1.932.507 2.839zm3.756-6.507c-.839.36-1.756.683-2.702.985a46.857 46.857 0 00-2.195-5.941 46.25 46.25 0 002.166-5.913c.965.303 1.883.635 2.741.995 3.454 1.474 5.688 3.405 5.688 4.937-.01 1.532-2.244 3.473-5.698 4.937z"/><circle cx="23.99" cy="21.317" r="4.459"/></g></svg>