<svg height="48" width="48" xmlns="http://www.w3.org/2000/svg"><g fill="none"><path d="M10.956 2.633l1.218-1.218c1.867-1.847 4.913-1.73 6.622.255l16.86 19.65a4.513 4.513 0 01-.039 5.935L18.816 46.296a4.522 4.522 0 01-6.583.197l-1.218-1.219a4.528 4.528 0 01-.275-6.091L20.8 27.117a4.528 4.528 0 00.06-5.718L10.64 8.626c-1.454-1.768-1.316-4.362.315-5.993z" fill="#92d13d"/><path d="M20.781 27.157l-10.06 12.065a4.528 4.528 0 00.274 6.092l1.218 1.218a4.522 4.522 0 006.583-.197l3.636-4.126a19.878 19.878 0 002.142-9.02 20.01 20.01 0 00-3.184-10.847 4.466 4.466 0 01-.609 4.815z" fill="#49691f"/></g></svg>