<svg width="32" height="32" xmlns="http://www.w3.org/2000/svg"><g fill="none" fill-rule="evenodd"><path fill="#292E33" d="M0 0h32v32H0z"/><path fill="#292E33" d="M0 0h32v32H0z"/><path d="M13.575 12.64a4.372 4.372 0 011.507-.9l.229-1.249a.62.62 0 01.6-.491h1.178c.282 0 .552.228.6.491l.229 1.248a4.372 4.372 0 011.507.901l1.192-.424a.62.62 0 01.725.274l.59 1.02a.636.636 0 01-.126.765l-.993.845a4.624 4.624 0 010 1.76l.993.845a.62.62 0 01.125.765l-.589 1.02a.636.636 0 01-.725.274l-1.192-.424a4.372 4.372 0 01-1.507.9l-.229 1.249a.636.636 0 01-.6.491h-1.178a.62.62 0 01-.6-.491l-.229-1.248a4.372 4.372 0 01-1.507-.901l-1.192.424a.636.636 0 01-.725-.274l-.59-1.02a.62.62 0 01.126-.765l.993-.845a4.624 4.624 0 010-1.76l-.993-.845a.636.636 0 01-.125-.765l.589-1.02a.62.62 0 01.725-.274l1.192.424zm2.925 5.61c1.214 0 2.199-1.007 2.199-2.25s-.985-2.25-2.199-2.25-2.199 1.007-2.199 2.25.985 2.25 2.199 2.25z" fill="#FFF"/></g></svg>