<svg height="112" width="386" xmlns="http://www.w3.org/2000/svg"><g fill="#01a569"><path d="M5.223 1c.81 0 1.619.309 2.235.935l1.984 2.023-.78.794a.577.577 0 01-.824 0L6.264 3.15a1.462 1.462 0 00-2.086 0L2.19 5.168 1 3.958 2.989 1.94A3.124 3.124 0 015.223 1zm30 0c.81 0 1.619.309 2.235.935l1.984 2.023-.78.794a.577.577 0 01-.824 0L36.264 3.15a1.462 1.462 0 00-2.086 0L32.19 5.168 31 3.958l1.989-2.018A3.124 3.124 0 0135.223 1zm30 0c.81 0 1.619.309 2.235.935l1.984 2.023-.78.794a.577.577 0 01-.824 0L66.264 3.15a1.462 1.462 0 00-2.086 0L62.19 5.168 61 3.958l1.989-2.018A3.124 3.124 0 0165.223 1zm30 0c.81 0 1.619.309 2.235.935l1.984 2.023-.78.794a.577.577 0 01-.824 0L96.264 3.15a1.462 1.462 0 00-2.086 0L92.19 5.168 91 3.958l1.989-2.018A3.124 3.124 0 0195.223 1zm30 0c.81 0 1.619.309 2.235.935l1.984 2.023-.78.794a.577.577 0 01-.824 0l-1.574-1.602a1.462 1.462 0 00-2.086 0l-1.988 2.018-1.19-1.21 1.989-2.018a3.124 3.124 0 012.234-.94zm30 0c.81 0 1.619.309 2.235.935l1.984 2.023-.78.794a.577.577 0 01-.824 0l-1.574-1.602a1.462 1.462 0 00-2.086 0l-1.988 2.018-1.19-1.21 1.989-2.018a3.124 3.124 0 012.234-.94zm30 0c.81 0 1.619.309 2.235.935l1.984 2.023-.78.794a.577.577 0 01-.824 0l-1.574-1.602a1.462 1.462 0 00-2.086 0l-1.988 2.018-1.19-1.21 1.989-2.018a3.124 3.124 0 012.234-.94z"/><path d="M185.223 1c.81 0 1.619.309 2.235.935l1.984 2.023-.78.794a.577.577 0 01-.824 0l-1.574-1.602a1.462 1.462 0 00-2.086 0l-1.988 2.018-1.19-1.21 1.989-2.018a3.124 3.124 0 012.234-.94zm30 0c.81 0 1.619.309 2.235.935l1.984 2.023-.78.794a.577.577 0 01-.824 0l-1.574-1.602a1.462 1.462 0 00-2.086 0l-1.988 2.018-1.19-1.21 1.989-2.018a3.124 3.124 0 012.234-.94zm30 0c.81 0 1.619.309 2.235.935l1.984 2.023-.78.794a.577.577 0 01-.824 0l-1.574-1.602a1.462 1.462 0 00-2.086 0l-1.988 2.018-1.19-1.21 1.989-2.018a3.124 3.124 0 012.234-.94zm30 0c.81 0 1.619.309 2.235.935l1.984 2.023-.78.794a.577.577 0 01-.824 0l-1.574-1.602a1.462 1.462 0 00-2.086 0l-1.988 2.018-1.19-1.21 1.989-2.018a3.124 3.124 0 012.234-.94zm30 0c.81 0 1.619.309 2.235.935l1.984 2.023-.78.794a.577.577 0 01-.824 0l-1.574-1.602a1.462 1.462 0 00-2.086 0l-1.988 2.018-1.19-1.21 1.989-2.018a3.124 3.124 0 012.234-.94zm30 0c.81 0 1.619.309 2.235.935l1.984 2.023-.78.794a.577.577 0 01-.824 0l-1.574-1.602a1.462 1.462 0 00-2.086 0l-1.988 2.018-1.19-1.21 1.989-2.018a3.124 3.124 0 012.234-.94zm30 0c.81 0 1.619.309 2.235.935l1.984 2.023-.78.794a.577.577 0 01-.824 0l-1.574-1.602a1.462 1.462 0 00-2.086 0l-1.988 2.018-1.19-1.21 1.989-2.018a3.124 3.124 0 012.234-.94zm-360 30c.81 0 1.619.309 2.235.935l1.984 2.023-.78.794a.577.577 0 01-.824 0L6.264 33.15a1.462 1.462 0 00-2.086 0L2.19 35.168 1 33.958l1.989-2.018A3.124 3.124 0 015.223 31zm30 0c.81 0 1.619.309 2.235.935l1.984 2.023-.78.794a.577.577 0 01-.824 0l-1.574-1.602a1.462 1.462 0 00-2.086 0l-1.988 2.018-1.19-1.21 1.989-2.018a3.124 3.124 0 012.234-.94zm30 0c.81 0 1.619.309 2.235.935l1.984 2.023-.78.794a.577.577 0 01-.824 0l-1.574-1.602a1.462 1.462 0 00-2.086 0l-1.988 2.018-1.19-1.21 1.989-2.018a3.124 3.124 0 012.234-.94zm30 0c.81 0 1.619.309 2.235.935l1.984 2.023-.78.794a.577.577 0 01-.824 0l-1.574-1.602a1.462 1.462 0 00-2.086 0l-1.988 2.018-1.19-1.21 1.989-2.018a3.124 3.124 0 012.234-.94zm30 0c.81 0 1.619.309 2.235.935l1.984 2.023-.78.794a.577.577 0 01-.824 0l-1.574-1.602a1.462 1.462 0 00-2.086 0l-1.988 2.018-1.19-1.21 1.989-2.018a3.124 3.124 0 012.234-.94zm30 0c.81 0 1.619.309 2.235.935l1.984 2.023-.78.794a.577.577 0 01-.824 0l-1.574-1.602a1.462 1.462 0 00-2.086 0l-1.988 2.018-1.19-1.21 1.989-2.018a3.124 3.124 0 012.234-.94zm30 0c.81 0 1.619.309 2.235.935l1.984 2.023-.78.794a.577.577 0 01-.824 0l-1.574-1.602a1.462 1.462 0 00-2.086 0l-1.988 2.018-1.19-1.21 1.989-2.018a3.124 3.124 0 012.234-.94z"/><path d="M185.223 31c.81 0 1.619.309 2.235.935l1.984 2.023-.78.794a.577.577 0 01-.824 0l-1.574-1.602a1.462 1.462 0 00-2.086 0l-1.988 2.018-1.19-1.21 1.989-2.018a3.124 3.124 0 012.234-.94zm30 0c.81 0 1.619.309 2.235.935l1.984 2.023-.78.794a.577.577 0 01-.824 0l-1.574-1.602a1.462 1.462 0 00-2.086 0l-1.988 2.018-1.19-1.21 1.989-2.018a3.124 3.124 0 012.234-.94zm30 0c.81 0 1.619.309 2.235.935l1.984 2.023-.78.794a.577.577 0 01-.824 0l-1.574-1.602a1.462 1.462 0 00-2.086 0l-1.988 2.018-1.19-1.21 1.989-2.018a3.124 3.124 0 012.234-.94zm30 0c.81 0 1.619.309 2.235.935l1.984 2.023-.78.794a.577.577 0 01-.824 0l-1.574-1.602a1.462 1.462 0 00-2.086 0l-1.988 2.018-1.19-1.21 1.989-2.018a3.124 3.124 0 012.234-.94zm30 0c.81 0 1.619.309 2.235.935l1.984 2.023-.78.794a.577.577 0 01-.824 0l-1.574-1.602a1.462 1.462 0 00-2.086 0l-1.988 2.018-1.19-1.21 1.989-2.018a3.124 3.124 0 012.234-.94zm30 0c.81 0 1.619.309 2.235.935l1.984 2.023-.78.794a.577.577 0 01-.824 0l-1.574-1.602a1.462 1.462 0 00-2.086 0l-1.988 2.018-1.19-1.21 1.989-2.018a3.124 3.124 0 012.234-.94zm30 0c.81 0 1.619.309 2.235.935l1.984 2.023-.78.794a.577.577 0 01-.824 0l-1.574-1.602a1.462 1.462 0 00-2.086 0l-1.988 2.018-1.19-1.21 1.989-2.018a3.124 3.124 0 012.234-.94zm-345-10.832a3.12 3.12 0 01-2.234-.94L16 17.21 17.19 16l1.988 2.018a1.462 1.462 0 002.086 0l1.574-1.602a.577.577 0 01.824 0l.78.794-1.984 2.023a3.118 3.118 0 01-2.235.935zm30 0a3.12 3.12 0 01-2.234-.94L46 17.21 47.19 16l1.988 2.018a1.462 1.462 0 002.086 0l1.574-1.602a.577.577 0 01.824 0l.78.794-1.984 2.023a3.118 3.118 0 01-2.235.935zm30 0a3.12 3.12 0 01-2.234-.94L76 17.21 77.19 16l1.988 2.018a1.462 1.462 0 002.086 0l1.574-1.602a.577.577 0 01.824 0l.78.794-1.984 2.023a3.118 3.118 0 01-2.235.935zm30 0a3.12 3.12 0 01-2.234-.94L106 17.21l1.19-1.21 1.988 2.018a1.462 1.462 0 002.086 0l1.574-1.602a.577.577 0 01.824 0l.78.794-1.984 2.023a3.118 3.118 0 01-2.235.935zm30 0a3.12 3.12 0 01-2.234-.94L136 17.21l1.19-1.21 1.988 2.018a1.462 1.462 0 002.086 0l1.574-1.602a.577.577 0 01.824 0l.78.794-1.984 2.023a3.118 3.118 0 01-2.235.935zm30 0a3.12 3.12 0 01-2.234-.94L166 17.21l1.19-1.21 1.988 2.018a1.462 1.462 0 002.086 0l1.574-1.602a.577.577 0 01.824 0l.78.794-1.984 2.023a3.118 3.118 0 01-2.235.935zm30 0a3.12 3.12 0 01-2.234-.94L196 17.21l1.19-1.21 1.988 2.018a1.462 1.462 0 002.086 0l1.574-1.602a.577.577 0 01.824 0l.78.794-1.984 2.023a3.118 3.118 0 01-2.235.935z"/><path d="M200.223 20.168a3.12 3.12 0 01-2.234-.94L196 17.21l1.19-1.21 1.988 2.018a1.462 1.462 0 002.086 0l1.574-1.602a.577.577 0 01.824 0l.78.794-1.984 2.023a3.118 3.118 0 01-2.235.935zm30 0a3.12 3.12 0 01-2.234-.94L226 17.21l1.19-1.21 1.988 2.018a1.462 1.462 0 002.086 0l1.574-1.602a.577.577 0 01.824 0l.78.794-1.984 2.023a3.118 3.118 0 01-2.235.935zm30 0a3.12 3.12 0 01-2.234-.94L256 17.21l1.19-1.21 1.988 2.018a1.462 1.462 0 002.086 0l1.574-1.602a.577.577 0 01.824 0l.78.794-1.984 2.023a3.118 3.118 0 01-2.235.935zm30 0a3.12 3.12 0 01-2.234-.94L286 17.21l1.19-1.21 1.988 2.018a1.462 1.462 0 002.086 0l1.574-1.602a.577.577 0 01.824 0l.78.794-1.984 2.023a3.118 3.118 0 01-2.235.935zm30 0a3.12 3.12 0 01-2.234-.94L316 17.21l1.19-1.21 1.988 2.018a1.462 1.462 0 002.086 0l1.574-1.602a.577.577 0 01.824 0l.78.794-1.984 2.023a3.118 3.118 0 01-2.235.935zm30 0a3.12 3.12 0 01-2.234-.94L346 17.21l1.19-1.21 1.988 2.018a1.462 1.462 0 002.086 0l1.574-1.602a.577.577 0 01.824 0l.78.794-1.984 2.023a3.118 3.118 0 01-2.235.935zm30 0a3.12 3.12 0 01-2.234-.94L376 17.21l1.19-1.21 1.988 2.018a1.462 1.462 0 002.086 0l1.574-1.602a.577.577 0 01.824 0l.78.794-1.984 2.023a3.118 3.118 0 01-2.235.935zm-360 30a3.12 3.12 0 01-2.234-.94L16 47.21 17.19 46l1.988 2.018a1.462 1.462 0 002.086 0l1.574-1.602a.577.577 0 01.824 0l.78.794-1.984 2.023a3.118 3.118 0 01-2.235.935zm30 0a3.12 3.12 0 01-2.234-.94L46 47.21 47.19 46l1.988 2.018a1.462 1.462 0 002.086 0l1.574-1.602a.577.577 0 01.824 0l.78.794-1.984 2.023a3.118 3.118 0 01-2.235.935zm30 0a3.12 3.12 0 01-2.234-.94L76 47.21 77.19 46l1.988 2.018a1.462 1.462 0 002.086 0l1.574-1.602a.577.577 0 01.824 0l.78.794-1.984 2.023a3.118 3.118 0 01-2.235.935zm30 0a3.12 3.12 0 01-2.234-.94L106 47.21l1.19-1.21 1.988 2.018a1.462 1.462 0 002.086 0l1.574-1.602a.577.577 0 01.824 0l.78.794-1.984 2.023a3.118 3.118 0 01-2.235.935zm30 0a3.12 3.12 0 01-2.234-.94L136 47.21l1.19-1.21 1.988 2.018a1.462 1.462 0 002.086 0l1.574-1.602a.577.577 0 01.824 0l.78.794-1.984 2.023a3.118 3.118 0 01-2.235.935zm30 0a3.12 3.12 0 01-2.234-.94L166 47.21l1.19-1.21 1.988 2.018a1.462 1.462 0 002.086 0l1.574-1.602a.577.577 0 01.824 0l.78.794-1.984 2.023a3.118 3.118 0 01-2.235.935zm30 0a3.12 3.12 0 01-2.234-.94L196 47.21l1.19-1.21 1.988 2.018a1.462 1.462 0 002.086 0l1.574-1.602a.577.577 0 01.824 0l.78.794-1.984 2.023a3.118 3.118 0 01-2.235.935z"/><path d="M200.223 50.168a3.12 3.12 0 01-2.234-.94L196 47.21l1.19-1.21 1.988 2.018a1.462 1.462 0 002.086 0l1.574-1.602a.577.577 0 01.824 0l.78.794-1.984 2.023a3.118 3.118 0 01-2.235.935zm30 0a3.12 3.12 0 01-2.234-.94L226 47.21l1.19-1.21 1.988 2.018a1.462 1.462 0 002.086 0l1.574-1.602a.577.577 0 01.824 0l.78.794-1.984 2.023a3.118 3.118 0 01-2.235.935zm30 0a3.12 3.12 0 01-2.234-.94L256 47.21l1.19-1.21 1.988 2.018a1.462 1.462 0 002.086 0l1.574-1.602a.577.577 0 01.824 0l.78.794-1.984 2.023a3.118 3.118 0 01-2.235.935zm30 0a3.12 3.12 0 01-2.234-.94L286 47.21l1.19-1.21 1.988 2.018a1.462 1.462 0 002.086 0l1.574-1.602a.577.577 0 01.824 0l.78.794-1.984 2.023a3.118 3.118 0 01-2.235.935zm30 0a3.12 3.12 0 01-2.234-.94L316 47.21l1.19-1.21 1.988 2.018a1.462 1.462 0 002.086 0l1.574-1.602a.577.577 0 01.824 0l.78.794-1.984 2.023a3.118 3.118 0 01-2.235.935zm30 0a3.12 3.12 0 01-2.234-.94L346 47.21l1.19-1.21 1.988 2.018a1.462 1.462 0 002.086 0l1.574-1.602a.577.577 0 01.824 0l.78.794-1.984 2.023a3.118 3.118 0 01-2.235.935zm30 0a3.12 3.12 0 01-2.234-.94L376 47.21l1.19-1.21 1.988 2.018a1.462 1.462 0 002.086 0l1.574-1.602a.577.577 0 01.824 0l.78.794-1.984 2.023a3.118 3.118 0 01-2.235.935zM5.223 61c.81 0 1.619.309 2.235.935l1.984 2.023-.78.794a.577.577 0 01-.824 0L6.264 63.15a1.462 1.462 0 00-2.086 0L2.19 65.168 1 63.958l1.989-2.018A3.124 3.124 0 015.223 61zm30 0c.81 0 1.619.309 2.235.935l1.984 2.023-.78.794a.577.577 0 01-.824 0l-1.574-1.602a1.462 1.462 0 00-2.086 0l-1.988 2.018-1.19-1.21 1.989-2.018a3.124 3.124 0 012.234-.94zm30 0c.81 0 1.619.309 2.235.935l1.984 2.023-.78.794a.577.577 0 01-.824 0l-1.574-1.602a1.462 1.462 0 00-2.086 0l-1.988 2.018-1.19-1.21 1.989-2.018a3.124 3.124 0 012.234-.94zm30 0c.81 0 1.619.309 2.235.935l1.984 2.023-.78.794a.577.577 0 01-.824 0l-1.574-1.602a1.462 1.462 0 00-2.086 0l-1.988 2.018-1.19-1.21 1.989-2.018a3.124 3.124 0 012.234-.94zm30 0c.81 0 1.619.309 2.235.935l1.984 2.023-.78.794a.577.577 0 01-.824 0l-1.574-1.602a1.462 1.462 0 00-2.086 0l-1.988 2.018-1.19-1.21 1.989-2.018a3.124 3.124 0 012.234-.94zm30 0c.81 0 1.619.309 2.235.935l1.984 2.023-.78.794a.577.577 0 01-.824 0l-1.574-1.602a1.462 1.462 0 00-2.086 0l-1.988 2.018-1.19-1.21 1.989-2.018a3.124 3.124 0 012.234-.94zm30 0c.81 0 1.619.309 2.235.935l1.984 2.023-.78.794a.577.577 0 01-.824 0l-1.574-1.602a1.462 1.462 0 00-2.086 0l-1.988 2.018-1.19-1.21 1.989-2.018a3.124 3.124 0 012.234-.94z"/><path d="M185.223 61c.81 0 1.619.309 2.235.935l1.984 2.023-.78.794a.577.577 0 01-.824 0l-1.574-1.602a1.462 1.462 0 00-2.086 0l-1.988 2.018-1.19-1.21 1.989-2.018a3.124 3.124 0 012.234-.94zm30 0c.81 0 1.619.309 2.235.935l1.984 2.023-.78.794a.577.577 0 01-.824 0l-1.574-1.602a1.462 1.462 0 00-2.086 0l-1.988 2.018-1.19-1.21 1.989-2.018a3.124 3.124 0 012.234-.94zm30 0c.81 0 1.619.309 2.235.935l1.984 2.023-.78.794a.577.577 0 01-.824 0l-1.574-1.602a1.462 1.462 0 00-2.086 0l-1.988 2.018-1.19-1.21 1.989-2.018a3.124 3.124 0 012.234-.94zm30 0c.81 0 1.619.309 2.235.935l1.984 2.023-.78.794a.577.577 0 01-.824 0l-1.574-1.602a1.462 1.462 0 00-2.086 0l-1.988 2.018-1.19-1.21 1.989-2.018a3.124 3.124 0 012.234-.94zm30 0c.81 0 1.619.309 2.235.935l1.984 2.023-.78.794a.577.577 0 01-.824 0l-1.574-1.602a1.462 1.462 0 00-2.086 0l-1.988 2.018-1.19-1.21 1.989-2.018a3.124 3.124 0 012.234-.94zm30 0c.81 0 1.619.309 2.235.935l1.984 2.023-.78.794a.577.577 0 01-.824 0l-1.574-1.602a1.462 1.462 0 00-2.086 0l-1.988 2.018-1.19-1.21 1.989-2.018a3.124 3.124 0 012.234-.94zm30 0c.81 0 1.619.309 2.235.935l1.984 2.023-.78.794a.577.577 0 01-.824 0l-1.574-1.602a1.462 1.462 0 00-2.086 0l-1.988 2.018-1.19-1.21 1.989-2.018a3.124 3.124 0 012.234-.94zm-360 30c.81 0 1.619.309 2.235.935l1.984 2.023-.78.794a.577.577 0 01-.824 0L6.264 93.15a1.462 1.462 0 00-2.086 0L2.19 95.168 1 93.958l1.989-2.018A3.124 3.124 0 015.223 91zm30 0c.81 0 1.619.309 2.235.935l1.984 2.023-.78.794a.577.577 0 01-.824 0l-1.574-1.602a1.462 1.462 0 00-2.086 0l-1.988 2.018-1.19-1.21 1.989-2.018a3.124 3.124 0 012.234-.94zm30 0c.81 0 1.619.309 2.235.935l1.984 2.023-.78.794a.577.577 0 01-.824 0l-1.574-1.602a1.462 1.462 0 00-2.086 0l-1.988 2.018-1.19-1.21 1.989-2.018a3.124 3.124 0 012.234-.94zm30 0c.81 0 1.619.309 2.235.935l1.984 2.023-.78.794a.577.577 0 01-.824 0l-1.574-1.602a1.462 1.462 0 00-2.086 0l-1.988 2.018-1.19-1.21 1.989-2.018a3.124 3.124 0 012.234-.94zm30 0c.81 0 1.619.309 2.235.935l1.984 2.023-.78.794a.577.577 0 01-.824 0l-1.574-1.602a1.462 1.462 0 00-2.086 0l-1.988 2.018-1.19-1.21 1.989-2.018a3.124 3.124 0 012.234-.94zm30 0c.81 0 1.619.309 2.235.935l1.984 2.023-.78.794a.577.577 0 01-.824 0l-1.574-1.602a1.462 1.462 0 00-2.086 0l-1.988 2.018-1.19-1.21 1.989-2.018a3.124 3.124 0 012.234-.94zm30 0c.81 0 1.619.309 2.235.935l1.984 2.023-.78.794a.577.577 0 01-.824 0l-1.574-1.602a1.462 1.462 0 00-2.086 0l-1.988 2.018-1.19-1.21 1.989-2.018a3.124 3.124 0 012.234-.94z"/><path d="M185.223 91c.81 0 1.619.309 2.235.935l1.984 2.023-.78.794a.577.577 0 01-.824 0l-1.574-1.602a1.462 1.462 0 00-2.086 0l-1.988 2.018-1.19-1.21 1.989-2.018a3.124 3.124 0 012.234-.94zm30 0c.81 0 1.619.309 2.235.935l1.984 2.023-.78.794a.577.577 0 01-.824 0l-1.574-1.602a1.462 1.462 0 00-2.086 0l-1.988 2.018-1.19-1.21 1.989-2.018a3.124 3.124 0 012.234-.94zm30 0c.81 0 1.619.309 2.235.935l1.984 2.023-.78.794a.577.577 0 01-.824 0l-1.574-1.602a1.462 1.462 0 00-2.086 0l-1.988 2.018-1.19-1.21 1.989-2.018a3.124 3.124 0 012.234-.94zm30 0c.81 0 1.619.309 2.235.935l1.984 2.023-.78.794a.577.577 0 01-.824 0l-1.574-1.602a1.462 1.462 0 00-2.086 0l-1.988 2.018-1.19-1.21 1.989-2.018a3.124 3.124 0 012.234-.94zm30 0c.81 0 1.619.309 2.235.935l1.984 2.023-.78.794a.577.577 0 01-.824 0l-1.574-1.602a1.462 1.462 0 00-2.086 0l-1.988 2.018-1.19-1.21 1.989-2.018a3.124 3.124 0 012.234-.94zm30 0c.81 0 1.619.309 2.235.935l1.984 2.023-.78.794a.577.577 0 01-.824 0l-1.574-1.602a1.462 1.462 0 00-2.086 0l-1.988 2.018-1.19-1.21 1.989-2.018a3.124 3.124 0 012.234-.94zm30 0c.81 0 1.619.309 2.235.935l1.984 2.023-.78.794a.577.577 0 01-.824 0l-1.574-1.602a1.462 1.462 0 00-2.086 0l-1.988 2.018-1.19-1.21 1.989-2.018a3.124 3.124 0 012.234-.94zm-345-10.832a3.12 3.12 0 01-2.234-.94L16 77.21 17.19 76l1.988 2.018a1.462 1.462 0 002.086 0l1.574-1.602a.577.577 0 01.824 0l.78.794-1.984 2.023a3.118 3.118 0 01-2.235.935zm30 0a3.12 3.12 0 01-2.234-.94L46 77.21 47.19 76l1.988 2.018a1.462 1.462 0 002.086 0l1.574-1.602a.577.577 0 01.824 0l.78.794-1.984 2.023a3.118 3.118 0 01-2.235.935zm30 0a3.12 3.12 0 01-2.234-.94L76 77.21 77.19 76l1.988 2.018a1.462 1.462 0 002.086 0l1.574-1.602a.577.577 0 01.824 0l.78.794-1.984 2.023a3.118 3.118 0 01-2.235.935zm30 0a3.12 3.12 0 01-2.234-.94L106 77.21l1.19-1.21 1.988 2.018a1.462 1.462 0 002.086 0l1.574-1.602a.577.577 0 01.824 0l.78.794-1.984 2.023a3.118 3.118 0 01-2.235.935zm30 0a3.12 3.12 0 01-2.234-.94L136 77.21l1.19-1.21 1.988 2.018a1.462 1.462 0 002.086 0l1.574-1.602a.577.577 0 01.824 0l.78.794-1.984 2.023a3.118 3.118 0 01-2.235.935zm30 0a3.12 3.12 0 01-2.234-.94L166 77.21l1.19-1.21 1.988 2.018a1.462 1.462 0 002.086 0l1.574-1.602a.577.577 0 01.824 0l.78.794-1.984 2.023a3.118 3.118 0 01-2.235.935zm30 0a3.12 3.12 0 01-2.234-.94L196 77.21l1.19-1.21 1.988 2.018a1.462 1.462 0 002.086 0l1.574-1.602a.577.577 0 01.824 0l.78.794-1.984 2.023a3.118 3.118 0 01-2.235.935z"/><path d="M200.223 80.168a3.12 3.12 0 01-2.234-.94L196 77.21l1.19-1.21 1.988 2.018a1.462 1.462 0 002.086 0l1.574-1.602a.577.577 0 01.824 0l.78.794-1.984 2.023a3.118 3.118 0 01-2.235.935zm30 0a3.12 3.12 0 01-2.234-.94L226 77.21l1.19-1.21 1.988 2.018a1.462 1.462 0 002.086 0l1.574-1.602a.577.577 0 01.824 0l.78.794-1.984 2.023a3.118 3.118 0 01-2.235.935zm30 0a3.12 3.12 0 01-2.234-.94L256 77.21l1.19-1.21 1.988 2.018a1.462 1.462 0 002.086 0l1.574-1.602a.577.577 0 01.824 0l.78.794-1.984 2.023a3.118 3.118 0 01-2.235.935zm30 0a3.12 3.12 0 01-2.234-.94L286 77.21l1.19-1.21 1.988 2.018a1.462 1.462 0 002.086 0l1.574-1.602a.577.577 0 01.824 0l.78.794-1.984 2.023a3.118 3.118 0 01-2.235.935zm30 0a3.12 3.12 0 01-2.234-.94L316 77.21l1.19-1.21 1.988 2.018a1.462 1.462 0 002.086 0l1.574-1.602a.577.577 0 01.824 0l.78.794-1.984 2.023a3.118 3.118 0 01-2.235.935zm30 0a3.12 3.12 0 01-2.234-.94L346 77.21l1.19-1.21 1.988 2.018a1.462 1.462 0 002.086 0l1.574-1.602a.577.577 0 01.824 0l.78.794-1.984 2.023a3.118 3.118 0 01-2.235.935zm30 0a3.12 3.12 0 01-2.234-.94L376 77.21l1.19-1.21 1.988 2.018a1.462 1.462 0 002.086 0l1.574-1.602a.577.577 0 01.824 0l.78.794-1.984 2.023a3.118 3.118 0 01-2.235.935zm-360 30a3.12 3.12 0 01-2.234-.94L16 107.21l1.19-1.21 1.988 2.018a1.462 1.462 0 002.086 0l1.574-1.602a.577.577 0 01.824 0l.78.794-1.984 2.023a3.118 3.118 0 01-2.235.935zm30 0a3.12 3.12 0 01-2.234-.94L46 107.21l1.19-1.21 1.988 2.018a1.462 1.462 0 002.086 0l1.574-1.602a.577.577 0 01.824 0l.78.794-1.984 2.023a3.118 3.118 0 01-2.235.935zm30 0a3.12 3.12 0 01-2.234-.94L76 107.21l1.19-1.21 1.988 2.018a1.462 1.462 0 002.086 0l1.574-1.602a.577.577 0 01.824 0l.78.794-1.984 2.023a3.118 3.118 0 01-2.235.935zm30 0a3.12 3.12 0 01-2.234-.94L106 107.21l1.19-1.21 1.988 2.018a1.462 1.462 0 002.086 0l1.574-1.602a.577.577 0 01.824 0l.78.794-1.984 2.023a3.118 3.118 0 01-2.235.935zm30 0a3.12 3.12 0 01-2.234-.94L136 107.21l1.19-1.21 1.988 2.018a1.462 1.462 0 002.086 0l1.574-1.602a.577.577 0 01.824 0l.78.794-1.984 2.023a3.118 3.118 0 01-2.235.935zm30 0a3.12 3.12 0 01-2.234-.94L166 107.21l1.19-1.21 1.988 2.018a1.462 1.462 0 002.086 0l1.574-1.602a.577.577 0 01.824 0l.78.794-1.984 2.023a3.118 3.118 0 01-2.235.935zm30 0a3.12 3.12 0 01-2.234-.94L196 107.21l1.19-1.21 1.988 2.018a1.462 1.462 0 002.086 0l1.574-1.602a.577.577 0 01.824 0l.78.794-1.984 2.023a3.118 3.118 0 01-2.235.935z"/><path d="M200.223 110.168a3.12 3.12 0 01-2.234-.94L196 107.21l1.19-1.21 1.988 2.018a1.462 1.462 0 002.086 0l1.574-1.602a.577.577 0 01.824 0l.78.794-1.984 2.023a3.118 3.118 0 01-2.235.935zm30 0a3.12 3.12 0 01-2.234-.94L226 107.21l1.19-1.21 1.988 2.018a1.462 1.462 0 002.086 0l1.574-1.602a.577.577 0 01.824 0l.78.794-1.984 2.023a3.118 3.118 0 01-2.235.935zm30 0a3.12 3.12 0 01-2.234-.94L256 107.21l1.19-1.21 1.988 2.018a1.462 1.462 0 002.086 0l1.574-1.602a.577.577 0 01.824 0l.78.794-1.984 2.023a3.118 3.118 0 01-2.235.935zm30 0a3.12 3.12 0 01-2.234-.94L286 107.21l1.19-1.21 1.988 2.018a1.462 1.462 0 002.086 0l1.574-1.602a.577.577 0 01.824 0l.78.794-1.984 2.023a3.118 3.118 0 01-2.235.935zm30 0a3.12 3.12 0 01-2.234-.94L316 107.21l1.19-1.21 1.988 2.018a1.462 1.462 0 002.086 0l1.574-1.602a.577.577 0 01.824 0l.78.794-1.984 2.023a3.118 3.118 0 01-2.235.935zm30 0a3.12 3.12 0 01-2.234-.94L346 107.21l1.19-1.21 1.988 2.018a1.462 1.462 0 002.086 0l1.574-1.602a.577.577 0 01.824 0l.78.794-1.984 2.023a3.118 3.118 0 01-2.235.935zm30 0a3.12 3.12 0 01-2.234-.94L376 107.21l1.19-1.21 1.988 2.018a1.462 1.462 0 002.086 0l1.574-1.602a.577.577 0 01.824 0l.78.794-1.984 2.023a3.118 3.118 0 01-2.235.935z"/></g></svg>