<svg height="32" width="32" xmlns="http://www.w3.org/2000/svg"><g fill="none" fill-rule="evenodd"><path d="M0 0h32v32H0z" fill="#283333"/><path d="M16.004 20.102c1.055 0 1.872-.668 1.872-1.68 0-1.001-.817-1.678-1.872-1.678-1.063 0-1.88.677-1.88 1.679 0 1.01.817 1.679 1.88 1.679zm0-5.309c.88 0 1.538-.589 1.538-1.441s-.659-1.433-1.538-1.433-1.546.58-1.546 1.433.667 1.441 1.546 1.441zm-.017 7.418c-3.13 0-5.01-1.45-5.01-3.533 0-1.925 1.433-2.751 2.602-2.953v-.123c-1.196-.352-2.119-1.143-2.119-2.664 0-1.801 1.723-3.146 4.544-3.146 2.813 0 4.536 1.345 4.536 3.146 0 1.53-.932 2.312-2.127 2.664v.123c1.177.202 2.601 1.037 2.601 2.953 0 2.074-1.89 3.533-5.027 3.533z" fill="#fff" fill-rule="nonzero"/></g></svg>