<svg height="32" width="32" xmlns="http://www.w3.org/2000/svg"><g fill="none" fill-rule="evenodd"><path d="M0 0h32v32H0z" fill="#283333"/><path d="M14.51 16.973v-2.285h1.292c.932 0 1.53-.572 1.53-1.301-.01-.765-.677-1.283-1.512-1.283-.95 0-1.556.659-1.573 1.344h-2.892c.08-2.215 1.749-3.647 4.597-3.656 2.715 0 4.394 1.31 4.403 3.19.018 1.706-1.371 2.514-2.215 2.637v.158c1.17.097 2.531.967 2.54 2.83.018 2.461-2.355 3.613-4.825 3.613-3.067 0-4.632-1.732-4.65-3.692h2.848c.027.774.782 1.319 1.784 1.327 1.046 0 1.758-.588 1.75-1.44 0-.792-.625-1.442-1.723-1.442z" fill="#fff" fill-rule="nonzero"/></g></svg>