<svg width="32" height="32" xmlns="http://www.w3.org/2000/svg"><g fill="none" fill-rule="evenodd"><path fill="#292E33" d="M0 0h32v32H0z"/><path d="M11.443 22V10.003h5.467c2.223 0 3.744 1.072 3.744 2.944 0 1.582-1.055 2.417-2.18 2.61v.141c1.31.08 2.734.985 2.734 2.892 0 2.215-1.908 3.41-4.166 3.41h-5.6zm3.111-9.817v2.645h1.319c1.177 0 1.722-.554 1.722-1.336 0-.817-.589-1.31-1.512-1.31h-1.529zm0 4.605v3.032h1.468c1.292 0 1.995-.545 1.995-1.511 0-.932-.624-1.52-1.802-1.52h-1.66z" fill="#FFF"/></g></svg>