<svg width="32" height="32" xmlns="http://www.w3.org/2000/svg"><g fill="none" fill-rule="evenodd"><path fill="#292E33" d="M0 0h32v32H0z"/><path d="M11.068 16.656v-1.274c0-3.384 2.1-5.59 5.45-5.59 3.357 0 5.44 2.232 5.44 5.59v1.274c0 1.802-.598 3.261-1.679 4.237l1.398 2.153h-2.945l-.676-1.037a5.71 5.71 0 01-1.538.202c-3.35 0-5.45-2.197-5.45-5.555zm3.077-1.3v1.37c0 2.101.931 3.147 2.267 3.2a.716.716 0 00.308-.062l-1.02-1.582h2.637l.184.255c.229-.466.36-1.063.36-1.81v-1.372c0-2.003-.984-3.04-2.363-3.04-1.39 0-2.373 1.037-2.373 3.04z" fill="#FFF"/></g></svg>