<svg height="32" width="32" xmlns="http://www.w3.org/2000/svg"><g fill="none" fill-rule="evenodd"><path d="M0 0h32v32H0z" fill="#283333"/><path d="M20.623 13.08h-2.927c-.193-.493-.703-.889-1.45-.889-1.494 0-2.197 1.802-2.092 3.446h.185c.387-.809 1.248-1.538 2.742-1.538 1.934 0 3.788 1.283 3.788 3.84 0 2.699-1.986 4.272-4.702 4.272-1.723 0-3.208-.633-4.105-2.11-.58-.949-.914-2.24-.914-3.946 0-4.183 1.916-6.354 5.107-6.354 2.927 0 4.298 1.802 4.368 3.278zm-6.144 4.982c0 1.082.695 1.776 1.688 1.776s1.696-.65 1.696-1.775c0-1.1-.72-1.758-1.696-1.758-1.02 0-1.688.73-1.688 1.758z" fill="#fff" fill-rule="nonzero"/></g></svg>