<svg height="32" width="32" xmlns="http://www.w3.org/2000/svg"><g fill="none" fill-rule="evenodd"><path d="M0 0h32v32H0z" fill="#283333"/><path d="M11.399 18.985h2.91c.096.449.693.862 1.467.862 1.476 0 2.206-1.503 2.127-3.446h-.176c-.281.765-1.204 1.486-2.69 1.486-1.96 0-3.902-1.257-3.902-3.876 0-2.628 1.995-4.219 4.711-4.219 2.813 0 5.001 1.696 5.001 6.117 0 4.096-1.802 6.302-5.106 6.302-2.918 0-4.254-1.75-4.342-3.226zm6.1-5.08c0-1.098-.677-1.784-1.688-1.784-.984 0-1.687.686-1.687 1.784s.711 1.767 1.696 1.767c.967 0 1.679-.668 1.679-1.767z" fill="#fff" fill-rule="nonzero"/></g></svg>