<svg width="32" height="32" xmlns="http://www.w3.org/2000/svg"><g fill="none" fill-rule="evenodd"><path fill="#292E33" d="M0 0h32v32H0z"/><path d="M10.995 18.44c.026 1.767 1.195 3.77 4.94 3.77 3.26 0 5.018-1.581 5.018-3.928 0-2.338-1.618-3.19-3.323-3.498l-1.67-.316c-1.02-.185-1.6-.536-1.6-1.143 0-.703.572-1.204 1.644-1.204 1.222 0 1.802.703 1.846 1.371h2.883c-.018-1.995-1.67-3.709-4.72-3.709-2.777 0-4.781 1.371-4.781 3.797 0 2.136 1.424 3.103 3.26 3.463l1.618.325c1.142.229 1.749.536 1.749 1.24 0 .703-.563 1.239-1.82 1.239-1.327 0-2.02-.695-2.065-1.407h-2.98z" fill="#FFF"/></g></svg>