<svg height="32" width="32" xmlns="http://www.w3.org/2000/svg"><g fill="none" fill-rule="evenodd"><path d="M0 0h32v32H0z" fill="#283333"/><path d="M11.447 18.643h2.822c.123.694.87 1.177 1.757 1.177 1.02 0 1.81-.72 1.81-1.837 0-1.046-.764-1.775-1.783-1.775-.897 0-1.389.536-1.582.896h-2.786l.465-7.101h7.937v2.443h-5.493l-.202 2.523h.149c.229-.387 1.028-1.029 2.417-1.029 2.03 0 3.867 1.354 3.867 3.938 0 2.672-1.942 4.333-4.799 4.333-2.795 0-4.544-1.573-4.579-3.568z" fill="#fff" fill-rule="nonzero"/></g></svg>