<svg version="1.0" xmlns="http://www.w3.org/2000/svg" width="341.333" height="341.333" viewBox="0 0 256 256"><path d="M149.4 49.6c-11.5 2-21.3 6.3-30.1 13.2-4.7 3.8-50.5 49.5-51 51-.4 1.1 16.8 18.8 19.7 20.2 4.1 2.2 8.1 2.1 11.8 0 1.8-1.1 12-10.8 22.5-21.5C144.2 90 148.5 87.1 160 86.8c13.8-.4 16.9 1.8 45.1 30.5l23.6 24 7.9-8c4.3-4.4 10.4-10.5 13.4-13.7l5.5-5.6-2.5-2.4c-1.4-1.3-11.9-11.9-23.5-23.6-11.5-11.7-22.8-22.7-25-24.5-14.7-12-35.7-17.3-55.1-13.9z"/><path d="M13.2 128.3L-.1 141.6l25.8 26c27.9 28.1 32.1 31.5 46.3 36.1 19.7 6.4 38.1 4.5 57-5.8 6.5-3.6 11-7.7 32.8-29.8 13.8-14.1 25.2-26 25.2-26.5 0-1.1-14.6-16.1-18.3-18.8-3.4-2.4-9.3-3-12.7-1.3-2.9 1.5-1.2 0-24.5 23.5-21.4 21.6-25.7 24.3-38.3 24.1-12.4-.2-14.9-1.9-42.5-29.7l-24.2-24.5-13.3 13.4z"/></svg>