<svg height="160" width="395" xmlns="http://www.w3.org/2000/svg"><g fill="none" fill-rule="evenodd"><path d="M82.5 114v9.573l-.17 11.846H1V114l10.133.625a2.7 2.7 0 00.166.005h9.32l.092-.001 6.743-.228h.016l14.32-.399a2.7 2.7 0 01.147 0l23.252.626a2.7 2.7 0 00.171 0zm-38.442 5.616l-.122.004c-1.106.056-.994.98-1.12 1.792-.056.322-.126 1.162-.364 1.33-.224.154-1.19.14-1.484.21-.28.112-.518.392-.56.658-.07.238.028.672.322.826.406.196 1.386-.238 1.694.126-.056.812-.07 1.456-.154 1.988-.014.252-.182 1.316-.224 1.568-.028.224-.336 1.428-.252 1.652.098.196.546.322.854.28.7-.098.784-1.652.882-2.128.042-.28.182-1.358.21-1.638.042-.336.14-1.918.406-2.142.252-.224 1.4-.126 1.834-.35.294-.154.462-.56.378-.938-.14-.658-1.792-.028-2.128-.35-.154-.952.098-1.33.196-2.072.126-.49.21-.854-.49-.812zm6.644 2.874c-.28-.112-1.008-.154-1.078-.14-.756.084-1.456.322-1.96.938-.196.252-.266.868-.238 1.232.042.588.63 1.05 1.106 1.4.392.28 1.344.77 1.26 1.372-.84 1.148-1.386.056-2.142.378-.14.056-.308.21-.336.336-.126.714.07.896 1.26 1.162.504.112 1.274 0 1.666-.266.546-.364.994-.952 1.022-1.722.028-1.036-.854-1.624-1.428-2.072-.126-.098-.854-.462-.826-.854.028-.448.476-.574 1.246-.364.28.126.924.616 1.204.392.14-.084.448-.364.406-.728-.056-.49-.602-.84-1.162-1.064zm-36.312-1.918c-.406-1.064-2.03-1.4-2.744-1.036a4.291 4.291 0 00-1.134.686c-.784.686-1.288 1.848-.826 3.22.308.938 1.064 1.554 2.016 1.834.378.14 1.218.392 1.414.784.238.49-.084 1.008-.364 1.19-.546.392-1.26.196-1.918.378-.406.112-.658.294-.7.588a.88.88 0 00.182.714c.462.476 1.358.196 1.932.168 1.022-.196 1.75-.784 2.1-1.316.224-.336.434-.994.476-1.386.098-.91-.462-1.764-1.05-2.142-.854-.532-2.38-.448-2.66-1.904-.098-.504.462-1.148 1.162-1.26.462-.07.756.392.938.644.21.308.448.868.798.882.546.014.896-.756.798-1.162-.014-.126-.266-.672-.42-.882zm15.468 1.582c-.756.028-.728.532-.854 1.568-.126 1.134-.168 3.024-.266 4.172-.042.294-.098.616-.042.784.07.168.364.336.574.35.532.028.798 0 .938-.476.168-.588.154-2.17.196-2.828 0-.238.952-.882 1.526-1.05.238-.084.84-.238 1.134-.308.28-.07.798-.392.714-.952-.056-.266-.392-.448-.686-.476-.504-.07-1.078.154-1.456.294-.35.14-.826.588-1.176.476.028-.462.112-.868-.042-1.344a.718.718 0 00-.56-.21zm-8.828 1.876c-.602-1.414-1.75-1.82-3.122-1.344-.56.168-1.19.714-1.526 1.344-.448.616-.602 1.498-.336 2.702.378 1.148.742 1.554 1.876 2.016.714.378 2.086.196 2.8-.322.238-.196.308-.63 0-.952-.532-.322-.924.434-1.862.238-.616-.126-.98-.252-1.092-.714.336-.112.91-.28 1.344-.406.644-.182.966-.378 1.596-.602.378-.126.644-.602.616-.98 0-.252-.196-.812-.294-.98zm18.352 0c-.602-1.414-1.75-1.82-3.122-1.344-.56.168-1.19.714-1.526 1.344-.448.616-.602 1.498-.336 2.702.378 1.148.742 1.554 1.876 2.016.714.378 2.086.196 2.8-.322.238-.196.308-.63 0-.952-.532-.322-.924.434-1.862.238-.616-.126-.98-.252-1.092-.714.336-.112.91-.28 1.344-.406.644-.182.966-.378 1.596-.602.378-.126.644-.602.616-.98 0-.252-.196-.812-.294-.98zm-12.146-.728c-.126-.49-1.554-.518-2.002-.462-1.204.126-2.184.812-2.702 1.89-.238.588-.392 1.47-.196 2.114.49 1.288 1.484 2.016 2.926 2.044 1.302.028 2.52-.546 2.24-1.232-.322-.798-.938-.336-1.736-.224-1.078.154-1.75-.434-2.002-1.204-.238-.756.63-1.75 1.638-1.876.378-.042.756.098 1.232.014.378-.056.728-.518.602-1.064zm-9.468 1.05c.882-.714 1.722-.658 2.086.406-.07.238-.476.476-.798.546-.49.098-1.344.378-1.596.336-.112-.252-.056-.994.308-1.288zm18.352 0c.882-.714 1.722-.658 2.086.406-.07.238-.476.476-.798.546-.49.098-1.344.378-1.596.336-.112-.252-.056-.994.308-1.288z" fill="#7c8f95"/><path d="M93.454 57.219l5.98.407a2.7 2.7 0 00.184.007h8.437l.1-.002 6.113-.229h.018l12.985-.4a2.7 2.7 0 01.164 0l21.08.628a2.7 2.7 0 00.19-.001l12.424-.503a3 3 0 013.121 2.998v6.483l-.116 8.932a3 3 0 01-3 2.961H93.25a3 3 0 01-3-3V60.212a3 3 0 013.204-2.993z" fill="#3344a5"/><path d="M317.991 121.922l2.277.144a2.7 2.7 0 00.17.005h3.953a2.7 2.7 0 00.227-.01l1.567-.132a1.55 1.55 0 011.68 1.544v4.988l-.047 3.354a2 2 0 01-2 1.972h-7.952a2 2 0 01-2-2v-7.87a2 2 0 012.125-1.995zm0 20l2.277.144a2.7 2.7 0 00.17.005h3.953a2.7 2.7 0 00.227-.01l1.567-.132a1.55 1.55 0 011.68 1.544v4.988l-.047 3.354a2 2 0 01-2 1.972h-7.952a2 2 0 01-2-2v-7.87a2 2 0 012.125-1.995z" stroke="#131315" stroke-width="1.75"/><path d="M109.898 99.14c.07-.014.798.028 1.078.14.56.224 1.106.574 1.162 1.064.042.364-.266.644-.406.728-.28.224-.924-.266-1.204-.392-.77-.21-1.218-.084-1.246.364-.028.392.7.756.826.854.574.448 1.456 1.036 1.428 2.072-.028.77-.476 1.358-1.022 1.722-.392.266-1.162.378-1.666.266-1.19-.266-1.386-.448-1.26-1.162.028-.126.196-.28.336-.336.756-.322 1.302.77 2.142-.378.084-.602-.868-1.092-1.26-1.372-.476-.35-1.064-.812-1.106-1.4-.028-.364.042-.98.238-1.232.504-.616 1.204-.854 1.96-.938zm4.956 4.648c.112.462.476.588 1.092.714.938.196 1.33-.56 1.862-.238.308.322.238.756 0 .952-.714.518-2.086.7-2.8.322-1.134-.462-1.498-.868-1.876-2.016-.266-1.204-.112-2.086.336-2.702.336-.63.966-1.176 1.526-1.344 1.372-.476 2.52-.07 3.122 1.344.098.168.294.728.294.98.028.378-.238.854-.616.98-.63.224-.952.42-1.596.602a43.87 43.87 0 00-1.344.406zm0-2.646c-.364.294-.42 1.036-.308 1.288.252.042 1.106-.238 1.596-.336.322-.07.728-.308.798-.546-.364-1.064-1.204-1.12-2.086-.406zm9.534 3.304c.28.686-.938 1.26-2.24 1.232-1.442-.028-2.436-.756-2.926-2.044-.196-.644-.042-1.526.196-2.114.518-1.078 1.498-1.764 2.702-1.89.448-.056 1.876-.028 2.002.462.126.546-.224 1.008-.602 1.064-.476.084-.854-.056-1.232-.014-1.008.126-1.876 1.12-1.638 1.876.252.77.924 1.358 2.002 1.204.798-.112 1.414-.574 1.736.224zm2.716-5.292c.154.476.07.882.042 1.344.35.112.826-.336 1.176-.476.378-.14.952-.364 1.456-.294.294.028.63.21.686.476.084.56-.434.882-.714.952-.294.07-.896.224-1.134.308-.574.168-1.526.812-1.526 1.05-.042.658-.028 2.24-.196 2.828-.14.476-.406.504-.938.476-.21-.014-.504-.182-.574-.35-.056-.168 0-.49.042-.784.098-1.148.14-3.038.266-4.172.126-1.036.098-1.54.854-1.568.21-.014.434.07.56.21zm5.866 4.634c.112.462.476.588 1.092.714.938.196 1.33-.56 1.862-.238.308.322.238.756 0 .952-.714.518-2.086.7-2.8.322-1.134-.462-1.498-.868-1.876-2.016-.266-1.204-.112-2.086.336-2.702.336-.63.966-1.176 1.526-1.344 1.372-.476 2.52-.07 3.122 1.344.098.168.294.728.294.98.028.378-.238.854-.616.98-.63.224-.952.42-1.596.602a43.87 43.87 0 00-1.344.406zm0-2.646c-.364.294-.42 1.036-.308 1.288.252.042 1.106-.238 1.596-.336.322-.07.728-.308.798-.546-.364-1.064-1.204-1.12-2.086-.406zm7.91-1.848c.336.322 1.988-.308 2.128.35.084.378-.084.784-.378.938-.434.224-1.582.126-1.834.35-.266.224-.364 1.806-.406 2.142-.028.28-.168 1.358-.21 1.638-.098.476-.182 2.03-.882 2.128-.308.042-.756-.084-.854-.28-.084-.224.224-1.428.252-1.652.042-.252.21-1.316.224-1.568.084-.532.098-1.176.154-1.988-.308-.364-1.288.07-1.694-.126-.294-.154-.392-.588-.322-.826.042-.266.28-.546.56-.658.294-.07 1.26-.056 1.484-.21.238-.168.308-1.008.364-1.33.126-.812.014-1.736 1.12-1.792.7-.042.616.322.49.812-.098.742-.35 1.12-.196 2.072zm3.458 2.212c.476-.07 1.568-.042 2.464-.042.84 0 2.002-.098 2.576.07.49.154.742.784.518 1.316-.196.462-1.75.406-2.562.434-.49.014-2.814.056-3.262-.112-.35-.126-.532-.56-.518-.98 0-.476.378-.644.784-.686zm8.008-4.242c.336-.14.98-.14 1.176.35.168.364-.154 1.176-.224 1.736-.154 1.218-.238 2.87-.378 4.018-.084.588.042 1.512-.182 1.974-.154.308-.686.686-1.064.63-.728-.112-.49-1.302-.378-1.932.294-1.61.308-3.22.49-4.732.084-.728-.014-1.806.56-2.044z" fill="#131315" fill-rule="nonzero"/><path d="M96 106.425a3.5 3.5 0 100-7 3.5 3.5 0 000 7zm0 24a3.5 3.5 0 100-7 3.5 3.5 0 000 7z" stroke="#131315" stroke-dasharray="2 3" stroke-linecap="round" stroke-width="2"/><path d="M109.898 123.39c.07-.014.798.028 1.078.14.56.224 1.106.574 1.162 1.064.042.364-.266.644-.406.728-.28.224-.924-.266-1.204-.392-.77-.21-1.218-.084-1.246.364-.028.392.7.756.826.854.574.448 1.456 1.036 1.428 2.072-.028.77-.476 1.358-1.022 1.722-.392.266-1.162.378-1.666.266-1.19-.266-1.386-.448-1.26-1.162.028-.126.196-.28.336-.336.756-.322 1.302.77 2.142-.378.084-.602-.868-1.092-1.26-1.372-.476-.35-1.064-.812-1.106-1.4-.028-.364.042-.98.238-1.232.504-.616 1.204-.854 1.96-.938zm4.956 4.648c.112.462.476.588 1.092.714.938.196 1.33-.56 1.862-.238.308.322.238.756 0 .952-.714.518-2.086.7-2.8.322-1.134-.462-1.498-.868-1.876-2.016-.266-1.204-.112-2.086.336-2.702.336-.63.966-1.176 1.526-1.344 1.372-.476 2.52-.07 3.122 1.344.098.168.294.728.294.98.028.378-.238.854-.616.98-.63.224-.952.42-1.596.602a43.87 43.87 0 00-1.344.406zm0-2.646c-.364.294-.42 1.036-.308 1.288.252.042 1.106-.238 1.596-.336.322-.07.728-.308.798-.546-.364-1.064-1.204-1.12-2.086-.406zm9.534 3.304c.28.686-.938 1.26-2.24 1.232-1.442-.028-2.436-.756-2.926-2.044-.196-.644-.042-1.526.196-2.114.518-1.078 1.498-1.764 2.702-1.89.448-.056 1.876-.028 2.002.462.126.546-.224 1.008-.602 1.064-.476.084-.854-.056-1.232-.014-1.008.126-1.876 1.12-1.638 1.876.252.77.924 1.358 2.002 1.204.798-.112 1.414-.574 1.736.224zm2.716-5.292c.154.476.07.882.042 1.344.35.112.826-.336 1.176-.476.378-.14.952-.364 1.456-.294.294.028.63.21.686.476.084.56-.434.882-.714.952-.294.07-.896.224-1.134.308-.574.168-1.526.812-1.526 1.05-.042.658-.028 2.24-.196 2.828-.14.476-.406.504-.938.476-.21-.014-.504-.182-.574-.35-.056-.168 0-.49.042-.784.098-1.148.14-3.038.266-4.172.126-1.036.098-1.54.854-1.568.21-.014.434.07.56.21zm5.866 4.634c.112.462.476.588 1.092.714.938.196 1.33-.56 1.862-.238.308.322.238.756 0 .952-.714.518-2.086.7-2.8.322-1.134-.462-1.498-.868-1.876-2.016-.266-1.204-.112-2.086.336-2.702.336-.63.966-1.176 1.526-1.344 1.372-.476 2.52-.07 3.122 1.344.098.168.294.728.294.98.028.378-.238.854-.616.98-.63.224-.952.42-1.596.602a43.87 43.87 0 00-1.344.406zm0-2.646c-.364.294-.42 1.036-.308 1.288.252.042 1.106-.238 1.596-.336.322-.07.728-.308.798-.546-.364-1.064-1.204-1.12-2.086-.406zm7.91-1.848c.336.322 1.988-.308 2.128.35.084.378-.084.784-.378.938-.434.224-1.582.126-1.834.35-.266.224-.364 1.806-.406 2.142-.028.28-.168 1.358-.21 1.638-.098.476-.182 2.03-.882 2.128-.308.042-.756-.084-.854-.28-.084-.224.224-1.428.252-1.652.042-.252.21-1.316.224-1.568.084-.532.098-1.176.154-1.988-.308-.364-1.288.07-1.694-.126-.294-.154-.392-.588-.322-.826.042-.266.28-.546.56-.658.294-.07 1.26-.056 1.484-.21.238-.168.308-1.008.364-1.33.126-.812.014-1.736 1.12-1.792.7-.042.616.322.49.812-.098.742-.35 1.12-.196 2.072zm3.458 2.212c.476-.07 1.568-.042 2.464-.042.84 0 2.002-.098 2.576.07.49.154.742.784.518 1.316-.196.462-1.75.406-2.562.434-.49.014-2.814.056-3.262-.112-.35-.126-.532-.56-.518-.98 0-.476.378-.644.784-.686zm9.002 2.38c.728.238 2.576-.378 3.192.098.266.364.07 1.288-.42 1.442-.938.14-2.66.112-3.836.084-.532-.014-.966-.21-.994-.518-.056-.7.616-1.47.868-1.89.644-1.064 1.078-1.54 1.596-2.632.238-.49.756-1.12.476-1.764-.308-.7-1.12.126-1.498.448-.434.364-.826 1.078-1.358 1.106-.462.028-.686-.322-.672-.728.028-.63 1.358-1.778 1.918-2.086.644-.56 2.646-.686 3.024.448.252 1.442-.42 2.702-1.064 3.794-.364.672-.952 1.344-1.232 2.198zm-44.694-94.81c.714-.364 2.338-.028 2.744 1.036.154.21.406.756.42.882.098.406-.252 1.176-.798 1.162-.35-.014-.588-.574-.798-.882-.182-.252-.476-.714-.938-.644-.7.112-1.26.756-1.162 1.26.28 1.456 1.806 1.372 2.66 1.904.588.378 1.148 1.232 1.05 2.142-.042.392-.252 1.05-.476 1.386-.35.532-1.078 1.12-2.1 1.316-.574.028-1.47.308-1.932-.168a.88.88 0 01-.182-.714c.042-.294.294-.476.7-.588.658-.182 1.372.014 1.918-.378.28-.182.602-.7.364-1.19-.196-.392-1.036-.644-1.414-.784-.952-.28-1.708-.896-2.016-1.834-.462-1.372.042-2.534.826-3.22.336-.28.672-.49 1.134-.686zm5.922 7.462c.112.462.476.588 1.092.714.938.196 1.33-.56 1.862-.238.308.322.238.756 0 .952-.714.518-2.086.7-2.8.322-1.134-.462-1.498-.868-1.876-2.016-.266-1.204-.112-2.086.336-2.702.336-.63.966-1.176 1.526-1.344 1.372-.476 2.52-.07 3.122 1.344.098.168.294.728.294.98.028.378-.238.854-.616.98-.63.224-.952.42-1.596.602a43.87 43.87 0 00-1.344.406zm0-2.646c-.364.294-.42 1.036-.308 1.288.252.042 1.106-.238 1.596-.336.322-.07.728-.308.798-.546-.364-1.064-1.204-1.12-2.086-.406zm9.534 3.304c.28.686-.938 1.26-2.24 1.232-1.442-.028-2.436-.756-2.926-2.044-.196-.644-.042-1.526.196-2.114.518-1.078 1.498-1.764 2.702-1.89.448-.056 1.876-.028 2.002.462.126.546-.224 1.008-.602 1.064-.476.084-.854-.056-1.232-.014-1.008.126-1.876 1.12-1.638 1.876.252.77.924 1.358 2.002 1.204.798-.112 1.414-.574 1.736.224zm2.716-5.292c.154.476.07.882.042 1.344.35.112.826-.336 1.176-.476.378-.14.952-.364 1.456-.294.294.028.63.21.686.476.084.56-.434.882-.714.952-.294.07-.896.224-1.134.308-.574.168-1.526.812-1.526 1.05-.042.658-.028 2.24-.196 2.828-.14.476-.406.504-.938.476-.21-.014-.504-.182-.574-.35-.056-.168 0-.49.042-.784.098-1.148.14-3.038.266-4.172.126-1.036.098-1.54.854-1.568.21-.014.434.07.56.21zm5.866 4.634c.112.462.476.588 1.092.714.938.196 1.33-.56 1.862-.238.308.322.238.756 0 .952-.714.518-2.086.7-2.8.322-1.134-.462-1.498-.868-1.876-2.016-.266-1.204-.112-2.086.336-2.702.336-.63.966-1.176 1.526-1.344 1.372-.476 2.52-.07 3.122 1.344.098.168.294.728.294.98.028.378-.238.854-.616.98-.63.224-.952.42-1.596.602a43.87 43.87 0 00-1.344.406zm0-2.646c-.364.294-.42 1.036-.308 1.288.252.042 1.106-.238 1.596-.336.322-.07.728-.308.798-.546-.364-1.064-1.204-1.12-2.086-.406zm7.91-1.848c.336.322 1.988-.308 2.128.35.084.378-.084.784-.378.938-.434.224-1.582.126-1.834.35-.266.224-.364 1.806-.406 2.142-.028.28-.168 1.358-.21 1.638-.098.476-.182 2.03-.882 2.128-.308.042-.756-.084-.854-.28-.084-.224.224-1.428.252-1.652.042-.252.21-1.316.224-1.568.084-.532.098-1.176.154-1.988-.308-.364-1.288.07-1.694-.126-.294-.154-.392-.588-.322-.826.042-.266.28-.546.56-.658.294-.07 1.26-.056 1.484-.21.238-.168.308-1.008.364-1.33.126-.812.014-1.736 1.12-1.792.7-.042.616.322.49.812-.098.742-.35 1.12-.196 2.072zm5.194-.154c.07-.014.798.028 1.078.14.56.224 1.106.574 1.162 1.064.042.364-.266.644-.406.728-.28.224-.924-.266-1.204-.392-.77-.21-1.218-.084-1.246.364-.028.392.7.756.826.854.574.448 1.456 1.036 1.428 2.072-.028.77-.476 1.358-1.022 1.722-.392.266-1.162.378-1.666.266-1.19-.266-1.386-.448-1.26-1.162.028-.126.196-.28.336-.336.756-.322 1.302.77 2.142-.378.084-.602-.868-1.092-1.26-1.372-.476-.35-1.064-.812-1.106-1.4-.028-.364.042-.98.238-1.232.504-.616 1.204-.854 1.96-.938zM3.144 4.016c.384-.16 1.12-.16 1.344.4.192.416-.176 1.344-.256 1.984-.176 1.392-.272 3.28-.432 4.592-.096.672.048 1.728-.208 2.256-.176.352-.784.784-1.216.72-.832-.128-.56-1.488-.432-2.208.336-1.84.352-3.68.56-5.408.096-.832-.016-2.064.64-2.336zm4.64 7.52c1.232.624.56 2.848-.72 2.896-.464.016-1.136-.304-1.168-.832-.032-.704.56-2.352 1.888-2.064zM18.04 3.68c.768-.096 2.064-.224 2.144.56.064.544-.32.752-.8.896-.528.128-.864.096-1.52.288-.592.176-1.456.848-1.76 1.664-.848 2.272-.4 4.608 2.624 4.432.384-.016.8-.288 1.232-.368.48-.112 1.008.048 1.12.368.16.464-.224.848-.672 1.12-.72.416-1.296.56-2.416.56-.976 0-1.728-.352-2.288-.656a3.263 3.263 0 01-1.696-2.656c-.256-3.648 1.584-5.296 2.64-5.808.4-.208.928-.336 1.392-.4zm6.032 2.496c.176.544.08 1.008.048 1.536.4.128.944-.384 1.344-.544.432-.16 1.088-.416 1.664-.336.336.032.72.24.784.544.096.64-.496 1.008-.816 1.088-.336.08-1.024.256-1.296.352-.656.192-1.744.928-1.744 1.2-.048.752-.032 2.56-.224 3.232-.16.544-.464.576-1.072.544-.24-.016-.576-.208-.656-.4-.064-.192 0-.56.048-.896.112-1.312.16-3.472.304-4.768.144-1.184.112-1.76.976-1.792.24-.016.496.08.64.24zm6.704 5.296c.128.528.544.672 1.248.816 1.072.224 1.52-.64 2.128-.272.352.368.272.864 0 1.088-.816.592-2.384.8-3.2.368-1.296-.528-1.712-.992-2.144-2.304-.304-1.376-.128-2.384.384-3.088.384-.72 1.104-1.344 1.744-1.536 1.568-.544 2.88-.08 3.568 1.536.112.192.336.832.336 1.12.032.432-.272.976-.704 1.12-.72.256-1.088.48-1.824.688-.496.144-1.152.336-1.536.464zm0-3.024c-.416.336-.48 1.184-.352 1.472.288.048 1.264-.272 1.824-.384.368-.08.832-.352.912-.624-.416-1.216-1.376-1.28-2.384-.464zM37 8.016c-.304-.112-.384-.304-.432-.592-.08-.64.528-.944 1.04-1.168 1.008-.512 1.792-.848 2.8-.624.576.208 1.12.976 1.248 1.808.176 1.024-.064 2.176-.192 2.992-.176.928-.336 1.808-.592 2.672-.112.32-.528.896-.912.944-.272.048-.928-.064-1.2-.176-.944-.368-1.664-.656-2.368-1.408-.288-.256-.608-.592-.656-.96-.176-.848.24-1.408.592-1.76.224-.224.784-.56 1.232-.704.784-.24 2.16-.144 2.416-.464.4-.544-.144-1.376-.512-1.424-1.2.192-1.872.912-2.464.864zm1.744 2.256c-.608.032-1.152.192-1.392.512.016.928 1.2 1.264 1.968 1.376.496-.128.544-1.248.544-1.808-.208-.176-.816-.096-1.12-.08zm8.048-3.936c.384.368 2.272-.352 2.432.4.096.432-.096.896-.432 1.072-.496.256-1.808.144-2.096.4-.304.256-.416 2.064-.464 2.448-.032.32-.192 1.552-.24 1.872-.112.544-.208 2.32-1.008 2.432-.352.048-.864-.096-.976-.32-.096-.256.256-1.632.288-1.888.048-.288.24-1.504.256-1.792.096-.608.112-1.344.176-2.272-.352-.416-1.472.08-1.936-.144-.336-.176-.448-.672-.368-.944.048-.304.32-.624.64-.752.336-.08 1.44-.064 1.696-.24.272-.192.352-1.152.416-1.52.144-.928.016-1.984 1.28-2.048.8-.048.704.368.56.928-.112.848-.4 1.28-.224 2.368zm5.312 5.136c.128.528.544.672 1.248.816 1.072.224 1.52-.64 2.128-.272.352.368.272.864 0 1.088-.816.592-2.384.8-3.2.368-1.296-.528-1.712-.992-2.144-2.304-.304-1.376-.128-2.384.384-3.088.384-.72 1.104-1.344 1.744-1.536 1.568-.544 2.88-.08 3.568 1.536.112.192.336.832.336 1.12.032.432-.272.976-.704 1.12-.72.256-1.088.48-1.824.688-.496.144-1.152.336-1.536.464zm0-3.024c-.416.336-.48 1.184-.352 1.472.288.048 1.264-.272 1.824-.384.368-.08.832-.352.912-.624-.416-1.216-1.376-1.28-2.384-.464zm10.624-.432c-.304-.112-.384-.304-.432-.592-.08-.64.528-.944 1.04-1.168 1.008-.512 1.792-.848 2.8-.624.576.208 1.12.976 1.248 1.808.176 1.024-.064 2.176-.192 2.992-.176.928-.336 1.808-.592 2.672-.112.32-.528.896-.912.944-.272.048-.928-.064-1.2-.176-.944-.368-1.664-.656-2.368-1.408-.288-.256-.608-.592-.656-.96-.176-.848.24-1.408.592-1.76.224-.224.784-.56 1.232-.704.784-.24 2.16-.144 2.416-.464.4-.544-.144-1.376-.512-1.424-1.2.192-1.872.912-2.464.864zm1.744 2.256c-.608.032-1.152.192-1.392.512.016.928 1.2 1.264 1.968 1.376.496-.128.544-1.248.544-1.808-.208-.176-.816-.096-1.12-.08zm8.24 6.128c.144-.576.56-.64.848-.576.384.08.784.464 1.472.416.336-.016.848-.432 1.04-.672.448-.688.704-1.328.672-2.192-.48-.08-1.136 0-1.504-.048-.576-.048-1.168-.336-1.568-.656-1.04-.832-1.088-2.592-.544-3.936.608-1.552 2.432-2.576 4.016-2.432.304.032 1.296.192 1.536.432.24.208.24 1.12.208 1.472-.08 1.216-.112 2.368-.208 3.568-.096.88-.096 1.728-.288 2.512-.192.8-.368 1.184-.688 1.776-.384.688-1.104 1.36-1.856 1.648-.784.304-1.52.24-2.32-.128-.528-.24-.928-.72-.816-1.184zm3.36-8.464c-1.28.432-2.72 3.408-.432 3.84 1.232.256 1.408-.128 1.472-2.176 0-.688 0-1.344-.064-1.6-.272-.064-.752-.144-.976-.064zm5.6-5.648c1.12-.336.704 1.344.624 2.288-.176 2.448-.432 4.512-.64 6.864-.048.464-.208 1.728-.336 2.064-.192.512-.88.976-1.344.688-.544-.304-.048-2.384.032-3.152.224-1.968.416-3.392.576-5.312.112-1.328 0-3.104 1.088-3.44zM85.88 6.16c2.32-.416 3.84 1.024 3.904 3.072.176 1.264-.56 2.496-1.616 3.264-.608.4-1.344.672-2.32.56-.816-.08-1.744-.592-2.208-1.072-.848-1.168-.672-3.008.032-4.048.368-.576.448-.752 1.056-1.232.384-.288.64-.464 1.152-.544zm-1.072 4.144c.128.784.88 1.424 1.936 1.152.496-.144 1.184-.752 1.328-1.472.288-1.344-.672-2.544-1.792-2.336-.864.16-1.632 1.648-1.472 2.656zm8.288-3.84c.432.384 1.248.24 1.888.352 1.136.208 2.272.928 2.336 2.24.048 1.248-.8 2.304-1.568 3.04a7.343 7.343 0 01-1.856 1.264c-.384.192-1.68.704-2.176.64-.768-.08-1.008-.768-1.072-1.36-.08-.704.128-1.744.176-2.512.112-1.68.336-3.28.496-4.72.064-.624.08-1.856.304-2.416.272-.48 1.2-.672 1.504-.032.24.48.048 1.408-.032 2-.048.592-.096.976 0 1.504zm-.672 3.872l-.144 1.968c.48 0 1.792-.784 2.208-1.248.4-.416 1.152-1.12 1.12-1.712-.064-.896-1.568-1.28-2.656-1.104-.384.384-.496 1.296-.528 2.096zm6.784-2.32c-.304-.112-.384-.304-.432-.592-.08-.64.528-.944 1.04-1.168 1.008-.512 1.792-.848 2.8-.624.576.208 1.12.976 1.248 1.808.176 1.024-.064 2.176-.192 2.992-.176.928-.336 1.808-.592 2.672-.112.32-.528.896-.912.944-.272.048-.928-.064-1.2-.176-.944-.368-1.664-.656-2.368-1.408-.288-.256-.608-.592-.656-.96-.176-.848.24-1.408.592-1.76.224-.224.784-.56 1.232-.704.784-.24 2.16-.144 2.416-.464.4-.544-.144-1.376-.512-1.424-1.2.192-1.872.912-2.464.864zm1.744 2.256c-.608.032-1.152.192-1.392.512.016.928 1.2 1.264 1.968 1.376.496-.128.544-1.248.544-1.808-.208-.176-.816-.096-1.12-.08zm5.808-7.984c1.12-.336.704 1.344.624 2.288-.176 2.448-.432 4.512-.64 6.864-.048.464-.208 1.728-.336 2.064-.192.512-.88.976-1.344.688-.544-.304-.048-2.384.032-3.152.224-1.968.416-3.392.576-5.312.112-1.328 0-3.104 1.088-3.44zm8.432.656c.816-.416 2.672-.032 3.136 1.184.176.24.464.864.48 1.008.112.464-.288 1.344-.912 1.328-.4-.016-.672-.656-.912-1.008-.208-.288-.544-.816-1.072-.736-.8.128-1.44.864-1.328 1.44.32 1.664 2.064 1.568 3.04 2.176.672.432 1.312 1.408 1.2 2.448-.048.448-.288 1.2-.544 1.584-.4.608-1.232 1.28-2.4 1.504-.656.032-1.68.352-2.208-.192a1.005 1.005 0 01-.208-.816c.048-.336.336-.544.8-.672.752-.208 1.568.016 2.192-.432.32-.208.688-.8.416-1.36-.224-.448-1.184-.736-1.616-.896-1.088-.32-1.952-1.024-2.304-2.096-.528-1.568.048-2.896.944-3.68.384-.32.768-.56 1.296-.784zm6.768 8.528c.128.528.544.672 1.248.816 1.072.224 1.52-.64 2.128-.272.352.368.272.864 0 1.088-.816.592-2.384.8-3.2.368-1.296-.528-1.712-.992-2.144-2.304-.304-1.376-.128-2.384.384-3.088.384-.72 1.104-1.344 1.744-1.536 1.568-.544 2.88-.08 3.568 1.536.112.192.336.832.336 1.12.032.432-.272.976-.704 1.12-.72.256-1.088.48-1.824.688-.496.144-1.152.336-1.536.464zm0-3.024c-.416.336-.48 1.184-.352 1.472.288.048 1.264-.272 1.824-.384.368-.08.832-.352.912-.624-.416-1.216-1.376-1.28-2.384-.464zm10.896 3.776c.32.784-1.072 1.44-2.56 1.408-1.648-.032-2.784-.864-3.344-2.336-.224-.736-.048-1.744.224-2.416.592-1.232 1.712-2.016 3.088-2.16.512-.064 2.144-.032 2.288.528.144.624-.256 1.152-.688 1.216-.544.096-.976-.064-1.408-.016-1.152.144-2.144 1.28-1.872 2.144.288.88 1.056 1.552 2.288 1.376.912-.128 1.616-.656 1.984.256zm3.104-6.048c.176.544.08 1.008.048 1.536.4.128.944-.384 1.344-.544.432-.16 1.088-.416 1.664-.336.336.032.72.24.784.544.096.64-.496 1.008-.816 1.088-.336.08-1.024.256-1.296.352-.656.192-1.744.928-1.744 1.2-.048.752-.032 2.56-.224 3.232-.16.544-.464.576-1.072.544-.24-.016-.576-.208-.656-.4-.064-.192 0-.56.048-.896.112-1.312.16-3.472.304-4.768.144-1.184.112-1.76.976-1.792.24-.016.496.08.64.24zm6.704 5.296c.128.528.544.672 1.248.816 1.072.224 1.52-.64 2.128-.272.352.368.272.864 0 1.088-.816.592-2.384.8-3.2.368-1.296-.528-1.712-.992-2.144-2.304-.304-1.376-.128-2.384.384-3.088.384-.72 1.104-1.344 1.744-1.536 1.568-.544 2.88-.08 3.568 1.536.112.192.336.832.336 1.12.032.432-.272.976-.704 1.12-.72.256-1.088.48-1.824.688-.496.144-1.152.336-1.536.464zm0-3.024c-.416.336-.48 1.184-.352 1.472.288.048 1.264-.272 1.824-.384.368-.08.832-.352.912-.624-.416-1.216-1.376-1.28-2.384-.464zm9.04-2.112c.384.368 2.272-.352 2.432.4.096.432-.096.896-.432 1.072-.496.256-1.808.144-2.096.4-.304.256-.416 2.064-.464 2.448-.032.32-.192 1.552-.24 1.872-.112.544-.208 2.32-1.008 2.432-.352.048-.864-.096-.976-.32-.096-.256.256-1.632.288-1.888.048-.288.24-1.504.256-1.792.096-.608.112-1.344.176-2.272-.352-.416-1.472.08-1.936-.144-.336-.176-.448-.672-.368-.944.048-.304.32-.624.64-.752.336-.08 1.44-.064 1.696-.24.272-.192.352-1.152.416-1.52.144-.928.016-1.984 1.28-2.048.8-.048.704.368.56.928-.112.848-.4 1.28-.224 2.368zm75.941 5.248c.832.272 2.944-.432 3.648.112.304.416.08 1.472-.48 1.648-1.072.16-3.04.128-4.384.096-.608-.016-1.104-.24-1.136-.592-.064-.8.704-1.68.992-2.16.736-1.216 1.232-1.76 1.824-3.008.272-.56.864-1.28.544-2.016-.352-.8-1.28.144-1.712.512-.496.416-.944 1.232-1.552 1.264-.528.032-.784-.368-.768-.832.032-.72 1.552-2.032 2.192-2.384.736-.64 3.024-.784 3.456.512.288 1.648-.48 3.088-1.216 4.336-.416.768-1.088 1.536-1.408 2.512zm6.4-.048c1.232.624.56 2.848-.72 2.896-.464.016-1.136-.304-1.168-.832-.032-.704.56-2.352 1.888-2.064zm8.576-.576c-.192.72-.752 2.176-1.152 2.816-.496.544-1.408.176-1.472-.272-.048-.32.24-.944.4-1.456.768-2.304 1.616-4.496 2.48-6.688.432-1.104.624-2.736 1.744-2.816.88-.08.832.56.928 1.536.272 2.48.864 4.432 1.216 6.672.112.72.4 1.856.528 2.608-.032.496-.736.8-1.12.784-.96-.112-.688-2.768-1.248-3.584-.672.096-1.712.16-2.304.4zm1.584-4.528h-.144c-.272.512-.736 2.016-.832 2.784.368.112 1.216-.048 1.424-.24.016-.64-.224-2.192-.448-2.544zm7.968-.096c.384.368 2.272-.352 2.432.4.096.432-.096.896-.432 1.072-.496.256-1.808.144-2.096.4-.304.256-.416 2.064-.464 2.448-.032.32-.192 1.552-.24 1.872-.112.544-.208 2.32-1.008 2.432-.352.048-.864-.096-.976-.32-.096-.256.256-1.632.288-1.888.048-.288.24-1.504.256-1.792.096-.608.112-1.344.176-2.272-.352-.416-1.472.08-1.936-.144-.336-.176-.448-.672-.368-.944.048-.304.32-.624.64-.752.336-.08 1.44-.064 1.696-.24.272-.192.352-1.152.416-1.52.144-.928.016-1.984 1.28-2.048.8-.048.704.368.56.928-.112.848-.4 1.28-.224 2.368zm7.184 0c.384.368 2.272-.352 2.432.4.096.432-.096.896-.432 1.072-.496.256-1.808.144-2.096.4-.304.256-.416 2.064-.464 2.448-.032.32-.192 1.552-.24 1.872-.112.544-.208 2.32-1.008 2.432-.352.048-.864-.096-.976-.32-.096-.256.256-1.632.288-1.888.048-.288.24-1.504.256-1.792.096-.608.112-1.344.176-2.272-.352-.416-1.472.08-1.936-.144-.336-.176-.448-.672-.368-.944.048-.304.32-.624.64-.752.336-.08 1.44-.064 1.696-.24.272-.192.352-1.152.416-1.52.144-.928.016-1.984 1.28-2.048.8-.048.704.368.56.928-.112.848-.4 1.28-.224 2.368zm4.368 1.68c-.304-.112-.384-.304-.432-.592-.08-.64.528-.944 1.04-1.168 1.008-.512 1.792-.848 2.8-.624.576.208 1.12.976 1.248 1.808.176 1.024-.064 2.176-.192 2.992-.176.928-.336 1.808-.592 2.672-.112.32-.528.896-.912.944-.272.048-.928-.064-1.2-.176-.944-.368-1.664-.656-2.368-1.408-.288-.256-.608-.592-.656-.96-.176-.848.24-1.408.592-1.76.224-.224.784-.56 1.232-.704.784-.24 2.16-.144 2.416-.464.4-.544-.144-1.376-.512-1.424-1.2.192-1.872.912-2.464.864zm1.744 2.256c-.608.032-1.152.192-1.392.512.016.928 1.2 1.264 1.968 1.376.496-.128.544-1.248.544-1.808-.208-.176-.816-.096-1.12-.08zm9.904 1.952c.32.784-1.072 1.44-2.56 1.408-1.648-.032-2.784-.864-3.344-2.336-.224-.736-.048-1.744.224-2.416.592-1.232 1.712-2.016 3.088-2.16.512-.064 2.144-.032 2.288.528.144.624-.256 1.152-.688 1.216-.544.096-.976-.064-1.408-.016-1.152.144-2.144 1.28-1.872 2.144.288.88 1.056 1.552 2.288 1.376.912-.128 1.616-.656 1.984.256zm3.584-5.424c.832-.032 1.2-.832 2.144-.64.704.144 1.024 1.28 1.088 2.384.048.784-.016 2.016-.016 2.976.016 1.008.064 2.08-.336 2.48-.352.368-1.056.224-1.232-.064s-.016-1.712 0-3.424c-.016-.384.048-2.208-.224-2.448-.528 0-.88.256-1.136.512-.288.256-.512.64-.656 1.04-.256 1.136-.224 1.888-.4 3.152-.08.816-.08 1.6-1.088 1.52-.704-.096-.72-.976-.608-1.888.192-1.52.368-2.24.56-3.92.112-1.168.24-1.872.336-2.864.096-1.04.08-2.496.8-2.656.368-.08.8.064.96.32.304.512 0 1.232-.048 1.696-.08.672-.304 1.84-.144 1.824zm12.768-.464c.384.368 2.272-.352 2.432.4.096.432-.096.896-.432 1.072-.496.256-1.808.144-2.096.4-.304.256-.416 2.064-.464 2.448-.032.32-.192 1.552-.24 1.872-.112.544-.208 2.32-1.008 2.432-.352.048-.864-.096-.976-.32-.096-.256.256-1.632.288-1.888.048-.288.24-1.504.256-1.792.096-.608.112-1.344.176-2.272-.352-.416-1.472.08-1.936-.144-.336-.176-.448-.672-.368-.944.048-.304.32-.624.64-.752.336-.08 1.44-.064 1.696-.24.272-.192.352-1.152.416-1.52.144-.928.016-1.984 1.28-2.048.8-.048.704.368.56.928-.112.848-.4 1.28-.224 2.368zm5.824-.176c2.32-.416 3.84 1.024 3.904 3.072.176 1.264-.56 2.496-1.616 3.264-.608.4-1.344.672-2.32.56-.816-.08-1.744-.592-2.208-1.072-.848-1.168-.672-3.008.032-4.048.368-.576.448-.752 1.056-1.232.384-.288.64-.464 1.152-.544zm-1.072 4.144c.128.784.88 1.424 1.936 1.152.496-.144 1.184-.752 1.328-1.472.288-1.344-.672-2.544-1.792-2.336-.864.16-1.632 1.648-1.472 2.656zm12.416 1.6c.88-.24 1.344-2.56 1.856-2.944.32-.16.736-.272 1.024.08.48.608.768 2.88 1.184 2.944.368.048 1.36-1.456 1.616-2.48.24-.944.32-2.384.56-2.912.272-.4 1.152-.592 1.52 0 .128 2.688-1.152 5.568-2.64 6.592-.656.432-1.504.752-2.08.256-.272-.224-.784-1.488-.912-1.536-.096-.048-.784 1.12-1.12 1.376-.64.464-1.824.624-2.32-.176-.368-.56-.496-1.648-.64-2.512-.08-.576-.352-3.152.08-3.68.32-.4 1.168-.336 1.408.048.208.336.016 1.984.048 2.56.064.816.144 2.032.416 2.384zm11.408-5.744c2.32-.416 3.84 1.024 3.904 3.072.176 1.264-.56 2.496-1.616 3.264-.608.4-1.344.672-2.32.56-.816-.08-1.744-.592-2.208-1.072-.848-1.168-.672-3.008.032-4.048.368-.576.448-.752 1.056-1.232.384-.288.64-.464 1.152-.544zm-1.072 4.144c.128.784.88 1.424 1.936 1.152.496-.144 1.184-.752 1.328-1.472.288-1.344-.672-2.544-1.792-2.336-.864.16-1.632 1.648-1.472 2.656zm7.904-4.128c.176.544.08 1.008.048 1.536.4.128.944-.384 1.344-.544.432-.16 1.088-.416 1.664-.336.336.032.72.24.784.544.096.64-.496 1.008-.816 1.088-.336.08-1.024.256-1.296.352-.656.192-1.744.928-1.744 1.2-.048.752-.032 2.56-.224 3.232-.16.544-.464.576-1.072.544-.24-.016-.576-.208-.656-.4-.064-.192 0-.56.048-.896.112-1.312.16-3.472.304-4.768.144-1.184.112-1.76.976-1.792.24-.016.496.08.64.24zm6.88-4.304c.032 1.52-.272 3.376-.4 4.992-.032.4-.064 1.104-.032 1.472.272-.112.72-.4.928-.528.24-.16.784-.528 1.008-.688.432-.32.816-.848 1.456-.256.64.576-.464 1.312-1.04 1.744-.32.224-.864.512-.912.848-.048.304.24.448.448.704.496.56.928 1.008 1.456 1.536.272.256.624.512.672.96.048.576-.304 1.12-1.072.928-.544-.224-1.488-1.456-2.08-1.984-.048-.048-.752-.848-1.008-.976 0 .32-.016 1.648-.128 2.128-.064.336-.272.512-.64.608-1.12.24-.992-.848-.944-1.968.112-2.512.304-5.408.592-7.936.112-.976.192-1.552.896-1.76.32-.096.64 0 .8.176zm7.264 8.496c-.208.432.064 2.368-.192 3.168-.224.64-1.392.592-1.536.064-.224-.864.064-2.48-.16-3.408-.784-.192-.736.128-1.296-.432-.224-.24-.16-.464-.112-.64.064-.384.528-.624.944-.64.448-.016.272.08.448-.16.144-.192.048-.88.096-1.216.128-1.232.256-2.096.688-3.104.48-1.136 1.072-1.968 2.208-2.208 1.104-.24 1.824.352 2.256 1.2.32.624.384 1.328.256 1.632-.128.464-.672.592-1.04.48-.304-.016-.448-.496-.592-.816s-.256-.912-.704-.912c-.752 0-.992 1.488-1.152 2.272-.096.48-.288 2.432-.032 2.848.512.208.784-.064 1.584.176.72.24.608 1.36.032 1.472-.608.112-1.216-.032-1.696.224zm6.368-8.08c1.12-.336.704 1.344.624 2.288-.176 2.448-.432 4.512-.64 6.864-.048.464-.208 1.728-.336 2.064-.192.512-.88.976-1.344.688-.544-.304-.048-2.384.032-3.152.224-1.968.416-3.392.576-5.312.112-1.328 0-3.104 1.088-3.44zm4.208 3.872c2.32-.416 3.84 1.024 3.904 3.072.176 1.264-.56 2.496-1.616 3.264-.608.4-1.344.672-2.32.56-.816-.08-1.744-.592-2.208-1.072-.848-1.168-.672-3.008.032-4.048.368-.576.448-.752 1.056-1.232.384-.288.64-.464 1.152-.544zm-1.072 4.144c.128.784.88 1.424 1.936 1.152.496-.144 1.184-.752 1.328-1.472.288-1.344-.672-2.544-1.792-2.336-.864.16-1.632 1.648-1.472 2.656zm8.016 1.6c.88-.24 1.344-2.56 1.856-2.944.32-.16.736-.272 1.024.08.48.608.768 2.88 1.184 2.944.368.048 1.36-1.456 1.616-2.48.24-.944.32-2.384.56-2.912.272-.4 1.152-.592 1.52 0 .128 2.688-1.152 5.568-2.64 6.592-.656.432-1.504.752-2.08.256-.272-.224-.784-1.488-.912-1.536-.096-.048-.784 1.12-1.12 1.376-.64.464-1.824.624-2.32-.176-.368-.56-.496-1.648-.64-2.512-.08-.576-.352-3.152.08-3.68.32-.4 1.168-.336 1.408.048.208.336.016 1.984.048 2.56.064.816.144 2.032.416 2.384zM341.398 124.14c.07-.014.798.028 1.078.14.56.224 1.106.574 1.162 1.064.042.364-.266.644-.406.728-.28.224-.924-.266-1.204-.392-.77-.21-1.218-.084-1.246.364-.028.392.7.756.826.854.574.448 1.456 1.036 1.428 2.072-.028.77-.476 1.358-1.022 1.722-.392.266-1.162.378-1.666.266-1.19-.266-1.386-.448-1.26-1.162.028-.126.196-.28.336-.336.756-.322 1.302.77 2.142-.378.084-.602-.868-1.092-1.26-1.372-.476-.35-1.064-.812-1.106-1.4-.028-.364.042-.98.238-1.232.504-.616 1.204-.854 1.96-.938zm4.956 4.648c.112.462.476.588 1.092.714.938.196 1.33-.56 1.862-.238.308.322.238.756 0 .952-.714.518-2.086.7-2.8.322-1.134-.462-1.498-.868-1.876-2.016-.266-1.204-.112-2.086.336-2.702.336-.63.966-1.176 1.526-1.344 1.372-.476 2.52-.07 3.122 1.344.098.168.294.728.294.98.028.378-.238.854-.616.98-.63.224-.952.42-1.596.602a43.87 43.87 0 00-1.344.406zm0-2.646c-.364.294-.42 1.036-.308 1.288.252.042 1.106-.238 1.596-.336.322-.07.728-.308.798-.546-.364-1.064-1.204-1.12-2.086-.406zm9.534 3.304c.28.686-.938 1.26-2.24 1.232-1.442-.028-2.436-.756-2.926-2.044-.196-.644-.042-1.526.196-2.114.518-1.078 1.498-1.764 2.702-1.89.448-.056 1.876-.028 2.002.462.126.546-.224 1.008-.602 1.064-.476.084-.854-.056-1.232-.014-1.008.126-1.876 1.12-1.638 1.876.252.77.924 1.358 2.002 1.204.798-.112 1.414-.574 1.736.224zm2.716-5.292c.154.476.07.882.042 1.344.35.112.826-.336 1.176-.476.378-.14.952-.364 1.456-.294.294.028.63.21.686.476.084.56-.434.882-.714.952-.294.07-.896.224-1.134.308-.574.168-1.526.812-1.526 1.05-.042.658-.028 2.24-.196 2.828-.14.476-.406.504-.938.476-.21-.014-.504-.182-.574-.35-.056-.168 0-.49.042-.784.098-1.148.14-3.038.266-4.172.126-1.036.098-1.54.854-1.568.21-.014.434.07.56.21zm5.866 4.634c.112.462.476.588 1.092.714.938.196 1.33-.56 1.862-.238.308.322.238.756 0 .952-.714.518-2.086.7-2.8.322-1.134-.462-1.498-.868-1.876-2.016-.266-1.204-.112-2.086.336-2.702.336-.63.966-1.176 1.526-1.344 1.372-.476 2.52-.07 3.122 1.344.098.168.294.728.294.98.028.378-.238.854-.616.98-.63.224-.952.42-1.596.602a43.87 43.87 0 00-1.344.406zm0-2.646c-.364.294-.42 1.036-.308 1.288.252.042 1.106-.238 1.596-.336.322-.07.728-.308.798-.546-.364-1.064-1.204-1.12-2.086-.406zm7.91-1.848c.336.322 1.988-.308 2.128.35.084.378-.084.784-.378.938-.434.224-1.582.126-1.834.35-.266.224-.364 1.806-.406 2.142-.028.28-.168 1.358-.21 1.638-.098.476-.182 2.03-.882 2.128-.308.042-.756-.084-.854-.28-.084-.224.224-1.428.252-1.652.042-.252.21-1.316.224-1.568.084-.532.098-1.176.154-1.988-.308-.364-1.288.07-1.694-.126-.294-.154-.392-.588-.322-.826.042-.266.28-.546.56-.658.294-.07 1.26-.056 1.484-.21.238-.168.308-1.008.364-1.33.126-.812.014-1.736 1.12-1.792.7-.042.616.322.49.812-.098.742-.35 1.12-.196 2.072zm3.458 2.212c.476-.07 1.568-.042 2.464-.042.84 0 2.002-.098 2.576.07.49.154.742.784.518 1.316-.196.462-1.75.406-2.562.434-.49.014-2.814.056-3.262-.112-.35-.126-.532-.56-.518-.98 0-.476.378-.644.784-.686zm8.008-4.242c.336-.14.98-.14 1.176.35.168.364-.154 1.176-.224 1.736-.154 1.218-.238 2.87-.378 4.018-.084.588.042 1.512-.182 1.974-.154.308-.686.686-1.064.63-.728-.112-.49-1.302-.378-1.932.294-1.61.308-3.22.49-4.732.084-.728-.014-1.806.56-2.044zm-42.448 21.681c.07-.014.798.028 1.078.14.56.224 1.106.574 1.162 1.064.042.364-.266.644-.406.728-.28.224-.924-.266-1.204-.392-.77-.21-1.218-.084-1.246.364-.028.392.7.756.826.854.574.448 1.456 1.036 1.428 2.072-.028.77-.476 1.358-1.022 1.722-.392.266-1.162.378-1.666.266-1.19-.266-1.386-.448-1.26-1.162.028-.126.196-.28.336-.336.756-.322 1.302.77 2.142-.378.084-.602-.868-1.092-1.26-1.372-.476-.35-1.064-.812-1.106-1.4-.028-.364.042-.98.238-1.232.504-.616 1.204-.854 1.96-.938zm4.956 4.648c.112.462.476.588 1.092.714.938.196 1.33-.56 1.862-.238.308.322.238.756 0 .952-.714.518-2.086.7-2.8.322-1.134-.462-1.498-.868-1.876-2.016-.266-1.204-.112-2.086.336-2.702.336-.63.966-1.176 1.526-1.344 1.372-.476 2.52-.07 3.122 1.344.098.168.294.728.294.98.028.378-.238.854-.616.98-.63.224-.952.42-1.596.602a43.87 43.87 0 00-1.344.406zm0-2.646c-.364.294-.42 1.036-.308 1.288.252.042 1.106-.238 1.596-.336.322-.07.728-.308.798-.546-.364-1.064-1.204-1.12-2.086-.406zm9.534 3.304c.28.686-.938 1.26-2.24 1.232-1.442-.028-2.436-.756-2.926-2.044-.196-.644-.042-1.526.196-2.114.518-1.078 1.498-1.764 2.702-1.89.448-.056 1.876-.028 2.002.462.126.546-.224 1.008-.602 1.064-.476.084-.854-.056-1.232-.014-1.008.126-1.876 1.12-1.638 1.876.252.77.924 1.358 2.002 1.204.798-.112 1.414-.574 1.736.224zm2.716-5.292c.154.476.07.882.042 1.344.35.112.826-.336 1.176-.476.378-.14.952-.364 1.456-.294.294.028.63.21.686.476.084.56-.434.882-.714.952-.294.07-.896.224-1.134.308-.574.168-1.526.812-1.526 1.05-.042.658-.028 2.24-.196 2.828-.14.476-.406.504-.938.476-.21-.014-.504-.182-.574-.35-.056-.168 0-.49.042-.784.098-1.148.14-3.038.266-4.172.126-1.036.098-1.54.854-1.568.21-.014.434.07.56.21zm5.866 4.634c.112.462.476.588 1.092.714.938.196 1.33-.56 1.862-.238.308.322.238.756 0 .952-.714.518-2.086.7-2.8.322-1.134-.462-1.498-.868-1.876-2.016-.266-1.204-.112-2.086.336-2.702.336-.63.966-1.176 1.526-1.344 1.372-.476 2.52-.07 3.122 1.344.098.168.294.728.294.98.028.378-.238.854-.616.98-.63.224-.952.42-1.596.602a43.87 43.87 0 00-1.344.406zm0-2.646c-.364.294-.42 1.036-.308 1.288.252.042 1.106-.238 1.596-.336.322-.07.728-.308.798-.546-.364-1.064-1.204-1.12-2.086-.406zm7.91-1.848c.336.322 1.988-.308 2.128.35.084.378-.084.784-.378.938-.434.224-1.582.126-1.834.35-.266.224-.364 1.806-.406 2.142-.028.28-.168 1.358-.21 1.638-.098.476-.182 2.03-.882 2.128-.308.042-.756-.084-.854-.28-.084-.224.224-1.428.252-1.652.042-.252.21-1.316.224-1.568.084-.532.098-1.176.154-1.988-.308-.364-1.288.07-1.694-.126-.294-.154-.392-.588-.322-.826.042-.266.28-.546.56-.658.294-.07 1.26-.056 1.484-.21.238-.168.308-1.008.364-1.33.126-.812.014-1.736 1.12-1.792.7-.042.616.322.49.812-.098.742-.35 1.12-.196 2.072zm3.458 2.212c.476-.07 1.568-.042 2.464-.042.84 0 2.002-.098 2.576.07.49.154.742.784.518 1.316-.196.462-1.75.406-2.562.434-.49.014-2.814.056-3.262-.112-.35-.126-.532-.56-.518-.98 0-.476.378-.644.784-.686zm9.002 2.38c.728.238 2.576-.378 3.192.098.266.364.07 1.288-.42 1.442-.938.14-2.66.112-3.836.084-.532-.014-.966-.21-.994-.518-.056-.7.616-1.47.868-1.89.644-1.064 1.078-1.54 1.596-2.632.238-.49.756-1.12.476-1.764-.308-.7-1.12.126-1.498.448-.434.364-.826 1.078-1.358 1.106-.462.028-.686-.322-.672-.728.028-.63 1.358-1.778 1.918-2.086.644-.56 2.646-.686 3.024.448.252 1.442-.42 2.702-1.064 3.794-.364.672-.952 1.344-1.232 2.198zm-70.416-42.695h8.094l-4.047 4.047zm15.013-3.938c.714-.364 2.338-.028 2.744 1.036.154.21.406.756.42.882.098.406-.252 1.176-.798 1.162-.35-.014-.588-.574-.798-.882-.182-.252-.476-.714-.938-.644-.7.112-1.26.756-1.162 1.26.28 1.456 1.806 1.372 2.66 1.904.588.378 1.148 1.232 1.05 2.142-.042.392-.252 1.05-.476 1.386-.35.532-1.078 1.12-2.1 1.316-.574.028-1.47.308-1.932-.168a.88.88 0 01-.182-.714c.042-.294.294-.476.7-.588.658-.182 1.372.014 1.918-.378.28-.182.602-.7.364-1.19-.196-.392-1.036-.644-1.414-.784-.952-.28-1.708-.896-2.016-1.834-.462-1.372.042-2.534.826-3.22.336-.28.672-.49 1.134-.686zm5.922 7.462c.112.462.476.588 1.092.714.938.196 1.33-.56 1.862-.238.308.322.238.756 0 .952-.714.518-2.086.7-2.8.322-1.134-.462-1.498-.868-1.876-2.016-.266-1.204-.112-2.086.336-2.702.336-.63.966-1.176 1.526-1.344 1.372-.476 2.52-.07 3.122 1.344.098.168.294.728.294.98.028.378-.238.854-.616.98-.63.224-.952.42-1.596.602a43.87 43.87 0 00-1.344.406zm0-2.646c-.364.294-.42 1.036-.308 1.288.252.042 1.106-.238 1.596-.336.322-.07.728-.308.798-.546-.364-1.064-1.204-1.12-2.086-.406zm9.534 3.304c.28.686-.938 1.26-2.24 1.232-1.442-.028-2.436-.756-2.926-2.044-.196-.644-.042-1.526.196-2.114.518-1.078 1.498-1.764 2.702-1.89.448-.056 1.876-.028 2.002.462.126.546-.224 1.008-.602 1.064-.476.084-.854-.056-1.232-.014-1.008.126-1.876 1.12-1.638 1.876.252.77.924 1.358 2.002 1.204.798-.112 1.414-.574 1.736.224zm2.716-5.292c.154.476.07.882.042 1.344.35.112.826-.336 1.176-.476.378-.14.952-.364 1.456-.294.294.028.63.21.686.476.084.56-.434.882-.714.952-.294.07-.896.224-1.134.308-.574.168-1.526.812-1.526 1.05-.042.658-.028 2.24-.196 2.828-.14.476-.406.504-.938.476-.21-.014-.504-.182-.574-.35-.056-.168 0-.49.042-.784.098-1.148.14-3.038.266-4.172.126-1.036.098-1.54.854-1.568.21-.014.434.07.56.21zm5.866 4.634c.112.462.476.588 1.092.714.938.196 1.33-.56 1.862-.238.308.322.238.756 0 .952-.714.518-2.086.7-2.8.322-1.134-.462-1.498-.868-1.876-2.016-.266-1.204-.112-2.086.336-2.702.336-.63.966-1.176 1.526-1.344 1.372-.476 2.52-.07 3.122 1.344.098.168.294.728.294.98.028.378-.238.854-.616.98-.63.224-.952.42-1.596.602a43.87 43.87 0 00-1.344.406zm0-2.646c-.364.294-.42 1.036-.308 1.288.252.042 1.106-.238 1.596-.336.322-.07.728-.308.798-.546-.364-1.064-1.204-1.12-2.086-.406zm7.91-1.848c.336.322 1.988-.308 2.128.35.084.378-.084.784-.378.938-.434.224-1.582.126-1.834.35-.266.224-.364 1.806-.406 2.142-.028.28-.168 1.358-.21 1.638-.098.476-.182 2.03-.882 2.128-.308.042-.756-.084-.854-.28-.084-.224.224-1.428.252-1.652.042-.252.21-1.316.224-1.568.084-.532.098-1.176.154-1.988-.308-.364-1.288.07-1.694-.126-.294-.154-.392-.588-.322-.826.042-.266.28-.546.56-.658.294-.07 1.26-.056 1.484-.21.238-.168.308-1.008.364-1.33.126-.812.014-1.736 1.12-1.792.7-.042.616.322.49.812-.098.742-.35 1.12-.196 2.072zm5.194-.154c.07-.014.798.028 1.078.14.56.224 1.106.574 1.162 1.064.042.364-.266.644-.406.728-.28.224-.924-.266-1.204-.392-.77-.21-1.218-.084-1.246.364-.028.392.7.756.826.854.574.448 1.456 1.036 1.428 2.072-.028.77-.476 1.358-1.022 1.722-.392.266-1.162.378-1.666.266-1.19-.266-1.386-.448-1.26-1.162.028-.126.196-.28.336-.336.756-.322 1.302.77 2.142-.378.084-.602-.868-1.092-1.26-1.372-.476-.35-1.064-.812-1.106-1.4-.028-.364.042-.98.238-1.232.504-.616 1.204-.854 1.96-.938z" fill="#131315" fill-rule="nonzero"/><path d="M315.428 69.574c.546.504.308 1.484.56 2.142.112.308.476.742.938.77.812.07 1.372-1.4 1.498-2.408.098-1.288.14-3.332.112-4.578-.014-.42-.14-.798-.042-1.078.168-.462 1.036-.742 1.498-.35.336.28.196 1.33.21 2.072.014 1.89.112 4.984-.882 6.468-.728 1.078-2.464 1.988-3.934.924-.364-.266-.882-.91-1.036-1.372-.14-.42-.28-1.33-.21-1.988.168-.504.574-.672 1.288-.602zm8.022-2.702c2.03-.364 3.36.896 3.416 2.688.154 1.106-.49 2.184-1.414 2.856a2.925 2.925 0 01-2.03.49c-.714-.07-1.526-.518-1.932-.938-.742-1.022-.588-2.632.028-3.542.322-.504.392-.658.924-1.078.336-.252.56-.406 1.008-.476zm-.938 3.626c.112.686.77 1.246 1.694 1.008.434-.126 1.036-.658 1.162-1.288.252-1.176-.588-2.226-1.568-2.044-.756.14-1.428 1.442-1.288 2.324zm7.252-3.36c.378.336 1.092.21 1.652.308.994.182 1.988.812 2.044 1.96.042 1.092-.7 2.016-1.372 2.66a6.425 6.425 0 01-1.624 1.106c-.336.168-1.47.616-1.904.56-.672-.07-.882-.672-.938-1.19-.07-.616.112-1.526.154-2.198.098-1.47.294-2.87.434-4.13.056-.546.07-1.624.266-2.114.238-.42 1.05-.588 1.316-.028.21.42.042 1.232-.028 1.75-.042.518-.084.854 0 1.316zm-.588 3.388l-.126 1.722c.42 0 1.568-.686 1.932-1.092.35-.364 1.008-.98.98-1.498-.056-.784-1.372-1.12-2.324-.966-.336.336-.434 1.134-.462 1.834zm7.308-3.654c.07-.014.798.028 1.078.14.56.224 1.106.574 1.162 1.064.042.364-.266.644-.406.728-.28.224-.924-.266-1.204-.392-.77-.21-1.218-.084-1.246.364-.028.392.7.756.826.854.574.448 1.456 1.036 1.428 2.072-.028.77-.476 1.358-1.022 1.722-.392.266-1.162.378-1.666.266-1.19-.266-1.386-.448-1.26-1.162.028-.126.196-.28.336-.336.756-.322 1.302.77 2.142-.378.084-.602-.868-1.092-1.26-1.372-.476-.35-1.064-.812-1.106-1.4-.028-.364.042-.98.238-1.232.504-.616 1.204-.854 1.96-.938zm-20.482 22.97l.014.014c.672.028 1.218-.028 1.792-.084.392-.042 1.344-.322 1.722-.196.238.07.476.518.308 1.022-.224.7-1.036.714-1.778.728-.854 0-1.694.056-2.506.112-1.022.084-1.064-.28-1.092-1.288-.014-.476.056-1.358.098-1.918.042-.896.126-2.184.224-3.668.014-.756.014-1.582.322-1.918.35-.392 1.316-.448 2.226-.448 1.106.014 2.1.042 2.184.602.028.504-.028.854-.574.882-.154.014-.35.014-.588.014-.658.014-1.526.028-1.82.224-.168.112-.196.364-.224.686-.042.35-.238 1.33.042 1.61.112.098.238.126.406.126.406 0 .966-.21 1.372-.21.266 0 .49.126.574.42.098.56-.238.84-.588.952a11.24 11.24 0 01-.616.084c-.476.056-1.092.112-1.358.308-.168.182-.182.546-.182.938 0 .294 0 .63.028.868 0 .056.014.098.014.14zm6.58-2.212c.252-.238.434-.406.588-.644.308-.462.7-.91 1.176-1.274.364-.266.91-.644 1.456-.28.168.098.392.616.434 1.064.084.966-.266 2.562-.28 3.584 0 .252.056.588 0 .742-.182.476-1.134.7-1.456.196-.042-.686.028-1.428.126-2.114.084-.672.154-1.064.07-1.694-.434.056-.714.588-.994.98-.7.924-.602.91-1.022 1.61-.238.42-.7 1.638-1.078 1.708-1.008.21-.84-.7-.742-1.582.098-.98.238-1.834.28-2.828.028-.798-.014-1.792.63-1.918 1.12-.21.63 1.54.812 2.45zm6.79 1.736c.476-.784.882-1.834 1.344-2.548.322-.616.476-1.302.952-1.638.406-.294.98-.168 1.134.364.21.63-.196.98-.462 1.456-.49.854-.868 1.638-1.834 3.332-.294.504-.812 1.484-1.526 1.274-.434-.098-.518-.616-.658-1.232-.322-1.26-1.078-3.136-1.162-3.864-.14-.406 0-.714.056-.798.224-.308.924-.518 1.246-.154.182.21.322.966.406 1.316.168.686.406 1.792.504 2.492zm5.656.21c1.078.546.49 2.492-.63 2.534-.406.014-.994-.266-1.022-.728-.028-.616.49-2.058 1.652-1.806zm7.672-.21c.476-.784.882-1.834 1.344-2.548.322-.616.476-1.302.952-1.638.406-.294.98-.168 1.134.364.21.63-.196.98-.462 1.456-.49.854-.868 1.638-1.834 3.332-.294.504-.812 1.484-1.526 1.274-.434-.098-.518-.616-.658-1.232-.322-1.26-1.078-3.136-1.162-3.864-.14-.406 0-.714.056-.798.224-.308.924-.518 1.246-.154.182.21.322.966.406 1.316.168.686.406 1.792.504 2.492zm5.264-2.87c-.266-.098-.336-.266-.378-.518-.07-.56.462-.826.91-1.022.882-.448 1.568-.742 2.45-.546.504.182.98.854 1.092 1.582.154.896-.056 1.904-.168 2.618-.154.812-.294 1.582-.518 2.338-.098.28-.462.784-.798.826-.238.042-.812-.056-1.05-.154-.826-.322-1.456-.574-2.072-1.232-.252-.224-.532-.518-.574-.84-.154-.742.21-1.232.518-1.54.196-.196.686-.49 1.078-.616.686-.21 1.89-.126 2.114-.406.35-.476-.126-1.204-.448-1.246-1.05.168-1.638.798-2.156.756zm1.526 1.974c-.532.028-1.008.168-1.218.448.014.812 1.05 1.106 1.722 1.204.434-.112.476-1.092.476-1.582-.182-.154-.714-.084-.98-.07zm5.292-3.584c.154.476.07.882.042 1.344.35.112.826-.336 1.176-.476.378-.14.952-.364 1.456-.294.294.028.63.21.686.476.084.56-.434.882-.714.952-.294.07-.896.224-1.134.308-.574.168-1.526.812-1.526 1.05-.042.658-.028 2.24-.196 2.828-.14.476-.406.504-.938.476-.21-.014-.504-.182-.574-.35-.056-.168 0-.49.042-.784.098-1.148.14-3.038.266-4.172.126-1.036.098-1.54.854-1.568.21-.014.434.07.56.21zm6.412-.014c.07-.014.798.028 1.078.14.56.224 1.106.574 1.162 1.064.042.364-.266.644-.406.728-.28.224-.924-.266-1.204-.392-.77-.21-1.218-.084-1.246.364-.028.392.7.756.826.854.574.448 1.456 1.036 1.428 2.072-.028.77-.476 1.358-1.022 1.722-.392.266-1.162.378-1.666.266-1.19-.266-1.386-.448-1.26-1.162.028-.126.196-.28.336-.336.756-.322 1.302.77 2.142-.378.084-.602-.868-1.092-1.26-1.372-.476-.35-1.064-.812-1.106-1.4-.028-.364.042-.98.238-1.232.504-.616 1.204-.854 1.96-.938zM8.742 35.236c-.196.322-.532 1.064-.728 1.47-.28.728-.448 1.092-.812 1.806-.28.574-.476 1.484-1.12 1.484-.56-.056-.896-.91-1.106-1.568-.392-.742-1.022-2.212-1.316-2.94-.042.476-.084 1.792-.196 2.31-.112.504-.196 1.022-.294 1.554-.392 2.03-.294 2.576-1.316 2.478-.686-.056-.686-.742-.56-1.554.308-1.862.588-3.5.896-5.418.042-.812.322-2.1.672-2.604.224-.252.798-.35 1.162-.126.224.14.476.868.616 1.218.35.91.532 1.512.84 2.422.126.392.364 1.246.602 1.61.238-.35.602-1.274.728-1.708.364-.966.644-1.582 1.008-2.492.182-.378.434-.98.686-1.246.28-.308 1.036-.518 1.316-.056.126.196.28 1.022.294 1.316.14 1.568.28 2.632.364 4.27.056.812.098 1.736.168 2.576.056.546.224 1.19 0 1.722-.126.322-.994.35-1.288.154-.238-.182-.364-.84-.406-1.876-.028-.518-.056-1.036-.084-1.512-.042-1.064-.028-2.534-.126-3.29zm3.836 1.26c-.266-.098-.336-.266-.378-.518-.07-.56.462-.826.91-1.022.882-.448 1.568-.742 2.45-.546.504.182.98.854 1.092 1.582.154.896-.056 1.904-.168 2.618-.154.812-.294 1.582-.518 2.338-.098.28-.462.784-.798.826-.238.042-.812-.056-1.05-.154-.826-.322-1.456-.574-2.072-1.232-.252-.224-.532-.518-.574-.84-.154-.742.21-1.232.518-1.54.196-.196.686-.49 1.078-.616.686-.21 1.89-.126 2.114-.406.35-.476-.126-1.204-.448-1.246-1.05.168-1.638.798-2.156.756zm1.526 1.974c-.532.028-1.008.168-1.218.448.014.812 1.05 1.106 1.722 1.204.434-.112.476-1.092.476-1.582-.182-.154-.714-.084-.98-.07zm4.858-5.25c.49-.098.882.154.896.658.014.854-1.484 1.092-1.568.252-.042-.42.294-.826.672-.91zm-.126 2.38c.196-.028.672.126.742.49.042.182-.084.532-.168.896-.154.798-.294 1.596-.336 2.492-.028.504.014 1.288-.126 1.582-.196.392-1.064.672-1.4.322-.238-.238-.112-.798-.042-1.344.112-.966.238-1.974.35-2.898.098-.714.308-1.484.98-1.54zm3.402 2.03c.252-.238.434-.406.588-.644.308-.462.7-.91 1.176-1.274.364-.266.91-.644 1.456-.28.168.098.392.616.434 1.064.084.966-.266 2.562-.28 3.584 0 .252.056.588 0 .742-.182.476-1.134.7-1.456.196-.042-.686.028-1.428.126-2.114.084-.672.154-1.064.07-1.694-.434.056-.714.588-.994.98-.7.924-.602.91-1.022 1.61-.238.42-.7 1.638-1.078 1.708-1.008.21-.84-.7-.742-1.582.098-.98.238-1.834.28-2.828.028-.798-.014-1.792.63-1.918 1.12-.21.63 1.54.812 2.45zM3.8 52.872c2.03-.364 3.36.896 3.416 2.688.154 1.106-.49 2.184-1.414 2.856a2.925 2.925 0 01-2.03.49c-.714-.07-1.526-.518-1.932-.938-.742-1.022-.588-2.632.028-3.542.322-.504.392-.658.924-1.078.336-.252.56-.406 1.008-.476zm-.938 3.626c.112.686.77 1.246 1.694 1.008.434-.126 1.036-.658 1.162-1.288.252-1.176-.588-2.226-1.568-2.044-.756.14-1.428 1.442-1.288 2.324zm6.916-3.612c.154.476.07.882.042 1.344.35.112.826-.336 1.176-.476.378-.14.952-.364 1.456-.294.294.028.63.21.686.476.084.56-.434.882-.714.952-.294.07-.896.224-1.134.308-.574.168-1.526.812-1.526 1.05-.042.658-.028 2.24-.196 2.828-.14.476-.406.504-.938.476-.21-.014-.504-.182-.574-.35-.056-.168 0-.49.042-.784.098-1.148.14-3.038.266-4.172.126-1.036.098-1.54.854-1.568.21-.014.434.07.56.21zm3.822 8.946c.126-.504.49-.56.742-.504.336.07.686.406 1.288.364.294-.014.742-.378.91-.588.392-.602.616-1.162.588-1.918-.42-.07-.994 0-1.316-.042-.504-.042-1.022-.294-1.372-.574-.91-.728-.952-2.268-.476-3.444.532-1.358 2.128-2.254 3.514-2.128.266.028 1.134.168 1.344.378.21.182.21.98.182 1.288-.07 1.064-.098 2.072-.182 3.122-.084.77-.084 1.512-.252 2.198-.168.7-.322 1.036-.602 1.554-.336.602-.966 1.19-1.624 1.442-.686.266-1.33.21-2.03-.112-.462-.21-.812-.63-.714-1.036zm2.94-7.406c-1.12.378-2.38 2.982-.378 3.36 1.078.224 1.232-.112 1.288-1.904 0-.602 0-1.176-.056-1.4-.238-.056-.658-.126-.854-.056zm4.396.07c-.266-.098-.336-.266-.378-.518-.07-.56.462-.826.91-1.022.882-.448 1.568-.742 2.45-.546.504.182.98.854 1.092 1.582.154.896-.056 1.904-.168 2.618-.154.812-.294 1.582-.518 2.338-.098.28-.462.784-.798.826-.238.042-.812-.056-1.05-.154-.826-.322-1.456-.574-2.072-1.232-.252-.224-.532-.518-.574-.84-.154-.742.21-1.232.518-1.54.196-.196.686-.49 1.078-.616.686-.21 1.89-.126 2.114-.406.35-.476-.126-1.204-.448-1.246-1.05.168-1.638.798-2.156.756zm1.526 1.974c-.532.028-1.008.168-1.218.448.014.812 1.05 1.106 1.722 1.204.434-.112.476-1.092.476-1.582-.182-.154-.714-.084-.98-.07zm5.348-.84c.252-.238.434-.406.588-.644.308-.462.7-.91 1.176-1.274.364-.266.91-.644 1.456-.28.168.098.392.616.434 1.064.084.966-.266 2.562-.28 3.584 0 .252.056.588 0 .742-.182.476-1.134.7-1.456.196-.042-.686.028-1.428.126-2.114.084-.672.154-1.064.07-1.694-.434.056-.714.588-.994.98-.7.924-.602.91-1.022 1.61-.238.42-.7 1.638-1.078 1.708-1.008.21-.84-.7-.742-1.582.098-.98.238-1.834.28-2.828.028-.798-.014-1.792.63-1.918 1.12-.21.63 1.54.812 2.45zm5.964-4.41c.49-.098.882.154.896.658.014.854-1.484 1.092-1.568.252-.042-.42.294-.826.672-.91zm-.126 2.38c.196-.028.672.126.742.49.042.182-.084.532-.168.896-.154.798-.294 1.596-.336 2.492-.028.504.014 1.288-.126 1.582-.196.392-1.064.672-1.4.322-.238-.238-.112-.798-.042-1.344.112-.966.238-1.974.35-2.898.098-.714.308-1.484.98-1.54zm6.202.14c.182.966-.448 1.218-.882 1.666-.49.518-1.61 1.442-1.96 2.072.21.126.896.126 1.358.154.868.014 1.442-.182 1.568.49.084.574-.42.77-.91.784-.798.028-1.4-.042-2.282-.084-.63-.042-1.512-.014-1.596-.518-.084-.714.63-1.386.91-1.708.448-.532 1.498-1.596 1.946-1.946-.56-.182-2.562.14-2.688-.434-.042-.364-.014-.518.196-.658.434-.294 1.764-.28 2.954-.238.518 0 1.176.056 1.386.42zm2.17.756c-.266-.098-.336-.266-.378-.518-.07-.56.462-.826.91-1.022.882-.448 1.568-.742 2.45-.546.504.182.98.854 1.092 1.582.154.896-.056 1.904-.168 2.618-.154.812-.294 1.582-.518 2.338-.098.28-.462.784-.798.826-.238.042-.812-.056-1.05-.154-.826-.322-1.456-.574-2.072-1.232-.252-.224-.532-.518-.574-.84-.154-.742.21-1.232.518-1.54.196-.196.686-.49 1.078-.616.686-.21 1.89-.126 2.114-.406.35-.476-.126-1.204-.448-1.246-1.05.168-1.638.798-2.156.756zm1.526 1.974c-.532.028-1.008.168-1.218.448.014.812 1.05 1.106 1.722 1.204.434-.112.476-1.092.476-1.582-.182-.154-.714-.084-.98-.07zm7.042-3.444c.336.322 1.988-.308 2.128.35.084.378-.084.784-.378.938-.434.224-1.582.126-1.834.35-.266.224-.364 1.806-.406 2.142-.028.28-.168 1.358-.21 1.638-.098.476-.182 2.03-.882 2.128-.308.042-.756-.084-.854-.28-.084-.224.224-1.428.252-1.652.042-.252.21-1.316.224-1.568.084-.532.098-1.176.154-1.988-.308-.364-1.288.07-1.694-.126-.294-.154-.392-.588-.322-.826.042-.266.28-.546.56-.658.294-.07 1.26-.056 1.484-.21.238-.168.308-1.008.364-1.33.126-.812.014-1.736 1.12-1.792.7-.042.616.322.49.812-.098.742-.35 1.12-.196 2.072zm4.102-1.806c.49-.098.882.154.896.658.014.854-1.484 1.092-1.568.252-.042-.42.294-.826.672-.91zm-.126 2.38c.196-.028.672.126.742.49.042.182-.084.532-.168.896-.154.798-.294 1.596-.336 2.492-.028.504.014 1.288-.126 1.582-.196.392-1.064.672-1.4.322-.238-.238-.112-.798-.042-1.344.112-.966.238-1.974.35-2.898.098-.714.308-1.484.98-1.54zm3.906-.728c2.03-.364 3.36.896 3.416 2.688.154 1.106-.49 2.184-1.414 2.856a2.925 2.925 0 01-2.03.49c-.714-.07-1.526-.518-1.932-.938-.742-1.022-.588-2.632.028-3.542.322-.504.392-.658.924-1.078.336-.252.56-.406 1.008-.476zm-.938 3.626c.112.686.77 1.246 1.694 1.008.434-.126 1.036-.658 1.162-1.288.252-1.176-.588-2.226-1.568-2.044-.756.14-1.428 1.442-1.288 2.324zm6.972-.868c.252-.238.434-.406.588-.644.308-.462.7-.91 1.176-1.274.364-.266.91-.644 1.456-.28.168.098.392.616.434 1.064.084.966-.266 2.562-.28 3.584 0 .252.056.588 0 .742-.182.476-1.134.7-1.456.196-.042-.686.028-1.428.126-2.114.084-.672.154-1.064.07-1.694-.434.056-.714.588-.994.98-.7.924-.602.91-1.022 1.61-.238.42-.7 1.638-1.078 1.708-1.008.21-.84-.7-.742-1.582.098-.98.238-1.834.28-2.828.028-.798-.014-1.792.63-1.918 1.12-.21.63 1.54.812 2.45zM3.898 70.872c.07-.014.798.028 1.078.14.56.224 1.106.574 1.162 1.064.042.364-.266.644-.406.728-.28.224-.924-.266-1.204-.392-.77-.21-1.218-.084-1.246.364-.028.392.7.756.826.854.574.448 1.456 1.036 1.428 2.072-.028.77-.476 1.358-1.022 1.722-.392.266-1.162.378-1.666.266-1.19-.266-1.386-.448-1.26-1.162.028-.126.196-.28.336-.336.756-.322 1.302.77 2.142-.378.084-.602-.868-1.092-1.26-1.372-.476-.35-1.064-.812-1.106-1.4-.028-.364.042-.98.238-1.232.504-.616 1.204-.854 1.96-.938zm4.41-1.652c.49-.098.882.154.896.658.014.854-1.484 1.092-1.568.252-.042-.42.294-.826.672-.91zm-.126 2.38c.196-.028.672.126.742.49.042.182-.084.532-.168.896-.154.798-.294 1.596-.336 2.492-.028.504.014 1.288-.126 1.582-.196.392-1.064.672-1.4.322-.238-.238-.112-.798-.042-1.344.112-.966.238-1.974.35-2.898.098-.714.308-1.484.98-1.54zm5.74 6.93c-.322-.154-.294-.714-.476-1.008-.77-.168-1.512-.126-2.184-.476-.616-.336-1.358-1.022-1.554-1.722-.196-.728-.042-1.54.224-2.03.322-.63.77-1.148 1.414-1.512.714-.378 1.498-.49 2.394-.49.588-.448.266-2.436.588-3.15.098-.182.56-.266.784-.196.714.112.406 1.652.322 2.464-.084 1.078-.21 2.296-.28 3.318-.042 1.414.056 2.968-.098 4.06-.084.588-.476.882-1.134.742zm-.252-4.018c.042-.448.084-1.232-.014-1.526-.21-.266-.546-.098-1.19-.042-1.036.098-1.722 1.47-1.05 2.366.406.532 1.428.994 2.086.84.14-.308.126-1.204.168-1.638zm4.606 1.008c.112.462.476.588 1.092.714.938.196 1.33-.56 1.862-.238.308.322.238.756 0 .952-.714.518-2.086.7-2.8.322-1.134-.462-1.498-.868-1.876-2.016-.266-1.204-.112-2.086.336-2.702.336-.63.966-1.176 1.526-1.344 1.372-.476 2.52-.07 3.122 1.344.098.168.294.728.294.98.028.378-.238.854-.616.98-.63.224-.952.42-1.596.602a43.87 43.87 0 00-1.344.406zm0-2.646c-.364.294-.42 1.036-.308 1.288.252.042 1.106-.238 1.596-.336.322-.07.728-.308.798-.546-.364-1.064-1.204-1.12-2.086-.406zm6.496-1.736c.378.336 1.092.21 1.652.308.994.182 1.988.812 2.044 1.96.042 1.092-.7 2.016-1.372 2.66a6.425 6.425 0 01-1.624 1.106c-.336.168-1.47.616-1.904.56-.672-.07-.882-.672-.938-1.19-.07-.616.112-1.526.154-2.198.098-1.47.294-2.87.434-4.13.056-.546.07-1.624.266-2.114.238-.42 1.05-.588 1.316-.028.21.42.042 1.232-.028 1.75-.042.518-.084.854 0 1.316zm-.588 3.388l-.126 1.722c.42 0 1.568-.686 1.932-1.092.35-.364 1.008-.98.98-1.498-.056-.784-1.372-1.12-2.324-.966-.336.336-.434 1.134-.462 1.834zm5.936-2.03c-.266-.098-.336-.266-.378-.518-.07-.56.462-.826.91-1.022.882-.448 1.568-.742 2.45-.546.504.182.98.854 1.092 1.582.154.896-.056 1.904-.168 2.618-.154.812-.294 1.582-.518 2.338-.098.28-.462.784-.798.826-.238.042-.812-.056-1.05-.154-.826-.322-1.456-.574-2.072-1.232-.252-.224-.532-.518-.574-.84-.154-.742.21-1.232.518-1.54.196-.196.686-.49 1.078-.616.686-.21 1.89-.126 2.114-.406.35-.476-.126-1.204-.448-1.246-1.05.168-1.638.798-2.156.756zm1.526 1.974c-.532.028-1.008.168-1.218.448.014.812 1.05 1.106 1.722 1.204.434-.112.476-1.092.476-1.582-.182-.154-.714-.084-.98-.07zm5.292-3.584c.154.476.07.882.042 1.344.35.112.826-.336 1.176-.476.378-.14.952-.364 1.456-.294.294.028.63.21.686.476.084.56-.434.882-.714.952-.294.07-.896.224-1.134.308-.574.168-1.526.812-1.526 1.05-.042.658-.028 2.24-.196 2.828-.14.476-.406.504-.938.476-.21-.014-.504-.182-.574-.35-.056-.168 0-.49.042-.784.098-1.148.14-3.038.266-4.172.126-1.036.098-1.54.854-1.568.21-.014.434.07.56.21z" fill="#7c8f95" fill-rule="nonzero"/><path d="M102.489 69.142c.104-.377.156-1.547.169-1.833.052-.936.065-1.404.117-2.275.026-.43-.065-1.053.065-1.391.052-.17.286-.455.585-.507.273-.052.624-.026.741.156.247.325.065 1.43-.013 1.924-.065.48-.286 4.758-.286 5.2-.013.48.039 1.144-.182 1.482-.156.247-.689.442-1.066.286-.182-.078-.299-.325-.455-.65-.559-1.066-1.17-2.028-1.625-3.146-.195-.43-.741-1.274-.949-2.028-.169.832-.208 2.86-.312 3.679-.039.585-.104 1.677-.39 1.963-.182.208-.689.299-1.014.104-.416-.26-.091-1.443-.052-1.963.104-1.833.364-3.315.481-5.265.039-.546.078-1.365.286-1.586.143-.156.65-.312.988-.195.351.13.52.728.754 1.287.429 1 .715 1.703 1.157 2.678.208.468.702 1.65 1.001 2.08zm4.329 1.014c.104.429.442.546 1.014.663.871.182 1.235-.52 1.729-.221.286.299.221.702 0 .884-.663.48-1.937.65-2.6.299-1.053-.43-1.391-.806-1.742-1.872-.247-1.118-.104-1.937.312-2.51.312-.584.897-1.091 1.417-1.247 1.274-.442 2.34-.065 2.899 1.248.091.156.273.676.273.91.026.35-.221.793-.572.91-.585.208-.884.39-1.482.559-.403.117-.936.273-1.248.377zm0-2.457c-.338.273-.39.962-.286 1.196.234.039 1.027-.221 1.482-.312.299-.065.676-.286.741-.507-.338-.988-1.118-1.04-1.937-.377zm5.811 2.808c.715-.195 1.092-2.08 1.508-2.392.26-.13.598-.221.832.065.39.494.624 2.34.962 2.392.299.039 1.105-1.183 1.313-2.015.195-.767.26-1.937.455-2.366.221-.325.936-.481 1.235 0 .104 2.184-.936 4.524-2.145 5.356-.533.35-1.222.61-1.69.208-.221-.182-.637-1.21-.741-1.248-.078-.04-.637.91-.91 1.118-.52.377-1.482.507-1.885-.143-.299-.455-.403-1.34-.52-2.041-.065-.468-.286-2.561.065-2.99.26-.325.949-.273 1.144.039.169.273.013 1.612.039 2.08.052.663.117 1.65.338 1.937zm12.701-7.28c.663-.338 2.171-.026 2.548.962.143.195.377.702.39.819.091.377-.234 1.092-.741 1.079-.325-.013-.546-.533-.741-.82-.169-.233-.442-.662-.871-.597-.65.104-1.17.702-1.079 1.17.26 1.352 1.677 1.274 2.47 1.768.546.35 1.066 1.144.975 1.989-.039.364-.234.975-.442 1.287-.325.494-1.001 1.04-1.95 1.222-.533.026-1.365.286-1.794-.156a.817.817 0 01-.169-.663c.039-.273.273-.442.65-.546.611-.17 1.274.013 1.781-.351.26-.17.559-.65.338-1.105-.182-.364-.962-.598-1.313-.728-.884-.26-1.586-.832-1.872-1.703-.429-1.274.039-2.353.767-2.99.312-.26.624-.455 1.053-.637zm5.499 6.929c.104.429.442.546 1.014.663.871.182 1.235-.52 1.729-.221.286.299.221.702 0 .884-.663.48-1.937.65-2.6.299-1.053-.43-1.391-.806-1.742-1.872-.247-1.118-.104-1.937.312-2.51.312-.584.897-1.091 1.417-1.247 1.274-.442 2.34-.065 2.899 1.248.091.156.273.676.273.91.026.35-.221.793-.572.91-.585.208-.884.39-1.482.559-.403.117-.936.273-1.248.377zm0-2.457c-.338.273-.39.962-.286 1.196.234.039 1.027-.221 1.482-.312.299-.065.676-.286.741-.507-.338-.988-1.118-1.04-1.937-.377zm8.853 3.068c.26.637-.871 1.17-2.08 1.144-1.339-.026-2.262-.702-2.717-1.898-.182-.598-.039-1.417.182-1.963.481-1.001 1.391-1.638 2.509-1.755.416-.052 1.742-.026 1.859.429.117.507-.208.936-.559.988-.442.078-.793-.052-1.144-.013-.936.117-1.742 1.04-1.521 1.742.234.715.858 1.26 1.859 1.118.741-.104 1.313-.533 1.612.208zm2.522-4.914c.143.442.065.819.039 1.248.325.104.767-.312 1.092-.442.351-.13.884-.338 1.352-.273.273.026.585.195.637.442.078.52-.403.819-.663.884-.273.065-.832.208-1.053.286-.533.156-1.417.754-1.417.975-.039.61-.026 2.08-.182 2.626-.13.442-.377.468-.871.442-.195-.013-.468-.17-.533-.325-.052-.156 0-.455.039-.728.091-1.066.13-2.821.247-3.874.117-.962.091-1.43.793-1.456a.667.667 0 01.52.195zm5.447 4.303c.104.429.442.546 1.014.663.871.182 1.235-.52 1.729-.221.286.299.221.702 0 .884-.663.48-1.937.65-2.6.299-1.053-.43-1.391-.806-1.742-1.872-.247-1.118-.104-1.937.312-2.51.312-.584.897-1.091 1.417-1.247 1.274-.442 2.34-.065 2.899 1.248.091.156.273.676.273.91.026.35-.221.793-.572.91-.585.208-.884.39-1.482.559-.403.117-.936.273-1.248.377zm0-2.457c-.338.273-.39.962-.286 1.196.234.039 1.027-.221 1.482-.312.299-.065.676-.286.741-.507-.338-.988-1.118-1.04-1.937-.377zm7.345-1.716c.312.299 1.846-.286 1.976.325.078.35-.078.728-.351.87-.403.209-1.469.118-1.703.326-.247.208-.338 1.677-.377 1.989a60.79 60.79 0 01-.195 1.52c-.091.443-.169 1.886-.819 1.977-.286.039-.702-.078-.793-.26-.078-.208.208-1.326.234-1.534.039-.234.195-1.222.208-1.456.078-.494.091-1.092.143-1.846-.286-.338-1.196.065-1.573-.117-.273-.143-.364-.546-.299-.767.039-.247.26-.507.52-.611.273-.065 1.17-.052 1.378-.195.221-.156.286-.936.338-1.235.117-.754.013-1.612 1.04-1.664.65-.04.572.299.455.754-.091.689-.325 1.04-.182 1.924z" fill="#fff" fill-rule="nonzero"/><path d="M227.424 34.184l7.653.444a2.7 2.7 0 00.157.005h9.965c.029 0 .058 0 .086-.002l7.206-.229h.015l15.296-.4a2.7 2.7 0 01.138 0l24.842.629a2.7 2.7 0 00.16-.001l15.205-.523a3 3 0 013.103 2.998v6.506l-.136 8.935a3 3 0 01-3 2.954H227.25a3 3 0 01-3-3V37.179a3 3 0 013.174-2.995z" fill="#3344a5"/><path d="M233.109 47.455l.013.013c.624.026 1.131-.026 1.664-.078.364-.04 1.248-.3 1.599-.182.221.065.442.48.286.949-.208.65-.962.663-1.651.676-.793 0-1.573.052-2.327.104-.949.078-.988-.26-1.014-1.196-.013-.442.052-1.261.091-1.781.039-.832.117-2.028.208-3.406.013-.702.013-1.47.299-1.781.325-.364 1.222-.416 2.067-.416 1.027.013 1.95.039 2.028.559.026.468-.026.793-.533.819-.143.013-.325.013-.546.013-.611.013-1.417.026-1.69.208-.156.104-.182.338-.208.637-.039.325-.221 1.235.039 1.495.104.09.221.117.377.117.377 0 .897-.195 1.274-.195.247 0 .455.117.533.39.091.52-.221.78-.546.884-.143.026-.351.052-.572.078-.442.052-1.014.104-1.261.286-.156.169-.169.507-.169.87 0 .274 0 .586.026.807 0 .052.013.09.013.13zm8.281 2.496c-.299-.143-.273-.663-.442-.936-.715-.156-1.404-.117-2.028-.442-.572-.312-1.261-.95-1.443-1.6-.182-.675-.039-1.43.208-1.884.299-.585.715-1.066 1.313-1.404.663-.351 1.391-.455 2.223-.455.546-.416.247-2.262.546-2.925.091-.17.52-.247.728-.182.663.104.377 1.534.299 2.288-.078 1-.195 2.132-.26 3.08-.039 1.314.052 2.757-.091 3.77-.078.547-.442.82-1.053.69zm-.234-3.731c.039-.416.078-1.144-.013-1.417-.195-.247-.507-.091-1.105-.04-.962.092-1.599 1.366-.975 2.198.377.494 1.326.923 1.937.78.13-.286.117-1.118.156-1.521zm3.77-4.914c.455-.091.819.143.832.61.013.794-1.378 1.015-1.456.235-.039-.39.273-.767.624-.845zm-.117 2.21c.182-.026.624.117.689.455.039.169-.078.494-.156.832-.143.74-.273 1.482-.312 2.314-.026.468.013 1.196-.117 1.469-.182.364-.988.624-1.3.299-.221-.221-.104-.741-.039-1.248.104-.897.221-1.833.325-2.691.091-.663.286-1.378.91-1.43zm4.732-.533c.312.299 1.846-.286 1.976.325.078.35-.078.728-.351.87-.403.209-1.469.118-1.703.326-.247.208-.338 1.677-.377 1.989a60.79 60.79 0 01-.195 1.52c-.091.443-.169 1.886-.819 1.977-.286.039-.702-.078-.793-.26-.078-.208.208-1.326.234-1.534.039-.234.195-1.222.208-1.456.078-.494.091-1.092.143-1.846-.286-.338-1.196.065-1.573-.117-.273-.143-.364-.546-.299-.767.039-.247.26-.507.52-.611.273-.065 1.17-.052 1.378-.195.221-.156.286-.936.338-1.235.117-.754.013-1.612 1.04-1.664.65-.04.572.299.455.754-.091.689-.325 1.04-.182 1.924zm7.878 4.524c.715-.195 1.092-2.08 1.508-2.392.26-.13.598-.221.832.065.39.494.624 2.34.962 2.392.299.039 1.105-1.183 1.313-2.015.195-.767.26-1.937.455-2.366.221-.325.936-.481 1.235 0 .104 2.184-.936 4.524-2.145 5.356-.533.35-1.222.61-1.69.208-.221-.182-.637-1.21-.741-1.248-.078-.04-.637.91-.91 1.118-.52.377-1.482.507-1.885-.143-.299-.455-.403-1.34-.52-2.041-.065-.468-.286-2.561.065-2.99.26-.325.949-.273 1.144.039.169.273.013 1.612.039 2.08.052.663.117 1.65.338 1.937zm9.269-4.667c1.885-.338 3.12.832 3.172 2.496.143 1.027-.455 2.028-1.313 2.652a2.717 2.717 0 01-1.885.455c-.663-.065-1.417-.481-1.794-.871-.689-.95-.546-2.444.026-3.29.299-.467.364-.61.858-1 .312-.234.52-.377.936-.442zm-.871 3.367c.104.637.715 1.157 1.573.936.403-.117.962-.611 1.079-1.196.234-1.092-.546-2.067-1.456-1.898-.702.13-1.326 1.339-1.196 2.158zm6.422-3.354c.143.442.065.819.039 1.248.325.104.767-.312 1.092-.442.351-.13.884-.338 1.352-.273.273.026.585.195.637.442.078.52-.403.819-.663.884-.273.065-.832.208-1.053.286-.533.156-1.417.754-1.417.975-.039.61-.026 2.08-.182 2.626-.13.442-.377.468-.871.442-.195-.013-.468-.17-.533-.325-.052-.156 0-.455.039-.728.091-1.066.13-2.821.247-3.874.117-.962.091-1.43.793-1.456a.667.667 0 01.52.195zm5.59-3.497c.026 1.235-.221 2.743-.325 4.056-.026.325-.052.897-.026 1.196.221-.091.585-.325.754-.43.195-.13.637-.428.819-.558.351-.26.663-.69 1.183-.208.52.468-.377 1.066-.845 1.417-.26.182-.702.416-.741.689-.039.247.195.364.364.572.403.455.754.819 1.183 1.248.221.208.507.416.546.78.039.468-.247.91-.871.754-.442-.182-1.209-1.183-1.69-1.612-.039-.04-.611-.69-.819-.793 0 .26-.013 1.339-.104 1.729-.052.273-.221.416-.52.494-.91.195-.806-.69-.767-1.6.091-2.04.247-4.393.481-6.447.091-.793.156-1.261.728-1.43.26-.078.52 0 .65.143zm5.902 6.903c-.169.35.052 1.924-.156 2.574-.182.52-1.131.48-1.248.052-.182-.702.052-2.015-.13-2.77-.637-.155-.598.105-1.053-.35-.182-.195-.13-.377-.091-.52.052-.312.429-.507.767-.52.364-.013.221.065.364-.13.117-.156.039-.715.078-.988.104-1.001.208-1.703.559-2.522.39-.923.871-1.6 1.794-1.794.897-.195 1.482.286 1.833.975.26.507.312 1.079.208 1.326-.104.377-.546.48-.845.39-.247-.013-.364-.403-.481-.663s-.208-.741-.572-.741c-.611 0-.806 1.209-.936 1.846-.078.39-.234 1.976-.026 2.314.416.169.637-.052 1.287.143.585.195.494 1.105.026 1.196-.494.09-.988-.026-1.378.182zm5.174-6.565c.91-.273.572 1.092.507 1.859-.143 1.989-.351 3.666-.52 5.577-.039.377-.169 1.404-.273 1.677-.156.416-.715.793-1.092.559-.442-.247-.039-1.937.026-2.561.182-1.6.338-2.756.468-4.316.091-1.08 0-2.522.884-2.795zm3.419 3.146c1.885-.338 3.12.832 3.172 2.496.143 1.027-.455 2.028-1.313 2.652a2.717 2.717 0 01-1.885.455c-.663-.065-1.417-.481-1.794-.871-.689-.95-.546-2.444.026-3.29.299-.467.364-.61.858-1 .312-.234.52-.377.936-.442zm-.871 3.367c.104.637.715 1.157 1.573.936.403-.117.962-.611 1.079-1.196.234-1.092-.546-2.067-1.456-1.898-.702.13-1.326 1.339-1.196 2.158zm6.513 1.3c.715-.195 1.092-2.08 1.508-2.392.26-.13.598-.221.832.065.39.494.624 2.34.962 2.392.299.039 1.105-1.183 1.313-2.015.195-.767.26-1.937.455-2.366.221-.325.936-.481 1.235 0 .104 2.184-.936 4.524-2.145 5.356-.533.35-1.222.61-1.69.208-.221-.182-.637-1.21-.741-1.248-.078-.04-.637.91-.91 1.118-.52.377-1.482.507-1.885-.143-.299-.455-.403-1.34-.52-2.041-.065-.468-.286-2.561.065-2.99.26-.325.949-.273 1.144.039.169.273.013 1.612.039 2.08.052.663.117 1.65.338 1.937z" fill="#fff" fill-rule="nonzero"/><g stroke-linecap="round"><path d="M82 34v119m219-87v87" stroke="#7c8f95" stroke-width="1.75"/><path d="M91 34.5h7.5m-7.5 4h7.5m-7.5 4h7.5" stroke="#131315" stroke-width="1.75"/><path d="M92 91l46.784-.49a97 97 0 012.021 0L188 91m-96 47l46.784-.49a97.007 97.007 0 012.021 0L188 138m-96-23.75l47.795-.5 48.205-.5" stroke="#7c8f95" stroke-width="1.75"/><g stroke="#131315" stroke-width="1.75"><path d="M264.205 65.406c-2.025 18.5 5.554 31.818 22.737 39.955"/><path d="M287.054 99.823l.558 6.45-5.697.827" stroke-linejoin="round"/></g><g stroke="#7c8f95" stroke-width="1.344"><path d="M14 86c.5 4 4 12.5 7.202 15.914"/><path d="M23.5 98.5l-2 4-4.5-.5" stroke-linejoin="round"/></g><path d="M319 126l3 4.5 8-11.5" stroke="#131315" stroke-linejoin="round" stroke-width="1.75"/></g></g></svg>