<svg height="135" width="190" xmlns="http://www.w3.org/2000/svg"><g fill="none" fill-rule="evenodd"><path d="M96.741 97.922l2.277.144a2.7 2.7 0 00.17.005h3.953a2.7 2.7 0 00.227-.01l1.567-.132a1.55 1.55 0 011.68 1.544v4.988l-.047 3.354a2 2 0 01-2 1.972h-7.952a2 2 0 01-2-2v-7.87a2 2 0 012.125-1.995zm0 20l2.277.144a2.7 2.7 0 00.17.005h3.953a2.7 2.7 0 00.227-.01l1.567-.132a1.55 1.55 0 011.68 1.544v4.988l-.047 3.354a2 2 0 01-2 1.972h-7.952a2 2 0 01-2-2v-7.87a2 2 0 012.125-1.995z" stroke="#131315" stroke-width="1.75"/><g fill-rule="nonzero"><path d="M120.148 100.14c.07-.014.798.028 1.078.14.56.224 1.106.574 1.162 1.064.042.364-.266.644-.406.728-.28.224-.924-.266-1.204-.392-.77-.21-1.218-.084-1.246.364-.028.392.7.756.826.854.574.448 1.456 1.036 1.428 2.072-.028.77-.476 1.358-1.022 1.722-.392.266-1.162.378-1.666.266-1.19-.266-1.386-.448-1.26-1.162.028-.126.196-.28.336-.336.756-.322 1.302.77 2.142-.378.084-.602-.868-1.092-1.26-1.372-.476-.35-1.064-.812-1.106-1.4-.028-.364.042-.98.238-1.232.504-.616 1.204-.854 1.96-.938zm4.956 4.648c.112.462.476.588 1.092.714.938.196 1.33-.56 1.862-.238.308.322.238.756 0 .952-.714.518-2.086.7-2.8.322-1.134-.462-1.498-.868-1.876-2.016-.266-1.204-.112-2.086.336-2.702.336-.63.966-1.176 1.526-1.344 1.372-.476 2.52-.07 3.122 1.344.098.168.294.728.294.98.028.378-.238.854-.616.98-.63.224-.952.42-1.596.602a43.87 43.87 0 00-1.344.406zm0-2.646c-.364.294-.42 1.036-.308 1.288.252.042 1.106-.238 1.596-.336.322-.07.728-.308.798-.546-.364-1.064-1.204-1.12-2.086-.406zm9.534 3.304c.28.686-.938 1.26-2.24 1.232-1.442-.028-2.436-.756-2.926-2.044-.196-.644-.042-1.526.196-2.114.518-1.078 1.498-1.764 2.702-1.89.448-.056 1.876-.028 2.002.462.126.546-.224 1.008-.602 1.064-.476.084-.854-.056-1.232-.014-1.008.126-1.876 1.12-1.638 1.876.252.77.924 1.358 2.002 1.204.798-.112 1.414-.574 1.736.224zm2.716-5.292c.154.476.07.882.042 1.344.35.112.826-.336 1.176-.476.378-.14.952-.364 1.456-.294.294.028.63.21.686.476.084.56-.434.882-.714.952-.294.07-.896.224-1.134.308-.574.168-1.526.812-1.526 1.05-.042.658-.028 2.24-.196 2.828-.14.476-.406.504-.938.476-.21-.014-.504-.182-.574-.35-.056-.168 0-.49.042-.784.098-1.148.14-3.038.266-4.172.126-1.036.098-1.54.854-1.568.21-.014.434.07.56.21zm5.866 4.634c.112.462.476.588 1.092.714.938.196 1.33-.56 1.862-.238.308.322.238.756 0 .952-.714.518-2.086.7-2.8.322-1.134-.462-1.498-.868-1.876-2.016-.266-1.204-.112-2.086.336-2.702.336-.63.966-1.176 1.526-1.344 1.372-.476 2.52-.07 3.122 1.344.098.168.294.728.294.98.028.378-.238.854-.616.98-.63.224-.952.42-1.596.602a43.87 43.87 0 00-1.344.406zm0-2.646c-.364.294-.42 1.036-.308 1.288.252.042 1.106-.238 1.596-.336.322-.07.728-.308.798-.546-.364-1.064-1.204-1.12-2.086-.406zm7.91-1.848c.336.322 1.988-.308 2.128.35.084.378-.084.784-.378.938-.434.224-1.582.126-1.834.35-.266.224-.364 1.806-.406 2.142-.028.28-.168 1.358-.21 1.638-.098.476-.182 2.03-.882 2.128-.308.042-.756-.084-.854-.28-.084-.224.224-1.428.252-1.652.042-.252.21-1.316.224-1.568.084-.532.098-1.176.154-1.988-.308-.364-1.288.07-1.694-.126-.294-.154-.392-.588-.322-.826.042-.266.28-.546.56-.658.294-.07 1.26-.056 1.484-.21.238-.168.308-1.008.364-1.33.126-.812.014-1.736 1.12-1.792.7-.042.616.322.49.812-.098.742-.35 1.12-.196 2.072zm3.458 2.212c.476-.07 1.568-.042 2.464-.042.84 0 2.002-.098 2.576.07.49.154.742.784.518 1.316-.196.462-1.75.406-2.562.434-.49.014-2.814.056-3.262-.112-.35-.126-.532-.56-.518-.98 0-.476.378-.644.784-.686zm8.008-4.242c.336-.14.98-.14 1.176.35.168.364-.154 1.176-.224 1.736-.154 1.218-.238 2.87-.378 4.018-.084.588.042 1.512-.182 1.974-.154.308-.686.686-1.064.63-.728-.112-.49-1.302-.378-1.932.294-1.61.308-3.22.49-4.732.084-.728-.014-1.806.56-2.044zm-42.448 21.681c.07-.014.798.028 1.078.14.56.224 1.106.574 1.162 1.064.042.364-.266.644-.406.728-.28.224-.924-.266-1.204-.392-.77-.21-1.218-.084-1.246.364-.028.392.7.756.826.854.574.448 1.456 1.036 1.428 2.072-.028.77-.476 1.358-1.022 1.722-.392.266-1.162.378-1.666.266-1.19-.266-1.386-.448-1.26-1.162.028-.126.196-.28.336-.336.756-.322 1.302.77 2.142-.378.084-.602-.868-1.092-1.26-1.372-.476-.35-1.064-.812-1.106-1.4-.028-.364.042-.98.238-1.232.504-.616 1.204-.854 1.96-.938zm4.956 4.648c.112.462.476.588 1.092.714.938.196 1.33-.56 1.862-.238.308.322.238.756 0 .952-.714.518-2.086.7-2.8.322-1.134-.462-1.498-.868-1.876-2.016-.266-1.204-.112-2.086.336-2.702.336-.63.966-1.176 1.526-1.344 1.372-.476 2.52-.07 3.122 1.344.098.168.294.728.294.98.028.378-.238.854-.616.98-.63.224-.952.42-1.596.602a43.87 43.87 0 00-1.344.406zm0-2.646c-.364.294-.42 1.036-.308 1.288.252.042 1.106-.238 1.596-.336.322-.07.728-.308.798-.546-.364-1.064-1.204-1.12-2.086-.406zm9.534 3.304c.28.686-.938 1.26-2.24 1.232-1.442-.028-2.436-.756-2.926-2.044-.196-.644-.042-1.526.196-2.114.518-1.078 1.498-1.764 2.702-1.89.448-.056 1.876-.028 2.002.462.126.546-.224 1.008-.602 1.064-.476.084-.854-.056-1.232-.014-1.008.126-1.876 1.12-1.638 1.876.252.77.924 1.358 2.002 1.204.798-.112 1.414-.574 1.736.224zm2.716-5.292c.154.476.07.882.042 1.344.35.112.826-.336 1.176-.476.378-.14.952-.364 1.456-.294.294.028.63.21.686.476.084.56-.434.882-.714.952-.294.07-.896.224-1.134.308-.574.168-1.526.812-1.526 1.05-.042.658-.028 2.24-.196 2.828-.14.476-.406.504-.938.476-.21-.014-.504-.182-.574-.35-.056-.168 0-.49.042-.784.098-1.148.14-3.038.266-4.172.126-1.036.098-1.54.854-1.568.21-.014.434.07.56.21zm5.866 4.634c.112.462.476.588 1.092.714.938.196 1.33-.56 1.862-.238.308.322.238.756 0 .952-.714.518-2.086.7-2.8.322-1.134-.462-1.498-.868-1.876-2.016-.266-1.204-.112-2.086.336-2.702.336-.63.966-1.176 1.526-1.344 1.372-.476 2.52-.07 3.122 1.344.098.168.294.728.294.98.028.378-.238.854-.616.98-.63.224-.952.42-1.596.602a43.87 43.87 0 00-1.344.406zm0-2.646c-.364.294-.42 1.036-.308 1.288.252.042 1.106-.238 1.596-.336.322-.07.728-.308.798-.546-.364-1.064-1.204-1.12-2.086-.406zm7.91-1.848c.336.322 1.988-.308 2.128.35.084.378-.084.784-.378.938-.434.224-1.582.126-1.834.35-.266.224-.364 1.806-.406 2.142-.028.28-.168 1.358-.21 1.638-.098.476-.182 2.03-.882 2.128-.308.042-.756-.084-.854-.28-.084-.224.224-1.428.252-1.652.042-.252.21-1.316.224-1.568.084-.532.098-1.176.154-1.988-.308-.364-1.288.07-1.694-.126-.294-.154-.392-.588-.322-.826.042-.266.28-.546.56-.658.294-.07 1.26-.056 1.484-.21.238-.168.308-1.008.364-1.33.126-.812.014-1.736 1.12-1.792.7-.042.616.322.49.812-.098.742-.35 1.12-.196 2.072zm3.458 2.212c.476-.07 1.568-.042 2.464-.042.84 0 2.002-.098 2.576.07.49.154.742.784.518 1.316-.196.462-1.75.406-2.562.434-.49.014-2.814.056-3.262-.112-.35-.126-.532-.56-.518-.98 0-.476.378-.644.784-.686zm9.002 2.38c.728.238 2.576-.378 3.192.098.266.364.07 1.288-.42 1.442-.938.14-2.66.112-3.836.084-.532-.014-.966-.21-.994-.518-.056-.7.616-1.47.868-1.89.644-1.064 1.078-1.54 1.596-2.632.238-.49.756-1.12.476-1.764-.308-.7-1.12.126-1.498.448-.434.364-.826 1.078-1.358 1.106-.462.028-.686-.322-.672-.728.028-.63 1.358-1.778 1.918-2.086.644-.56 2.646-.686 3.024.448.252 1.442-.42 2.702-1.064 3.794-.364.672-.952 1.344-1.232 2.198zM93.174 81.996h8.094l-4.047 4.047zm15.013-3.938c.714-.364 2.338-.028 2.744 1.036.154.21.406.756.42.882.098.406-.252 1.176-.798 1.162-.35-.014-.588-.574-.798-.882-.182-.252-.476-.714-.938-.644-.7.112-1.26.756-1.162 1.26.28 1.456 1.806 1.372 2.66 1.904.588.378 1.148 1.232 1.05 2.142-.042.392-.252 1.05-.476 1.386-.35.532-1.078 1.12-2.1 1.316-.574.028-1.47.308-1.932-.168a.88.88 0 01-.182-.714c.042-.294.294-.476.7-.588.658-.182 1.372.014 1.918-.378.28-.182.602-.7.364-1.19-.196-.392-1.036-.644-1.414-.784-.952-.28-1.708-.896-2.016-1.834-.462-1.372.042-2.534.826-3.22.336-.28.672-.49 1.134-.686zm5.922 7.462c.112.462.476.588 1.092.714.938.196 1.33-.56 1.862-.238.308.322.238.756 0 .952-.714.518-2.086.7-2.8.322-1.134-.462-1.498-.868-1.876-2.016-.266-1.204-.112-2.086.336-2.702.336-.63.966-1.176 1.526-1.344 1.372-.476 2.52-.07 3.122 1.344.098.168.294.728.294.98.028.378-.238.854-.616.98-.63.224-.952.42-1.596.602a43.87 43.87 0 00-1.344.406zm0-2.646c-.364.294-.42 1.036-.308 1.288.252.042 1.106-.238 1.596-.336.322-.07.728-.308.798-.546-.364-1.064-1.204-1.12-2.086-.406zm9.534 3.304c.28.686-.938 1.26-2.24 1.232-1.442-.028-2.436-.756-2.926-2.044-.196-.644-.042-1.526.196-2.114.518-1.078 1.498-1.764 2.702-1.89.448-.056 1.876-.028 2.002.462.126.546-.224 1.008-.602 1.064-.476.084-.854-.056-1.232-.014-1.008.126-1.876 1.12-1.638 1.876.252.77.924 1.358 2.002 1.204.798-.112 1.414-.574 1.736.224zm2.716-5.292c.154.476.07.882.042 1.344.35.112.826-.336 1.176-.476.378-.14.952-.364 1.456-.294.294.028.63.21.686.476.084.56-.434.882-.714.952-.294.07-.896.224-1.134.308-.574.168-1.526.812-1.526 1.05-.042.658-.028 2.24-.196 2.828-.14.476-.406.504-.938.476-.21-.014-.504-.182-.574-.35-.056-.168 0-.49.042-.784.098-1.148.14-3.038.266-4.172.126-1.036.098-1.54.854-1.568.21-.014.434.07.56.21zm5.866 4.634c.112.462.476.588 1.092.714.938.196 1.33-.56 1.862-.238.308.322.238.756 0 .952-.714.518-2.086.7-2.8.322-1.134-.462-1.498-.868-1.876-2.016-.266-1.204-.112-2.086.336-2.702.336-.63.966-1.176 1.526-1.344 1.372-.476 2.52-.07 3.122 1.344.098.168.294.728.294.98.028.378-.238.854-.616.98-.63.224-.952.42-1.596.602a43.87 43.87 0 00-1.344.406zm0-2.646c-.364.294-.42 1.036-.308 1.288.252.042 1.106-.238 1.596-.336.322-.07.728-.308.798-.546-.364-1.064-1.204-1.12-2.086-.406zm7.91-1.848c.336.322 1.988-.308 2.128.35.084.378-.084.784-.378.938-.434.224-1.582.126-1.834.35-.266.224-.364 1.806-.406 2.142-.028.28-.168 1.358-.21 1.638-.098.476-.182 2.03-.882 2.128-.308.042-.756-.084-.854-.28-.084-.224.224-1.428.252-1.652.042-.252.21-1.316.224-1.568.084-.532.098-1.176.154-1.988-.308-.364-1.288.07-1.694-.126-.294-.154-.392-.588-.322-.826.042-.266.28-.546.56-.658.294-.07 1.26-.056 1.484-.21.238-.168.308-1.008.364-1.33.126-.812.014-1.736 1.12-1.792.7-.042.616.322.49.812-.098.742-.35 1.12-.196 2.072zm5.194-.154c.07-.014.798.028 1.078.14.56.224 1.106.574 1.162 1.064.042.364-.266.644-.406.728-.28.224-.924-.266-1.204-.392-.77-.21-1.218-.084-1.246.364-.028.392.7.756.826.854.574.448 1.456 1.036 1.428 2.072-.028.77-.476 1.358-1.022 1.722-.392.266-1.162.378-1.666.266-1.19-.266-1.386-.448-1.26-1.162.028-.126.196-.28.336-.336.756-.322 1.302.77 2.142-.378.084-.602-.868-1.092-1.26-1.372-.476-.35-1.064-.812-1.106-1.4-.028-.364.042-.98.238-1.232.504-.616 1.204-.854 1.96-.938z" fill="#131315"/><path d="M110.365 15.347c.182-.616.672-1.512.854-1.904.322-.728.616-1.512.938-2.324.14-.392.308-.882.546-1.064.294-.224.938-.35 1.246-.028.28.308.238 1.022.28 1.624.126.84.322 2.716.546 3.444.252-.588.504-1.456.7-1.778.336-.882.532-1.624.868-2.562.154-.434.322-1.064.546-1.428.238-.364 1.288-.854 1.568-.252.084.21-.042.938-.154 1.274-.476 1.358-.896 2.338-1.344 3.906-.322 1.148-.924 3.136-1.638 3.724-.196.168-.476.35-.826.28-.588-.098-.84-1.148-1.008-1.834-.28-.728-.28-1.484-.714-2.114-.728.882-.938 2.086-1.694 3.094-.196.336-.266.742-.588.896-.504.21-.994.112-1.246-.28-.476-1.47-.63-3.22-.812-4.676-.14-.812-.238-1.806-.392-2.674-.084-.448-.266-1.232-.168-1.512.168-.434 1.372-.574 1.652-.196.182.238.196 1.008.266 1.428.252 1.316.504 3.794.574 4.956zm11.242-3.724c2.03-.364 3.36.896 3.416 2.688.154 1.106-.49 2.184-1.414 2.856a2.925 2.925 0 01-2.03.49c-.714-.07-1.526-.518-1.932-.938-.742-1.022-.588-2.632.028-3.542.322-.504.392-.658.924-1.078.336-.252.56-.406 1.008-.476zm-.938 3.626c.112.686.77 1.246 1.694 1.008.434-.126 1.036-.658 1.162-1.288.252-1.176-.588-2.226-1.568-2.044-.756.14-1.428 1.442-1.288 2.324zm6.916-3.612c.154.476.07.882.042 1.344.35.112.826-.336 1.176-.476.378-.14.952-.364 1.456-.294.294.028.63.21.686.476.084.56-.434.882-.714.952-.294.07-.896.224-1.134.308-.574.168-1.526.812-1.526 1.05-.042.658-.028 2.24-.196 2.828-.14.476-.406.504-.938.476-.21-.014-.504-.182-.574-.35-.056-.168 0-.49.042-.784.098-1.148.14-3.038.266-4.172.126-1.036.098-1.54.854-1.568.21-.014.434.07.56.21zm6.02-3.766c.028 1.33-.238 2.954-.35 4.368-.028.35-.056.966-.028 1.288.238-.098.63-.35.812-.462.21-.14.686-.462.882-.602.378-.28.714-.742 1.274-.224.56.504-.406 1.148-.91 1.526-.28.196-.756.448-.798.742-.042.266.21.392.392.616.434.49.812.882 1.274 1.344.238.224.546.448.588.84.042.504-.266.98-.938.812-.476-.196-1.302-1.274-1.82-1.736-.042-.042-.658-.742-.882-.854 0 .28-.014 1.442-.112 1.862-.056.294-.238.448-.56.532-.98.21-.868-.742-.826-1.722.098-2.198.266-4.732.518-6.944.098-.854.168-1.358.784-1.54.28-.084.56 0 .7.154zm6.356 7.434c-.182.378.056 2.072-.168 2.772-.196.56-1.218.518-1.344.056-.196-.756.056-2.17-.14-2.982-.686-.168-.644.112-1.134-.378-.196-.21-.14-.406-.098-.56.056-.336.462-.546.826-.56.392-.014.238.07.392-.14.126-.168.042-.77.084-1.064.112-1.078.224-1.834.602-2.716.42-.994.938-1.722 1.932-1.932.966-.21 1.596.308 1.974 1.05.28.546.336 1.162.224 1.428-.112.406-.588.518-.91.42-.266-.014-.392-.434-.518-.714-.126-.28-.224-.798-.616-.798-.658 0-.868 1.302-1.008 1.988-.084.42-.252 2.128-.028 2.492.448.182.686-.056 1.386.154.63.21.532 1.19.028 1.288-.532.098-1.064-.028-1.484.196zm5.572-7.07c.98-.294.616 1.176.546 2.002-.154 2.142-.378 3.948-.56 6.006-.042.406-.182 1.512-.294 1.806-.168.448-.77.854-1.176.602-.476-.266-.042-2.086.028-2.758.196-1.722.364-2.968.504-4.648.098-1.162 0-2.716.952-3.01zm3.682 3.388c2.03-.364 3.36.896 3.416 2.688.154 1.106-.49 2.184-1.414 2.856a2.925 2.925 0 01-2.03.49c-.714-.07-1.526-.518-1.932-.938-.742-1.022-.588-2.632.028-3.542.322-.504.392-.658.924-1.078.336-.252.56-.406 1.008-.476zm-.938 3.626c.112.686.77 1.246 1.694 1.008.434-.126 1.036-.658 1.162-1.288.252-1.176-.588-2.226-1.568-2.044-.756.14-1.428 1.442-1.288 2.324zm7.014 1.4c.77-.21 1.176-2.24 1.624-2.576.28-.14.644-.238.896.07.42.532.672 2.52 1.036 2.576.322.042 1.19-1.274 1.414-2.17.21-.826.28-2.086.49-2.548.238-.35 1.008-.518 1.33 0 .112 2.352-1.008 4.872-2.31 5.768-.574.378-1.316.658-1.82.224-.238-.196-.686-1.302-.798-1.344-.084-.042-.686.98-.98 1.204-.56.406-1.596.546-2.03-.154-.322-.49-.434-1.442-.56-2.198-.07-.504-.308-2.758.07-3.22.28-.35 1.022-.294 1.232.042.182.294.014 1.736.042 2.24.056.714.126 1.778.364 2.086zm-45.304 13.24c.378.336 1.092.21 1.652.308.994.182 1.988.812 2.044 1.96.042 1.092-.7 2.016-1.372 2.66a6.425 6.425 0 01-1.624 1.106c-.336.168-1.47.616-1.904.56-.672-.07-.882-.672-.938-1.19-.07-.616.112-1.526.154-2.198.098-1.47.294-2.87.434-4.13.056-.546.07-1.624.266-2.114.238-.42 1.05-.588 1.316-.028.21.42.042 1.232-.028 1.75-.042.518-.084.854 0 1.316zm-.588 3.388L109.273 35c.42 0 1.568-.686 1.932-1.092.35-.364 1.008-.98.98-1.498-.056-.784-1.372-1.12-2.324-.966-.336.336-.434 1.134-.462 1.834zm6.3-2.954c.378.238.266.784.21 1.218-.112 1.106-.602 3.458 1.022 3.094.56-.084.938-1.372 1.008-2.142.056-.616-.042-1.75.07-2.212.112-.42.798-.56 1.05-.406.406.238.434 1.414.42 2.086a7.09 7.09 0 01-.266 1.764c-.448 1.582-1.246 2.576-3.304 2.24-.756-.182-1.442-.686-1.568-1.722-.056-.476-.042-1.442-.028-1.862.056-1.078.168-2.114 1.386-2.058zm5.908-2.352c.49-.098.882.154.896.658.014.854-1.484 1.092-1.568.252-.042-.42.294-.826.672-.91zm-.126 2.38c.196-.028.672.126.742.49.042.182-.084.532-.168.896-.154.798-.294 1.596-.336 2.492-.028.504.014 1.288-.126 1.582-.196.392-1.064.672-1.4.322-.238-.238-.112-.798-.042-1.344.112-.966.238-1.974.35-2.898.098-.714.308-1.484.98-1.54zm3.136-4.116c.98-.294.616 1.176.546 2.002-.154 2.142-.378 3.948-.56 6.006-.042.406-.182 1.512-.294 1.806-.168.448-.77.854-1.176.602-.476-.266-.042-2.086.028-2.758.196-1.722.364-2.968.504-4.648.098-1.162 0-2.716.952-3.01zm5.516 11.046c-.322-.154-.294-.714-.476-1.008-.77-.168-1.512-.126-2.184-.476-.616-.336-1.358-1.022-1.554-1.722-.196-.728-.042-1.54.224-2.03.322-.63.77-1.148 1.414-1.512.714-.378 1.498-.49 2.394-.49.588-.448.266-2.436.588-3.15.098-.182.56-.266.784-.196.714.112.406 1.652.322 2.464-.084 1.078-.21 2.296-.28 3.318-.042 1.414.056 2.968-.098 4.06-.084.588-.476.882-1.134.742zm-.252-4.018c.042-.448.084-1.232-.014-1.526-.21-.266-.546-.098-1.19-.042-1.036.098-1.722 1.47-1.05 2.366.406.532 1.428.994 2.086.84.14-.308.126-1.204.168-1.638zm4.606 1.008c.112.462.476.588 1.092.714.938.196 1.33-.56 1.862-.238.308.322.238.756 0 .952-.714.518-2.086.7-2.8.322-1.134-.462-1.498-.868-1.876-2.016-.266-1.204-.112-2.086.336-2.702.336-.63.966-1.176 1.526-1.344 1.372-.476 2.52-.07 3.122 1.344.098.168.294.728.294.98.028.378-.238.854-.616.98-.63.224-.952.42-1.596.602a43.87 43.87 0 00-1.344.406zm0-2.646c-.364.294-.42 1.036-.308 1.288.252.042 1.106-.238 1.596-.336.322-.07.728-.308.798-.546-.364-1.064-1.204-1.12-2.086-.406zm6.16-1.988c.154.476.07.882.042 1.344.35.112.826-.336 1.176-.476.378-.14.952-.364 1.456-.294.294.028.63.21.686.476.084.56-.434.882-.714.952-.294.07-.896.224-1.134.308-.574.168-1.526.812-1.526 1.05-.042.658-.028 2.24-.196 2.828-.14.476-.406.504-.938.476-.21-.014-.504-.182-.574-.35-.056-.168 0-.49.042-.784.098-1.148.14-3.038.266-4.172.126-1.036.098-1.54.854-1.568.21-.014.434.07.56.21zm10.262-.014c.07-.014.798.028 1.078.14.56.224 1.106.574 1.162 1.064.042.364-.266.644-.406.728-.28.224-.924-.266-1.204-.392-.77-.21-1.218-.084-1.246.364-.028.392.7.756.826.854.574.448 1.456 1.036 1.428 2.072-.028.77-.476 1.358-1.022 1.722-.392.266-1.162.378-1.666.266-1.19-.266-1.386-.448-1.26-1.162.028-.126.196-.28.336-.336.756-.322 1.302.77 2.142-.378.084-.602-.868-1.092-1.26-1.372-.476-.35-1.064-.812-1.106-1.4-.028-.364.042-.98.238-1.232.504-.616 1.204-.854 1.96-.938zm4.41-1.652c.49-.098.882.154.896.658.014.854-1.484 1.092-1.568.252-.042-.42.294-.826.672-.91zm-.126 2.38c.196-.028.672.126.742.49.042.182-.084.532-.168.896-.154.798-.294 1.596-.336 2.492-.028.504.014 1.288-.126 1.582-.196.392-1.064.672-1.4.322-.238-.238-.112-.798-.042-1.344.112-.966.238-1.974.35-2.898.098-.714.308-1.484.98-1.54zm5.74 6.93c-.322-.154-.294-.714-.476-1.008-.77-.168-1.512-.126-2.184-.476-.616-.336-1.358-1.022-1.554-1.722-.196-.728-.042-1.54.224-2.03.322-.63.77-1.148 1.414-1.512.714-.378 1.498-.49 2.394-.49.588-.448.266-2.436.588-3.15.098-.182.56-.266.784-.196.714.112.406 1.652.322 2.464-.084 1.078-.21 2.296-.28 3.318-.042 1.414.056 2.968-.098 4.06-.084.588-.476.882-1.134.742zm-.252-4.018c.042-.448.084-1.232-.014-1.526-.21-.266-.546-.098-1.19-.042-1.036.098-1.722 1.47-1.05 2.366.406.532 1.428.994 2.086.84.14-.308.126-1.204.168-1.638zm4.606 1.008c.112.462.476.588 1.092.714.938.196 1.33-.56 1.862-.238.308.322.238.756 0 .952-.714.518-2.086.7-2.8.322-1.134-.462-1.498-.868-1.876-2.016-.266-1.204-.112-2.086.336-2.702.336-.63.966-1.176 1.526-1.344 1.372-.476 2.52-.07 3.122 1.344.098.168.294.728.294.98.028.378-.238.854-.616.98-.63.224-.952.42-1.596.602a43.87 43.87 0 00-1.344.406zm0-2.646c-.364.294-.42 1.036-.308 1.288.252.042 1.106-.238 1.596-.336.322-.07.728-.308.798-.546-.364-1.064-1.204-1.12-2.086-.406zm6.496-1.736c.378.336 1.092.21 1.652.308.994.182 1.988.812 2.044 1.96.042 1.092-.7 2.016-1.372 2.66a6.425 6.425 0 01-1.624 1.106c-.336.168-1.47.616-1.904.56-.672-.07-.882-.672-.938-1.19-.07-.616.112-1.526.154-2.198.098-1.47.294-2.87.434-4.13.056-.546.07-1.624.266-2.114.238-.42 1.05-.588 1.316-.028.21.42.042 1.232-.028 1.75-.042.518-.084.854 0 1.316zm-.588 3.388L171.069 35c.42 0 1.568-.686 1.932-1.092.35-.364 1.008-.98.98-1.498-.056-.784-1.372-1.12-2.324-.966-.336.336-.434 1.134-.462 1.834zm5.936-2.03c-.266-.098-.336-.266-.378-.518-.07-.56.462-.826.91-1.022.882-.448 1.568-.742 2.45-.546.504.182.98.854 1.092 1.582.154.896-.056 1.904-.168 2.618-.154.812-.294 1.582-.518 2.338-.098.28-.462.784-.798.826-.238.042-.812-.056-1.05-.154-.826-.322-1.456-.574-2.072-1.232-.252-.224-.532-.518-.574-.84-.154-.742.21-1.232.518-1.54.196-.196.686-.49 1.078-.616.686-.21 1.89-.126 2.114-.406.35-.476-.126-1.204-.448-1.246-1.05.168-1.638.798-2.156.756zm1.526 1.974c-.532.028-1.008.168-1.218.448.014.812 1.05 1.106 1.722 1.204.434-.112.476-1.092.476-1.582-.182-.154-.714-.084-.98-.07zm5.292-3.584c.154.476.07.882.042 1.344.35.112.826-.336 1.176-.476.378-.14.952-.364 1.456-.294.294.028.63.21.686.476.084.56-.434.882-.714.952-.294.07-.896.224-1.134.308-.574.168-1.526.812-1.526 1.05-.042.658-.028 2.24-.196 2.828-.14.476-.406.504-.938.476-.21-.014-.504-.182-.574-.35-.056-.168 0-.49.042-.784.098-1.148.14-3.038.266-4.172.126-1.036.098-1.54.854-1.568.21-.014.434.07.56.21z" fill="#8e9ea3"/></g><g stroke="#7c8f95" stroke-linecap="round" stroke-width="1.344"><path d="M134.783 47c-.5 4-4 12.5-7.202 15.914"/><path d="M125.283 59.5l2 4 4.5-.5" stroke-linejoin="round"/></g><path d="M3.174 1.184l7.653.444a2.7 2.7 0 00.157.005h9.965c.029 0 .058 0 .086-.002l7.206-.229h.015l15.296-.4a2.7 2.7 0 01.138 0l24.842.629a2.7 2.7 0 00.16-.001l15.205-.523A3 3 0 0187 4.105v6.506l-.136 8.935a3 3 0 01-3 2.954H3a3 3 0 01-3-3V4.179a3 3 0 013.174-2.995z" fill="#3344a5"/><path d="M8.859 14.455l.013.013c.624.026 1.131-.026 1.664-.078.364-.04 1.248-.3 1.599-.182.221.065.442.48.286.949-.208.65-.962.663-1.651.676-.793 0-1.573.052-2.327.104-.949.078-.988-.26-1.014-1.196-.013-.442.052-1.261.091-1.781.039-.832.117-2.028.208-3.406.013-.702.013-1.47.299-1.781.325-.364 1.222-.416 2.067-.416 1.027.013 1.95.039 2.028.559.026.468-.026.793-.533.819-.143.013-.325.013-.546.013-.611.013-1.417.026-1.69.208-.156.104-.182.338-.208.637-.039.325-.221 1.235.039 1.495.104.09.221.117.377.117.377 0 .897-.195 1.274-.195.247 0 .455.117.533.39.091.52-.221.78-.546.884-.143.026-.351.052-.572.078-.442.052-1.014.104-1.261.286-.156.169-.169.507-.169.87 0 .274 0 .586.026.807 0 .052.013.09.013.13zm8.281 2.496c-.299-.143-.273-.663-.442-.936-.715-.156-1.404-.117-2.028-.442-.572-.312-1.261-.95-1.443-1.6-.182-.675-.039-1.43.208-1.884.299-.585.715-1.066 1.313-1.404.663-.351 1.391-.455 2.223-.455.546-.416.247-2.262.546-2.925.091-.17.52-.247.728-.182.663.104.377 1.534.299 2.288-.078 1-.195 2.132-.26 3.08-.039 1.314.052 2.757-.091 3.77-.078.547-.442.82-1.053.69zm-.234-3.731c.039-.416.078-1.144-.013-1.417-.195-.247-.507-.091-1.105-.04-.962.092-1.599 1.366-.975 2.198.377.494 1.326.923 1.937.78.13-.286.117-1.118.156-1.521zm3.77-4.914c.455-.091.819.143.832.61.013.794-1.378 1.015-1.456.235-.039-.39.273-.767.624-.845zm-.117 2.21c.182-.026.624.117.689.455.039.169-.078.494-.156.832-.143.74-.273 1.482-.312 2.314-.026.468.013 1.196-.117 1.469-.182.364-.988.624-1.3.299-.221-.221-.104-.741-.039-1.248.104-.897.221-1.833.325-2.691.091-.663.286-1.378.91-1.43zm4.732-.533c.312.299 1.846-.286 1.976.325.078.35-.078.728-.351.87-.403.209-1.469.118-1.703.326-.247.208-.338 1.677-.377 1.989a60.79 60.79 0 01-.195 1.52c-.091.443-.169 1.886-.819 1.977-.286.039-.702-.078-.793-.26-.078-.208.208-1.326.234-1.534.039-.234.195-1.222.208-1.456.078-.494.091-1.092.143-1.846-.286-.338-1.196.065-1.573-.117-.273-.143-.364-.546-.299-.767.039-.247.26-.507.52-.611.273-.065 1.17-.052 1.378-.195.221-.156.286-.936.338-1.235.117-.754.013-1.612 1.04-1.664.65-.04.572.299.455.754-.091.689-.325 1.04-.182 1.924zm7.878 4.524c.715-.195 1.092-2.08 1.508-2.392.26-.13.598-.221.832.065.39.494.624 2.34.962 2.392.299.039 1.105-1.183 1.313-2.015.195-.767.26-1.937.455-2.366.221-.325.936-.481 1.235 0 .104 2.184-.936 4.524-2.145 5.356-.533.35-1.222.61-1.69.208-.221-.182-.637-1.21-.741-1.248-.078-.04-.637.91-.91 1.118-.52.377-1.482.507-1.885-.143-.299-.455-.403-1.34-.52-2.041-.065-.468-.286-2.561.065-2.99.26-.325.949-.273 1.144.039.169.273.013 1.612.039 2.08.052.663.117 1.65.338 1.937zm9.269-4.667c1.885-.338 3.12.832 3.172 2.496.143 1.027-.455 2.028-1.313 2.652a2.717 2.717 0 01-1.885.455c-.663-.065-1.417-.481-1.794-.871-.689-.95-.546-2.444.026-3.29.299-.467.364-.61.858-1 .312-.234.52-.377.936-.442zm-.871 3.367c.104.637.715 1.157 1.573.936.403-.117.962-.611 1.079-1.196.234-1.092-.546-2.067-1.456-1.898-.702.13-1.326 1.339-1.196 2.158zm6.422-3.354c.143.442.065.819.039 1.248.325.104.767-.312 1.092-.442.351-.13.884-.338 1.352-.273.273.026.585.195.637.442.078.52-.403.819-.663.884-.273.065-.832.208-1.053.286-.533.156-1.417.754-1.417.975-.039.61-.026 2.08-.182 2.626-.13.442-.377.468-.871.442-.195-.013-.468-.17-.533-.325-.052-.156 0-.455.039-.728.091-1.066.13-2.821.247-3.874.117-.962.091-1.43.793-1.456a.667.667 0 01.52.195zm5.59-3.497c.026 1.235-.221 2.743-.325 4.056-.026.325-.052.897-.026 1.196.221-.091.585-.325.754-.43.195-.13.637-.428.819-.558.351-.26.663-.69 1.183-.208.52.468-.377 1.066-.845 1.417-.26.182-.702.416-.741.689-.039.247.195.364.364.572.403.455.754.819 1.183 1.248.221.208.507.416.546.78.039.468-.247.91-.871.754-.442-.182-1.209-1.183-1.69-1.612-.039-.04-.611-.69-.819-.793 0 .26-.013 1.339-.104 1.729-.052.273-.221.416-.52.494-.91.195-.806-.69-.767-1.6.091-2.04.247-4.393.481-6.447.091-.793.156-1.261.728-1.43.26-.078.52 0 .65.143zm5.902 6.903c-.169.35.052 1.924-.156 2.574-.182.52-1.131.48-1.248.052-.182-.702.052-2.015-.13-2.77-.637-.155-.598.105-1.053-.35-.182-.195-.13-.377-.091-.52.052-.312.429-.507.767-.52.364-.013.221.065.364-.13.117-.156.039-.715.078-.988.104-1.001.208-1.703.559-2.522.39-.923.871-1.6 1.794-1.794.897-.195 1.482.286 1.833.975.26.507.312 1.079.208 1.326-.104.377-.546.48-.845.39-.247-.013-.364-.403-.481-.663s-.208-.741-.572-.741c-.611 0-.806 1.209-.936 1.846-.078.39-.234 1.976-.026 2.314.416.169.637-.052 1.287.143.585.195.494 1.105.026 1.196-.494.09-.988-.026-1.378.182zm5.174-6.565c.91-.273.572 1.092.507 1.859-.143 1.989-.351 3.666-.52 5.577-.039.377-.169 1.404-.273 1.677-.156.416-.715.793-1.092.559-.442-.247-.039-1.937.026-2.561.182-1.6.338-2.756.468-4.316.091-1.08 0-2.522.884-2.795zm3.419 3.146c1.885-.338 3.12.832 3.172 2.496.143 1.027-.455 2.028-1.313 2.652a2.717 2.717 0 01-1.885.455c-.663-.065-1.417-.481-1.794-.871-.689-.95-.546-2.444.026-3.29.299-.467.364-.61.858-1 .312-.234.52-.377.936-.442zm-.871 3.367c.104.637.715 1.157 1.573.936.403-.117.962-.611 1.079-1.196.234-1.092-.546-2.067-1.456-1.898-.702.13-1.326 1.339-1.196 2.158zm6.513 1.3c.715-.195 1.092-2.08 1.508-2.392.26-.13.598-.221.832.065.39.494.624 2.34.962 2.392.299.039 1.105-1.183 1.313-2.015.195-.767.26-1.937.455-2.366.221-.325.936-.481 1.235 0 .104 2.184-.936 4.524-2.145 5.356-.533.35-1.222.61-1.69.208-.221-.182-.637-1.21-.741-1.248-.078-.04-.637.91-.91 1.118-.52.377-1.482.507-1.885-.143-.299-.455-.403-1.34-.52-2.041-.065-.468-.286-2.561.065-2.99.26-.325.949-.273 1.144.039.169.273.013 1.612.039 2.08.052.663.117 1.65.338 1.937z" fill="#fff" fill-rule="nonzero"/><path d="M82 33v97" stroke="#7c8f95" stroke-linecap="round" stroke-width="1.75"/><g stroke="#131315" stroke-linecap="round" stroke-width="1.75"><path d="M38.42 32.809c1.219 18.57 10.995 30.37 29.33 35.4"/><path d="M66.898 62.735l1.67 6.256-5.467 1.803" stroke-linejoin="round"/></g><path d="M97.75 102l3 4.5 8-11.5" stroke="#131315" stroke-linecap="round" stroke-linejoin="round" stroke-width="1.75"/></g></svg>