<svg height="24" width="160" xmlns="http://www.w3.org/2000/svg"><path d="M3.595 10.028l6.01 6.098a4.418 4.418 0 006.301 0l4.76-4.84a1.745 1.745 0 012.488 0l2.358 2.398-5.996 6.113a9.423 9.423 0 01-6.753 2.827 9.44 9.44 0 01-6.753-2.842L0 13.684zm101.793-3.56c3.051 0 5.147 2.404 5.147 5.579 0 3.144-2.096 5.547-5.147 5.547-1.288 0-2.605-.75-3.156-1.645l-.08-.142v4.777h-3.36V6.746h3.36v1.51c.493-.986 1.85-1.788 3.236-1.788zm-47.525-.03c3.298 0 5.455 2.25 5.455 4.838 0 .432 0 .925-.123 1.572h-7.613c.062 1.264.586 2.342 2.343 2.342 1.17 0 1.726-.524 1.941-1.202h3.298c-.308 2.004-2.188 3.606-5.208 3.606-3.699 0-5.702-2.311-5.702-5.578 0-3.082 1.942-5.579 5.61-5.579zm95.203 0c3.298 0 5.455 2.25 5.455 4.838 0 .432 0 .925-.123 1.572h-7.612c.062 1.264.585 2.342 2.343 2.342 1.17 0 1.725-.524 1.94-1.202h3.298c-.308 2.004-2.188 3.606-5.208 3.606-3.698 0-5.702-2.311-5.702-5.578 0-3.082 1.941-5.579 5.61-5.579zm-22.098 0c3.699 0 5.886 2.557 5.886 5.578 0 3.02-2.187 5.578-5.886 5.578-3.636 0-5.856-2.527-5.856-5.578 0-3.02 2.22-5.579 5.856-5.579zm-84.94.03c3.082 0 4.562 1.572 4.562 3.576h-3.36c0-.863-.462-1.387-1.387-1.387-.678 0-1.263.308-1.263.955 0 .77.924.894 2.712 1.48 1.88.554 3.421 1.047 3.421 3.112 0 2.497-2.157 3.39-4.777 3.39-3.02 0-4.87-1.386-4.87-3.821h3.298c0 1.11.709 1.572 1.695 1.572.802 0 1.387-.278 1.387-.987 0-.801-.832-.924-2.835-1.571-1.757-.555-3.267-1.048-3.267-3.082 0-2.189 1.818-3.237 4.684-3.237zm43.303 0c1.288 0 2.604.751 3.155 1.646l.08.142v-1.51h3.36v10.54h-3.36v-1.48c-.523.956-1.88 1.758-3.235 1.758-3.052 0-5.147-2.373-5.147-5.548 0-3.144 2.095-5.548 5.147-5.548zM78.389 6.5c3.082 0 3.699 2.096 3.699 4.315v6.503h-3.206v-5.702c0-1.417-.493-2.28-1.633-2.28-1.017 0-1.788.647-1.788 2.681v5.301h-3.236v-5.732c0-1.418-.462-2.25-1.572-2.25-1.017 0-1.818.647-1.818 2.743v5.24h-3.236V6.745h3.236v1.54c.462-.985 1.572-1.787 3.051-1.787 1.85 0 2.774.832 3.205 1.911.555-1.11 1.757-1.91 3.298-1.91zm37.632-3.051v4.808c.585-1.079 1.787-1.788 3.421-1.788 1.356 0 2.28.463 2.866 1.202.604.777.806 1.742.83 3.095l.003.296v6.256h-3.237v-5.424c0-1.51-.431-2.558-1.85-2.558-1.298 0-1.975.962-2.03 2.48l-.003.201v5.301h-3.237V3.448zm29.587 3.144c.432 0 .709.03 1.017.185v3.02h-.03a3.833 3.833 0 00-1.173-.154c-1.849 0-3.05.955-3.05 3.544v4.13h-3.36V6.746h3.36v1.726c.492-.987 1.756-1.88 3.236-1.88zM90.04 9.304c-1.51 0-2.527 1.264-2.527 2.712 0 1.48 1.017 2.712 2.527 2.712s2.528-1.233 2.528-2.712c0-1.448-1.017-2.712-2.528-2.712zm14.64 0c-1.54 0-2.558 1.233-2.558 2.712 0 1.48 1.017 2.712 2.559 2.712 1.51 0 2.495-1.233 2.495-2.712 0-1.48-1.016-2.712-2.495-2.712zm26.289 0c-1.51 0-2.496 1.232-2.496 2.712 0 1.48.986 2.712 2.496 2.712 1.541 0 2.558-1.202 2.558-2.712 0-1.48-1.017-2.712-2.558-2.712zM28.684 3.842l6.01 6.112-3.609 3.671-6.01-6.113a4.392 4.392 0 00-6.301 0l-4.76 4.84a1.745 1.745 0 01-2.488 0L9.168 9.954l6.01-6.112a9.444 9.444 0 0113.506 0zm29.18 4.845c-1.326 0-2.282.802-2.282 2.22h4.438c0-1.357-.893-2.22-2.157-2.22zm95.202 0c-1.325 0-2.28.802-2.28 2.22h4.438c0-1.357-.894-2.22-2.158-2.22z" fill="#fff"/></svg>