<svg width="224" height="55" xmlns="http://www.w3.org/2000/svg"><g fill="#2F313B" fill-rule="evenodd"><path d="M47.498 13.41c.483-.114 1.08.133 1.33.555 0 0 1.016 1.645 1.62 2.957.598 1.307 1.178 3.143 1.178 3.143.153.466-.047 1.073-.452 1.36l-3.278 2.327c-.405.284-.677.91-.616 1.395 0 0 .18 1.243.208 2.31a22.532 22.532 0 01-.088 2.263c-.035.49.27 1.097.69 1.361l3.396 2.153c.418.262.654.857.524 1.33 0 0-.484 1.869-1.015 3.211-.532 1.339-1.455 3.028-1.455 3.028-.23.437-.81.714-1.297.623l-3.956-.728c-.487-.088-1.131.15-1.443.53 0 0-.827 1.059-1.636 1.865-.903.898-2.171 1.855-2.171 1.855-.387.301-.637.938-.555 1.425l.666 3.948c.084.485-.206 1.059-.646 1.277 0 0-1.72.893-3.08 1.4-1.354.503-3.237.95-3.237.95-.475.123-1.07-.122-1.328-.542l-2.105-3.412c-.259-.42-.87-.735-1.36-.71 0 0-1.08.088-2.066.053a22.266 22.266 0 01-2.146-.196c-.49-.063-1.118.21-1.408.613l-2.34 3.258c-.289.403-.901.604-1.37.45 0 0-1.847-.577-3.166-1.176-1.324-.6-2.972-1.606-2.972-1.606-.423-.254-.669-.844-.555-1.323l.836-3.462c.176-.717.74-1.724 1.262-2.245l8.666-8.645c3.061 1.68 6.985 1.23 9.582-1.353a7.98 7.98 0 001.36-9.53l8.682-8.633c.524-.522 1.534-1.082 2.258-1.253l3.483-.823v-.003zM4.546 42.568c-.482.116-1.079-.133-1.33-.554 0 0-1.014-1.645-1.614-2.958C1.004 37.75.423 35.913.423 35.913c-.158-.465.046-1.073.449-1.36l3.278-2.327c.405-.284.68-.91.62-1.395 0 0-.182-1.242-.208-2.31-.027-1.05.088-2.263.088-2.263.035-.49-.273-1.097-.692-1.361L.557 22.75c-.417-.266-.651-.863-.521-1.337 0 0 .484-1.868 1.015-3.208.532-1.34 1.457-3.031 1.457-3.031.229-.43.81-.709 1.295-.618l3.96.728c.485.091 1.129-.149 1.442-.528 0 0 .827-1.057 1.636-1.866.903-.896 2.172-1.851 2.172-1.851.387-.303.633-.942.552-1.428L12.9 5.664c-.08-.486.208-1.06.651-1.277 0 0 1.716-.893 3.074-1.4 1.357-.508 3.234-.957 3.234-.957.479-.118 1.074.122 1.334.546l2.104 3.412c.26.42.87.735 1.359.707 0 0 1.08-.084 2.066-.052 1.015.035 2.146.2 2.146.2.49.06 1.118-.21 1.408-.613l2.34-3.26c.289-.403.901-.604 1.369-.449 0 0 1.848.578 3.167 1.178 1.32.595 2.969 1.603 2.969 1.603.422.249.672.84.556 1.32l-.834 3.461c-.176.718-.74 1.722-1.262 2.244l-8.668 8.645c-3.061-1.68-6.985-1.229-9.582 1.354a7.977 7.977 0 00-1.36 9.53l-8.68 8.635c-.528.522-1.536 1.085-2.258 1.253l-3.489.823.002.001z" fill-rule="nonzero"/><path d="M77.483 9.679L69 11.261v21.243c0 7.169 5.332 10.842 13.791 9.264 8.483-1.582 13.815-7.22 13.815-14.389V6.112L88.099 7.7v20.17c0 3.93-2.18 6.242-5.308 6.825-3.128.584-5.308-.867-5.308-4.845V9.68zm32.654 26.418l-7.868 1.467V5.056l6.588-1.229 12.346 15.845.331-.062V1.463L129.378 0v32.508l-6.54 1.22-12.393-16.05-.308.057v18.362zm32.586.801v3.31c0 5.43 2.157 7.828 5.711 7.343 3.46-.472 5.26-3.289 5.26-6.504l8.081-1.102v1.12c0 6.668-5.284 12.39-13.46 13.504-9.122 1.243-14.264-3.843-14.264-13.226V38.08c0-9.407 5.165-15.922 14.265-17.162 8.104-1.105 13.459 3.143 13.459 10.025v1.072l-8.08 1.101c0-3.215-1.825-5.68-5.308-5.206-3.507.478-5.664 3.558-5.664 8.988zm31.753-18.974v20.171c0 3.977 2.18 5.538 5.308 5.111 3.128-.426 5.308-2.628 5.308-6.558V16.477l8.507-1.16v21.267c0 7.168-5.332 12.54-13.815 13.695-8.46 1.154-13.791-2.787-13.791-9.956V19.08l8.483-1.156zM213.6 45.099l-8.484 1.156V20.677l-8.625 1.176v-6.93l25.734-3.508v6.93l-8.625 1.176V45.1z"/></g></svg>