<svg height="22" width="160" xmlns="http://www.w3.org/2000/svg"><g fill="none"><path d="M51.157 13.51c0 2.518-2.176 3.42-4.819 3.42-3.046 0-4.912-1.4-4.912-3.856h3.327c0 1.12.715 1.586 1.71 1.586.808 0 1.399-.28 1.399-.995 0-.808-.84-.933-2.86-1.586-1.773-.56-3.296-1.057-3.296-3.109 0-2.207 1.834-3.264 4.726-3.264 3.109 0 4.601 1.585 4.601 3.606h-3.389c0-.87-.466-1.399-1.399-1.399-.684 0-1.275.311-1.275.964 0 .777.933.902 2.736 1.492 1.897.56 3.451 1.057 3.451 3.14zm4.913-1.369c.062 1.275.59 2.363 2.362 2.363 1.182 0 1.741-.528 1.96-1.212h3.326c-.311 2.02-2.208 3.637-5.255 3.637-3.73 0-5.751-2.332-5.751-5.627 0-3.11 1.959-5.627 5.658-5.627 3.327 0 5.503 2.27 5.503 4.88 0 .436 0 .933-.124 1.586zm0-1.958h4.476c0-1.368-.901-2.239-2.176-2.239-1.337 0-2.3.808-2.3 2.239zm23.504 6.467v-5.752c0-1.43-.498-2.3-1.648-2.3-1.026 0-1.803.652-1.803 2.704v5.348h-3.265v-5.783c0-1.43-.466-2.27-1.585-2.27-1.026 0-1.835.653-1.835 2.767v5.286h-3.264V5.986h3.264V7.54c.467-.995 1.586-1.803 3.078-1.803 1.865 0 2.798.84 3.233 1.928.56-1.12 1.773-1.928 3.327-1.928 3.11 0 3.73 2.114 3.73 4.353v6.56zm13.804-9.14c-.498-.965-1.897-1.804-3.265-1.804-3.077 0-5.192 2.425-5.192 5.596 0 3.202 2.115 5.596 5.192 5.596 1.368 0 2.736-.808 3.265-1.772v1.492h3.389V5.986h-3.389zm-2.55 6.528c-1.523 0-2.549-1.244-2.549-2.736 0-1.461 1.026-2.736 2.55-2.736 1.523 0 2.549 1.275 2.549 2.736 0 1.492-1.026 2.736-2.55 2.736zm15.484-8.332c-1.4 0-2.768.808-3.265 1.803V5.986h-3.389v13.959h3.39v-4.819c.496.964 1.896 1.803 3.264 1.803 3.078 0 5.192-2.425 5.192-5.596 0-3.202-2.114-5.627-5.192-5.627zm-.715 8.332c-1.555 0-2.58-1.244-2.58-2.736 0-1.492 1.025-2.736 2.58-2.736 1.492 0 2.518 1.244 2.518 2.736 0 1.492-.995 2.736-2.518 2.736zm17.783-7.12c-.59-.746-1.524-1.212-2.891-1.212-1.649 0-2.86.715-3.451 1.803v-4.85h-3.265v13.99h3.265v-5.347c0-1.648.684-2.705 2.051-2.705 1.43 0 1.866 1.057 1.866 2.58v5.473h3.265v-6.312c0-1.523-.188-2.58-.84-3.42zm2.829 4.384c0-3.047 2.239-5.627 5.907-5.627 3.73 0 5.938 2.58 5.938 5.627 0 3.047-2.207 5.627-5.938 5.627-3.668 0-5.907-2.55-5.907-5.627zm8.487 0c0-1.492-1.026-2.736-2.58-2.736-1.523 0-2.518 1.244-2.518 2.736 0 1.492.995 2.736 2.518 2.736 1.554 0 2.58-1.213 2.58-2.736zm13.184-2.238a3.866 3.866 0 00-1.183-.156c-1.866 0-3.078.964-3.078 3.575v4.167h-3.388V5.986h3.388v1.74c.497-.994 1.772-1.896 3.265-1.896.435 0 .715.031 1.026.187v3.047zm4.227 3.077c.063 1.275.59 2.363 2.363 2.363 1.182 0 1.741-.528 1.959-1.212h3.326c-.31 2.02-2.207 3.637-5.254 3.637-3.73 0-5.751-2.332-5.751-5.627 0-3.11 1.958-5.627 5.658-5.627 3.326 0 5.502 2.27 5.502 4.88 0 .436 0 .933-.124 1.586zm0-1.958h4.477c0-1.368-.901-2.239-2.176-2.239-1.337 0-2.301.808-2.301 2.239z" fill="#000"/><path d="M12.875 22.003a9.522 9.522 0 01-6.812-2.867L0 12.985l3.626-3.688 6.063 6.151a4.457 4.457 0 006.357 0l4.8-4.882a1.76 1.76 0 012.51 0l2.38 2.419-6.05 6.166a9.506 9.506 0 01-6.811 2.852z" fill="#f16332"/><path d="M31.358 12.925L25.295 6.76a4.43 4.43 0 00-6.357 0l-4.8 4.882a1.76 1.76 0 01-2.51 0l-2.38-2.419 6.064-6.166a9.526 9.526 0 0113.624 0l6.063 6.166z" fill="#009c74"/></g></svg>