<svg width="32" height="32" xmlns="http://www.w3.org/2000/svg"><g fill="none"><path d="M29.054 7.15a.784.784 0 01.806.338s.616 1.003.982 1.803c.362.796.714 1.915.714 1.915a.782.782 0 01-.274.83l-1.987 1.418c-.245.173-.41.555-.373.85 0 0 .108.757.125 1.408a13.8 13.8 0 01-.053 1.38.993.993 0 00.418.83l2.059 1.311c.254.16.397.523.318.81 0 0-.294 1.14-.616 1.958-.322.816-.882 1.845-.882 1.845a.776.776 0 01-.786.38l-2.398-.444a1.01 1.01 0 00-.874.324s-.502.645-.992 1.137c-.548.547-1.317 1.13-1.317 1.13a1 1 0 00-.336.869l.403 2.406a.776.776 0 01-.391.779s-1.042.544-1.867.853c-.821.306-1.962.58-1.962.58a.777.777 0 01-.806-.331l-1.275-2.08c-.157-.256-.528-.448-.825-.432 0 0-.655.053-1.252.032-.616-.02-1.302-.12-1.302-.12a.998.998 0 00-.853.373L12.04 31.29a.782.782 0 01-.83.274s-1.12-.352-1.92-.717c-.802-.366-1.801-.98-1.801-.98a.786.786 0 01-.336-.806l.507-2.11c.106-.437.448-1.05.764-1.368l5.254-5.27a4.882 4.882 0 006.633-6.633l5.263-5.262c.318-.318.93-.66 1.369-.764l2.112-.501V7.15z" fill="#19A974"/><path d="M3.015 24.923a.783.783 0 01-.806-.338s-.614-1.003-.978-1.803c-.363-.797-.715-1.916-.715-1.916a.777.777 0 01.272-.829l1.987-1.418c.246-.173.412-.555.376-.85 0 0-.11-.758-.126-1.408a13.8 13.8 0 01.053-1.38.994.994 0 00-.419-.83L.597 12.843a.783.783 0 01-.315-.815s.293-1.138.615-1.955c.322-.818.883-1.848.883-1.848a.78.78 0 01.785-.376l2.4.443c.295.056.685-.09.875-.322 0 0 .501-.644.992-1.137a15.21 15.21 0 011.316-1.128c.235-.185.384-.574.335-.87L8.08 2.428a.777.777 0 01.395-.779s1.04-.544 1.863-.853c.823-.31 1.96-.584 1.96-.584a.788.788 0 01.81.333l1.275 2.08a.996.996 0 00.823.431s.655-.051 1.253-.032a13.85 13.85 0 011.301.122.999.999 0 00.853-.374L20.032.786a.78.78 0 01.83-.273s1.12.352 1.92.718c.8.363 1.8.977 1.8.977a.78.78 0 01.336.804l-.505 2.11c-.107.437-.448 1.05-.765 1.368l-5.254 5.269a4.882 4.882 0 00-6.634 6.635l-5.262 5.263c-.32.317-.931.66-1.368.763l-2.116.502h.001z" fill="#FF732F"/></g></svg>