<svg width="233" height="55" xmlns="http://www.w3.org/2000/svg"><g fill="#2F313B" fill-rule="evenodd"><path d="M47.457 13.414c.481-.114 1.08.133 1.329.555 0 0 1.014 1.646 1.617 2.959.598 1.308 1.178 3.144 1.178 3.144.153.466-.048 1.073-.452 1.36l-3.275 2.329c-.404.283-.677.91-.615 1.395 0 0 .179 1.243.207 2.31a22.433 22.433 0 01-.088 2.264c-.035.49.27 1.098.69 1.362l3.392 2.154c.419.262.654.858.524 1.33 0 0-.483 1.87-1.014 3.213-.531 1.339-1.454 3.028-1.454 3.028-.229.438-.809.715-1.296.624l-3.952-.729c-.487-.087-1.13.15-1.441.53 0 0-.827 1.06-1.635 1.867-.902.898-2.17 1.856-2.17 1.856-.386.3-.636.938-.553 1.425l.664 3.95c.084.484-.206 1.058-.645 1.277 0 0-1.718.893-3.077 1.4-1.353.503-3.234.951-3.234.951-.475.123-1.07-.122-1.328-.542l-2.102-3.414c-.259-.42-.87-.735-1.36-.71 0 0-1.079.088-2.063.053a22.07 22.07 0 01-2.145-.196c-.489-.063-1.116.21-1.406.613l-2.338 3.26c-.289.402-.9.604-1.368.45 0 0-1.846-.578-3.165-1.177-1.322-.6-2.969-1.607-2.969-1.607-.422-.254-.668-.844-.554-1.323l.835-3.463c.176-.718.739-1.725 1.26-2.246l8.66-8.649c3.058 1.681 6.978 1.231 9.573-1.353a7.99 7.99 0 001.36-9.534l8.673-8.636c.524-.522 1.533-1.082 2.256-1.253l3.48-.823v-.004zM4.542 42.584c-.482.115-1.078-.133-1.33-.555 0 0-1.012-1.646-1.611-2.959-.598-1.307-1.178-3.144-1.178-3.144-.158-.466.045-1.073.448-1.36l3.275-2.329c.405-.283.679-.91.619-1.395 0 0-.181-1.243-.207-2.31a22.21 22.21 0 01.088-2.264c.035-.49-.273-1.098-.691-1.362L.556 22.758c-.416-.267-.65-.864-.52-1.338 0 0 .483-1.868 1.014-3.209.531-1.34 1.456-3.032 1.456-3.032.229-.43.809-.71 1.294-.618l3.955.728c.486.091 1.13-.149 1.442-.528 0 0 .826-1.058 1.635-1.867.902-.896 2.17-1.852 2.17-1.852.386-.303.632-.942.551-1.428l-.664-3.948c-.081-.487.207-1.061.65-1.278 0 0 1.714-.893 3.072-1.4 1.355-.508 3.23-.958 3.23-.958.479-.118 1.073.122 1.333.546l2.103 3.414c.258.42.868.735 1.357.707 0 0 1.08-.084 2.064-.053 1.014.035 2.145.2 2.145.2.489.061 1.116-.21 1.406-.613l2.338-3.261c.289-.403.9-.604 1.368-.448 0 0 1.846.577 3.165 1.178 1.318.595 2.965 1.603 2.965 1.603.422.249.672.84.556 1.32l-.833 3.463c-.176.718-.739 1.723-1.261 2.245l-8.66 8.648c-3.059-1.68-6.98-1.23-9.574 1.355a7.988 7.988 0 00-1.359 9.534l-8.672 8.638c-.528.521-1.535 1.085-2.256 1.253l-3.486.823.002.002z" fill-rule="nonzero"/><path d="M79.496 15.616h-3.528c-1.232 0-1.904.672-1.904 1.904v21.728c0 1.232.672 1.904 1.904 1.904h3.528v7.616h-5.544c-4.704 0-7.952-3.248-7.952-7.952V15.952C66 11.248 69.248 8 73.952 8h5.544v7.616zM81.176 8h5.544c4.704 0 7.952 3.248 7.952 7.952v6.496h-8.064V17.52c0-1.232-.672-1.904-1.904-1.904h-3.528V8zm0 33.152h3.528c1.232 0 1.904-.672 1.904-1.904V34.32h8.064v6.496c0 4.704-3.248 7.952-7.952 7.952h-5.544v-7.616zM101.84 8.224h8.064v40.32h-8.064V8.224zm24.976 32.704v7.616h-15.232v-7.616h15.232zm2.576 7.616l12.992-40.32h.392l3.472 11.928-8.512 28.392h-8.344zm26.712 0l-2.632-9.072h-11.48l2.24-7.616h7.056l-6.832-23.632h7.336l12.992 40.32h-8.68zm27.944-7.392h3.416c1.232 0 1.904-.672 1.904-1.904v-4.256c0-1.232-.672-1.624-1.904-1.904l-10.416-2.24c-4.368-.952-8.064-3.584-8.064-8.064v-6.832c0-4.704 3.248-7.952 7.952-7.952h5.432v7.616h-3.416c-1.232 0-1.904.672-1.904 1.904v3.808c0 1.232.672 1.624 1.904 1.904l10.416 2.24c4.368.952 8.064 3.584 8.064 8.064v7.28c0 4.704-3.248 7.952-7.952 7.952h-5.432v-7.616zm0-33.152h4.76c4.704 0 7.952 3.248 7.952 7.952v4.704h-7.84V17.52c0-1.232-.672-1.904-1.904-1.904h-2.968V8zm-1.68 40.768h-5.432c-4.704 0-7.952-3.248-7.952-7.952v-5.152h7.84v3.584c0 1.232.672 1.904 1.904 1.904h3.64v7.616zm36.68-7.616h3.416c1.232 0 1.904-.672 1.904-1.904v-4.256c0-1.232-.672-1.624-1.904-1.904l-10.416-2.24c-4.368-.952-8.064-3.584-8.064-8.064v-6.832c0-4.704 3.248-7.952 7.952-7.952h5.432v7.616h-3.416c-1.232 0-1.904.672-1.904 1.904v3.808c0 1.232.672 1.624 1.904 1.904l10.416 2.24c4.368.952 8.064 3.584 8.064 8.064v7.28c0 4.704-3.248 7.952-7.952 7.952h-5.432v-7.616zm0-33.152h4.76c4.704 0 7.952 3.248 7.952 7.952v4.704h-7.84V17.52c0-1.232-.672-1.904-1.904-1.904h-2.968V8zm-1.68 40.768h-5.432c-4.704 0-7.952-3.248-7.952-7.952v-5.152h7.84v3.584c0 1.232.672 1.904 1.904 1.904h3.64v7.616z"/></g></svg>