<svg height="32" width="32" xmlns="http://www.w3.org/2000/svg"><g fill="none"><path d="M6.813 20.18a3.337 3.337 0 01-3.33 3.33 3.337 3.337 0 01-3.328-3.33 3.337 3.337 0 013.329-3.328h3.329zm1.677 0a3.337 3.337 0 013.33-3.328 3.337 3.337 0 013.328 3.329v8.335a3.337 3.337 0 01-3.329 3.33 3.337 3.337 0 01-3.329-3.33z" fill="#97a4a4"/><path d="M11.82 6.813a3.337 3.337 0 01-3.33-3.33A3.337 3.337 0 0111.82.156a3.337 3.337 0 013.328 3.329v3.329zm0 1.677a3.337 3.337 0 013.328 3.33 3.337 3.337 0 01-3.329 3.328H3.484a3.337 3.337 0 01-3.33-3.329 3.337 3.337 0 013.33-3.329z" fill="#b6c8c8"/><path d="M25.187 11.82a3.337 3.337 0 013.33-3.33 3.337 3.337 0 013.328 3.33 3.337 3.337 0 01-3.329 3.328h-3.329zm-1.677 0a3.337 3.337 0 01-3.33 3.328 3.337 3.337 0 01-3.328-3.329V3.484A3.337 3.337 0 0120.18.154a3.337 3.337 0 013.329 3.33z" fill="#abbbbb"/><path d="M20.18 25.187a3.337 3.337 0 013.33 3.33 3.337 3.337 0 01-3.33 3.328 3.337 3.337 0 01-3.328-3.329v-3.329zm0-1.677a3.337 3.337 0 01-3.328-3.33 3.337 3.337 0 013.329-3.328h8.335a3.337 3.337 0 013.33 3.329 3.337 3.337 0 01-3.33 3.329z" fill="#b7c7c7"/></g></svg>